<svg width="1140" height="375" viewBox="0 0 1140 375" fill="none" xmlns="http://www.w3.org/2000/svg">
<g clip-path="url(#clip0_2015_1990)">
<path d="M605.764 256.744H593.474L583.521 296.361H605.764H627.974L618.054 256.744H605.764Z" stroke="black" stroke-width="0.641487" stroke-linecap="round" stroke-linejoin="round"/>
<path d="M638.306 245.5V235.031H605.764H573.223V245.5H605.764H638.306Z" fill="black" fill-opacity="0.4" stroke="black" stroke-width="0.641487" stroke-linecap="round" stroke-linejoin="round"/>
<path d="M638.305 235.032H641.654V230.184H638.305H605.764H573.222H569.873V235.032H573.222H605.764H638.305Z" fill="black" fill-opacity="0.4" stroke="black" stroke-width="0.641487" stroke-linecap="round" stroke-linejoin="round"/>
<path d="M667.53 315.671V301.676H605.764H543.998V315.671H605.764H667.53Z" fill="black" fill-opacity="0.4" stroke="black" stroke-width="0.641487" stroke-linecap="round" stroke-linejoin="round"/>
<path d="M667.53 301.677H670.247V296.359H662.317H627.975H605.764H583.522H549.18H541.281V301.677H543.998H605.764H667.53Z" fill="black" fill-opacity="0.4" stroke="black" stroke-width="0.641487" stroke-linecap="round" stroke-linejoin="round"/>
<path d="M593.474 256.742H618.054L627.974 296.359H655.998L638.306 245.502H605.764H573.222L555.498 296.359H583.522L593.474 256.742Z" fill="black" fill-opacity="0.4" stroke="black" stroke-width="0.641487" stroke-linecap="round" stroke-linejoin="round"/>
<path fill-rule="evenodd" clip-rule="evenodd" d="M667.53 315.672L707.527 376.64H504L543.998 315.672H605.764H667.53ZM605.764 330.549C605.764 330.549 549.18 332.009 549.18 376.64H662.349C662.349 332.009 605.764 330.549 605.764 330.549Z" fill="black" fill-opacity="0.4"/>
<path d="M638.368 230.185C615.968 221.48 614.957 61.6064 614.957 57.832C613.839 58.4424 612.548 58.7669 611.229 58.7687H600.455C599.137 58.7669 597.845 58.4424 596.727 57.832C596.727 61.6064 595.716 221.48 573.316 230.185H638.368Z" fill="black" fill-opacity="0.4" stroke="black" stroke-width="0.641487" stroke-linecap="round" stroke-linejoin="round"/>
<path d="M618.148 44.2793V41.9651C618.155 40.4516 617.509 38.9913 616.338 37.8737C615.168 36.7561 613.559 36.0629 611.83 35.9316H605.858H599.887C598.158 36.0629 596.549 36.7561 595.378 37.8737C594.208 38.9913 593.562 40.4516 593.568 41.9651V44.2793H618.338H618.148Z" fill="black" fill-opacity="0.4" stroke="black" stroke-width="0.641487" stroke-linecap="round" stroke-linejoin="round"/>
<path d="M605.763 58.766H611.166C612.485 58.7642 613.776 58.4397 614.894 57.8293C615.876 57.2723 616.68 56.5079 617.232 55.6072C617.785 54.7066 618.067 53.6988 618.053 52.6775V50.3633H593.284V52.6775C593.27 53.6988 593.552 54.7066 594.104 55.6072C594.657 56.5079 595.461 57.2723 596.443 57.8293C597.561 58.4397 598.852 58.7642 600.171 58.766H605.763Z" fill="black" fill-opacity="0.4" stroke="black" stroke-width="0.641487" stroke-linecap="round" stroke-linejoin="round"/>
<path d="M618.148 50.3637H619.696V44.3027H618.148H605.763H593.379H591.799V50.3637H593.379H605.763H618.148Z" fill="black" fill-opacity="0.4" stroke="black" stroke-width="0.641487" stroke-linecap="round" stroke-linejoin="round"/>
<path d="M611.735 36.0109H611.956C607.375 32.0162 605.637 -3 605.637 -3C605.637 -3 604.026 32.0162 599.318 36.0109H599.539H605.511H611.735Z" fill="black" fill-opacity="0.4" stroke="black" stroke-width="0.641487" stroke-linecap="round" stroke-linejoin="round"/>
<path d="M605.762 315.672L598.369 331.265L589.618 315.672L583.52 334.626L574.737 315.672L563.995 334.626L556.981 315.672L546.239 334.626L543.996 315.672" stroke="black" stroke-width="0.641487" stroke-linecap="round" stroke-linejoin="round"/>
<path d="M531.551 334.625H583.523" stroke="black" stroke-width="0.641487" stroke-linecap="round" stroke-linejoin="round"/>
<path d="M528.518 339.254H572.401" stroke="black" stroke-width="0.641487" stroke-linecap="round" stroke-linejoin="round"/>
<path d="M565.292 343.745L562.448 339.254L546.019 353.608L539.006 339.254L519.102 353.608H555.814" stroke="black" stroke-width="0.641487" stroke-linecap="round" stroke-linejoin="round"/>
<path d="M519.101 376.639L515.879 358.539H531.549H552.559L536.826 376.639L531.549 358.539L519.101 376.639Z" stroke="black" stroke-width="0.641487" stroke-linecap="round" stroke-linejoin="round"/>
<path d="M605.762 315.672L613.155 331.265L621.875 315.672L627.972 334.626L636.787 315.672L647.529 334.626L654.511 315.672L665.253 334.626L667.528 315.672" stroke="black" stroke-width="0.641487" stroke-linecap="round" stroke-linejoin="round"/>
<path d="M679.978 334.625H627.975" stroke="black" stroke-width="0.641487" stroke-linecap="round" stroke-linejoin="round"/>
<path d="M683.011 339.254H639.096" stroke="black" stroke-width="0.641487" stroke-linecap="round" stroke-linejoin="round"/>
<path d="M646.236 343.745L649.048 339.254L665.477 353.608L672.491 339.254L692.395 353.608H655.714" stroke="black" stroke-width="0.641487" stroke-linecap="round" stroke-linejoin="round"/>
<path d="M692.393 376.639L695.647 358.539H679.977H658.967L674.669 376.639L679.977 358.539L692.393 376.639Z" stroke="black" stroke-width="0.641487" stroke-linecap="round" stroke-linejoin="round"/>
<path d="M605.764 301.674V315.669" stroke="black" stroke-width="0.641487" stroke-linecap="round" stroke-linejoin="round"/>
<path d="M597.043 301.674V315.669" stroke="black" stroke-width="0.641487" stroke-linecap="round" stroke-linejoin="round"/>
<path d="M588.355 301.674V315.669" stroke="black" stroke-width="0.641487" stroke-linecap="round" stroke-linejoin="round"/>
<path d="M579.637 301.674V315.669" stroke="black" stroke-width="0.641487" stroke-linecap="round" stroke-linejoin="round"/>
<path d="M570.947 301.674V315.669" stroke="black" stroke-width="0.641487" stroke-linecap="round" stroke-linejoin="round"/>
<path d="M562.227 301.674V315.669" stroke="black" stroke-width="0.641487" stroke-linecap="round" stroke-linejoin="round"/>
<path d="M553.539 301.674V315.669" stroke="black" stroke-width="0.641487" stroke-linecap="round" stroke-linejoin="round"/>
<path d="M614.451 301.674V315.669" stroke="black" stroke-width="0.641487" stroke-linecap="round" stroke-linejoin="round"/>
<path d="M623.172 301.674V315.669" stroke="black" stroke-width="0.641487" stroke-linecap="round" stroke-linejoin="round"/>
<path d="M631.859 301.674V315.669" stroke="black" stroke-width="0.641487" stroke-linecap="round" stroke-linejoin="round"/>
<path d="M640.58 301.674V315.669" stroke="black" stroke-width="0.641487" stroke-linecap="round" stroke-linejoin="round"/>
<path d="M649.268 301.674V315.669" stroke="black" stroke-width="0.641487" stroke-linecap="round" stroke-linejoin="round"/>
<path d="M657.988 301.674V315.669" stroke="black" stroke-width="0.641487" stroke-linecap="round" stroke-linejoin="round"/>
<path d="M605.762 245.524V235.027" stroke="black" stroke-width="0.641487" stroke-linecap="round" stroke-linejoin="round"/>
<path d="M597.043 235.027V245.524" stroke="black" stroke-width="0.641487" stroke-linecap="round" stroke-linejoin="round"/>
<path d="M588.355 235.027V245.524" stroke="black" stroke-width="0.641487" stroke-linecap="round" stroke-linejoin="round"/>
<path d="M579.637 235.027V245.524" stroke="black" stroke-width="0.641487" stroke-linecap="round" stroke-linejoin="round"/>
<path d="M614.453 235.027V245.524" stroke="black" stroke-width="0.641487" stroke-linecap="round" stroke-linejoin="round"/>
<path d="M623.172 235.027V245.524" stroke="black" stroke-width="0.641487" stroke-linecap="round" stroke-linejoin="round"/>
<path d="M631.859 235.027V245.524" stroke="black" stroke-width="0.641487" stroke-linecap="round" stroke-linejoin="round"/>
<path d="M555.498 296.355L586.27 285.473L563.049 274.673L590.409 268.915L568.641 258.639L593.474 256.738" stroke="black" stroke-width="0.641487" stroke-linecap="round" stroke-linejoin="round"/>
<path d="M573.223 245.502L581.69 257.652L589.083 245.502L597.044 256.742L605.764 245.502" stroke="black" stroke-width="0.641487" stroke-linecap="round" stroke-linejoin="round"/>
<path d="M605.762 245.524V235.027" stroke="black" stroke-width="0.641487" stroke-linecap="round" stroke-linejoin="round"/>
<path d="M655.999 296.355L625.258 285.473L648.479 274.673L621.088 268.915L642.887 258.639L618.055 256.738" stroke="black" stroke-width="0.641487" stroke-linecap="round" stroke-linejoin="round"/>
<path d="M638.303 245.502L629.836 257.652L622.443 245.502L614.45 256.742L605.762 245.502" stroke="black" stroke-width="0.641487" stroke-linecap="round" stroke-linejoin="round"/>
<path d="M596.633 57.8301L605.763 75.0489L614.894 57.8301" stroke="black" stroke-width="0.641487" stroke-linecap="round" stroke-linejoin="round"/>
<path d="M614.894 92.2971L605.763 75.0508L596.633 92.2971" stroke="black" stroke-width="0.641487" stroke-linecap="round" stroke-linejoin="round"/>
<path d="M596.633 75.0508H614.862" stroke="black" stroke-width="0.641487" stroke-linecap="round" stroke-linejoin="round"/>
<path d="M596.633 92.2949H614.862" stroke="black" stroke-width="0.641487" stroke-linecap="round" stroke-linejoin="round"/>
<path d="M596.633 92.2949L605.763 109.541L614.894 92.2949" stroke="black" stroke-width="0.641487" stroke-linecap="round" stroke-linejoin="round"/>
<path d="M614.894 126.762L605.763 109.543L596.633 126.762" stroke="black" stroke-width="0.641487" stroke-linecap="round" stroke-linejoin="round"/>
<path d="M596.633 109.543H614.862" stroke="black" stroke-width="0.641487" stroke-linecap="round" stroke-linejoin="round"/>
<path d="M596.633 126.758H614.862" stroke="black" stroke-width="0.641487" stroke-linecap="round" stroke-linejoin="round"/>
<path d="M596.633 126.758L605.763 144.004L614.894 126.758" stroke="black" stroke-width="0.641487" stroke-linecap="round" stroke-linejoin="round"/>
<path d="M614.894 161.225L605.763 144.006L596.633 161.225" stroke="black" stroke-width="0.641487" stroke-linecap="round" stroke-linejoin="round"/>
<path d="M593.348 144.006H618.054" stroke="black" stroke-width="0.641487" stroke-linecap="round" stroke-linejoin="round"/>
<path d="M591.801 161.227H619.698" stroke="black" stroke-width="0.641487" stroke-linecap="round" stroke-linejoin="round"/>
<path d="M596.633 161.227L605.763 178.473L614.894 161.227" stroke="black" stroke-width="0.641487" stroke-linecap="round" stroke-linejoin="round"/>
<path d="M614.894 195.719L605.763 178.473L596.633 195.719" stroke="black" stroke-width="0.641487" stroke-linecap="round" stroke-linejoin="round"/>
<path d="M596.286 195.717L589.24 182.41" stroke="black" stroke-width="0.641487" stroke-linecap="round" stroke-linejoin="round"/>
<path d="M615.242 195.717L622.256 182.41" stroke="black" stroke-width="0.641487" stroke-linecap="round" stroke-linejoin="round"/>
<path d="M596.285 230.183L586.207 212.469" stroke="black" stroke-width="0.641487" stroke-linecap="round" stroke-linejoin="round"/>
<path d="M615.242 230.184L624.373 212.938" stroke="black" stroke-width="0.641487" stroke-linecap="round" stroke-linejoin="round"/>
<path d="M615.242 195.719L625.068 212.938" stroke="black" stroke-width="0.641487" stroke-linecap="round" stroke-linejoin="round"/>
<path d="M596.285 195.719L586.207 212.938" stroke="black" stroke-width="0.641487" stroke-linecap="round" stroke-linejoin="round"/>
<path d="M589.777 178.473H621.75" stroke="black" stroke-width="0.641487" stroke-linecap="round" stroke-linejoin="round"/>
<path d="M587.154 195.719H624.372" stroke="black" stroke-width="0.641487" stroke-linecap="round" stroke-linejoin="round"/>
<path d="M596.633 195.719L605.763 212.938L614.894 195.719" stroke="black" stroke-width="0.641487" stroke-linecap="round" stroke-linejoin="round"/>
<path d="M614.894 230.184L605.763 212.938L596.633 230.184" stroke="black" stroke-width="0.641487" stroke-linecap="round" stroke-linejoin="round"/>
<path d="M583.521 212.938H627.974" stroke="black" stroke-width="0.641487" stroke-linecap="round" stroke-linejoin="round"/>
<path d="M596.633 230.184H614.862" stroke="black" stroke-width="0.641487" stroke-linecap="round" stroke-linejoin="round"/>
<path d="M792.327 268.24H878.057V255.369H792.327H706.598V268.24H792.327Z" fill="black" fill-opacity="0.4" stroke="black" stroke-width="0.641487" stroke-linecap="round" stroke-linejoin="round"/>
<path d="M757.986 376.715V357.191H706.598V376.715" fill="black" fill-opacity="0.4"/>
<path d="M757.986 376.715V357.191H706.598V376.715" stroke="black" stroke-width="0.641487" stroke-linecap="round" stroke-linejoin="round"/>
<path d="M766.136 303.732H706.598V312.162H766.136V303.732Z" fill="black" fill-opacity="0.4" stroke="black" stroke-width="0.641487" stroke-linecap="round" stroke-linejoin="round"/>
<path d="M757.986 312.162H706.598V357.19H757.986V312.162Z" fill="black" fill-opacity="0.4" stroke="black" stroke-width="0.641487" stroke-linecap="round" stroke-linejoin="round"/>
<path d="M766.137 312.162H757.986V376.713H766.137V312.162Z" fill="black" fill-opacity="0.4" stroke="black" stroke-width="0.641487" stroke-linecap="round" stroke-linejoin="round"/>
<path d="M749.463 278.445H715.121V295.759H749.463V278.445Z" stroke="black" stroke-width="0.641487" stroke-linecap="round" stroke-linejoin="round"/>
<path d="M826.668 376.715V357.191H878.056V376.715" fill="black" fill-opacity="0.4"/>
<path d="M826.668 376.715V357.191H878.056V376.715" stroke="black" stroke-width="0.641487" stroke-linecap="round" stroke-linejoin="round"/>
<path d="M818.518 312.162H878.057V303.733H818.518V312.162Z" fill="black" fill-opacity="0.4" stroke="black" stroke-width="0.641487" stroke-linecap="round" stroke-linejoin="round"/>
<path d="M826.668 357.213H878.057V312.185H826.668V357.213Z" fill="black" fill-opacity="0.4" stroke="black" stroke-width="0.641487" stroke-linecap="round" stroke-linejoin="round"/>
<path d="M818.517 376.736H826.668V312.185H818.517V376.736Z" fill="black" fill-opacity="0.4" stroke="black" stroke-width="0.641487" stroke-linecap="round" stroke-linejoin="round"/>
<path d="M818.543 376.712V302.409C818.543 296.346 815.781 290.532 810.864 286.245C805.948 281.957 799.28 279.549 792.327 279.549C785.385 279.56 778.732 281.975 773.83 286.261C768.929 290.548 766.179 296.356 766.186 302.409V376.712" stroke="black" stroke-width="0.641487" stroke-linecap="round" stroke-linejoin="round"/>
<path fill-rule="evenodd" clip-rule="evenodd" d="M878.46 303.493V268H792.73H707V303.493H878.46ZM749.865 278.205H715.523V295.518H749.865V278.205ZM869.936 295.52H835.594V278.206H869.936V295.52Z" fill="black" fill-opacity="0.4"/>
<path d="M878.46 268H878.78C878.78 267.823 878.637 267.679 878.46 267.679V268ZM878.46 303.493V303.814C878.637 303.814 878.78 303.671 878.78 303.493H878.46ZM707 268V267.679C706.823 267.679 706.679 267.823 706.679 268H707ZM707 303.493H706.679C706.679 303.671 706.823 303.814 707 303.814V303.493ZM715.523 278.205V277.884C715.346 277.884 715.203 278.028 715.203 278.205H715.523ZM749.865 278.205H750.186C750.186 278.028 750.042 277.884 749.865 277.884V278.205ZM715.523 295.518H715.203C715.203 295.696 715.346 295.839 715.523 295.839V295.518ZM749.865 295.518V295.839C750.042 295.839 750.186 295.696 750.186 295.518H749.865ZM835.594 295.52H835.273C835.273 295.697 835.417 295.84 835.594 295.84V295.52ZM869.936 295.52V295.84C870.113 295.84 870.256 295.697 870.256 295.52H869.936ZM835.594 278.206V277.885C835.417 277.885 835.273 278.029 835.273 278.206H835.594ZM869.936 278.206H870.256C870.256 278.029 870.113 277.885 869.936 277.885V278.206ZM707 303.173C706.823 303.173 706.679 303.316 706.679 303.493C706.679 303.671 706.823 303.814 707 303.814V303.173ZM878.46 303.814C878.637 303.814 878.78 303.671 878.78 303.493C878.78 303.316 878.637 303.173 878.46 303.173V303.814ZM878.139 268V303.493H878.78V268H878.139ZM792.73 268.321H878.46V267.679H792.73V268.321ZM707 268.321H792.73V267.679H707V268.321ZM707.321 303.493V268H706.679V303.493H707.321ZM878.46 303.173H707V303.814H878.46V303.173ZM715.523 278.526H749.865V277.884H715.523V278.526ZM715.844 295.518V278.205H715.203V295.518H715.844ZM749.865 295.198H715.523V295.839H749.865V295.198ZM749.544 278.205V295.518H750.186V278.205H749.544ZM835.594 295.84H869.936V295.199H835.594V295.84ZM835.273 278.206V295.52H835.915V278.206H835.273ZM869.936 277.885H835.594V278.527H869.936V277.885ZM870.256 295.52V278.206H869.615V295.52H870.256ZM707 303.814H878.46V303.173H707V303.814Z" fill="black"/>
<path d="M826.683 303.835V304.155C826.86 304.155 827.004 304.012 827.004 303.835H826.683ZM826.683 273H827.004C827.004 272.823 826.86 272.679 826.683 272.679V273ZM818.557 303.835H818.236C818.236 304.012 818.379 304.155 818.557 304.155V303.835ZM810.878 286.344L810.667 286.586L810.667 286.586L810.878 286.344ZM792.341 279.648V279.328L792.34 279.328L792.341 279.648ZM773.844 286.361L773.633 286.119L773.844 286.361ZM766.199 302.509L766.52 302.509L766.52 302.509L766.199 302.509ZM766.199 303.835V304.155C766.376 304.155 766.52 304.012 766.52 303.835H766.199ZM758 303.835H757.679C757.679 304.012 757.823 304.155 758 304.155V303.835ZM758 273V272.679C757.823 272.679 757.679 272.823 757.679 273H758ZM758 303.514C757.823 303.514 757.679 303.657 757.679 303.835C757.679 304.012 757.823 304.155 758 304.155V303.514ZM766.199 304.155C766.376 304.155 766.52 304.012 766.52 303.835C766.52 303.657 766.376 303.514 766.199 303.514V304.155ZM818.557 303.514C818.379 303.514 818.236 303.657 818.236 303.835C818.236 304.012 818.379 304.155 818.557 304.155V303.514ZM826.683 304.155C826.86 304.155 827.004 304.012 827.004 303.835C827.004 303.657 826.86 303.514 826.683 303.514V304.155ZM827.004 303.835V273H826.363V303.835H827.004ZM818.557 304.155H826.683V303.514H818.557V304.155ZM818.877 303.835V302.509H818.236V303.835H818.877ZM818.877 302.509C818.877 296.346 816.069 290.445 811.089 286.102L810.667 286.586C815.52 290.817 818.236 296.546 818.236 302.509H818.877ZM811.089 286.102C806.11 281.761 799.365 279.328 792.341 279.328V279.969C799.222 279.969 805.813 282.353 810.667 286.586L811.089 286.102ZM792.34 279.328C785.326 279.339 778.597 281.778 773.633 286.119L774.055 286.602C778.895 282.37 785.471 279.981 792.341 279.969L792.34 279.328ZM773.633 286.119C768.667 290.462 765.872 296.356 765.878 302.509L766.52 302.509C766.513 296.555 769.217 290.833 774.055 286.602L773.633 286.119ZM765.878 302.509V303.835H766.52V302.509H765.878ZM758 304.155H766.199V303.514H758V304.155ZM757.679 273V303.835H758.321V273H757.679ZM792.342 272.679H758V273.321H792.342V272.679ZM826.683 272.679H792.342V273.321H826.683V272.679ZM758 304.155H766.199V303.514H758V304.155ZM818.557 304.155H826.683V303.514H818.557V304.155Z" fill="black"/>
<path d="M818.357 376.163V301.861C818.357 295.798 815.595 289.983 810.679 285.696C805.762 281.409 799.094 279 792.141 279C785.199 279.011 778.547 281.426 773.645 285.712C768.743 289.999 765.993 295.807 766 301.861V376.163" fill="#2B59C9"/>
<path d="M818.357 376.163V301.861C818.357 295.798 815.595 289.983 810.679 285.696C805.762 281.409 799.094 279 792.141 279C785.199 279.011 778.547 281.426 773.645 285.712C768.743 289.999 765.993 295.807 766 301.861V376.163" stroke="black" stroke-width="0.641487" stroke-linecap="round" stroke-linejoin="round"/>
<path d="M835.192 295.76H869.533V278.446H835.192V295.76Z" stroke="black" stroke-width="0.641487" stroke-linecap="round" stroke-linejoin="round"/>
<path d="M796.402 272.939H788.252V279.548H796.402V272.939Z" stroke="black" stroke-width="0.641487" stroke-linecap="round" stroke-linejoin="round"/>
<path d="M882.654 247.287H702V255.37H882.654V247.287Z" fill="black" fill-opacity="0.4" stroke="black" stroke-width="0.641487" stroke-linecap="round" stroke-linejoin="round"/>
<path d="M877.784 225.033H706.871V229.54H877.784V225.033Z" fill="black" fill-opacity="0.4" stroke="black" stroke-width="0.641487" stroke-linecap="round" stroke-linejoin="round"/>
<path d="M797.844 229.539H786.811V247.286H797.844V229.539Z" stroke="black" stroke-width="0.641487" stroke-linecap="round" stroke-linejoin="round"/>
<path d="M780.002 247.287H786.836V229.54H780.002V247.287Z" fill="black" fill-opacity="0.4" stroke="black" stroke-width="0.641487" stroke-linecap="round" stroke-linejoin="round"/>
<path d="M779.976 229.539H768.943V247.286H779.976V229.539Z" stroke="black" stroke-width="0.641487" stroke-linecap="round" stroke-linejoin="round"/>
<path d="M762.11 247.287H768.943V229.54H762.11V247.287Z" fill="black" fill-opacity="0.4" stroke="black" stroke-width="0.641487" stroke-linecap="round" stroke-linejoin="round"/>
<path d="M762.135 229.539H751.102V247.286H762.135V229.539Z" stroke="black" stroke-width="0.641487" stroke-linecap="round" stroke-linejoin="round"/>
<path d="M744.268 247.287H751.102V229.54H744.268V247.287Z" fill="black" fill-opacity="0.4" stroke="black" stroke-width="0.641487" stroke-linecap="round" stroke-linejoin="round"/>
<path d="M744.269 229.539H733.236V247.286H744.269V229.539Z" stroke="black" stroke-width="0.641487" stroke-linecap="round" stroke-linejoin="round"/>
<path d="M726.403 247.287H733.236V229.54H726.403V247.287Z" fill="black" fill-opacity="0.4" stroke="black" stroke-width="0.641487" stroke-linecap="round" stroke-linejoin="round"/>
<path d="M726.428 229.539H715.395V247.286H726.428V229.539Z" stroke="black" stroke-width="0.641487" stroke-linecap="round" stroke-linejoin="round"/>
<path d="M708.561 247.287H715.395V229.54H708.561V247.287Z" fill="black" fill-opacity="0.4" stroke="black" stroke-width="0.641487" stroke-linecap="round" stroke-linejoin="round"/>
<path d="M804.677 229.539H797.844V247.286H804.677V229.539Z" fill="black" fill-opacity="0.4" stroke="black" stroke-width="0.641487" stroke-linecap="round" stroke-linejoin="round"/>
<path d="M804.652 247.287H815.686V229.54H804.652V247.287Z" stroke="black" stroke-width="0.641487" stroke-linecap="round" stroke-linejoin="round"/>
<path d="M822.519 229.539H815.686V247.286H822.519V229.539Z" fill="black" fill-opacity="0.4" stroke="black" stroke-width="0.641487" stroke-linecap="round" stroke-linejoin="round"/>
<path d="M822.52 247.287H833.553V229.54H822.52V247.287Z" stroke="black" stroke-width="0.641487" stroke-linecap="round" stroke-linejoin="round"/>
<path d="M840.386 229.539H833.553V247.286H840.386V229.539Z" fill="black" fill-opacity="0.4" stroke="black" stroke-width="0.641487" stroke-linecap="round" stroke-linejoin="round"/>
<path d="M840.385 247.287H851.418V229.54H840.385V247.287Z" stroke="black" stroke-width="0.641487" stroke-linecap="round" stroke-linejoin="round"/>
<path d="M858.252 229.539H851.418V247.286H858.252V229.539Z" fill="black" fill-opacity="0.4" stroke="black" stroke-width="0.641487" stroke-linecap="round" stroke-linejoin="round"/>
<path d="M858.227 247.287H869.26V229.54H858.227V247.287Z" stroke="black" stroke-width="0.641487" stroke-linecap="round" stroke-linejoin="round"/>
<path d="M876.093 229.539H869.26V247.286H876.093V229.539Z" fill="black" fill-opacity="0.4" stroke="black" stroke-width="0.641487" stroke-linecap="round" stroke-linejoin="round"/>
<path d="M710.151 221.002C709.895 221.002 709.641 221.046 709.404 221.133C709.167 221.219 708.952 221.345 708.772 221.505C708.592 221.664 708.449 221.853 708.353 222.06C708.257 222.268 708.21 222.49 708.213 222.714V225.054H712.114V222.714C712.114 222.26 711.908 221.824 711.539 221.503C711.171 221.182 710.672 221.002 710.151 221.002Z" fill="black" fill-opacity="0.4" stroke="black" stroke-width="0.641487" stroke-linecap="round" stroke-linejoin="round"/>
<path d="M716.09 222.236C715.732 222.242 715.391 222.37 715.14 222.593C714.889 222.816 714.748 223.116 714.748 223.428V225.053H717.457V223.428C717.457 223.112 717.313 222.809 717.056 222.585C716.8 222.362 716.452 222.236 716.09 222.236Z" fill="black" fill-opacity="0.4" stroke="black" stroke-width="0.641487" stroke-linecap="round" stroke-linejoin="round"/>
<path d="M721.904 221.002C721.384 221.002 720.885 221.183 720.516 221.504C720.148 221.825 719.941 222.26 719.941 222.714V225.054H723.942V222.714C723.946 222.483 723.895 222.253 723.793 222.04C723.691 221.826 723.54 221.633 723.349 221.473C723.158 221.313 722.931 221.188 722.683 221.107C722.434 221.026 722.169 220.99 721.904 221.002Z" fill="black" fill-opacity="0.4" stroke="black" stroke-width="0.641487" stroke-linecap="round" stroke-linejoin="round"/>
<path d="M727.843 222.236C727.481 222.236 727.133 222.362 726.877 222.585C726.621 222.809 726.477 223.112 726.477 223.428V225.053H729.185V223.428C729.185 223.116 729.045 222.816 728.794 222.593C728.543 222.37 728.201 222.242 727.843 222.236Z" fill="black" fill-opacity="0.4" stroke="black" stroke-width="0.641487" stroke-linecap="round" stroke-linejoin="round"/>
<path d="M733.634 221.004C733.377 221.004 733.123 221.048 732.886 221.135C732.649 221.221 732.435 221.347 732.254 221.507C732.074 221.666 731.932 221.855 731.836 222.062C731.74 222.27 731.692 222.492 731.695 222.716V225.056H735.597V222.716C735.597 222.262 735.39 221.826 735.022 221.505C734.654 221.184 734.154 221.004 733.634 221.004Z" fill="black" fill-opacity="0.4" stroke="black" stroke-width="0.641487" stroke-linecap="round" stroke-linejoin="round"/>
<path d="M739.572 222.236C739.214 222.242 738.873 222.37 738.622 222.593C738.371 222.816 738.23 223.116 738.23 223.428V225.053H740.939V223.428C740.939 223.112 740.795 222.809 740.539 222.585C740.282 222.362 739.935 222.236 739.572 222.236Z" fill="black" fill-opacity="0.4" stroke="black" stroke-width="0.641487" stroke-linecap="round" stroke-linejoin="round"/>
<path d="M745.387 221.004C744.866 221.004 744.367 221.184 743.999 221.505C743.631 221.826 743.424 222.262 743.424 222.716V225.056H747.325V222.716C747.328 222.492 747.281 222.27 747.185 222.062C747.089 221.855 746.947 221.666 746.766 221.507C746.586 221.347 746.371 221.221 746.134 221.135C745.898 221.048 745.644 221.004 745.387 221.004Z" fill="black" fill-opacity="0.4" stroke="black" stroke-width="0.641487" stroke-linecap="round" stroke-linejoin="round"/>
<path d="M751.277 222.236C750.914 222.236 750.567 222.362 750.31 222.585C750.054 222.809 749.91 223.112 749.91 223.428V225.053H752.619V223.428C752.619 223.116 752.478 222.816 752.227 222.593C751.976 222.37 751.635 222.242 751.277 222.236Z" fill="black" fill-opacity="0.4" stroke="black" stroke-width="0.641487" stroke-linecap="round" stroke-linejoin="round"/>
<path d="M757.116 221.004C756.859 221.004 756.605 221.048 756.369 221.135C756.132 221.221 755.917 221.347 755.737 221.507C755.556 221.666 755.414 221.855 755.318 222.062C755.222 222.27 755.175 222.492 755.178 222.716V225.056H759.054V222.716C759.058 222.492 759.01 222.27 758.914 222.062C758.818 221.855 758.676 221.666 758.496 221.507C758.315 221.347 758.1 221.221 757.864 221.135C757.627 221.048 757.373 221.004 757.116 221.004Z" fill="black" fill-opacity="0.4" stroke="black" stroke-width="0.641487" stroke-linecap="round" stroke-linejoin="round"/>
<path d="M763.055 222.236C762.697 222.242 762.355 222.37 762.104 222.593C761.853 222.816 761.713 223.116 761.713 223.428V225.053H764.397V223.428C764.397 223.116 764.256 222.816 764.005 222.593C763.754 222.37 763.413 222.242 763.055 222.236Z" fill="black" fill-opacity="0.4" stroke="black" stroke-width="0.641487" stroke-linecap="round" stroke-linejoin="round"/>
<path d="M768.845 221.004C768.588 221.004 768.334 221.048 768.097 221.135C767.86 221.221 767.646 221.347 767.465 221.507C767.285 221.666 767.143 221.855 767.047 222.062C766.951 222.27 766.903 222.492 766.906 222.716V225.056H770.808V222.716C770.808 222.262 770.601 221.826 770.233 221.505C769.865 221.184 769.365 221.004 768.845 221.004Z" fill="black" fill-opacity="0.4" stroke="black" stroke-width="0.641487" stroke-linecap="round" stroke-linejoin="round"/>
<path d="M774.783 222.236C774.425 222.242 774.084 222.37 773.833 222.593C773.582 222.816 773.441 223.116 773.441 223.428V225.053H776.125V223.428C776.125 223.116 775.985 222.816 775.734 222.593C775.483 222.37 775.141 222.242 774.783 222.236Z" fill="black" fill-opacity="0.4" stroke="black" stroke-width="0.641487" stroke-linecap="round" stroke-linejoin="round"/>
<path d="M780.598 221.004C780.077 221.004 779.578 221.184 779.21 221.505C778.842 221.826 778.635 222.262 778.635 222.716V225.056H782.536V222.716C782.539 222.492 782.492 222.27 782.396 222.062C782.3 221.855 782.158 221.666 781.977 221.507C781.797 221.347 781.582 221.221 781.345 221.135C781.109 221.048 780.854 221.004 780.598 221.004Z" fill="black" fill-opacity="0.4" stroke="black" stroke-width="0.641487" stroke-linecap="round" stroke-linejoin="round"/>
<path d="M786.539 222.236C786.176 222.236 785.828 222.362 785.572 222.585C785.316 222.809 785.172 223.112 785.172 223.428V225.053H787.88V223.428C787.88 223.116 787.74 222.816 787.489 222.593C787.238 222.37 786.897 222.242 786.539 222.236Z" fill="black" fill-opacity="0.4" stroke="black" stroke-width="0.641487" stroke-linecap="round" stroke-linejoin="round"/>
<path d="M792.327 221.004C792.07 221.004 791.816 221.048 791.58 221.135C791.343 221.221 791.128 221.347 790.948 221.507C790.767 221.666 790.625 221.855 790.529 222.062C790.433 222.27 790.386 222.492 790.389 222.716V225.056H794.29V222.716C794.29 222.262 794.083 221.826 793.715 221.505C793.347 221.184 792.848 221.004 792.327 221.004Z" fill="black" fill-opacity="0.4" stroke="black" stroke-width="0.641487" stroke-linecap="round" stroke-linejoin="round"/>
<path d="M798.268 222.236C797.91 222.242 797.568 222.37 797.317 222.593C797.066 222.816 796.926 223.116 796.926 223.428V225.053H799.634V223.428C799.634 223.112 799.49 222.809 799.234 222.585C798.978 222.362 798.63 222.236 798.268 222.236Z" fill="black" fill-opacity="0.4" stroke="black" stroke-width="0.641487" stroke-linecap="round" stroke-linejoin="round"/>
<path d="M804.08 221.004C803.56 221.004 803.06 221.184 802.692 221.505C802.324 221.826 802.117 222.262 802.117 222.716V225.056H805.944V222.716C805.951 222.275 805.76 221.849 805.412 221.529C805.063 221.209 804.586 221.021 804.08 221.004Z" fill="black" fill-opacity="0.4" stroke="black" stroke-width="0.641487" stroke-linecap="round" stroke-linejoin="round"/>
<path d="M810.021 222.236C809.659 222.236 809.311 222.362 809.055 222.585C808.798 222.809 808.654 223.112 808.654 223.428V225.053H811.363V223.428C811.363 223.116 811.222 222.816 810.971 222.593C810.72 222.37 810.379 222.242 810.021 222.236Z" fill="black" fill-opacity="0.4" stroke="black" stroke-width="0.641487" stroke-linecap="round" stroke-linejoin="round"/>
<path d="M815.884 221.004C815.627 221.004 815.373 221.048 815.136 221.135C814.899 221.221 814.685 221.347 814.504 221.507C814.324 221.666 814.182 221.855 814.086 222.062C813.99 222.27 813.942 222.492 813.945 222.716V225.056H817.822V222.716C817.825 222.492 817.778 222.27 817.682 222.062C817.586 221.855 817.443 221.666 817.263 221.507C817.083 221.347 816.868 221.221 816.631 221.135C816.394 221.048 816.14 221.004 815.884 221.004Z" fill="black" fill-opacity="0.4" stroke="black" stroke-width="0.641487" stroke-linecap="round" stroke-linejoin="round"/>
<path d="M821.748 222.236C821.39 222.242 821.049 222.37 820.798 222.593C820.547 222.816 820.406 223.116 820.406 223.428V225.053H823.09V223.428C823.09 223.116 822.949 222.816 822.698 222.593C822.448 222.37 822.106 222.242 821.748 222.236Z" fill="black" fill-opacity="0.4" stroke="black" stroke-width="0.641487" stroke-linecap="round" stroke-linejoin="round"/>
<path d="M827.538 221.004C827.281 221.004 827.027 221.048 826.791 221.135C826.554 221.221 826.339 221.347 826.159 221.507C825.978 221.666 825.836 221.855 825.74 222.062C825.644 222.27 825.596 222.492 825.6 222.716V225.056H829.501V222.716C829.501 222.262 829.294 221.826 828.926 221.505C828.558 221.184 828.059 221.004 827.538 221.004Z" fill="black" fill-opacity="0.4" stroke="black" stroke-width="0.641487" stroke-linecap="round" stroke-linejoin="round"/>
<path d="M833.479 222.236C833.121 222.242 832.779 222.37 832.528 222.593C832.277 222.816 832.137 223.116 832.137 223.428V225.053H834.845V223.428C834.845 223.112 834.701 222.809 834.445 222.585C834.189 222.362 833.841 222.236 833.479 222.236Z" fill="black" fill-opacity="0.4" stroke="black" stroke-width="0.641487" stroke-linecap="round" stroke-linejoin="round"/>
<path d="M839.293 221.004C838.772 221.004 838.273 221.184 837.905 221.505C837.537 221.826 837.33 222.262 837.33 222.716V225.056H841.231V222.716C841.235 222.492 841.187 222.27 841.091 222.062C840.995 221.855 840.853 221.666 840.673 221.507C840.492 221.347 840.277 221.221 840.041 221.135C839.804 221.048 839.55 221.004 839.293 221.004Z" fill="black" fill-opacity="0.4" stroke="black" stroke-width="0.641487" stroke-linecap="round" stroke-linejoin="round"/>
<path d="M845.232 222.236C844.869 222.236 844.522 222.362 844.265 222.585C844.009 222.809 843.865 223.112 843.865 223.428V225.053H846.574V223.428C846.574 223.116 846.433 222.816 846.182 222.593C845.931 222.37 845.59 222.242 845.232 222.236Z" fill="black" fill-opacity="0.4" stroke="black" stroke-width="0.641487" stroke-linecap="round" stroke-linejoin="round"/>
<path d="M851.021 221.004C850.764 221.004 850.51 221.048 850.273 221.135C850.036 221.221 849.821 221.347 849.641 221.507C849.461 221.666 849.319 221.855 849.223 222.062C849.127 222.27 849.079 222.492 849.082 222.716V225.056H852.984V222.716C852.984 222.262 852.777 221.826 852.409 221.505C852.04 221.184 851.541 221.004 851.021 221.004Z" fill="black" fill-opacity="0.4" stroke="black" stroke-width="0.641487" stroke-linecap="round" stroke-linejoin="round"/>
<path d="M856.961 222.236C856.603 222.242 856.262 222.37 856.011 222.593C855.76 222.816 855.619 223.116 855.619 223.428V225.053H858.328V223.428C858.328 223.112 858.184 222.809 857.927 222.585C857.671 222.362 857.324 222.236 856.961 222.236Z" fill="black" fill-opacity="0.4" stroke="black" stroke-width="0.641487" stroke-linecap="round" stroke-linejoin="round"/>
<path d="M862.776 221.004C862.255 221.004 861.756 221.184 861.387 221.505C861.019 221.826 860.813 222.262 860.812 222.716V225.056H864.714V222.716C864.717 222.492 864.669 222.27 864.573 222.062C864.477 221.855 864.335 221.666 864.155 221.507C863.975 221.347 863.76 221.221 863.523 221.135C863.286 221.048 863.032 221.004 862.776 221.004Z" fill="black" fill-opacity="0.4" stroke="black" stroke-width="0.641487" stroke-linecap="round" stroke-linejoin="round"/>
<path d="M868.714 222.236C868.352 222.236 868.004 222.362 867.748 222.585C867.492 222.809 867.348 223.112 867.348 223.428V225.053H870.056V223.428C870.056 223.116 869.916 222.816 869.665 222.593C869.414 222.37 869.072 222.242 868.714 222.236Z" fill="black" fill-opacity="0.4" stroke="black" stroke-width="0.641487" stroke-linecap="round" stroke-linejoin="round"/>
<path d="M874.505 221.004C874.248 221.004 873.994 221.048 873.757 221.135C873.521 221.221 873.306 221.347 873.125 221.507C872.945 221.666 872.803 221.855 872.707 222.062C872.611 222.27 872.563 222.492 872.567 222.716V225.056H876.443V222.716C876.446 222.492 876.399 222.27 876.303 222.062C876.207 221.855 876.064 221.666 875.884 221.507C875.704 221.347 875.489 221.221 875.252 221.135C875.016 221.048 874.762 221.004 874.505 221.004Z" fill="black" fill-opacity="0.4" stroke="black" stroke-width="0.641487" stroke-linecap="round" stroke-linejoin="round"/>
<path d="M892 376.639V364.158H935.362V376.639" fill="black" fill-opacity="0.4"/>
<path d="M892 376.639V364.158H935.362V376.639" stroke="black" stroke-width="0.641487" stroke-linecap="round" stroke-linejoin="round"/>
<path d="M894.385 364.158H932.951V354.862H894.385V364.158Z" fill="black" fill-opacity="0.4" stroke="black" stroke-width="0.641487" stroke-linecap="round" stroke-linejoin="round"/>
<path d="M897.615 308.252H929.745L932.976 354.861H894.385L897.615 308.252Z" fill="black" fill-opacity="0.4" stroke="black" stroke-width="0.641487" stroke-linecap="round" stroke-linejoin="round"/>
<path d="M897.516 308.249H929.745L932.876 299.604H894.484L897.516 308.249Z" fill="black" fill-opacity="0.4" stroke="black" stroke-width="0.641487" stroke-linecap="round" stroke-linejoin="round"/>
<path d="M897.516 299.127H929.844L921.893 105.387H905.467L897.516 299.127Z" fill="black" fill-opacity="0.4" stroke="black" stroke-width="0.641487" stroke-linecap="round" stroke-linejoin="round"/>
<path d="M921.894 105.389L913.694 78L905.469 105.389" fill="black" fill-opacity="0.4"/>
<path d="M921.894 105.389L913.694 78L905.469 105.389" stroke="black" stroke-width="0.641487" stroke-linecap="round" stroke-linejoin="round"/>
<path d="M1130 330V292H1085V330" fill="black" fill-opacity="0.4"/>
<path d="M1130 330V292H1085V330" stroke="black" stroke-width="0.641487" stroke-linecap="round" stroke-linejoin="round"/>
<path d="M1048 330V292H1029V330" fill="black" fill-opacity="0.4"/>
<path d="M1048 330V292H1029V330" stroke="black" stroke-width="0.641487" stroke-linecap="round" stroke-linejoin="round"/>
<path d="M1048 377V339H1029V377" fill="black" fill-opacity="0.4"/>
<path d="M1048 377V339H1029V377" stroke="black" stroke-width="0.641487" stroke-linecap="round" stroke-linejoin="round"/>
<path d="M1130 377V339H1085V377" fill="black" fill-opacity="0.4"/>
<path d="M1130 377V339H1085V377" stroke="black" stroke-width="0.641487" stroke-linecap="round" stroke-linejoin="round"/>
<path d="M998.487 338.691H992.35V376.568H998.487V338.691Z" fill="black" fill-opacity="0.4" stroke="black" stroke-width="0.641487" stroke-linecap="round" stroke-linejoin="round"/>
<path d="M998.487 291.889H992.35V329.766H998.487V291.889Z" fill="black" fill-opacity="0.4" stroke="black" stroke-width="0.641487" stroke-linecap="round" stroke-linejoin="round"/>
<path d="M1013.67 329.744H947V338.672H1013.67V329.744Z" fill="black" fill-opacity="0.4" stroke="black" stroke-width="0.641487" stroke-linecap="round" stroke-linejoin="round"/>
<path d="M1013.67 282.939H947V291.867H1013.67V282.939Z" fill="black" fill-opacity="0.4" stroke="black" stroke-width="0.641487" stroke-linecap="round" stroke-linejoin="round"/>
<path d="M947 330V292H992V330" fill="black" fill-opacity="0.4"/>
<path d="M947 330V292H992V330" stroke="black" stroke-width="0.641487" stroke-linecap="round" stroke-linejoin="round"/>
<path d="M999 330V292H1014V330" fill="black" fill-opacity="0.4"/>
<path d="M999 330V292H1014V330" stroke="black" stroke-width="0.641487" stroke-linecap="round" stroke-linejoin="round"/>
<path d="M999 377V339H1014V377" fill="black" fill-opacity="0.4"/>
<path d="M999 377V339H1014V377" stroke="black" stroke-width="0.641487" stroke-linecap="round" stroke-linejoin="round"/>
<path d="M1063 377V339H1078V377" fill="black" fill-opacity="0.4"/>
<path d="M1063 377V339H1078V377" stroke="black" stroke-width="0.641487" stroke-linecap="round" stroke-linejoin="round"/>
<path d="M1063 330V292H1078V330" fill="black" fill-opacity="0.4"/>
<path d="M1063 330V292H1078V330" stroke="black" stroke-width="0.641487" stroke-linecap="round" stroke-linejoin="round"/>
<path d="M1053 330V292H1057V330" fill="black" fill-opacity="0.4"/>
<path d="M1053 330V292H1057V330" stroke="black" stroke-width="0.641487" stroke-linecap="round" stroke-linejoin="round"/>
<path d="M1020 330V292H1023V330" fill="black" fill-opacity="0.4"/>
<path d="M1020 330V292H1023V330" stroke="black" stroke-width="0.641487" stroke-linecap="round" stroke-linejoin="round"/>
<path d="M1020 377V339H1023V377" fill="black" fill-opacity="0.4"/>
<path d="M1020 377V339H1023V377" stroke="black" stroke-width="0.641487" stroke-linecap="round" stroke-linejoin="round"/>
<path d="M1054 377V339H1057V377" fill="black" fill-opacity="0.4"/>
<path d="M1054 377V339H1057V377" stroke="black" stroke-width="0.641487" stroke-linecap="round" stroke-linejoin="round"/>
<path d="M947 377V339H992V377" fill="black" fill-opacity="0.4"/>
<path d="M947 377V339H992V377" stroke="black" stroke-width="0.641487" stroke-linecap="round" stroke-linejoin="round"/>
<path d="M1013.87 338.691H1063.05V329.764H1013.87V338.691Z" fill="black" fill-opacity="0.4" stroke="black" stroke-width="0.641487" stroke-linecap="round" stroke-linejoin="round"/>
<path d="M1056.88 376.545H1063.02V338.668H1056.88V376.545Z" fill="black" fill-opacity="0.4" stroke="black" stroke-width="0.641487" stroke-linecap="round" stroke-linejoin="round"/>
<path d="M1063.25 338.691H1129.92V329.764H1063.25V338.691Z" fill="black" fill-opacity="0.4" stroke="black" stroke-width="0.641487" stroke-linecap="round" stroke-linejoin="round"/>
<path d="M1078.4 376.545H1084.54V338.668H1078.4V376.545Z" fill="black" fill-opacity="0.4" stroke="black" stroke-width="0.641487" stroke-linecap="round" stroke-linejoin="round"/>
<path d="M1013.65 329.744H992.35V338.672H1013.65V329.744Z" stroke="black" stroke-width="0.641487" stroke-linecap="round" stroke-linejoin="round"/>
<path d="M1047.49 376.545H1053.63V338.668H1047.49V376.545Z" fill="black" fill-opacity="0.4" stroke="black" stroke-width="0.641487" stroke-linecap="round" stroke-linejoin="round"/>
<path d="M1020.01 338.691H1013.87V376.568H1020.01V338.691Z" fill="black" fill-opacity="0.4" stroke="black" stroke-width="0.641487" stroke-linecap="round" stroke-linejoin="round"/>
<path d="M1029.42 338.691H1023.29V376.568H1029.42V338.691Z" fill="black" fill-opacity="0.4" stroke="black" stroke-width="0.641487" stroke-linecap="round" stroke-linejoin="round"/>
<path d="M1013.87 291.865H1063.05V282.938H1013.87V291.865Z" fill="black" fill-opacity="0.4" stroke="black" stroke-width="0.641487" stroke-linecap="round" stroke-linejoin="round"/>
<path d="M1056.88 329.744H1063.02V291.867H1056.88V329.744Z" fill="black" fill-opacity="0.4" stroke="black" stroke-width="0.641487" stroke-linecap="round" stroke-linejoin="round"/>
<path d="M1063.25 291.865H1129.92V282.938H1063.25V291.865Z" fill="black" fill-opacity="0.4" stroke="black" stroke-width="0.641487" stroke-linecap="round" stroke-linejoin="round"/>
<path d="M1078.4 329.744H1084.54V291.867H1078.4V329.744Z" fill="black" fill-opacity="0.4" stroke="black" stroke-width="0.641487" stroke-linecap="round" stroke-linejoin="round"/>
<path d="M1013.65 282.939H992.35V291.867H1013.65V282.939Z" stroke="black" stroke-width="0.641487" stroke-linecap="round" stroke-linejoin="round"/>
<path d="M1047.49 329.744H1053.63V291.867H1047.49V329.744Z" fill="black" fill-opacity="0.4" stroke="black" stroke-width="0.641487" stroke-linecap="round" stroke-linejoin="round"/>
<path d="M1020.01 291.889H1013.87V329.766H1020.01V291.889Z" fill="black" fill-opacity="0.4" stroke="black" stroke-width="0.641487" stroke-linecap="round" stroke-linejoin="round"/>
<path d="M1029.42 291.889H1023.29V329.766H1029.42V291.889Z" fill="black" fill-opacity="0.4" stroke="black" stroke-width="0.641487" stroke-linecap="round" stroke-linejoin="round"/>
<path d="M1063.25 282.939L1038.45 272.949L1013.67 282.939" fill="black" fill-opacity="0.4"/>
<path d="M1063.25 282.939L1038.45 272.949L1013.67 282.939" stroke="black" stroke-width="0.641487" stroke-linecap="round" stroke-linejoin="round"/>
<path d="M1029.67 329.581V308.866C1029.67 306.78 1030.62 304.779 1032.31 303.304C1034 301.829 1036.3 301 1038.69 301C1041.08 301 1043.37 301.829 1045.07 303.304C1046.76 304.779 1047.71 306.78 1047.71 308.866V329.581" fill="#2B59C9"/>
<path d="M1029.67 329.581V308.866C1029.67 306.78 1030.62 304.779 1032.31 303.304C1034 301.829 1036.3 301 1038.69 301C1041.08 301 1043.37 301.829 1045.07 303.304C1046.76 304.779 1047.71 306.78 1047.71 308.866V329.581" stroke="black" stroke-width="0.641487" stroke-linecap="round" stroke-linejoin="round"/>
<path d="M1098.67 329.657V308.942C1098.67 306.856 1099.62 304.855 1101.31 303.38C1103 301.905 1105.3 301.076 1107.69 301.076C1110.08 301.076 1112.37 301.905 1114.07 303.38C1115.76 304.855 1116.71 306.856 1116.71 308.942V329.657" fill="#2B59C9"/>
<path d="M1098.67 329.657V308.942C1098.67 306.856 1099.62 304.855 1101.31 303.38C1103 301.905 1105.3 301.076 1107.69 301.076C1110.08 301.076 1112.37 301.905 1114.07 303.38C1115.76 304.855 1116.71 306.856 1116.71 308.942V329.657" stroke="black" stroke-width="0.641487" stroke-linecap="round" stroke-linejoin="round"/>
<path d="M1098.67 376.657V355.942C1098.67 353.856 1099.62 351.855 1101.31 350.38C1103 348.905 1105.3 348.076 1107.69 348.076C1110.08 348.076 1112.37 348.905 1114.07 350.38C1115.76 351.855 1116.71 353.856 1116.71 355.942V376.657" fill="#2B59C9"/>
<path d="M1098.67 376.657V355.942C1098.67 353.856 1099.62 351.855 1101.31 350.38C1103 348.905 1105.3 348.076 1107.69 348.076C1110.08 348.076 1112.37 348.905 1114.07 350.38C1115.76 351.855 1116.71 353.856 1116.71 355.942V376.657" stroke="black" stroke-width="0.641487" stroke-linecap="round" stroke-linejoin="round"/>
<path d="M1029.67 376.581V355.866C1029.67 353.78 1030.62 351.779 1032.31 350.304C1034 348.829 1036.3 348 1038.69 348C1041.08 348 1043.37 348.829 1045.07 350.304C1046.76 351.779 1047.71 353.78 1047.71 355.866V376.581" fill="#2B59C9"/>
<path d="M1029.67 376.581V355.866C1029.67 353.78 1030.62 351.779 1032.31 350.304C1034 348.829 1036.3 348 1038.69 348C1041.08 348 1043.37 348.829 1045.07 350.304C1046.76 351.779 1047.71 353.78 1047.71 355.866V376.581" stroke="black" stroke-width="0.641487" stroke-linecap="round" stroke-linejoin="round"/>
<path d="M988.473 253.664H1088.44V247.77H988.473V253.664Z" fill="black" fill-opacity="0.4" stroke="black" stroke-width="0.641487" stroke-linecap="round" stroke-linejoin="round"/>
<path d="M993.17 247.77H1083.72V241.876H993.17V247.77Z" fill="black" fill-opacity="0.4" stroke="black" stroke-width="0.641487" stroke-linecap="round" stroke-linejoin="round"/>
<path d="M993.17 241.854H1083.72V226.317H993.17V241.854Z" fill="black" fill-opacity="0.4" stroke="black" stroke-width="0.641487" stroke-linecap="round" stroke-linejoin="round"/>
<path d="M1077.61 282.939H1084.57V253.643H1077.61V282.939Z" fill="black" fill-opacity="0.4" stroke="black" stroke-width="0.641487" stroke-linecap="round" stroke-linejoin="round"/>
<path d="M1056.29 253.641H1063.24V282.937L1056.29 279.99V253.641Z" fill="black" fill-opacity="0.4" stroke="black" stroke-width="0.641487" stroke-linecap="round" stroke-linejoin="round"/>
<path d="M999.307 253.641H992.35V282.937H999.307V253.641Z" fill="black" fill-opacity="0.4" stroke="black" stroke-width="0.641487" stroke-linecap="round" stroke-linejoin="round"/>
<path d="M1020.63 253.641H1013.67V282.937L1020.63 280.142V253.641Z" fill="black" fill-opacity="0.4" stroke="black" stroke-width="0.641487" stroke-linecap="round" stroke-linejoin="round"/>
<path d="M1034.97 274.399V253.641H1041.92V274.399" fill="black" fill-opacity="0.4"/>
<path d="M1034.97 274.399V253.641H1041.92V274.399" stroke="black" stroke-width="0.641487" stroke-linecap="round" stroke-linejoin="round"/>
<path d="M1049.11 231.477C1050.05 231.474 1050.98 231.633 1051.85 231.945C1052.72 232.258 1053.52 232.717 1054.18 233.297C1054.85 233.877 1055.38 234.565 1055.74 235.324C1056.1 236.083 1056.29 236.896 1056.29 237.717V241.856H1041.95V237.717C1041.95 236.062 1042.7 234.475 1044.05 233.304C1045.39 232.134 1047.21 231.477 1049.11 231.477Z" fill="#2B59C9" stroke="black" stroke-width="0.641487" stroke-linecap="round" stroke-linejoin="round"/>
<path d="M1070.43 231.477C1072.32 231.477 1074.14 232.134 1075.49 233.304C1076.83 234.475 1077.58 236.062 1077.58 237.717V241.856H1063.24V237.717C1063.24 236.896 1063.43 236.083 1063.79 235.324C1064.15 234.565 1064.68 233.877 1065.35 233.297C1066.02 232.717 1066.81 232.258 1067.68 231.945C1068.55 231.633 1069.48 231.474 1070.43 231.477Z" fill="#2B59C9" stroke="black" stroke-width="0.641487" stroke-linecap="round" stroke-linejoin="round"/>
<path d="M1027.81 231.477C1029.71 231.477 1031.53 232.134 1032.87 233.304C1034.21 234.475 1034.97 236.062 1034.97 237.717V241.856H1020.63V237.717C1020.64 236.06 1021.39 234.473 1022.74 233.303C1024.09 232.133 1025.91 231.477 1027.81 231.477Z" fill="#2B59C9" stroke="black" stroke-width="0.641487" stroke-linecap="round" stroke-linejoin="round"/>
<path d="M1006.51 231.477C1008.41 231.477 1010.23 232.134 1011.57 233.304C1012.92 234.475 1013.67 236.062 1013.67 237.717V241.856H999.332V237.717C999.332 236.896 999.518 236.083 999.879 235.324C1000.24 234.565 1000.77 233.877 1001.44 233.297C1002.1 232.717 1002.9 232.258 1003.77 231.945C1004.64 231.633 1005.57 231.474 1006.51 231.477Z" fill="#2B59C9" stroke="black" stroke-width="0.641487" stroke-linecap="round" stroke-linejoin="round"/>
<path d="M1083.5 226.5C1083.5 216 1078.97 208.059 1070.48 200.655C1061.99 193.251 1050.48 189.092 1038.47 189.092C1032.52 189.089 1026.63 190.108 1021.14 192.091C1015.65 194.074 1010.65 196.982 1006.45 200.649C1002.24 204.316 998.908 208.669 996.634 213.46C994.36 218.252 992.997 221.315 993 226.5" fill="black" fill-opacity="0.4"/>
<path d="M1083.5 226.5C1083.5 216 1078.97 208.059 1070.48 200.655C1061.99 193.251 1050.48 189.092 1038.47 189.092C1032.52 189.089 1026.63 190.108 1021.14 192.091C1015.65 194.074 1010.65 196.982 1006.45 200.649C1002.24 204.316 998.908 208.669 996.634 213.46C994.36 218.252 992.997 221.315 993 226.5" stroke="black" stroke-width="0.641487" stroke-linecap="round" stroke-linejoin="round"/>
<path d="M1051.69 190.804V183.133H1025.2V190.804" fill="black" fill-opacity="0.4" stroke="black" stroke-width="0.641487" stroke-linecap="round" stroke-linejoin="round"/>
<path d="M1023.88 183.133H1053.03V177.586H1023.88V183.133Z" fill="black" fill-opacity="0.4" stroke="black" stroke-width="0.641487" stroke-linecap="round" stroke-linejoin="round"/>
<path d="M1047.54 177.584H1051.69V165.97H1047.54V177.584Z" fill="black" fill-opacity="0.4" stroke="black" stroke-width="0.641487" stroke-linecap="round" stroke-linejoin="round"/>
<path d="M1036.38 177.584H1040.53V165.97H1036.38V177.584Z" fill="black" fill-opacity="0.4" stroke="black" stroke-width="0.641487" stroke-linecap="round" stroke-linejoin="round"/>
<path d="M1025.2 177.584H1029.35V165.97H1025.2V177.584Z" fill="black" fill-opacity="0.4" stroke="black" stroke-width="0.641487" stroke-linecap="round" stroke-linejoin="round"/>
<path d="M1038.45 130L1051.69 165.97H1025.2L1038.45 130Z" fill="black" fill-opacity="0.4" stroke="black" stroke-width="0.641487" stroke-linecap="round" stroke-linejoin="round"/>
<path d="M1047.22 153.791L1051.69 148.742V165.969" fill="black" fill-opacity="0.4"/>
<path d="M1047.22 153.791L1051.69 148.742V165.969" stroke="black" stroke-width="0.641487" stroke-linecap="round" stroke-linejoin="round"/>
<path d="M1029.7 153.791L1025.2 148.742V165.969" fill="black" fill-opacity="0.4"/>
<path d="M1029.7 153.791L1025.2 148.742V165.969" stroke="black" stroke-width="0.641487" stroke-linecap="round" stroke-linejoin="round"/>
<path d="M960.668 329.657V308.942C960.668 306.856 961.618 304.855 963.31 303.38C965.001 301.905 967.296 301.076 969.688 301.076C972.081 301.076 974.375 301.905 976.066 303.38C977.758 304.855 978.709 306.856 978.709 308.942V329.657" fill="#2B59C9"/>
<path d="M960.668 329.657V308.942C960.668 306.856 961.618 304.855 963.31 303.38C965.001 301.905 967.296 301.076 969.688 301.076C972.081 301.076 974.375 301.905 976.066 303.38C977.758 304.855 978.709 306.856 978.709 308.942V329.657" stroke="black" stroke-width="0.641487" stroke-linecap="round" stroke-linejoin="round"/>
<path d="M960.668 376.657V355.942C960.668 353.856 961.618 351.855 963.31 350.38C965.001 348.905 967.296 348.076 969.688 348.076C972.081 348.076 974.375 348.905 976.066 350.38C977.758 351.855 978.709 353.856 978.709 355.942V376.657" fill="#2B59C9"/>
<path d="M960.668 376.657V355.942C960.668 353.856 961.618 351.855 963.31 350.38C965.001 348.905 967.296 348.076 969.688 348.076C972.081 348.076 974.375 348.905 976.066 350.38C977.758 351.855 978.709 353.856 978.709 355.942V376.657" stroke="black" stroke-width="0.641487" stroke-linecap="round" stroke-linejoin="round"/>
<path d="M225.32 187.32L230.68 187.32V262.5V262.633L230.774 262.727L235.68 267.633V291.5V291.645L235.789 291.741L239.68 295.145V376.18H230H225.32V368.5V368.18H225H221.32V306.32H228H228.32V306V285.5V285.18H228H225.32V278.5V278.18H225H221.32V190.32H225H225.32V190V187.32Z" fill="black" fill-opacity="0.4" stroke="black" stroke-width="0.64"/>
<path d="M31 191H83V278.5H79.5V286H83H34.5V278.5H31V191Z" fill="black" fill-opacity="0.4"/>
<path d="M31 306.5L83.5 306L83 368.5H79.5V376H83H34.5V368.5H31V306.5Z" fill="black" fill-opacity="0.4"/>
<path d="M157 306.5L209.5 306L209 368.5H205.5V376H209H160.5V368.5H157V306.5Z" fill="black" fill-opacity="0.4"/>
<path d="M95 305.507L145 305L144.524 368.393H141.19V376H144.524H98.3333V368.393H95V305.507Z" fill="black" fill-opacity="0.4"/>
<path d="M157 191H209V278.5H205.5V286H209H160.5V278.5H157V191Z" fill="black" fill-opacity="0.4"/>
<path d="M95 191H145V278.5H141.635V286H145H98.3654V278.5H95V191Z" fill="black" fill-opacity="0.4"/>
<path d="M92.6132 101.305H21.5195V117.058H92.6132V101.305Z" fill="black" fill-opacity="0.4" stroke="black" stroke-width="0.641487" stroke-linecap="round" stroke-linejoin="round"/>
<path d="M79.5 117L34.5 116.357V124.357H31V183.5H34.5V190.999L79.5 190.5V183.301H83V124.5H79.5V117Z" fill="black" fill-opacity="0.4" stroke="black" stroke-width="0.641487" stroke-linecap="round" stroke-linejoin="round"/>
<path d="M46.369 125.055C42.7907 125.055 39.9082 132.054 39.9082 135.152V186.421H52.805V135.152C52.805 132.054 49.9224 125.055 46.369 125.055Z" fill="#2B59C9" stroke="black" stroke-width="0.641487" stroke-linecap="round" stroke-linejoin="round"/>
<path d="M67.7635 125.055C71.317 125.055 74.1995 132.054 74.1995 135.152V186.421H61.3027V135.152C61.3027 132.054 64.1852 125.055 67.7635 125.055Z" fill="#2B59C9" stroke="black" stroke-width="0.641487" stroke-linecap="round" stroke-linejoin="round"/>
<path d="M34.416 183.451H15.2324V190.689H34.416V183.451Z" fill="black" fill-opacity="0.4" stroke="black" stroke-width="0.641487" stroke-linecap="round" stroke-linejoin="round"/>
<path d="M34.416 117.057H15.2324V124.294H34.416V117.057Z" fill="black" fill-opacity="0.4" stroke="black" stroke-width="0.641487" stroke-linecap="round" stroke-linejoin="round"/>
<path d="M30.9868 124.295H18.6367V183.407H30.9868V124.295Z" fill="black" fill-opacity="0.4" stroke="black" stroke-width="0.641487" stroke-linecap="round" stroke-linejoin="round"/>
<path d="M34.416 278.555H15.2324V285.792H34.416V278.555Z" fill="black" fill-opacity="0.4" stroke="black" stroke-width="0.641487" stroke-linecap="round" stroke-linejoin="round"/>
<path d="M30.9868 190.688H18.6367V278.511H30.9868V190.688Z" fill="black" fill-opacity="0.4" stroke="black" stroke-width="0.641487" stroke-linecap="round" stroke-linejoin="round"/>
<path d="M34.416 368.893H15.2324V376.13H34.416V368.893Z" fill="black" fill-opacity="0.4" stroke="black" stroke-width="0.641487" stroke-linecap="round" stroke-linejoin="round"/>
<path d="M30.9868 306.031H18.6367V368.849H30.9868V306.031Z" fill="black" fill-opacity="0.4" stroke="black" stroke-width="0.641487" stroke-linecap="round" stroke-linejoin="round"/>
<path d="M98.875 368.893H79.6914V376.13H98.875V368.893Z" fill="black" fill-opacity="0.4" stroke="black" stroke-width="0.641487" stroke-linecap="round" stroke-linejoin="round"/>
<path d="M95.4712 306.031H83.1211V368.849H95.4712V306.031Z" fill="black" fill-opacity="0.4" stroke="black" stroke-width="0.641487" stroke-linecap="round" stroke-linejoin="round"/>
<path d="M98.875 278.555H79.6914V285.792H98.875V278.555Z" fill="black" fill-opacity="0.4" stroke="black" stroke-width="0.641487" stroke-linecap="round" stroke-linejoin="round"/>
<path d="M95.4712 190.688H83.1211V278.511H95.4712V190.688Z" fill="black" fill-opacity="0.4" stroke="black" stroke-width="0.641487" stroke-linecap="round" stroke-linejoin="round"/>
<path d="M98.875 183.451H79.6914V190.689H98.875V183.451Z" fill="black" fill-opacity="0.4" stroke="black" stroke-width="0.641487" stroke-linecap="round" stroke-linejoin="round"/>
<path d="M98.875 117.057H79.6914V124.294H98.875V117.057Z" fill="black" fill-opacity="0.4" stroke="black" stroke-width="0.641487" stroke-linecap="round" stroke-linejoin="round"/>
<path d="M95.4712 124.295H83.1211V183.407H95.4712V124.295Z" fill="black" fill-opacity="0.4" stroke="black" stroke-width="0.641487" stroke-linecap="round" stroke-linejoin="round"/>
<path d="M39.9095 95.6924L27.957 88V101.305H39.9095V95.6924Z" fill="black" fill-opacity="0.4" stroke="black" stroke-width="0.641487" stroke-linecap="round" stroke-linejoin="round"/>
<path d="M21.5195 109.17H92.5883" stroke="black" stroke-width="0.641487" stroke-linecap="round" stroke-linejoin="round"/>
<path d="M30.9863 229.367H83.12" stroke="black" stroke-width="0.641487" stroke-linecap="round" stroke-linejoin="round"/>
<path d="M14.68 187.32L9.32 187.32V262.5V262.633L9.22627 262.727L4.32 267.633V291.5V291.645L4.21072 291.741L0.32 295.145V376.18H10H14.68V368.5V368.18H15H18.68V306.32H12H11.68V306V285.5V285.18H12H14.68V278.5V278.18H15H18.68V190.32H15H14.68V190V187.32Z" fill="black" fill-opacity="0.4" stroke="black" stroke-width="0.64"/>
<path d="M30.8379 332.294L57.0538 309.455L83.1952 332.229" stroke="black" stroke-width="0.641487" stroke-linecap="round" stroke-linejoin="round"/>
<path d="M69.254 376.13H44.877V333.182C44.877 330.366 46.1598 327.666 48.4433 325.674C50.7267 323.683 53.8238 322.564 57.0531 322.564C58.6541 322.562 60.2401 322.834 61.7203 323.366C63.2004 323.899 64.5457 324.68 65.679 325.667C66.8123 326.653 67.7114 327.824 68.3248 329.114C68.9383 330.404 69.254 331.786 69.254 333.182V376.13Z" fill="#2B59C9" stroke="black" stroke-width="0.641487" stroke-linecap="round" stroke-linejoin="round"/>
<path d="M52.8064 285.728H39.4375V262.261C39.444 260.716 40.1504 259.237 41.4025 258.145C42.6547 257.053 44.3511 256.437 46.1219 256.432C47.8928 256.437 49.5892 257.053 50.8413 258.145C52.0935 259.237 52.7999 260.716 52.8064 262.261V285.728Z" fill="#2B59C9" stroke="black" stroke-width="0.641487" stroke-linecap="round" stroke-linejoin="round"/>
<path d="M74.6729 285.728H61.4531V262.261C61.4531 260.718 62.154 259.239 63.4022 258.147C64.6504 257.054 66.3442 256.437 68.1127 256.432C69.8855 256.432 71.5858 257.046 72.8393 258.139C74.0929 259.232 74.7972 260.715 74.7972 262.261L74.6729 285.728Z" fill="#2B59C9" stroke="black" stroke-width="0.641487" stroke-linecap="round" stroke-linejoin="round"/>
<path d="M44.0322 229.367H30.9863V205.835L37.4968 200.006L44.0322 205.835V229.367Z" fill="#2B59C9" stroke="black" stroke-width="0.641487" stroke-linecap="round" stroke-linejoin="round"/>
<path d="M57.0542 229.367H44.0332V205.835L50.5437 200.006L57.0542 205.835V229.367Z" fill="#2B59C9" stroke="black" stroke-width="0.641487" stroke-linecap="round" stroke-linejoin="round"/>
<path d="M107.721 217.081L95.4707 229.367V205.835L101.608 200.006L107.721 205.835V217.081Z" fill="#2B59C9" stroke="black" stroke-width="0.641487" stroke-linecap="round" stroke-linejoin="round"/>
<path d="M119.996 204.795L107.721 217.081V205.835L113.858 200.006L119.996 204.795Z" fill="#2B59C9" stroke="black" stroke-width="0.641487" stroke-linecap="round" stroke-linejoin="round"/>
<path d="M70.0757 229.367H57.0547V205.835L63.5652 200.006L70.0757 205.835V229.367Z" fill="#2B59C9" stroke="black" stroke-width="0.641487" stroke-linecap="round" stroke-linejoin="round"/>
<path d="M83.1201 229.367H70.0742V205.835L76.6096 200.006L83.1201 205.835V229.367Z" fill="#2B59C9" stroke="black" stroke-width="0.641487" stroke-linecap="round" stroke-linejoin="round"/>
<path d="M66.9438 246.724C66.9438 248.438 66.3609 250.114 65.2687 251.54C64.1765 252.965 62.6241 254.076 60.8079 254.732C58.9917 255.388 56.9931 255.56 55.065 255.225C53.1369 254.891 51.3658 254.065 49.9757 252.853C48.5856 251.641 47.639 250.096 47.2555 248.415C46.8719 246.734 47.0687 244.991 47.8211 243.407C48.5734 241.823 49.8474 240.47 51.4819 239.517C53.1165 238.565 55.0383 238.057 57.0042 238.057C59.6403 238.057 62.1685 238.97 64.0325 240.595C65.8966 242.221 66.9438 244.425 66.9438 246.724Z" fill="#2B59C9" stroke="black" stroke-width="0.641487" stroke-linecap="round" stroke-linejoin="round"/>
<path d="M127.427 260.395C127.427 261.681 126.99 262.938 126.171 264.007C125.352 265.076 124.187 265.909 122.825 266.401C121.463 266.893 119.964 267.022 118.518 266.771C117.072 266.52 115.744 265.901 114.701 264.992C113.658 264.083 112.948 262.924 112.661 261.663C112.373 260.402 112.521 259.095 113.085 257.907C113.649 256.72 114.605 255.704 115.831 254.99C117.057 254.276 118.498 253.895 119.972 253.895C121.949 253.895 123.846 254.579 125.244 255.799C126.642 257.018 127.427 258.671 127.427 260.395Z" fill="#2B59C9" stroke="black" stroke-width="0.641487" stroke-linecap="round" stroke-linejoin="round"/>
<path d="M119.996 280.723C132.869 280.723 143.305 271.623 143.305 260.398C143.305 249.172 132.869 240.072 119.996 240.072C107.123 240.072 96.6875 249.172 96.6875 260.398C96.6875 271.623 107.123 280.723 119.996 280.723Z" fill="#2B59C9" stroke="black" stroke-width="0.641487" stroke-linecap="round" stroke-linejoin="round"/>
<path d="M147.406 117.035L218.5 117.035V101.282H147.406V117.035Z" fill="black" fill-opacity="0.4" stroke="black" stroke-width="0.641487" stroke-linecap="round" stroke-linejoin="round"/>
<path d="M205.5 117L160.5 116.357V124.357H157V183.5H160.5V190.999L205.5 190.5V183.301H209V124.5H205.5V117Z" fill="black" fill-opacity="0.4" stroke="black" stroke-width="0.641487" stroke-linecap="round" stroke-linejoin="round"/>
<path d="M193.676 125.055C197.229 125.055 200.112 132.054 200.112 135.152V186.421H187.215V135.152C187.215 132.054 190.097 125.055 193.676 125.055Z" fill="#2B59C9" stroke="black" stroke-width="0.641487" stroke-linecap="round" stroke-linejoin="round"/>
<path d="M172.254 125.055C168.701 125.055 165.818 132.054 165.818 135.152V186.421H178.715V135.152C178.715 132.054 175.758 125.055 172.254 125.055Z" fill="#2B59C9" stroke="black" stroke-width="0.641487" stroke-linecap="round" stroke-linejoin="round"/>
<path d="M205.602 190.666H224.785V183.429H205.602V190.666Z" fill="black" fill-opacity="0.4" stroke="black" stroke-width="0.641487" stroke-linecap="round" stroke-linejoin="round"/>
<path d="M205.602 124.275H224.785V117.038H205.602V124.275Z" fill="black" fill-opacity="0.4" stroke="black" stroke-width="0.641487" stroke-linecap="round" stroke-linejoin="round"/>
<path d="M209.005 183.385H221.355V124.272H209.005V183.385Z" fill="black" fill-opacity="0.4" stroke="black" stroke-width="0.641487" stroke-linecap="round" stroke-linejoin="round"/>
<path d="M205.602 285.793H224.785V278.556H205.602V285.793Z" fill="black" fill-opacity="0.4" stroke="black" stroke-width="0.641487" stroke-linecap="round" stroke-linejoin="round"/>
<path d="M209.005 278.492H221.355V190.669H209.005V278.492Z" fill="black" fill-opacity="0.4" stroke="black" stroke-width="0.641487" stroke-linecap="round" stroke-linejoin="round"/>
<path d="M205.602 376.129H224.785V368.892H205.602V376.129Z" fill="black" fill-opacity="0.4" stroke="black" stroke-width="0.641487" stroke-linecap="round" stroke-linejoin="round"/>
<path d="M209.005 368.85H221.355V306.032H209.005V368.85Z" fill="black" fill-opacity="0.4" stroke="black" stroke-width="0.641487" stroke-linecap="round" stroke-linejoin="round"/>
<path d="M141.117 376.129H160.301V368.892H141.117V376.129Z" fill="black" fill-opacity="0.4" stroke="black" stroke-width="0.641487" stroke-linecap="round" stroke-linejoin="round"/>
<path d="M144.548 368.85H156.898V306.032H144.548V368.85Z" fill="black" fill-opacity="0.4" stroke="black" stroke-width="0.641487" stroke-linecap="round" stroke-linejoin="round"/>
<path d="M141.119 285.793H160.303V278.556H141.119V285.793Z" fill="black" fill-opacity="0.4" stroke="black" stroke-width="0.641487" stroke-linecap="round" stroke-linejoin="round"/>
<path d="M144.548 278.492H156.898V190.669H144.548V278.492Z" fill="black" fill-opacity="0.4" stroke="black" stroke-width="0.641487" stroke-linecap="round" stroke-linejoin="round"/>
<path d="M141.119 190.666H160.303V183.429H141.119V190.666Z" fill="black" fill-opacity="0.4" stroke="black" stroke-width="0.641487" stroke-linecap="round" stroke-linejoin="round"/>
<path d="M141.117 124.275H160.301V117.038H141.117V124.275Z" fill="black" fill-opacity="0.4" stroke="black" stroke-width="0.641487" stroke-linecap="round" stroke-linejoin="round"/>
<path d="M144.548 183.385H156.898V124.272H144.548V183.385Z" fill="black" fill-opacity="0.4" stroke="black" stroke-width="0.641487" stroke-linecap="round" stroke-linejoin="round"/>
<path d="M200.111 95.6924L212.064 88V101.305H200.111V95.6924Z" fill="black" fill-opacity="0.4" stroke="black" stroke-width="0.641487" stroke-linecap="round" stroke-linejoin="round"/>
<path d="M218.5 109.17H147.406" stroke="black" stroke-width="0.641487" stroke-linecap="round" stroke-linejoin="round"/>
<path d="M209.032 229.367H156.898" stroke="black" stroke-width="0.641487" stroke-linecap="round" stroke-linejoin="round"/>
<path d="M119.998 306.032H227.869V285.793H119.998H12.1523V306.032H119.998Z" fill="black" fill-opacity="0.4" stroke="black" stroke-width="0.641487" stroke-linecap="round" stroke-linejoin="round"/>
<path d="M209.182 332.294L182.966 309.455L156.824 332.229" stroke="black" stroke-width="0.641487" stroke-linecap="round" stroke-linejoin="round"/>
<path d="M170.789 376.13H195.141V333.182C195.141 330.366 193.858 327.666 191.575 325.674C189.292 323.683 186.194 322.564 182.965 322.564C179.736 322.564 176.639 323.683 174.355 325.674C172.072 327.666 170.789 330.366 170.789 333.182V376.13Z" fill="#2B59C9" stroke="black" stroke-width="0.641487" stroke-linecap="round" stroke-linejoin="round"/>
<path d="M144.548 330.842L119.997 309.455L95.4707 330.842" stroke="black" stroke-width="0.641487" stroke-linecap="round" stroke-linejoin="round"/>
<path d="M132.197 376.13V333.182C132.197 330.366 130.915 327.666 128.631 325.674C126.348 323.683 123.251 322.564 120.021 322.564C118.42 322.562 116.834 322.834 115.354 323.366C113.874 323.899 112.529 324.68 111.395 325.667C110.262 326.653 109.363 327.824 108.75 329.114C108.136 330.404 107.82 331.786 107.82 333.182V376.13" fill="#2B59C9"/>
<path d="M132.197 376.13V333.182C132.197 330.366 130.915 327.666 128.631 325.674C126.348 323.683 123.251 322.564 120.021 322.564C118.42 322.562 116.834 322.834 115.354 323.366C113.874 323.899 112.529 324.68 111.395 325.667C110.262 326.653 109.363 327.824 108.75 329.114C108.136 330.404 107.82 331.786 107.82 333.182V376.13" stroke="black" stroke-width="0.641487" stroke-linecap="round" stroke-linejoin="round"/>
<path d="M187.238 285.728H200.607V262.261C200.607 260.715 199.903 259.232 198.649 258.139C197.396 257.046 195.696 256.432 193.923 256.432C192.154 256.437 190.46 257.054 189.212 258.147C187.964 259.239 187.263 260.718 187.263 262.261L187.238 285.728Z" fill="#2B59C9" stroke="black" stroke-width="0.641487" stroke-linecap="round" stroke-linejoin="round"/>
<path d="M165.348 285.728H178.692V262.261C178.692 260.718 177.991 259.239 176.743 258.147C175.494 257.054 173.801 256.437 172.032 256.432C170.259 256.432 168.559 257.046 167.305 258.139C166.052 259.232 165.348 260.715 165.348 262.261V285.728Z" fill="#2B59C9" stroke="black" stroke-width="0.641487" stroke-linecap="round" stroke-linejoin="round"/>
<path d="M195.984 229.367H209.03V205.835L202.495 200.006L195.984 205.835V229.367Z" fill="#2B59C9" stroke="black" stroke-width="0.641487" stroke-linecap="round" stroke-linejoin="round"/>
<path d="M182.965 229.367H195.986V205.835L189.475 200.006L182.965 205.835V229.367Z" fill="#2B59C9" stroke="black" stroke-width="0.641487" stroke-linecap="round" stroke-linejoin="round"/>
<path d="M132.271 217.081L144.547 229.367V205.835L138.409 200.006L132.271 205.835V217.081Z" fill="#2B59C9" stroke="black" stroke-width="0.641487" stroke-linecap="round" stroke-linejoin="round"/>
<path d="M119.996 204.795L132.272 217.081V205.835L126.134 200.006L119.996 204.795Z" fill="#2B59C9" stroke="black" stroke-width="0.641487" stroke-linecap="round" stroke-linejoin="round"/>
<path d="M169.918 229.367H182.964V205.835L176.453 200.006L169.918 205.835V229.367Z" fill="#2B59C9" stroke="black" stroke-width="0.641487" stroke-linecap="round" stroke-linejoin="round"/>
<path d="M156.898 229.367H169.919V205.835L163.409 200.006L156.898 205.835V229.367Z" fill="#2B59C9" stroke="black" stroke-width="0.641487" stroke-linecap="round" stroke-linejoin="round"/>
<path d="M182.99 255.413C188.48 255.413 192.93 251.533 192.93 246.746C192.93 241.959 188.48 238.078 182.99 238.078C177.501 238.078 173.051 241.959 173.051 246.746C173.051 251.533 177.501 255.413 182.99 255.413Z" fill="#2B59C9" stroke="black" stroke-width="0.641487" stroke-linecap="round" stroke-linejoin="round"/>
<path d="M119.997 204.793L144.548 229.365H119.997H95.4707L119.997 204.793Z" stroke="black" stroke-width="0.641487" stroke-linecap="round" stroke-linejoin="round"/>
<path d="M144.548 190.688H119.997H95.4707" fill="#2B59C9"/>
<path d="M144.548 190.688H119.997H95.4707" stroke="black" stroke-width="0.641487" stroke-linecap="round" stroke-linejoin="round"/>
<path fill-rule="evenodd" clip-rule="evenodd" d="M390.094 277.053C390.148 277.018 390.21 277 390.272 277C390.346 276.999 390.421 277.025 390.481 277.077C390.483 277.079 390.485 277.08 390.487 277.082L503.558 379.135C503.609 379.013 503.58 378.867 503.476 378.773L390.487 277.082M502.506 379.049L404.046 378.692L390.705 278.143L502.506 379.049ZM403.399 378.691L390.02 277.86L231 378.691H403.399Z" fill="black" fill-opacity="0.4"/>
<path d="M383.514 281.59L388.807 379.013" stroke="black" stroke-width="0.641487" stroke-linecap="round" stroke-linejoin="round"/>
<path d="M373.672 287.83L378.617 379.012" stroke="black" stroke-width="0.641487" stroke-linecap="round" stroke-linejoin="round"/>
<path d="M363.832 294.092L368.429 379.012" stroke="black" stroke-width="0.641487" stroke-linecap="round" stroke-linejoin="round"/>
<path d="M353.992 300.332L358.266 379.011" stroke="black" stroke-width="0.641487" stroke-linecap="round" stroke-linejoin="round"/>
<path d="M344.102 306.141L348.077 379.013" stroke="black" stroke-width="0.641487" stroke-linecap="round" stroke-linejoin="round"/>
<path d="M334.287 312.814L337.89 379.013" stroke="black" stroke-width="0.641487" stroke-linecap="round" stroke-linejoin="round"/>
<path d="M324.447 319.053L327.703 379.01" stroke="black" stroke-width="0.641487" stroke-linecap="round" stroke-linejoin="round"/>
<path d="M314.605 325.316L317.513 379.012" stroke="black" stroke-width="0.641487" stroke-linecap="round" stroke-linejoin="round"/>
<path d="M304.742 331.557L307.326 379.011" stroke="black" stroke-width="0.641487" stroke-linecap="round" stroke-linejoin="round"/>
<path d="M294.875 337.799L297.136 379.013" stroke="black" stroke-width="0.641487" stroke-linecap="round" stroke-linejoin="round"/>
<path d="M285.061 344.039L286.949 379.012" stroke="black" stroke-width="0.641487" stroke-linecap="round" stroke-linejoin="round"/>
<path d="M275.221 350.277L276.786 379.01" stroke="black" stroke-width="0.641487" stroke-linecap="round" stroke-linejoin="round"/>
<path d="M265.379 356.521L266.597 379.014" stroke="black" stroke-width="0.641487" stroke-linecap="round" stroke-linejoin="round"/>
<path d="M255.514 362.762L256.408 379.013" stroke="black" stroke-width="0.641487" stroke-linecap="round" stroke-linejoin="round"/>
<path d="M245.674 369.023L246.221 379.013" stroke="black" stroke-width="0.641487" stroke-linecap="round" stroke-linejoin="round"/>
<path d="M240.381 379.013L391.29 285.035L493.073 379.013" stroke="black" stroke-width="0.641487" stroke-linecap="round" stroke-linejoin="round"/>
<path d="M258.1 379.013L392.683 295.588L481.519 379.013" stroke="black" stroke-width="0.641487" stroke-linecap="round" stroke-linejoin="round"/>
<path d="M276.785 379.013L394.098 306.141L470.236 379.013" stroke="black" stroke-width="0.641487" stroke-linecap="round" stroke-linejoin="round"/>
<path d="M294.229 379.013L395.489 316.693L460.544 379.013" stroke="black" stroke-width="0.641487" stroke-linecap="round" stroke-linejoin="round"/>
<path d="M332.051 379.013L398.299 337.82L438.778 379.013" stroke="black" stroke-width="0.641487" stroke-linecap="round" stroke-linejoin="round"/>
<path d="M350.24 379.015L399.69 348.354L429.087 379.015" stroke="black" stroke-width="0.641487" stroke-linecap="round" stroke-linejoin="round"/>
<path d="M368.43 379.013L401.082 358.904L420.414 379.013" stroke="black" stroke-width="0.641487" stroke-linecap="round" stroke-linejoin="round"/>
<path d="M387.066 379.013L402.473 369.457L410.723 379.013" stroke="black" stroke-width="0.641487" stroke-linecap="round" stroke-linejoin="round"/>
<path d="M398.846 285.035L408.363 379.013" stroke="black" stroke-width="0.641487" stroke-linecap="round" stroke-linejoin="round"/>
<path d="M407.295 292.664L414.65 379.014" stroke="black" stroke-width="0.641487" stroke-linecap="round" stroke-linejoin="round"/>
<path d="M418.277 302.543L424.092 379.012" stroke="black" stroke-width="0.641487" stroke-linecap="round" stroke-linejoin="round"/>
<path d="M429.086 312.25L433.012 379.011" stroke="black" stroke-width="0.641487" stroke-linecap="round" stroke-linejoin="round"/>
<path d="M437.883 320.18L440.616 379.01" stroke="black" stroke-width="0.641487" stroke-linecap="round" stroke-linejoin="round"/>
<path d="M447.947 329.24L448.742 379.013L396.882 327.246L313.389 379.013" stroke="black" stroke-width="0.641487" stroke-linecap="round" stroke-linejoin="round"/>
<path d="M457.463 337.799V379.013" stroke="black" stroke-width="0.641487" stroke-linecap="round" stroke-linejoin="round"/>
<path d="M467.826 347.115V379.012" stroke="black" stroke-width="0.641487" stroke-linecap="round" stroke-linejoin="round"/>
<path d="M478.262 356.521V379.014" stroke="black" stroke-width="0.641487" stroke-linecap="round" stroke-linejoin="round"/>
<path d="M488.996 366.184V379.012" stroke="black" stroke-width="0.641487" stroke-linecap="round" stroke-linejoin="round"/>
</g>
<defs>
<clipPath id="clip0_2015_1990">
<rect width="1140" height="375" fill="white"/>
</clipPath>
</defs>
</svg>
