<svg width="309" height="279" viewBox="0 0 309 279" fill="none" xmlns="http://www.w3.org/2000/svg">
<path d="M13.2305 198.168C13.7113 209.239 14.4324 262.172 14.6728 264.095C14.9132 266.018 25.5371 264.549 25.5371 264.549L23.8477 209.453L13.2305 198.168Z" fill="#BA9066"/>
<path d="M48.842 137.297C31.1266 143.714 9.62495 153.664 4.57006 157.997C-0.484825 162.331 -1.17262 178.41 3.36809 186.624C7.90881 194.837 38.4919 235.463 45.2295 243.643C51.9671 251.823 64.2404 268.911 66.8847 271.796C69.529 274.68 82.5235 284.309 105.381 271.796C128.238 259.282 288.238 181.809 301.987 171.225C309.205 164.969 310.888 158.471 299.817 144.515C288.745 130.559 254.343 85.0854 246.163 77.8736C237.983 70.6619 228.841 69.1929 213.443 75.9438C198.045 82.6948 82.0427 125.271 48.842 137.297Z" fill="white"/>
<path d="M83.9198 278.385C72.7951 278.385 67.226 272.669 66.6384 272.022C65.383 270.646 61.9641 266.105 58.0378 260.857C53.5772 254.907 48.5289 248.169 44.9765 243.856C38.4993 235.99 7.68253 195.03 3.07503 186.783C-1.53246 178.536 -0.84467 162.196 4.35044 157.736C9.29849 153.495 30.4462 143.606 48.7293 136.982C85.1151 123.8 198.212 82.2262 213.277 75.6422C220.008 72.6974 225.664 71.2617 230.565 71.2617C236.421 71.2617 241.443 73.265 246.351 77.6187C252.594 83.1277 274.343 111.2 288.733 129.784C293.407 135.793 297.414 140.962 300.085 144.307C311.436 158.624 309.313 165.315 302.201 171.478C293.307 178.329 224.482 212.545 169.192 240.029C139.397 254.847 113.662 267.641 105.542 272.082C97.9092 276.268 90.6307 278.385 83.9198 278.385ZM230.538 71.9295C225.73 71.9295 220.161 73.3451 213.517 76.2498C198.439 82.8472 85.3087 124.428 48.9296 137.61C30.7066 144.214 9.65909 154.05 4.75778 158.243C-0.143519 162.437 -0.791241 178.536 3.62928 186.456C8.23009 194.682 39.0202 235.576 45.464 243.435C49.0231 247.762 54.0846 254.506 58.5452 260.456C62.4716 265.691 65.8905 270.219 67.1058 271.567C67.6801 272.202 73.0555 277.717 83.8931 277.717C90.4905 277.717 97.6555 275.627 105.194 271.501C113.328 267.047 139.07 254.253 168.871 239.449C224.161 211.957 292.94 177.742 301.747 170.957C308.719 164.947 310.595 158.684 299.524 144.721C296.853 141.382 292.846 136.194 288.205 130.191C273.829 111.634 252.1 83.5884 245.897 78.1195C241.129 73.8993 236.254 71.9295 230.538 71.9295Z" fill="black"/>
<path d="M69.5639 186.296C63.1868 183.979 59.5476 181.835 57.7714 183.471C55.9951 185.107 44.9705 198.543 40.9707 204.098C36.9709 209.654 34.9609 212.699 36.9108 214.689C38.8606 216.679 57.1704 226.408 64.6158 230.381C72.0613 234.354 83.5466 238.748 86.2911 239.462C89.0356 240.177 89.7701 240.972 93.5562 233.292C97.3424 225.613 101.416 215.704 101.416 215.704L69.5639 186.296Z" fill="#FFA66B"/>
<path d="M74.3724 184.767C69.1506 186.256 57.9524 190.109 57.0776 190.429C56.2029 190.75 52.4033 197.22 52.6437 198.796C52.8841 200.372 59.2077 231.102 60.0424 233.519C60.8771 235.937 63.5882 238.261 67.4945 236.945C71.4009 235.63 104.354 226.602 106.812 225.486C109.269 224.371 107.052 216.599 104.942 209.888C102.832 203.177 83.3804 183.752 74.3724 184.767Z" fill="#FFE7B8"/>
<path d="M52.7293 199.11C54.1583 198.85 60.3617 198.583 60.335 196.172C60.3083 193.762 57.8577 192.453 57.4036 190.329C57.3101 189.909 56.6691 190.089 56.7358 190.51C57.063 192.025 58.5121 193.394 59.2266 194.75C59.5197 195.209 59.66 195.749 59.6272 196.292C59.5137 196.96 57.9712 197.347 57.4904 197.501C55.8594 197.921 54.2049 198.244 52.5357 198.469C52.1083 198.549 52.2886 199.19 52.7093 199.137L52.7293 199.11Z" fill="black"/>
<path d="M62.5731 201.721C63.6528 201.468 64.7129 201.138 65.7449 200.732C67.0203 200.298 68.3558 200.011 69.6379 199.59C72.2557 198.602 74.9318 197.774 77.6509 197.113C78.0716 197.033 77.898 196.385 77.4773 196.445C74.9065 196.953 72.4892 197.981 69.9918 198.729C67.4944 199.477 64.9369 200.585 62.3794 201.046C61.9521 201.12 62.1324 201.767 62.553 201.714L62.5731 201.721Z" fill="black"/>
<path d="M59.9474 206.39C61.4566 205.308 63.2862 205.582 64.9823 205.268C67.1391 204.874 69.2159 203.899 71.2592 203.124C73.3025 202.35 75.426 201.575 77.5694 200.967C79.7129 200.36 81.8497 200.186 83.9865 199.725C84.4072 199.632 84.2269 198.991 83.8062 199.058C81.6761 199.518 79.5059 199.725 77.3958 200.306C75.0635 200.976 72.7677 201.767 70.518 202.677C68.4412 203.458 66.1575 204.64 63.9072 204.713C62.4114 204.76 60.8556 204.907 59.6069 205.795C59.2597 206.042 59.6069 206.623 59.9474 206.369V206.39Z" fill="black"/>
<path d="M64.0757 214.803C66.2192 213.414 68.8168 213.267 71.2274 212.613C72.5161 212.259 73.7448 211.771 75.0002 211.324C75.8415 211.03 76.7029 211.03 77.4975 210.589C77.8782 210.382 77.5443 209.808 77.1637 210.015C76.1353 210.583 74.8533 210.683 73.7515 211.07C72.558 211.524 71.3383 211.905 70.0989 212.212C67.9153 212.739 65.6716 212.973 63.7418 214.215C63.3812 214.449 63.7418 215.023 64.0757 214.789V214.803Z" fill="black"/>
<path d="M63.9151 218.383C68.4825 218.129 72.7829 216.379 77.1299 215.111C79.5873 214.383 82.0513 213.662 84.4752 212.854C86.4384 212.186 88.4817 211.845 90.3247 210.85C90.7053 210.65 90.3714 210.076 89.9908 210.276C88.2012 211.231 86.198 211.545 84.2949 212.193C82.0713 212.954 79.8143 213.608 77.5573 214.269C73.09 215.605 68.6027 217.441 63.9084 217.702C63.4811 217.702 63.4811 218.369 63.9084 218.369L63.9151 218.383Z" fill="black"/>
<path d="M66.2712 223.957C68.1943 223.51 70.0974 223.016 71.9805 222.428C73.0889 222.081 74.4111 221.867 75.3526 221.146C75.6865 220.892 75.3526 220.311 75.0121 220.572C74.0305 221.319 72.5881 221.54 71.4262 221.907C69.6634 222.455 67.8871 222.902 66.0842 223.323C65.6702 223.416 65.8438 224.064 66.2645 223.99L66.2712 223.957Z" fill="black"/>
<path d="M31.0076 65.5601C27.2815 66.8956 21.6256 70.6083 22.7074 77.2859C23.7892 83.9634 33.7186 122.58 38.226 136.836C42.7333 151.093 42.5597 152.895 49.0569 160.474C55.5541 168.053 71.4333 192.774 79.0123 198.536C86.5913 204.299 86.7716 204.673 98.1367 200.88C109.502 197.087 157.326 172.915 166.708 168.581C176.09 164.247 183.489 160.822 180.784 154.865C178.08 148.909 173.386 143.861 165.426 135.741C157.466 127.621 141.968 112.643 140.719 111.034C139.27 100.023 134.583 81.259 133.501 74.0406C132.419 66.8222 129.167 50.5824 127.905 45.7079C126.643 40.8333 123.758 37.7683 113.288 40.8333C102.818 43.8982 41.6582 61.7339 31.0076 65.5601Z" fill="#D5F0FD"/>
<path d="M29.5457 66.1886C26.3539 68.9798 27.1953 72.973 27.8697 76.7591C28.8312 82.1813 30.2068 87.53 31.5824 92.8586C34.7409 105.085 38.1063 117.252 41.4317 129.425C42.5268 133.431 43.6353 137.438 44.6703 141.444C45.4572 144.864 46.897 148.099 48.9106 150.973C55.4145 159.701 61.9184 168.422 68.5625 177.015C72.7267 182.537 77.3195 187.721 82.2982 192.521C83.5001 193.649 84.7288 195.072 86.2246 195.819C87.7203 196.567 89.5166 196.3 91.0858 195.953C96.5213 194.758 101.71 191.993 106.745 189.683C112.387 187.099 117.996 184.461 123.605 181.817C133.844 176.982 144.063 172.099 154.262 167.166C158.936 164.896 163.61 162.599 168.285 160.335C171.403 158.833 174.695 157.337 177.353 155.08C178.688 153.951 179.636 152.409 178.748 150.706C178.548 150.325 177.967 150.666 178.167 151.047C179.823 154.165 173.54 156.909 171.563 157.951C167.637 160.028 163.55 161.837 159.597 163.814C155.177 166.011 150.729 168.148 146.282 170.285C134.218 176.072 122.118 181.799 109.983 187.466C104.935 189.81 99.8801 192.254 94.6249 194.143C92.3946 194.965 89.6368 196.033 87.2262 195.479C85.6436 195.098 84.3883 193.562 83.2531 192.507C73.4772 183.433 65.7713 172.381 57.7917 161.791C55.0049 158.087 52.2293 154.379 49.4648 150.666C47.2879 147.735 46.126 144.516 45.2112 141.004C42.5402 130.7 39.6221 120.464 36.8443 110.193C34.6941 102.254 32.5373 94.321 30.5874 86.3347C29.4729 82.1299 28.6122 77.862 28.0099 73.5539C27.676 70.8095 27.8363 68.5725 30.0132 66.6894C30.3337 66.4023 29.8596 65.9349 29.5391 66.2153L29.5457 66.1886Z" fill="black"/>
<path d="M88.0605 197.254V202.302C88.0605 202.391 88.0957 202.475 88.1583 202.538C88.221 202.601 88.3059 202.636 88.3944 202.636C88.483 202.636 88.5679 202.601 88.6305 202.538C88.6931 202.475 88.7283 202.391 88.7283 202.302V197.254C88.7283 197.165 88.6931 197.08 88.6305 197.018C88.5679 196.955 88.483 196.92 88.3944 196.92C88.3059 196.92 88.221 196.955 88.1583 197.018C88.0957 197.08 88.0605 197.165 88.0605 197.254Z" fill="black"/>
<path d="M46.2795 153.57C46.7725 152.684 47.3305 151.836 47.9488 151.032C48.6166 150.118 49.1642 150.211 50.1992 149.931C52.4094 149.323 54.4127 148.061 56.5228 147.2C61.0301 145.35 65.691 143.961 70.1716 142.031C80.1212 137.737 89.9371 133.13 99.9668 129.03C110.851 124.583 121.702 120.156 132.399 115.241C134.276 114.379 136.146 113.511 137.995 112.57C138.663 112.229 139.912 111.815 140.346 111.128C140.579 110.767 139.999 110.46 139.771 110.794C139.311 111.515 137.441 112.129 136.673 112.483C134.443 113.578 132.179 114.613 129.922 115.635C124.407 118.141 118.86 120.576 113.282 122.94C107.232 125.524 101.069 127.801 95.0187 130.372C85.0892 134.586 75.3801 139.394 65.3438 143.34C61.5376 144.836 57.5712 145.891 53.8785 147.654C52.9303 148.108 51.9821 148.555 51.0072 148.942C50.0403 149.234 49.057 149.468 48.0624 149.644C47.7085 149.744 47.5415 150.418 47.3946 150.692C46.8604 151.567 46.1793 152.301 45.7186 153.229C45.5316 153.61 46.1059 153.951 46.2995 153.563L46.2795 153.57Z" fill="black"/>
<path d="M60.9627 150.878C67.4065 147.653 126.649 123.627 132.786 121.103C138.923 118.579 141.086 117.491 144.872 121.284C148.659 125.076 162.742 139.867 165.266 142.939C167.79 146.01 174.287 149.436 165.446 155.025C156.605 160.614 106.978 182.817 100.674 185.702C94.3703 188.586 89.8497 192.559 84.4342 186.603C79.0187 180.647 65.3098 161.342 61.5169 156.835C57.7241 152.327 58.7992 151.96 60.9627 150.878Z" fill="#AFD1DF"/>
<path d="M100.994 177.502C100.183 177.533 99.3924 177.245 98.7908 176.7L97.8359 175.799C96.033 174.109 94.8377 172.988 94.9779 172.019C95.0187 171.815 95.1105 171.624 95.2447 171.464C95.3789 171.304 95.5513 171.18 95.7459 171.105C98.2767 169.843 104.206 167.212 109.936 164.674C115.191 162.344 120.159 160.147 122.336 159.072C130.242 155.179 133.087 153.83 134.696 154.885L134.763 154.925C137.354 156.628 138.916 157.656 138.883 158.838C138.883 159.539 138.308 160.173 137.086 160.841C134.415 162.397 124.205 167.098 117.468 170.19L114.797 171.418C113.154 172.18 111.505 173.061 109.916 173.909C106.497 175.779 103.271 177.502 100.994 177.502ZM133.44 155.219C131.764 155.219 128.579 156.741 122.63 159.673C120.439 160.748 115.471 162.951 110.209 165.282C104.48 167.819 98.5638 170.444 96.0464 171.706C95.6724 171.893 95.6457 172.059 95.639 172.12C95.5522 172.741 96.8811 173.989 98.31 175.311L99.2649 176.213C99.5004 176.426 99.7755 176.59 100.075 176.697C100.374 176.803 100.691 176.85 101.008 176.834C103.131 176.834 106.283 175.151 109.622 173.368C111.218 172.514 112.874 171.632 114.536 170.864L117.207 169.629C123.932 166.524 134.102 161.83 136.773 160.28C137.741 159.719 138.222 159.239 138.235 158.818C138.235 158.003 136.646 156.942 134.415 155.479L134.349 155.439C134.072 155.272 133.75 155.196 133.427 155.219H133.44Z" fill="black"/>
<path d="M89.3351 181.656C87.7992 181.656 87.0113 180.628 86.1766 179.546C85.2017 178.284 84.801 177.222 84.9947 176.387C85.0605 176.119 85.1867 175.87 85.3638 175.658C85.5409 175.446 85.7641 175.278 86.0163 175.165C87.6359 174.343 89.3143 173.642 91.0378 173.069C91.2716 172.997 91.5144 172.958 91.759 172.955C92.8207 172.955 93.4618 173.73 94.2764 174.705C94.4434 174.905 94.617 175.119 94.8106 175.332L94.8574 175.392C95.5585 176.194 96.2864 177.022 96.0794 177.997C95.8724 178.972 94.9308 179.699 93.0745 180.547C91.9181 181.172 90.6448 181.549 89.3351 181.656ZM91.759 173.643C91.5778 173.648 91.3981 173.677 91.2248 173.73C89.5356 174.273 87.8904 174.945 86.3035 175.74C86.1401 175.807 85.9946 175.911 85.8787 176.045C85.7628 176.178 85.6796 176.336 85.6357 176.508C85.4955 177.129 85.8627 178.03 86.6974 179.112C87.6056 180.294 88.1798 180.961 89.3284 180.961C90.5398 180.846 91.7159 180.49 92.7873 179.913C94.3899 179.185 95.2781 178.484 95.4183 177.83C95.5585 177.175 94.9709 176.494 94.3499 175.826L94.3031 175.766C94.1028 175.546 93.9225 175.332 93.7556 175.099C93.0344 174.257 92.5069 173.623 91.759 173.623V173.643Z" fill="black"/>
<path d="M83.921 174.557C82.3852 174.557 81.5972 173.536 80.7625 172.447C79.7876 171.192 79.387 170.124 79.5806 169.289C79.648 169.02 79.7757 168.771 79.9538 168.559C80.132 168.348 80.356 168.179 80.609 168.067C82.2243 167.24 83.9009 166.539 85.6238 165.97C85.8578 165.9 86.1007 165.864 86.3449 165.863C87.4134 165.863 88.0477 166.631 88.8624 167.606L89.3966 168.24L89.45 168.294C90.1511 169.095 90.8723 169.923 90.6653 170.898C90.4583 171.873 89.5168 172.608 87.6604 173.456C86.5026 174.075 85.2298 174.45 83.921 174.557ZM86.3449 166.544C86.1641 166.547 85.9844 166.574 85.8108 166.625C84.1246 167.184 82.4837 167.871 80.9028 168.681C80.7408 168.751 80.5965 168.856 80.4809 168.989C80.3653 169.122 80.2812 169.279 80.235 169.449C80.0948 170.077 80.4621 170.978 81.2967 172.053C82.2049 173.235 82.7792 173.903 83.9277 173.903C85.1404 173.788 86.3183 173.434 87.3933 172.861C88.9959 172.127 89.8774 171.426 90.0176 170.771C90.1578 170.117 89.5702 169.436 88.9559 168.768L88.9025 168.708L88.3549 168.04C87.6404 167.159 87.0995 166.531 86.3449 166.531V166.544Z" fill="black"/>
<path d="M78.512 167.46C76.9762 167.46 76.1882 166.438 75.3469 165.356C74.3719 164.094 74.0114 163.026 74.1649 162.191C74.2333 161.923 74.3612 161.674 74.5393 161.463C74.7174 161.251 74.9409 161.082 75.1933 160.969C76.8086 160.143 78.4852 159.442 80.2081 158.872C80.4422 158.803 80.685 158.767 80.9293 158.766C81.9977 158.766 82.6387 159.534 83.4467 160.508L83.9809 161.143L84.0343 161.196C84.7021 161.998 85.4566 162.826 85.2496 163.8C85.0426 164.775 84.1011 165.51 82.2447 166.358C81.0892 166.977 79.8186 167.352 78.512 167.46ZM80.9293 159.447C80.7506 159.449 80.5731 159.476 80.4017 159.527C78.7157 160.086 77.075 160.774 75.4938 161.584C75.3304 161.651 75.1849 161.755 75.069 161.888C74.9531 162.022 74.8699 162.18 74.826 162.351C74.6791 162.979 75.0464 163.874 75.8811 164.956C76.7959 166.138 77.3635 166.805 78.5187 166.805C79.7292 166.69 80.9049 166.336 81.9776 165.764C83.5802 165.029 84.4617 164.328 84.6019 163.674C84.7421 163.019 84.1612 162.338 83.5402 161.67L83.4868 161.61L82.9392 160.943C82.2047 160.061 81.6838 159.433 80.9627 159.433L80.9293 159.447Z" fill="black"/>
<path d="M73.0953 160.382C71.5595 160.382 70.7715 159.36 69.9368 158.278C68.9552 157.016 68.5613 155.948 68.7482 155.113C68.8174 154.845 68.9458 154.597 69.1237 154.385C69.3017 154.174 69.5248 154.005 69.7766 153.891C71.3982 153.073 73.0763 152.373 74.7981 151.794C75.0321 151.724 75.275 151.688 75.5192 151.688C76.581 151.688 77.222 152.455 78.0367 153.43C78.2036 153.631 78.3772 153.844 78.5709 154.065L78.6176 154.118C79.3187 154.919 80.0466 155.747 79.8329 156.722C79.6192 157.697 78.6911 158.432 76.8347 159.28C75.6766 159.899 74.4039 160.274 73.0953 160.382ZM75.5192 152.369C75.3384 152.371 75.1587 152.398 74.985 152.449C73.3001 153.011 71.6596 153.699 70.0771 154.505C69.9126 154.573 69.7664 154.678 69.6504 154.813C69.5344 154.947 69.4518 155.107 69.4093 155.28C69.2691 155.901 69.6364 156.802 70.471 157.884C71.3057 158.966 71.9535 159.727 73.102 159.727C74.3125 159.612 75.4882 159.258 76.5609 158.686C78.1635 157.951 79.0517 157.25 79.1919 156.595C79.3321 155.941 78.7445 155.26 78.1235 154.592L78.0767 154.539C77.8764 154.312 77.6961 154.098 77.5292 153.871C76.7946 152.963 76.2872 152.369 75.5192 152.369Z" fill="black"/>
<path d="M94.6305 169.804C93.0947 169.804 92.3067 168.782 91.4653 167.7C90.4904 166.438 90.0964 165.376 90.2834 164.535C90.3508 164.267 90.4785 164.019 90.6568 163.808C90.835 163.598 91.059 163.43 91.3118 163.32C92.9258 162.49 94.6026 161.789 96.3266 161.223C96.5598 161.149 96.803 161.11 97.0477 161.109C98.1162 161.109 98.7572 161.877 99.5652 162.852C99.7388 163.053 99.9124 163.266 100.106 163.487L100.153 163.54C100.854 164.341 101.582 165.169 101.368 166.144C101.154 167.119 100.22 167.854 98.3632 168.702C97.2077 169.321 95.9371 169.696 94.6305 169.804ZM97.0477 161.79C96.8685 161.792 96.6905 161.821 96.5202 161.877C94.8348 162.436 93.1941 163.121 91.6123 163.927C91.4478 163.995 91.3016 164.1 91.1856 164.235C91.0696 164.369 90.987 164.529 90.9445 164.702C90.7976 165.323 91.1648 166.224 91.9995 167.306C92.8342 168.388 93.482 169.149 94.6705 169.149C95.8817 169.037 97.058 168.683 98.1295 168.107C99.7321 167.373 100.614 166.672 100.754 166.017C100.894 165.363 100.313 164.682 99.692 164.014L99.6386 163.961C99.445 163.734 99.2647 163.52 99.0978 163.293C98.3232 162.385 97.8023 161.777 97.0477 161.777V161.79Z" fill="black"/>
<path d="M89.2159 162.706C87.6801 162.706 86.8922 161.684 86.0575 160.602C85.0826 159.34 84.6819 158.279 84.8755 157.444C84.9404 157.175 85.0663 156.925 85.2435 156.714C85.4207 156.502 85.6444 156.333 85.8972 156.222C87.5141 155.394 89.193 154.693 90.9187 154.125C91.1517 154.05 91.395 154.012 91.6399 154.012C92.7016 154.012 93.3427 154.78 94.1573 155.755C94.3242 155.955 94.4979 156.169 94.6915 156.389L94.7383 156.442C95.4394 157.244 96.1672 158.072 95.9602 159.047C95.7532 160.021 94.8117 160.756 92.9553 161.604C91.7975 162.224 90.5247 162.599 89.2159 162.706ZM91.6399 154.693C91.4584 154.694 91.2783 154.724 91.1057 154.78C89.4207 155.339 87.7801 156.025 86.1977 156.83C86.0333 156.897 85.8871 157.002 85.771 157.137C85.655 157.272 85.5724 157.432 85.5299 157.604C85.3897 158.225 85.757 159.127 86.5917 160.208C87.4264 161.29 88.0741 162.051 89.2226 162.051C90.4338 161.94 91.6101 161.585 92.6816 161.01C94.2842 160.282 95.1723 159.574 95.3125 158.92C95.4527 158.265 94.8651 157.584 94.2441 156.916L94.1974 156.863C93.997 156.636 93.8167 156.422 93.6498 156.195C92.9153 155.307 92.3878 154.679 91.6466 154.679L91.6399 154.693Z" fill="black"/>
<path d="M83.7999 155.606C82.2641 155.606 81.4761 154.585 80.6414 153.503C79.6665 152.241 79.2659 151.179 79.4595 150.344C79.5258 150.076 79.6522 149.827 79.8293 149.615C80.0063 149.404 80.2292 149.235 80.4812 149.122C82.0981 148.294 83.777 147.593 85.5027 147.026C85.7364 146.954 85.9793 146.915 86.2239 146.912C87.2856 146.912 87.9266 147.68 88.7413 148.662L89.2755 149.289L89.3289 149.349C90.03 150.151 90.7512 150.979 90.5442 151.947C90.3372 152.915 89.3957 153.656 87.5393 154.504C86.3815 155.124 85.1087 155.499 83.7999 155.606ZM86.2239 147.593C86.0424 147.595 85.8623 147.624 85.6896 147.68C84.0051 148.241 82.3646 148.926 80.7817 149.73C80.6192 149.8 80.4747 149.907 80.3591 150.041C80.2435 150.175 80.1597 150.334 80.1139 150.505C79.9737 151.126 80.341 152.027 81.1756 153.109C82.0838 154.291 82.6581 154.952 83.8066 154.952C85.0179 154.841 86.1944 154.487 87.2655 153.91C88.8748 153.182 89.7563 152.474 89.8965 151.82C90.0367 151.166 89.4491 150.485 88.8281 149.817L88.7813 149.757C88.5877 149.536 88.4074 149.316 88.2338 149.089C87.4993 148.214 86.9717 147.58 86.2239 147.58V147.593Z" fill="black"/>
<path d="M105.335 165.054C103.799 165.054 103.011 164.026 102.177 162.944C101.202 161.682 100.801 160.62 100.995 159.786C101.062 159.518 101.189 159.269 101.366 159.058C101.542 158.846 101.765 158.677 102.016 158.564C103.635 157.74 105.314 157.039 107.038 156.467C107.272 156.395 107.514 156.357 107.759 156.354C108.821 156.354 109.462 157.128 110.276 158.103C110.443 158.303 110.617 158.517 110.811 158.731L110.864 158.791C111.532 159.592 112.286 160.42 112.079 161.395C111.872 162.37 110.931 163.098 109.074 163.946C107.918 164.57 106.645 164.947 105.335 165.054ZM107.759 157.041C107.578 157.043 107.397 157.072 107.225 157.128C105.539 157.687 103.899 158.372 102.317 159.178C102.154 159.249 102.01 159.355 101.894 159.489C101.779 159.623 101.695 159.782 101.649 159.953C101.509 160.574 101.876 161.475 102.711 162.557C103.545 163.639 104.193 164.407 105.342 164.407C106.553 164.292 107.729 163.935 108.801 163.358C110.403 162.63 111.291 161.929 111.432 161.275C111.572 160.62 110.984 159.939 110.363 159.272L110.316 159.211C110.116 158.991 109.943 158.777 109.769 158.544C109.008 157.656 108.507 157.041 107.759 157.041Z" fill="black"/>
<path d="M99.9191 157.957C98.3832 157.957 97.5953 156.935 96.7606 155.847C95.7857 154.585 95.385 153.523 95.5787 152.688C95.6461 152.42 95.7737 152.17 95.9519 151.959C96.13 151.747 96.3541 151.578 96.607 151.466C98.2224 150.64 99.8989 149.939 101.622 149.369C101.856 149.298 102.098 149.26 102.343 149.256C103.411 149.256 104.046 150.03 104.86 151.005C105.027 151.206 105.201 151.419 105.395 151.633L105.448 151.693C106.149 152.494 106.87 153.322 106.663 154.297C106.456 155.272 105.515 156.007 103.658 156.855C102.501 157.475 101.228 157.85 99.9191 157.957ZM102.343 149.944C102.162 149.948 101.982 149.977 101.809 150.03C100.122 150.588 98.4813 151.276 96.9008 152.087C96.7388 152.156 96.5946 152.262 96.4789 152.395C96.3633 152.528 96.2792 152.685 96.233 152.855C96.0928 153.476 96.4601 154.378 97.2948 155.459C98.1295 156.541 98.7772 157.309 99.9257 157.309C101.138 157.193 102.316 156.839 103.391 156.267C104.994 155.533 105.875 154.832 106.016 154.177C106.156 153.523 105.568 152.842 104.947 152.174L104.9 152.114L104.353 151.446C103.618 150.558 103.098 149.924 102.33 149.924L102.343 149.944Z" fill="black"/>
<path d="M94.5113 150.858C92.9755 150.858 92.1809 149.837 91.3462 148.748C90.3713 147.493 89.9773 146.424 90.1643 145.59C90.2326 145.322 90.3606 145.073 90.5386 144.861C90.7167 144.649 90.9403 144.481 91.1926 144.368C92.808 143.541 94.4845 142.84 96.2074 142.271C96.4416 142.201 96.6844 142.165 96.9286 142.164C97.997 142.164 98.638 142.932 99.446 143.907L99.9802 144.541L100.034 144.595C100.735 145.396 101.463 146.224 101.249 147.199C101.035 148.174 100.1 148.908 98.2441 149.756C97.0882 150.375 95.8178 150.75 94.5113 150.858ZM96.9286 142.845C96.7499 142.848 96.5724 142.875 96.4011 142.925C94.7151 143.485 93.0743 144.172 91.4931 144.982C91.3297 145.049 91.1843 145.154 91.0684 145.287C90.9524 145.42 90.8692 145.579 90.8253 145.75C90.6784 146.378 91.0457 147.279 91.8804 148.354C92.7952 149.536 93.3628 150.204 94.5514 150.204C95.7618 150.088 96.9373 149.734 98.0104 149.162C99.613 148.428 100.494 147.726 100.635 147.072C100.775 146.418 100.194 145.737 99.5729 145.069L99.5195 145.009C99.3236 144.791 99.1433 144.568 98.9786 144.341C98.2107 143.46 97.6565 142.832 96.9286 142.832V142.845Z" fill="black"/>
<path d="M116.038 160.302C114.509 160.302 113.714 159.28 112.88 158.198C111.905 156.936 111.504 155.874 111.698 155.04C111.765 154.77 111.892 154.52 112.07 154.307C112.248 154.094 112.473 153.924 112.726 153.811C114.342 152.987 116.018 152.288 117.741 151.721C117.974 151.646 118.217 151.608 118.462 151.607C119.531 151.607 120.172 152.375 120.98 153.35L121.514 153.985L121.567 154.038C122.268 154.839 122.989 155.667 122.782 156.642C122.575 157.617 121.634 158.352 119.778 159.2C118.62 159.819 117.347 160.194 116.038 160.302ZM118.462 152.289C118.281 152.291 118.102 152.318 117.928 152.369C116.244 152.933 114.604 153.621 113.02 154.425C112.857 154.495 112.712 154.601 112.596 154.735C112.481 154.869 112.397 155.028 112.352 155.2C112.212 155.821 112.579 156.722 113.414 157.804C114.249 158.886 114.896 159.647 116.045 159.647C117.258 159.532 118.435 159.178 119.511 158.605C121.113 157.871 121.995 157.17 122.135 156.515C122.275 155.861 121.687 155.18 121.066 154.512L121.02 154.459L120.472 153.791C119.744 152.903 119.217 152.275 118.462 152.275V152.289Z" fill="black"/>
<path d="M110.63 153.202C109.095 153.202 108.307 152.18 107.465 151.099C106.49 149.836 106.096 148.775 106.283 147.94C106.35 147.671 106.478 147.42 106.656 147.207C106.834 146.994 107.058 146.825 107.312 146.711C108.933 145.886 110.617 145.187 112.347 144.621C112.58 144.547 112.823 144.509 113.068 144.508C114.136 144.508 114.777 145.276 115.592 146.251L116.119 146.918L116.173 146.972C116.874 147.773 117.595 148.601 117.388 149.576C117.181 150.551 116.24 151.285 114.39 152.134C113.223 152.743 111.944 153.107 110.63 153.202ZM113.048 145.189C112.869 145.191 112.692 145.218 112.52 145.269C110.834 145.827 109.193 146.515 107.612 147.326C107.448 147.393 107.302 147.498 107.186 147.633C107.07 147.768 106.987 147.928 106.944 148.1C106.798 148.721 107.165 149.623 108 150.705C108.834 151.786 109.482 152.548 110.637 152.548C111.848 152.432 113.023 152.078 114.096 151.506C115.699 150.771 116.58 150.07 116.72 149.416C116.861 148.761 116.28 148.08 115.659 147.413L115.605 147.359C115.412 147.132 115.231 146.918 115.064 146.691C114.35 145.803 113.802 145.176 113.048 145.176V145.189Z" fill="black"/>
<path d="M105.214 146.104C103.679 146.104 102.891 145.083 102.056 144.001C101.074 142.739 100.68 141.677 100.874 140.842C100.94 140.574 101.067 140.325 101.244 140.113C101.421 139.902 101.644 139.733 101.896 139.62C103.513 138.793 105.192 138.092 106.917 137.524C107.15 137.448 107.394 137.41 107.638 137.41C108.7 137.41 109.341 138.178 110.156 139.16C110.323 139.36 110.496 139.567 110.69 139.787L110.737 139.847C111.438 140.642 112.166 141.47 111.959 142.445C111.752 143.42 110.81 144.154 108.954 145.002C107.796 145.622 106.523 145.997 105.214 146.104ZM107.638 138.091C107.457 138.093 107.277 138.122 107.104 138.178C105.419 138.738 103.779 139.423 102.196 140.228C102.032 140.295 101.886 140.401 101.77 140.535C101.653 140.67 101.571 140.83 101.528 141.003C101.388 141.624 101.755 142.525 102.59 143.607C103.425 144.689 104.073 145.45 105.221 145.45C106.432 145.338 107.609 144.984 108.68 144.408C110.283 143.674 111.171 142.973 111.311 142.318C111.451 141.664 110.864 140.983 110.243 140.315L110.196 140.261C109.996 140.041 109.822 139.821 109.648 139.594C108.914 138.712 108.386 138.078 107.672 138.078L107.638 138.091Z" fill="black"/>
<path d="M126.75 155.546C125.214 155.546 124.426 154.524 123.584 153.442C122.61 152.18 122.216 151.119 122.403 150.284C122.469 150.015 122.596 149.765 122.775 149.553C122.953 149.341 123.177 149.173 123.431 149.062C125.046 148.235 126.723 147.534 128.446 146.965C128.68 146.894 128.922 146.856 129.167 146.852C130.235 146.852 130.876 147.619 131.684 148.594C131.851 148.801 132.032 149.008 132.225 149.229L132.272 149.282C132.973 150.083 133.701 150.912 133.487 151.886C133.274 152.861 132.345 153.596 130.489 154.444C129.331 155.063 128.058 155.438 126.75 155.546ZM129.167 147.533C128.988 147.535 128.81 147.564 128.639 147.619C126.954 148.178 125.313 148.863 123.731 149.669C123.568 149.738 123.422 149.843 123.306 149.978C123.19 150.112 123.107 150.272 123.064 150.444C122.923 151.065 123.284 151.967 124.119 153.048C124.953 154.13 125.601 154.891 126.756 154.891C127.967 154.78 129.144 154.425 130.215 153.85C131.818 153.122 132.706 152.414 132.846 151.76C132.986 151.105 132.399 150.424 131.778 149.756L131.711 149.696C131.517 149.476 131.337 149.255 131.163 149.028C130.449 148.154 129.921 147.519 129.167 147.519V147.533Z" fill="black"/>
<path d="M121.335 148.448C119.799 148.448 119.011 147.426 118.177 146.345C117.202 145.083 116.801 144.021 116.995 143.186C117.061 142.918 117.187 142.669 117.364 142.457C117.541 142.245 117.764 142.077 118.016 141.964C119.633 141.136 121.312 140.435 123.038 139.867C123.272 139.795 123.514 139.757 123.759 139.754C124.821 139.754 125.462 140.529 126.276 141.497C126.443 141.704 126.617 141.911 126.811 142.131L126.857 142.191C127.525 142.993 128.286 143.821 128.079 144.795C127.872 145.77 126.931 146.498 125.074 147.346C123.917 147.966 122.644 148.341 121.335 148.448ZM123.759 140.435C123.578 140.437 123.397 140.466 123.225 140.522C121.539 141.08 119.899 141.766 118.317 142.572C118.154 142.641 118.009 142.747 117.893 142.882C117.777 143.016 117.694 143.175 117.649 143.346C117.509 143.967 117.876 144.869 118.711 145.951C119.545 147.032 120.193 147.794 121.342 147.794C122.553 147.682 123.729 147.328 124.801 146.752C126.403 146.024 127.291 145.316 127.432 144.669C127.572 144.021 126.984 143.333 126.363 142.665L126.317 142.605C126.116 142.385 125.936 142.165 125.769 141.937C125.034 141.056 124.507 140.422 123.759 140.422V140.435Z" fill="black"/>
<path d="M115.919 141.357C114.383 141.357 113.595 140.329 112.761 139.247C111.786 137.985 111.385 136.923 111.579 136.088C111.646 135.82 111.774 135.571 111.952 135.359C112.13 135.147 112.354 134.979 112.607 134.867C114.222 134.04 115.899 133.339 117.622 132.77C117.856 132.698 118.098 132.66 118.343 132.656C119.411 132.656 120.046 133.424 120.86 134.399C121.027 134.606 121.201 134.813 121.395 135.067L121.448 135.127C122.149 135.928 122.87 136.756 122.663 137.731C122.456 138.706 121.515 139.434 119.658 140.282C118.499 140.894 117.226 141.26 115.919 141.357ZM118.343 133.344C118.162 133.346 117.981 133.375 117.809 133.431C116.124 133.992 114.484 134.677 112.901 135.481C112.739 135.552 112.595 135.659 112.479 135.793C112.364 135.927 112.28 136.085 112.233 136.255C112.093 136.883 112.46 137.778 113.295 138.86C114.129 139.941 114.777 140.709 115.926 140.709C117.139 140.595 118.318 140.238 119.391 139.661C120.994 138.933 121.875 138.232 122.016 137.578C122.156 136.923 121.568 136.242 120.947 135.574L120.9 135.514C120.707 135.294 120.527 135.074 120.353 134.846C119.618 133.958 119.098 133.324 118.356 133.324L118.343 133.344Z" fill="black"/>
<path d="M137.454 150.798C135.918 150.798 135.13 149.777 134.296 148.695C133.321 147.433 132.92 146.365 133.114 145.53C133.182 145.263 133.309 145.014 133.486 144.803C133.663 144.591 133.885 144.422 134.135 144.308C135.754 143.483 137.432 142.782 139.157 142.211C139.391 142.139 139.634 142.101 139.878 142.098C140.94 142.098 141.581 142.872 142.396 143.847C142.563 144.047 142.736 144.261 142.93 144.482L142.983 144.535C143.684 145.336 144.406 146.164 144.199 147.139C143.992 148.114 143.05 148.849 141.194 149.697C140.036 150.316 138.763 150.691 137.454 150.798ZM139.878 142.785C139.697 142.79 139.517 142.819 139.344 142.872C137.658 143.431 136.017 144.119 134.436 144.929C134.273 144.999 134.128 145.105 134.012 145.239C133.897 145.373 133.813 145.532 133.768 145.704C133.628 146.325 133.995 147.226 134.83 148.301C135.738 149.483 136.312 150.151 137.461 150.151C138.672 150.036 139.848 149.679 140.92 149.102C142.522 148.375 143.411 147.673 143.551 147.019C143.691 146.365 143.103 145.683 142.482 145.016L142.436 144.956L141.888 144.288C141.154 143.4 140.626 142.765 139.878 142.765V142.785Z" fill="black"/>
<path d="M142.028 158.017C140.492 158.017 139.697 156.996 138.862 155.907C137.888 154.652 137.527 153.583 137.681 152.749C137.748 152.48 137.876 152.231 138.054 152.019C138.232 151.807 138.456 151.639 138.709 151.527C140.328 150.702 142.006 150.001 143.73 149.43C143.964 149.359 144.207 149.321 144.452 149.316C145.52 149.316 146.161 150.091 146.969 151.066L147.503 151.7L147.557 151.754C148.224 152.555 148.986 153.383 148.772 154.358C148.558 155.333 147.63 156.067 145.767 156.915C144.609 157.536 143.337 157.911 142.028 158.017ZM144.445 150.004C144.266 150.009 144.089 150.039 143.917 150.091C142.231 150.649 140.59 151.337 139.009 152.148C138.846 152.215 138.701 152.319 138.585 152.453C138.469 152.586 138.386 152.744 138.342 152.916C138.201 153.543 138.562 154.445 139.397 155.52C140.312 156.702 140.879 157.369 142.034 157.369C143.245 157.254 144.42 156.9 145.493 156.328C147.096 155.593 147.977 154.892 148.124 154.238C148.271 153.583 147.677 152.902 147.056 152.234L147.002 152.174L146.455 151.507C145.734 150.619 145.199 149.984 144.445 149.984V150.004Z" fill="black"/>
<path d="M153.452 153.323C151.916 153.323 151.128 152.301 150.294 151.22C149.319 149.958 148.918 148.889 149.112 148.054C149.18 147.787 149.308 147.537 149.486 147.326C149.664 147.114 149.888 146.946 150.14 146.832C151.755 146.006 153.432 145.308 155.155 144.742C155.388 144.668 155.631 144.629 155.876 144.629C156.945 144.629 157.586 145.397 158.394 146.372L158.928 147.039L158.975 147.093C159.682 147.894 160.404 148.722 160.197 149.697C159.99 150.672 159.048 151.407 157.192 152.255C156.031 152.863 154.759 153.226 153.452 153.323ZM155.876 145.31C155.695 145.312 155.516 145.339 155.342 145.39C153.656 145.951 152.016 146.638 150.434 147.447C150.271 147.516 150.126 147.622 150.01 147.757C149.895 147.891 149.811 148.05 149.766 148.221C149.626 148.842 149.993 149.744 150.828 150.826C151.663 151.907 152.31 152.669 153.459 152.669C154.672 152.554 155.85 152.2 156.925 151.627C158.527 150.892 159.409 150.191 159.549 149.537C159.689 148.882 159.101 148.201 158.48 147.534L158.434 147.48L157.886 146.812C157.152 145.924 156.631 145.297 155.876 145.297V145.31Z" fill="black"/>
<path d="M132.045 143.688C130.509 143.688 129.714 142.667 128.88 141.585C127.905 140.323 127.504 139.254 127.698 138.42C127.766 138.152 127.894 137.903 128.072 137.691C128.25 137.479 128.474 137.311 128.726 137.198C130.342 136.372 132.019 135.671 133.741 135.101C133.975 135.031 134.218 134.995 134.462 134.994C135.531 134.994 136.172 135.762 136.98 136.737L137.514 137.371L137.567 137.425C138.268 138.226 138.989 139.054 138.782 140.029C138.575 141.004 137.634 141.738 135.778 142.586C134.622 143.205 133.351 143.58 132.045 143.688ZM134.462 135.675C134.281 135.678 134.102 135.705 133.928 135.755C132.248 136.314 130.614 137.002 129.04 137.812C128.877 137.882 128.732 137.988 128.616 138.122C128.501 138.256 128.417 138.415 128.372 138.587C128.232 139.208 128.599 140.109 129.434 141.191C130.269 142.273 130.916 143.034 132.072 143.034C133.282 142.918 134.457 142.564 135.531 141.992C137.133 141.258 138.015 140.557 138.155 139.902C138.295 139.248 137.707 138.567 137.093 137.899L137.04 137.839L136.492 137.171C135.718 136.303 135.217 135.675 134.462 135.675Z" fill="black"/>
<path d="M126.629 136.602C125.093 136.602 124.305 135.581 123.464 134.499C122.489 133.237 122.129 132.168 122.282 131.334C122.35 131.066 122.478 130.817 122.656 130.605C122.835 130.394 123.058 130.225 123.31 130.112C124.926 129.287 126.602 128.588 128.325 128.022C128.559 127.947 128.802 127.909 129.046 127.908C130.115 127.908 130.756 128.676 131.564 129.651L132.098 130.319L132.152 130.372C132.819 131.174 133.581 132.002 133.367 132.976C133.153 133.951 132.218 134.686 130.369 135.534C129.208 136.14 127.935 136.504 126.629 136.602ZM129.046 128.589C128.868 128.592 128.69 128.619 128.519 128.669C126.832 129.228 125.192 129.915 123.611 130.726C123.447 130.794 123.3 130.899 123.184 131.033C123.068 131.168 122.986 131.328 122.943 131.501C122.803 132.122 123.164 133.023 123.998 134.105C124.833 135.187 125.481 135.948 126.636 135.948C127.846 135.833 129.022 135.479 130.095 134.906C131.697 134.172 132.579 133.471 132.719 132.816C132.859 132.162 132.278 131.481 131.657 130.813L131.604 130.76C131.41 130.532 131.23 130.319 131.063 130.092C130.329 129.204 129.801 128.576 129.04 128.576L129.046 128.589Z" fill="black"/>
<path d="M148.157 146.044C146.628 146.044 145.834 145.022 144.999 143.94C144.024 142.678 143.623 141.617 143.817 140.782C143.883 140.513 144.011 140.263 144.189 140.051C144.367 139.839 144.592 139.671 144.845 139.56C146.459 138.731 148.136 138.029 149.86 137.463C150.093 137.388 150.336 137.35 150.581 137.35C151.65 137.35 152.291 138.118 153.099 139.092C153.266 139.299 153.446 139.506 153.633 139.727L153.686 139.787C154.387 140.588 155.109 141.41 154.902 142.384C154.695 143.359 153.753 144.094 151.897 144.942C150.739 145.562 149.466 145.937 148.157 146.044ZM150.581 138.031C150.4 138.032 150.22 138.062 150.047 138.118C148.363 138.678 146.722 139.364 145.139 140.168C144.976 140.236 144.83 140.342 144.714 140.476C144.598 140.611 144.515 140.77 144.471 140.942C144.324 141.563 144.692 142.465 145.526 143.546C146.361 144.628 147.009 145.389 148.157 145.389C149.371 145.278 150.549 144.924 151.623 144.348C153.226 143.613 154.107 142.912 154.247 142.258C154.387 141.603 153.8 140.922 153.186 140.254L153.132 140.194C152.938 139.974 152.758 139.754 152.585 139.526C151.863 138.652 151.336 138.017 150.581 138.017V138.031Z" fill="black"/>
<path d="M142.75 138.946C141.214 138.946 140.426 137.924 139.584 136.843C138.61 135.581 138.216 134.519 138.403 133.684C138.469 133.415 138.596 133.165 138.775 132.954C138.953 132.742 139.177 132.574 139.431 132.462C141.045 131.632 142.722 130.931 144.446 130.365C144.679 130.291 144.922 130.253 145.167 130.252C146.235 130.252 146.876 131.027 147.691 132.001C147.858 132.202 148.032 132.415 148.225 132.629L148.272 132.689C148.973 133.491 149.701 134.319 149.487 135.287C149.274 136.255 148.345 136.996 146.482 137.844C145.327 138.464 144.056 138.839 142.75 138.946ZM145.167 130.933C144.988 130.935 144.81 130.964 144.639 131.02C142.953 131.575 141.312 132.261 139.731 133.07C139.568 133.138 139.422 133.244 139.306 133.378C139.19 133.513 139.107 133.672 139.064 133.844C138.923 134.465 139.284 135.367 140.125 136.449C140.967 137.53 141.601 138.292 142.756 138.292C143.967 138.18 145.144 137.826 146.215 137.25C147.818 136.522 148.699 135.814 148.846 135.16C148.993 134.506 148.399 133.824 147.778 133.157L147.724 133.097C147.531 132.876 147.35 132.656 147.184 132.429C146.449 131.554 145.921 130.92 145.167 130.92V130.933Z" fill="black"/>
<path d="M137.333 131.848C135.797 131.848 135.009 130.827 134.175 129.745C133.2 128.483 132.799 127.421 132.993 126.587C133.059 126.319 133.185 126.069 133.362 125.858C133.539 125.646 133.762 125.477 134.014 125.365C135.631 124.537 137.31 123.836 139.036 123.268C139.27 123.196 139.512 123.158 139.757 123.154C140.819 123.154 141.46 123.929 142.274 124.904C142.441 125.104 142.615 125.318 142.809 125.531L142.862 125.592C143.563 126.393 144.284 127.221 144.077 128.189C143.87 129.157 142.929 129.899 141.073 130.747C139.915 131.366 138.642 131.741 137.333 131.848ZM139.757 123.835C139.576 123.837 139.395 123.866 139.223 123.922C137.538 124.482 135.897 125.167 134.315 125.972C134.152 126.041 134.006 126.147 133.891 126.282C133.775 126.416 133.691 126.575 133.647 126.747C133.507 127.368 133.874 128.269 134.709 129.351C135.544 130.433 136.191 131.194 137.34 131.194C138.551 131.082 139.727 130.728 140.799 130.152C142.401 129.425 143.289 128.717 143.43 128.062C143.57 127.408 142.982 126.727 142.361 126.059L142.315 125.999L141.767 125.331C141.059 124.456 140.505 123.822 139.757 123.822V123.835Z" fill="black"/>
<path d="M41.8389 69.3726C37.9593 70.8684 33.4186 72.6246 34.2599 77.0718C35.3818 83.0081 39.7889 99.7754 42.3197 110.279C44.8505 120.783 48.817 134.218 49.665 137.463C50.513 140.709 51.0005 144.562 55.5546 142.638C60.1086 140.715 122.804 113.885 128.219 111.121C133.635 108.356 135.318 107.989 134.229 103.662C133.141 99.3347 127.037 64.2243 125.208 55.657C123.378 47.0897 122.437 44.8327 115.098 46.9762C107.759 49.1197 49.6583 66.3677 41.8389 69.3726Z" fill="#AFD1DF"/>
<path d="M106.335 111.121C105.407 111.662 101.441 113.498 96.279 115.829L94.0755 116.817C91.2776 118.072 88.2259 119.414 85.181 120.75C80.3799 122.847 75.5787 124.923 71.7458 126.526C68.6274 127.828 66.15 128.83 64.8346 129.284C58.5777 131.447 56.4142 129.644 54.6113 123.748C52.8084 117.852 44.8688 90.0666 43.6601 85.2521C42.4515 80.4376 44.9956 78.7816 50.1574 76.8318C54.6113 75.1424 81.4349 66.7287 89.8553 63.9575C98.2756 61.1863 98.2823 65.0393 99.364 68.6318C99.4776 69.0057 99.6512 69.62 99.8715 70.428C101.274 75.4762 104.619 88.0367 106.863 96.3235C107.023 96.9044 107.17 97.4587 107.317 97.9929C107.39 98.2733 107.464 98.5404 107.531 98.8008C107.531 98.8542 107.564 98.901 107.577 98.9544C107.704 99.4218 107.824 99.8559 107.931 100.29C108.279 101.512 108.552 102.5 108.746 103.181C110.282 108.597 109.2 109.431 106.335 111.121Z" fill="white"/>
<path d="M96.2598 115.829L94.0563 116.818C93.0079 114.814 90.6708 108.531 89.6291 105.987C89.5423 105.766 89.4621 105.566 89.3887 105.406L91.2784 104.07C91.2784 104.07 91.4854 104.558 91.8059 105.346C92.8743 107.91 95.2582 113.639 96.2598 115.829Z" fill="#FFE7B8"/>
<path d="M107.512 98.822C105.589 100.458 83.0657 108.625 82.7118 107.503C82.3579 106.381 79.6268 85.1932 79.1928 81.8544C78.7587 78.5157 78.8322 78.1551 81.4498 77.2536C84.0674 76.3521 94.6512 71.945 99.853 70.4492" fill="white"/>
<path d="M83.0188 107.916C82.922 107.918 82.8254 107.907 82.7317 107.883C82.6533 107.865 82.5808 107.828 82.5211 107.774C82.4615 107.72 82.4167 107.652 82.3911 107.576C82.124 106.708 80.7351 96.1705 79.4463 86.3612C79.1726 84.2712 78.9589 82.6419 78.8587 81.894C78.3913 78.4684 78.5115 77.8875 81.3428 76.9393C82.1507 76.6588 83.7533 76.0311 85.7833 75.2365C90.1771 73.5137 96.1936 71.1498 99.766 70.1282C99.8077 70.115 99.8516 70.1105 99.895 70.1149C99.9385 70.1193 99.9805 70.1326 100.019 70.1538C100.057 70.1751 100.09 70.2039 100.117 70.2386C100.143 70.2732 100.163 70.3129 100.173 70.3552C100.187 70.3973 100.191 70.4416 100.187 70.4855C100.182 70.5294 100.169 70.5719 100.148 70.6106C100.127 70.6493 100.098 70.6833 100.063 70.7105C100.029 70.7378 99.9889 70.7578 99.9463 70.7692C96.4072 71.7842 90.4041 74.108 86.0237 75.8575C84.0204 76.6521 82.3845 77.2798 81.5564 77.5669C79.1525 78.395 79.0791 78.5552 79.5198 81.8072C79.6199 82.5551 79.8336 84.1844 80.1074 86.2744C81.0089 93.1189 82.6449 105.639 82.9988 107.262C85.002 107.462 105.348 100.23 107.298 98.5811C107.331 98.5525 107.37 98.5308 107.411 98.5172C107.453 98.5037 107.497 98.4987 107.54 98.5024C107.584 98.5062 107.626 98.5186 107.665 98.539C107.704 98.5594 107.738 98.5873 107.766 98.6212C107.795 98.6538 107.817 98.6919 107.831 98.7333C107.845 98.7746 107.851 98.8184 107.848 98.8619C107.844 98.9055 107.833 98.948 107.813 98.9869C107.793 99.0259 107.766 99.0604 107.732 99.0886C105.943 100.598 86.2307 107.916 83.0188 107.916Z" fill="black"/>
<path d="M85.1615 120.749C80.3604 122.846 75.5593 124.923 71.7264 126.525C70.4777 123.32 68.4811 116.89 68.3008 113.945C72.6345 110.793 79.3721 110.553 79.3721 110.553C79.3721 110.553 83.9529 116.516 85.1615 120.749Z" fill="black"/>
<path d="M59.88 113.973C59.5194 116.049 56.7216 118.847 58.0771 120.47C59.4326 122.093 61.4158 119.749 61.7764 117.585C61.5961 121.465 63.8532 119.208 62.8582 114.787C62.5273 114.334 62.0525 114.007 61.5115 113.859C60.9705 113.711 60.3953 113.751 59.88 113.973Z" fill="#FFA66B"/>
<path d="M82.3516 90.2668C82.5319 87.5558 83.3398 86.0266 84.4216 86.2937C85.5034 86.5608 84.1545 88.0098 84.1545 88.0098C86.318 86.9281 88.121 85.7528 88.4815 87.1952C88.8421 88.6375 85.7771 90.8077 84.9692 91.3486C84.1612 91.8895 82.3516 90.2668 82.3516 90.2668Z" fill="#FFA66B"/>
<path d="M58.018 114.726C57.8978 115.327 62.4118 115.808 63.3133 115.988C64.2147 116.169 65.1763 108.563 65.3566 107.388C66.0243 112.984 66.5919 115.568 67.2196 115.568C67.8473 115.568 80.6347 111 80.5413 110.005C80.4478 109.01 76.9354 102.066 76.9354 102.066C80.6347 103.508 85.2356 102.694 85.7764 91.6889C83.9735 90.5137 82.1706 89.9728 81.8968 90.1531C81.623 90.3334 80.9018 96.9241 79.0989 97.0109C77.296 97.0977 73.1426 93.6722 68.5417 95.208C63.9409 96.7438 59.0997 100.35 58.018 114.726Z" fill="#99BB4E"/>
<path d="M66.1985 96.6505C65.8379 95.1146 65.8379 93.6723 65.1167 93.5855C63.7558 93.3707 62.5112 92.6912 61.5946 91.6626C60.6779 90.6339 60.1458 89.3196 60.0886 87.943C59.6345 83.2687 66.292 80.9516 67.9146 83.1151C69.5373 85.2786 70.7993 88.9847 69.1767 91.6023C67.9146 93.2249 68.9029 93.8526 69.1767 95.3884C69.4505 96.9242 66.6459 97.6454 66.1985 96.6505Z" fill="#FFA66B"/>
<path d="M89.4766 79.0558C90.5583 80.3913 91.7336 81.059 91.7336 81.9471C91.8204 83.9504 85.5034 91.5093 94.2577 93.8531C100.935 95.6427 102.017 89.6129 101.837 86.1873C101.656 82.7618 94.892 81.5865 95.2526 80.9522C95.7935 77.6134 95.9738 77.166 95.3394 77.166C94.7051 77.166 89.7503 78.3346 89.4766 79.0558Z" fill="#FFE7B8"/>
<path d="M87.7598 97.1048C90.3774 95.5689 96.514 88.8046 97.8695 87.9899C99.2251 87.1753 100.935 93.6725 97.0549 97.0113C93.1752 100.35 88.4809 99.1748 87.7598 97.1048Z" fill="#FF8F46"/>
<path d="M101.929 62.5759C103.552 62.0351 111.946 59.2706 112.613 59.0302C113.281 58.7898 113.515 60.9533 113.695 62.3355C113.875 63.7178 113.815 63.8981 112.072 64.4991C110.33 65.1 104.433 67.0298 103.532 67.2101C102.63 67.3904 102.45 66.8495 102.196 65.8279C101.943 64.8062 101.328 62.8898 101.929 62.5759Z" fill="#FFE7B8"/>
<path d="M122.016 58.8823C122.443 56.4516 117.509 55.2096 116.787 58.8823C116.066 62.5549 121.415 62.2744 122.016 58.8823Z" fill="#D5F0FD"/>
<path d="M105.002 72.7125C106.249 72.6947 107.474 72.386 108.581 71.8111C110.237 71.0699 111.866 70.2953 113.549 69.5941C115.228 68.8334 116.946 68.1646 118.697 67.5909C120.327 67.1101 121.969 66.8096 123.485 66.0016C123.866 65.7946 123.532 65.2203 123.151 65.4207C121.671 66.1071 120.116 66.6202 118.517 66.9498C117.126 67.3729 115.765 67.8905 114.444 68.499C113.002 69.1133 111.526 69.6542 110.103 70.322C108.454 71.0966 106.898 72.0982 105.002 72.0515C104.913 72.0515 104.828 72.0866 104.766 72.1492C104.703 72.2119 104.668 72.2968 104.668 72.3853C104.668 72.4739 104.703 72.5588 104.766 72.6214C104.828 72.684 104.913 72.7192 105.002 72.7192V72.7125Z" fill="black"/>
<path d="M106.783 76.9126C110.249 75.3501 113.928 74.3885 117.467 72.9729C117.868 72.8193 117.694 72.1716 117.294 72.3051C113.721 73.7341 109.988 74.7291 106.476 76.3116C106.082 76.4919 106.423 77.0662 106.81 76.8926L106.783 76.9126Z" fill="black"/>
<path d="M119.611 72.431C121.297 72.0676 122.955 71.5856 124.573 70.9887C124.973 70.8351 124.8 70.1941 124.392 70.321C122.773 70.9148 121.116 71.3967 119.431 71.7633C119.01 71.8568 119.19 72.4978 119.611 72.431Z" fill="black"/>
<path d="M108.053 81.1533C109.756 80.0449 111.892 79.9781 113.735 79.1501C114.129 78.9765 113.789 78.3955 113.395 78.5691C111.552 79.3838 109.435 79.4372 107.712 80.5724C107.352 80.8061 107.712 81.387 108.053 81.1533Z" fill="black"/>
<path d="M109.594 85.9662C112.419 85.4854 115.05 84.3903 117.714 83.3686C120.639 82.2535 123.664 81.4922 126.648 80.5507C127.056 80.4238 126.882 79.7761 126.468 79.8829C123.67 80.7644 120.826 81.4655 118.075 82.5005C115.323 83.5355 112.432 84.7776 109.394 85.2984C108.973 85.3652 109.153 86.0129 109.574 85.9662H109.594Z" fill="black"/>
<path d="M110.036 89.8998C111.732 89.1519 113.555 88.7779 115.298 88.1569C117.188 87.4892 118.958 86.5677 120.874 85.9667C121.281 85.8398 121.108 85.1921 120.694 85.299C118.777 85.8999 116.981 86.7413 115.125 87.4892C113.268 88.2371 111.452 88.5175 109.702 89.2988C109.309 89.4724 109.649 90.0467 110.036 89.8731V89.8998Z" fill="black"/>
<path d="M111.639 94.3613C112.794 93.3931 114.457 93.2729 115.853 92.8188C117.402 92.3247 118.918 91.7304 120.42 91.1094C120.814 90.9491 120.64 90.3014 120.246 90.4416C118.435 91.2161 116.58 91.8849 114.691 92.4449C113.422 92.7988 112.2 92.9857 111.165 93.8538C110.838 94.1343 111.312 94.6017 111.639 94.3279V94.3613Z" fill="black"/>
<path d="M112.293 98.0197C113.588 97.1582 115.104 96.8778 116.573 96.4438C118.042 96.0097 119.551 95.4221 121.04 94.8879C123.833 93.9665 126.52 92.7487 129.053 91.2553C129.414 91.0283 129.053 90.454 128.713 90.681C125.895 92.4306 122.803 93.3921 119.771 94.6876C117.247 95.7493 114.229 95.9496 111.932 97.4721C111.578 97.7125 111.932 98.2867 112.273 98.0464L112.293 98.0197Z" fill="black"/>
<path d="M113.194 104.25C116.112 102.747 119.278 101.832 122.216 100.37C122.603 100.176 122.262 99.6021 121.882 99.7891C118.944 101.258 115.779 102.173 112.854 103.675C112.473 103.869 112.814 104.443 113.194 104.25Z" fill="black"/>
<path d="M130.97 181.675C130.653 181.687 130.339 181.606 130.068 181.441C129.347 181 129.154 179.992 129.08 178.623L129.748 178.59C129.801 179.591 129.915 180.593 130.416 180.873C130.916 181.154 131.658 181.007 132.893 180.466C135.397 179.435 137.831 178.239 140.178 176.887C141.514 175.979 142.061 175.364 141.834 172.88L142.502 172.82C142.749 175.531 142.128 176.406 140.545 177.461C138.17 178.836 135.702 180.046 133.16 181.08C132.477 181.424 131.732 181.626 130.97 181.675Z" fill="black"/>
<path d="M68.6356 82.4881C68.5421 80.3246 63.2001 80.5783 60.0617 84.311C59.7989 84.6613 59.6323 85.0742 59.5784 85.5088C59.5245 85.9434 59.5852 86.3845 59.7545 86.7884C59.352 87.1662 59.1125 87.686 59.0867 88.2374C58.9265 90.628 60.6025 93.9 63.3737 92.9985C63.2165 92.4696 62.9801 91.9675 62.6726 91.5094C60.509 91.9368 60.509 88.7382 62.2919 89.7933C63.3804 90.0337 61.5107 87.1223 62.9597 85.8268C65.2968 83.6566 68.7224 84.6516 68.6356 82.4881Z" fill="black"/>
<path d="M148.164 100.677C146.902 104.389 147.156 110.359 153.593 113.11C160.03 115.861 181.372 115.074 186.547 110.493C190.553 106.92 189.258 101.284 186.8 96.7504C182.634 89.0445 152.144 89.1981 148.164 100.677Z" fill="#FFE7B8"/>
<path d="M213.638 192.432C216.182 189.367 223.414 179.143 217.384 167.985C210.406 166.543 206.7 162.937 205.471 162.576C204.243 162.216 200.276 166.035 194.787 166.903C177.219 169.675 175.743 178.055 175.696 178.088C171.509 176.359 165.266 176.239 155.57 181.821C139.691 190.963 136.92 192.892 134.997 194.455C135.264 194.882 135.751 195.61 136.392 196.532C135.437 197.199 134.155 197.473 134.275 198.061C134.396 198.648 146.148 217.426 149.921 220.998C150.439 221.727 150.998 222.424 151.597 223.088C154.121 225.759 178.788 217.078 187.569 212.978C196.35 208.878 216.075 199.263 214.993 196.138C214.593 195.016 214.132 193.7 213.638 192.432Z" fill="white"/>
<path d="M153.573 223.897C152.458 223.897 151.723 223.703 151.342 223.302C150.733 222.627 150.163 221.918 149.633 221.179C145.833 217.606 134.061 198.769 133.934 198.115C133.807 197.46 134.448 197.18 135.123 196.846C135.37 196.726 135.65 196.586 135.911 196.425C135.356 195.624 134.942 195.003 134.702 194.616C134.657 194.548 134.639 194.466 134.652 194.386C134.664 194.306 134.706 194.233 134.769 194.182C136.672 192.639 139.39 190.729 155.389 181.494C160.958 178.289 165.933 176.66 170.18 176.66C171.986 176.648 173.779 176.97 175.468 177.608C176.136 175.605 179.562 168.927 194.72 166.537C197.945 166.029 200.623 164.5 202.572 163.385C204.001 162.57 204.963 162.049 205.571 162.216C206.148 162.463 206.695 162.777 207.2 163.151C210.283 165.315 213.772 166.835 217.457 167.619C217.505 167.63 217.55 167.651 217.589 167.681C217.628 167.711 217.66 167.749 217.684 167.792C223.733 178.984 216.589 189.321 214.024 192.459C214.492 193.674 214.926 194.916 215.3 195.991C216.382 199.123 200.883 207.103 187.695 213.246C179.669 217.006 160.204 223.897 153.573 223.897ZM135.417 194.516C135.697 194.943 136.118 195.564 136.645 196.325C136.671 196.36 136.69 196.4 136.7 196.442C136.71 196.484 136.712 196.528 136.705 196.571C136.698 196.614 136.683 196.655 136.66 196.692C136.637 196.729 136.607 196.761 136.572 196.786C136.204 197.041 135.815 197.264 135.41 197.454C135.109 197.601 134.555 197.874 134.582 197.995C134.869 198.763 146.368 217.206 150.127 220.745C150.649 221.478 151.213 222.18 151.817 222.848C151.957 222.995 152.371 223.236 153.573 223.236C160.003 223.236 179.615 216.291 187.408 212.672C204.636 204.659 215.333 198.195 214.659 196.245C214.271 195.117 213.811 193.808 213.323 192.552C213.303 192.497 213.297 192.437 213.307 192.379C213.316 192.32 213.34 192.265 213.377 192.219C215.747 189.367 222.979 179.237 217.163 168.28C213.453 167.447 209.942 165.898 206.826 163.719C206.374 163.384 205.889 163.098 205.377 162.864H205.29C204.437 163.103 203.629 163.482 202.9 163.986C200.896 165.128 198.165 166.657 194.82 167.218C179.121 169.729 176.397 176.72 176.016 178.102C175.991 178.202 175.935 178.291 175.856 178.356C175.809 178.382 175.756 178.396 175.702 178.396C175.648 178.396 175.595 178.382 175.548 178.356C173.852 177.668 172.037 177.318 170.206 177.328C166.08 177.328 161.212 178.924 155.75 182.075C140.391 190.916 137.3 193.013 135.417 194.516Z" fill="black"/>
<path d="M136.085 196.686C137.768 199.731 140.245 202.396 142.295 205.2C144.84 208.686 147.317 212.238 149.607 215.884C149.834 216.245 150.409 215.884 150.182 215.544C148.005 212.058 145.654 208.673 143.237 205.347C141.073 202.376 138.442 199.551 136.66 196.333C136.453 195.952 135.878 196.293 136.085 196.666V196.686Z" fill="black"/>
<path d="M175.442 178.308C178.634 181.447 181.559 184.826 184.424 188.258C187.288 191.69 190.567 195.142 193.031 198.942C193.265 199.303 193.846 198.942 193.612 198.601C191.215 194.915 188.083 191.637 185.278 188.258C182.342 184.629 179.221 181.152 175.93 177.841C175.623 177.541 175.149 178.008 175.463 178.308H175.442Z" fill="black"/>
<path d="M1.83882 161.269C1.11097 163.986 1.77205 166.871 2.5867 169.489C3.94067 173.498 5.75577 177.337 7.9955 180.927C12.9569 189.314 19.2672 196.953 25.0633 204.779C30.0046 211.457 34.926 218.135 40.1745 224.572C43.8939 229.119 47.867 233.473 51.8201 237.82C56.4342 242.895 61.1018 247.923 65.8429 252.851C68.7543 255.856 71.6657 259.121 75.2248 261.385C86.6768 268.683 101.067 260.129 111.664 255.161C124.418 249.183 137.128 243.115 149.793 236.958C150.18 236.771 149.839 236.191 149.459 236.378C140.555 240.687 131.652 244.958 122.749 249.192C116.238 252.283 109.714 255.368 103.157 258.38C96.3191 261.525 88.4663 264.677 80.7939 262.994C76.547 262.059 73.295 259.342 70.2701 256.377C65.8763 252.07 61.6828 247.556 57.5027 243.022C52.9419 238.107 48.4279 233.146 44.0274 228.084C39.4199 222.795 35.173 217.213 30.9662 211.604C24.6826 203.23 18.2321 194.91 12.2691 186.309C9.24007 182.054 6.6409 177.509 4.50983 172.741C3.04746 169.369 1.47824 165.128 2.50658 161.422C2.53049 161.334 2.51823 161.239 2.47253 161.16C2.42682 161.08 2.35138 161.022 2.26283 160.998C2.17428 160.974 2.07986 160.987 2.00034 161.032C1.92082 161.078 1.86273 161.153 1.83882 161.242V161.269Z" fill="black"/>
<path d="M255.486 181.375C258.885 181.415 262.384 179.893 265.502 178.664C270.423 176.701 275.198 174.37 279.912 171.986C287.605 168.053 295.538 164.013 302.616 159.025C302.963 158.778 302.616 158.204 302.282 158.451C295.404 163.286 287.725 167.199 280.246 171.045C275.572 173.469 270.797 175.786 265.909 177.796C262.711 179.131 259.005 180.774 255.473 180.734C255.384 180.734 255.299 180.769 255.236 180.832C255.174 180.894 255.139 180.979 255.139 181.068C255.139 181.156 255.174 181.241 255.236 181.304C255.299 181.367 255.384 181.402 255.473 181.402L255.486 181.375Z" fill="black"/>
<path d="M205.591 183.498C202.706 183.251 196.242 185.18 193.204 183.972C190.165 182.763 193.925 180.366 197.651 180.726C201.377 181.087 204.629 179.044 200.322 177.962C196.015 176.88 188.055 178.082 192.028 174.229C192.99 172.066 195.367 171.345 196.476 171.558C198.038 167.224 209.47 173.481 213.797 173.121C217.022 178.803 217.022 182.65 205.591 183.498Z" fill="#FF8F46"/>
<path d="M206.112 102.371C200.65 105.263 196.363 113.196 195.615 117.69C194.867 122.184 195.141 123.826 193.799 123.926C191.795 124.073 189.999 123.873 189.518 125.102C188.637 127.345 192.289 127.546 192.189 130.33C192.089 133.115 189.839 143.078 191.869 149.501C193.899 155.925 197.658 159.144 203.014 160.105C208.369 161.067 210.94 157.962 211.474 163.644C212.008 169.327 213.177 180.458 213.177 180.458L234.925 175.317L230.745 157.321C230.745 157.321 240.601 98.2781 206.112 102.371Z" fill="#FFA66B"/>
<path d="M212.08 172.292C212.28 175.831 212.915 179.51 212.501 183.056C212.447 183.477 213.115 183.477 213.169 183.056C213.583 179.51 212.948 175.831 212.748 172.292C212.748 171.864 212.08 171.858 212.08 172.292Z" fill="black"/>
<path d="M204.936 103.08C206.545 103.08 210.498 104.302 210.712 106.98C208.361 112.228 209.43 116.622 213.61 119.513C217.79 122.405 220.247 125.082 215.105 129.69C209.964 134.297 209.857 140.08 216.067 144.147C222.277 148.213 223.78 149.609 221.209 154.964C218.638 160.32 215.092 165.234 220.294 171.478C225.349 167.765 230.31 167.391 234.924 167.819C239.538 168.246 242.423 167.819 245.208 162.356C247.992 156.894 253.888 159.251 258.489 160.647C263.09 162.043 265.447 160.326 267.698 154.964C269.948 149.602 274.235 150.47 277.34 149.716C280.445 148.961 281.513 140.828 284.298 139.653C280.018 136.114 277.901 139.039 275.437 136.254C272.973 133.469 276.191 127.573 272.766 123.62C269.34 119.667 264.085 124.421 262.816 121.103C261.548 117.784 268.559 114.265 261.28 106.018C254.002 97.7714 248.426 104.195 243.605 98.0051C238.784 91.8151 215.973 90.4462 204.936 103.08Z" fill="black"/>
<path d="M200.969 112.202C202.925 112.202 204.575 113.871 205.176 115.627C205.302 115.988 205.877 115.834 205.75 115.474C205.082 113.471 203.199 111.588 200.969 111.608C200.898 111.618 200.833 111.654 200.786 111.709C200.739 111.763 200.713 111.833 200.713 111.905C200.713 111.977 200.739 112.046 200.786 112.101C200.833 112.155 200.898 112.191 200.969 112.202Z" fill="black"/>
<path d="M192.475 136.968C192.952 137.411 193.52 137.745 194.139 137.947C194.758 138.148 195.414 138.213 196.061 138.136C197.603 137.876 198.638 136.854 199.78 135.873C200.074 135.626 199.653 135.205 199.359 135.452C197.423 137.121 195.273 138.591 192.895 136.547C192.602 136.3 192.181 136.721 192.475 136.968Z" fill="black"/>
<path d="M202.024 123.714C201.824 124.99 201.049 125.925 200.295 125.805C199.54 125.684 199.073 124.562 199.273 123.294C199.473 122.025 200.241 121.084 201.003 121.204C201.764 121.324 202.218 122.446 202.024 123.714Z" fill="black"/>
<path d="M182.132 199.858C181.291 200.332 178.519 199.497 175.635 198.169L175.488 197.988C173.351 195.531 157.018 179.291 153.866 174.71C153.848 174.683 153.832 174.654 153.819 174.624C151.943 171.165 159.655 167.752 161.558 169.656C163.462 171.559 179.241 192.159 180.449 193.361C180.651 193.577 180.826 193.817 180.97 194.075C181.985 195.851 182.853 199.444 182.132 199.858Z" fill="black"/>
<path d="M153.819 174.624C151.943 171.165 159.655 167.752 161.558 169.656C162.827 172.2 156.463 177.395 153.819 174.624Z" fill="#FFE7B8"/>
<path d="M182.132 199.857C181.291 200.331 178.52 199.496 175.635 198.168L175.488 197.987C176.73 198.167 177.994 197.861 179.015 197.132C180.037 196.403 180.737 195.307 180.971 194.074C181.986 195.85 182.854 199.443 182.132 199.857Z" fill="#FFE7B8"/>
<path d="M157.084 200.446C157.204 195.771 159.087 186.997 163.294 185.314C165.057 187.111 166.199 188.339 166.199 188.339C165.237 191.351 168.028 193.468 170.439 192.266C172.85 191.064 173.778 187.932 176.569 187.591C179.36 187.251 178.138 190.116 176.208 193.488C174.279 196.86 171.641 200.586 168.028 201.427C164.209 202.262 157.591 202.382 157.084 200.446Z" fill="#FFA66B"/>
<path d="M170.586 217.179C170.796 211.692 170.347 206.199 169.251 200.819C168.53 197.934 162.994 194.322 156.383 200.458C149.772 206.595 142.788 241.118 149.405 250.259C156.023 259.401 169.077 258.833 177.017 251.488C188.475 240.877 200.308 229.552 201.396 228.945C202.485 228.337 199.453 260.723 201.497 265.177C216.534 269.143 280.859 259.28 282.068 257.718C283.276 256.155 284.946 243.889 274.242 218.628C283.744 217.766 288.932 211.523 281.293 196.505C275.103 184.339 266.068 177.808 252.473 174.109C233.662 168.994 217.496 173.147 202.098 185.42C186.699 197.694 172.63 214.174 170.586 217.179Z" fill="#99BB4E"/>
<path d="M192.476 174.696C194.085 173.961 195.921 174.309 197.584 174.602C199.28 174.819 200.917 175.363 202.405 176.205C202.772 176.432 203.073 175.851 202.739 175.624C200.929 174.489 198.819 174.135 196.729 173.781C195.194 173.431 193.589 173.549 192.122 174.122C191.735 174.302 192.075 174.876 192.462 174.696H192.476Z" fill="black"/>
<path d="M194.793 172.36C196.718 171.921 198.722 171.971 200.622 172.507C202.273 172.943 203.865 173.578 205.363 174.397C205.439 174.431 205.524 174.435 205.603 174.41C205.681 174.385 205.748 174.332 205.789 174.26C205.831 174.189 205.845 174.104 205.828 174.023C205.81 173.943 205.764 173.871 205.697 173.822C203.969 172.883 202.126 172.171 200.215 171.706C198.376 171.241 196.451 171.241 194.612 171.706C194.192 171.786 194.372 172.433 194.793 172.373V172.36Z" fill="black"/>
<path d="M159.623 230.668C161.426 227.269 164.511 224.718 166.921 221.76C168.016 220.424 169.078 219.089 170.26 217.793C171.596 216.384 173.111 215.176 174.36 213.687C174.634 213.36 174.166 212.879 173.893 213.213C172.644 214.702 171.148 215.937 169.793 217.319C168.437 218.702 167.282 220.264 166.06 221.76C163.723 224.618 160.791 227.035 159.042 230.334C158.841 230.714 159.416 231.048 159.616 230.668H159.623Z" fill="black"/>
<path d="M265.781 198.943C268.132 202.388 269.487 206.909 271.043 210.788C272.379 214.087 274.108 217.533 274.883 221.025C274.976 221.446 275.617 221.266 275.551 220.845C274.749 217.246 272.946 213.687 271.544 210.281C270.002 206.441 268.673 202.021 266.349 198.602C266.109 198.248 265.528 198.602 265.768 198.943H265.781Z" fill="black"/>
<path d="M155.75 172.846C156.558 174.469 160.257 172.399 159.262 171.043C158.267 169.688 154.735 171.851 155.75 172.846Z" fill="black"/>
<path d="M181.998 196.672C181.517 197.941 180.395 199.43 179.387 199.617C180.669 199.991 181.677 200.111 182.131 199.857C182.585 199.603 182.418 198.161 181.998 196.672Z" fill="black"/>
<path d="M193.985 194.435C199.547 192.839 203.821 196.605 206.993 200.778C210.472 205.352 211.38 210.915 210.578 216.51C210.518 216.931 211.159 217.118 211.246 216.691C212.101 210.681 211.066 204.785 207.24 199.944C203.901 195.723 199.52 192.171 193.885 193.787C193.796 193.811 193.721 193.869 193.675 193.948C193.629 194.028 193.617 194.122 193.641 194.211C193.665 194.299 193.723 194.375 193.802 194.421C193.882 194.466 193.976 194.479 194.065 194.455L193.985 194.435Z" fill="black"/>
<path d="M204.608 192.259C205.623 189.722 208.054 187.805 209.824 185.782C211.665 183.814 213.681 182.017 215.847 180.413C216.187 180.139 215.713 179.672 215.379 179.939C212.935 181.81 210.662 183.895 208.588 186.169C206.925 188.046 204.889 189.728 203.914 192.106C203.754 192.506 204.401 192.68 204.582 192.286L204.608 192.259Z" fill="black"/>
<path d="M200.663 229.874C201.758 228.766 202.939 227.745 204.195 226.822C205.671 225.654 207.047 224.358 208.509 223.163C208.843 222.889 208.369 222.422 208.035 222.689C206.699 223.778 205.411 224.906 204.115 226.028C202.738 227.072 201.427 228.201 200.189 229.407C199.902 229.72 200.376 230.195 200.663 229.874Z" fill="black"/>
<path d="M208.241 230.955C208.241 235.329 208.195 239.709 208.241 244.083C208.288 248.457 208.716 252.684 208.736 256.997C208.736 257.086 208.771 257.171 208.833 257.233C208.896 257.296 208.981 257.331 209.069 257.331C209.158 257.331 209.243 257.296 209.306 257.233C209.368 257.171 209.403 257.086 209.403 256.997C209.403 252.684 209.003 248.39 208.909 244.083C208.816 239.776 208.909 235.329 208.909 230.955C208.909 230.866 208.874 230.782 208.811 230.719C208.749 230.656 208.664 230.621 208.575 230.621C208.487 230.621 208.402 230.656 208.339 230.719C208.277 230.782 208.241 230.866 208.241 230.955Z" fill="black"/>
<path d="M167.515 98.579C164.543 89.0435 161.091 79.6349 157.752 70.2329C154.56 61.2383 150.834 52.2838 148.404 43.0354C148.328 42.7586 148.267 42.4777 148.223 42.194C148.096 41.3393 146.808 41.7066 146.935 42.5479C147.284 44.2697 147.773 45.9603 148.397 47.6028C149.332 50.4808 150.32 53.3321 151.315 56.1834C152.837 60.5572 154.413 64.9043 155.989 69.258C159.442 78.8536 162.814 88.5026 166.006 98.1851C166.092 98.4388 166.172 98.6925 166.253 98.9463C166.506 99.7676 167.795 99.4137 167.541 98.5924L167.515 98.579Z" fill="black"/>
<path d="M139.056 29.0271C141.34 27.5848 144.585 26.7434 146.748 27.9454C148.912 29.1473 153.126 34.3224 151.563 39.6177C150 44.913 144.705 43.2235 142.542 41.9014C140.378 40.5792 135.938 31.6781 139.056 29.0271Z" fill="#99BB4E"/>
<path d="M145.913 30.4621C147.656 28.766 149.846 27.4105 151.796 25.9815C155.515 23.2571 159.262 20.5727 163.008 17.8884C169.017 13.6014 175.027 9.3478 181.037 5.06083C181.705 4.5667 181.037 3.41148 180.369 3.9123C174.273 8.26604 168.149 12.5931 162.059 16.9468C158.333 19.6178 154.607 22.2888 150.915 24.9999C148.911 26.4356 146.741 27.8112 144.992 29.5206C144.371 30.1216 145.319 31.0631 145.933 30.4621H145.913Z" fill="black"/>
<path d="M191.034 20.8195C187.241 21.2803 181.291 22.509 181.411 29.1197C181.532 35.7305 182.012 36.0977 179.608 37.6603C177.205 39.2228 167.816 48.0104 169.746 57.152C171.676 66.2935 186.827 70.507 200.903 66.8945C214.979 63.2819 218.345 57.152 217.383 51.7365C216.422 46.321 212.328 37.5401 206.699 35.7104C201.411 34.0277 202.025 33.6671 201.29 28.6122C200.556 23.5573 198.012 20.0049 191.034 20.8195Z" fill="#AFD1DF"/>
<path d="M184.977 5.98973C186.646 11.9461 189.438 17.6086 190.753 23.6718C190.933 24.5132 192.222 24.1593 192.042 23.3179C190.706 17.2547 187.935 11.5922 186.266 5.63582C186.219 5.46492 186.106 5.31966 185.952 5.232C185.798 5.14434 185.615 5.12146 185.444 5.16839C185.273 5.21532 185.128 5.32822 185.041 5.48225C184.953 5.63628 184.93 5.81883 184.977 5.98973Z" fill="black"/>
<path d="M139.31 30.0814C141.514 29.9612 143.25 32.9527 144.098 34.6354C144.766 35.971 146.522 41.1527 144.031 41.7003C143.611 41.7937 143.791 42.4348 144.205 42.368C146.823 41.7937 145.814 37.5669 145.3 35.8841C144.586 33.5136 142.255 29.2734 139.29 29.4403C138.856 29.4403 138.856 30.1081 139.29 30.1081L139.31 30.0814Z" fill="black"/>
<path d="M149.112 101.692C150.36 110.059 161.973 109.852 168.383 109.558C173.057 109.345 178.065 108.777 182.453 107.108C185.671 105.879 187.127 102.908 187.26 99.6355C187.26 99.2015 186.593 99.2082 186.593 99.6355C186.392 103.695 184.242 105.986 180.423 107.041C176.3 108.138 172.066 108.768 167.802 108.917C163.949 109.098 160.276 109.031 156.537 107.976C154.672 107.529 152.936 106.658 151.462 105.432C150.327 104.403 149.973 102.968 149.759 101.519C149.693 101.091 149.052 101.272 149.092 101.692H149.112Z" fill="black"/>
<path d="M180.571 2.79068C181.239 6.19622 182.975 7.95908 185.866 6.63693C188.758 5.31478 187.068 2.43009 185.746 0.867551C184.424 -0.69499 179.97 -0.200853 180.571 2.79068Z" fill="#FFE7B8"/>
<path d="M181.337 1.40889C183.127 0.627619 186.072 4.12664 184.783 5.69586C184.516 6.02306 184.983 6.50384 185.257 6.16996C187.053 3.97306 183.507 -0.267169 181.003 0.827945C180.609 1.00156 180.95 1.57583 181.337 1.40889Z" fill="black"/>
<path d="M183.615 24.6066C183.014 27.8452 186.881 28.5397 189.298 28.6799C192.637 28.8802 197.378 28.2192 199.381 25.2276C199.621 24.867 199.047 24.5599 198.807 24.8871C197.111 27.4179 193.331 27.8986 190.52 28.0255C188.483 28.119 183.695 27.8452 184.263 24.7869C184.336 24.3662 183.695 24.1859 183.595 24.6066H183.615Z" fill="black"/>
<path d="M181.438 37.2069C181.518 41.12 185.832 42.0414 188.93 42.2017C193.364 42.4354 197.878 41.781 200.589 37.8613C200.83 37.5007 200.255 37.1936 200.008 37.5208C197.731 40.8195 193.892 41.6742 190.099 41.5874C187.187 41.5139 182.186 41.2134 182.086 37.2069C182.086 37.1184 182.051 37.0335 181.988 36.9708C181.925 36.9082 181.84 36.873 181.752 36.873C181.663 36.873 181.578 36.9082 181.516 36.9708C181.453 37.0335 181.418 37.1184 181.418 37.2069H181.438Z" fill="black"/>
</svg>
