<svg width="406" height="749" viewBox="0 0 406 749" fill="none" xmlns="http://www.w3.org/2000/svg">
<path d="M371.59 748.869H280.087V746.153C280.087 695.097 245.542 653.548 203.067 653.548C160.593 653.548 126.038 695.078 126.028 746.143V748.849H34.5254L122.506 592.504H283.521L371.59 748.869ZM284.534 743.447H363.109L281.13 597.946H124.897L42.9574 743.427H121.532C122.732 690.629 158.792 648.136 203.067 648.136C247.343 648.136 283.344 690.649 284.534 743.447Z" fill="#01265B"/>
<path d="M203.066 624.684C147.269 624.684 102.029 679.056 102.02 746.142H123.744C123.744 693.502 159.253 650.831 203.037 650.841C246.82 650.851 282.319 693.522 282.309 746.152H304.073C304.073 679.075 258.843 624.684 203.066 624.684Z" fill="#01265B"/>
<path d="M241.062 443.31H207.354L200.545 71.6309H209.626L241.062 443.31ZM211.761 437.897H236.083L205.582 77.0435H205.159L211.761 437.897Z" fill="#01265B"/>
<path d="M210.089 441.253L209.036 439.963L221.689 425.025L207.914 412.507L220.705 398.404L209.302 386.142L219.574 374.185L206.999 363.852L218.127 350.754L208.554 339.87L216.838 328.798L207.137 318.377L216.474 306.252L207.983 294.768L214.408 284.464L207.186 275.095L214.074 263.768L206.999 253.868L212.834 244.519L207.245 236.646L212.558 226.667L206.537 217.033L210.886 209.849L205.346 202.626L210.423 195.205L205.897 188.986L209.784 181.989L205.425 175.602L209.056 168.644L205.297 162.799L208.446 157.012L205.494 152.475L208.19 146.571L204.835 141.552L207.619 136.631L204.451 132.203L207.403 126.997L202.631 120.295H213.041L209.292 126.879L212.46 131.327L209.508 136.503L212.549 140.745L209.951 146.403L213.287 151.403L210.335 156.884L214.054 162.513L210.925 168.506L215.313 175.317L211.693 181.841L216.612 189.035L212.431 195.136L217.468 202.025L212.854 209.642L219.082 217.761L214.418 226.51L220.144 235.8L214.743 244.45L221.63 254.232L215.923 263.67L223.017 273.639L216.327 284.346L225.821 296.677L218.413 306.282L226.933 317.875L218.885 328.651L229.393 339.938L220.233 350.764L231.134 363.154L221.817 373.979L235.041 384.893L222.82 398.414L235.139 411.67L223.981 424.847L239.025 438.468L238.12 439.904L222.899 426.127L210.089 441.253ZM210.217 412.369L222.742 423.765L232.945 411.729L221.758 399.615L210.217 412.369ZM211.417 386.093L221.758 397.194L232.699 385.08L220.774 375.238L211.417 386.093ZM209.321 363.606L220.587 372.906L228.99 363.124L219.151 351.994L209.321 363.606ZM210.62 339.761L219.17 349.484L227.228 339.997L217.911 329.999L210.62 339.761ZM209.223 318.259L217.822 327.45L224.975 317.865L217.419 307.64L209.223 318.259ZM209.912 294.64L217.448 304.894L223.804 296.647L215.441 285.822L209.912 294.64ZM209.125 274.958L215.323 282.998L221.118 273.708L215.048 265.176L209.125 274.958ZM208.967 253.789L214.998 262.263L219.79 254.321L213.887 245.926L208.967 253.789ZM209.144 236.459L213.798 243.043L218.275 235.8L213.503 228.183L209.144 236.459ZM208.436 216.984L213.454 225.014L217.193 217.997L211.919 211.197L208.436 216.984ZM207.373 202.527L211.82 208.333L215.549 202.163L211.466 196.554L207.373 202.527ZM207.826 188.809L211.427 193.729L214.664 188.996L210.817 183.376L207.826 188.809ZM207.304 175.435L210.689 180.355L213.464 175.366L210.079 170.101L207.304 175.435ZM207.176 162.641L209.951 166.981L212.224 162.641L209.469 158.469L207.176 162.641ZM207.285 152.229L209.351 155.349L211.466 151.472L209.193 148.076L207.285 152.229ZM206.694 141.404L208.967 144.799L210.728 140.951L208.623 137.999L206.694 141.404ZM206.33 132.055L208.495 135.066L210.571 131.425L208.367 128.532L206.33 132.055ZM205.897 122.086L208.278 125.442L210.187 122.086H205.897Z" fill="#01265B"/>
<path d="M210.129 414.271L210.061 410.659L235.288 409.99L235.357 413.592L210.129 414.271Z" fill="#01265B"/>
<path d="M208.801 387.955L208.732 384.353L233.96 383.674L234.028 387.286L208.801 387.955Z" fill="#01265B"/>
<path d="M207.483 364.789L207.414 361.177L232.651 360.508L232.71 364.11L207.483 364.789Z" fill="#01265B"/>
<path d="M207.522 341.543L207.453 338.079L230.693 337.4L230.762 340.864L207.522 341.543Z" fill="#01265B"/>
<path d="M207.344 318.298L207.275 314.972L228.715 314.303L228.793 317.619L207.344 318.298Z" fill="#01265B"/>
<path d="M205.94 297.257L205.871 293.931L227.31 293.262L227.389 296.588L205.94 297.257Z" fill="#01265B"/>
<path d="M205.94 276.137L205.871 272.978L225.234 272.299L225.303 275.458L205.94 276.137Z" fill="#01265B"/>
<path d="M205.003 255.08L204.924 251.96L223.815 251.281L223.893 254.401L205.003 255.08Z" fill="#01265B"/>
<path d="M205.005 237.623L204.916 234.779L220.639 234.1L220.717 236.944L205.005 237.623Z" fill="#01265B"/>
<path d="M205.95 219.432L205.861 216.775L219.557 216.096L219.646 218.753L205.95 219.432Z" fill="#01265B"/>
<path d="M206.016 203.796L205.918 201.286L218.187 200.607L218.276 203.127L206.016 203.796Z" fill="#01265B"/>
<path d="M204.522 190.095L204.424 187.585L216.693 186.906L216.782 189.416L204.522 190.095Z" fill="#01265B"/>
<path d="M204.253 176.47L204.154 173.95L216.424 173.281L216.512 175.791L204.253 176.47Z" fill="#01265B"/>
<path d="M204.253 164.315L204.154 161.806L216.424 161.127L216.512 163.636L204.253 164.315Z" fill="#01265B"/>
<path d="M204.257 152.907L204.148 150.654L214.027 149.975L214.135 152.228L204.257 152.907Z" fill="#01265B"/>
<path d="M203.919 142.792L203.811 140.538L213.689 139.859L213.797 142.113L203.919 142.792Z" fill="#01265B"/>
<path d="M203.686 132.978L203.578 130.724L213.456 130.045L213.565 132.299L203.686 132.978Z" fill="#01265B"/>
<path d="M228.511 558.835L211.007 462.116L238.822 456.379L268.329 558.844H273.091L241.823 450.268L205.605 457.747L223.896 558.835H228.511Z" fill="#01265B"/>
<path d="M236.714 558.837L216.308 459.934H208.309L226.196 558.837H236.714Z" fill="#01265B"/>
<path d="M225.394 525.105L264.78 548.557L255.659 558.84H257.843L267.377 548.094L227.982 524.633L253.652 495.237L216.027 466.826L215.23 468.361L251.222 495.533L225.394 525.105Z" fill="#01265B"/>
<path d="M232.36 551.659L242.907 558.843H245.948L234.889 551.305L261.424 521.939L223.357 497.1L243.773 468.187L242.622 467.016L221.016 497.621L258.866 522.323L232.36 551.659Z" fill="#01265B"/>
<path d="M220.777 499.613L220.59 496.021L252.34 493.59L252.527 497.192L220.777 499.613Z" fill="#01265B"/>
<path d="M226.793 526.676L226.586 523.074L260.039 520.338L260.245 523.94L226.793 526.676Z" fill="#01265B"/>
<path d="M233.726 553.286L233.52 549.684L267.661 546.801L267.867 550.403L233.726 553.286Z" fill="#01265B"/>
<path d="M337.906 747.591L260.641 596.659L264.478 593.814L341.744 744.757L337.906 747.591Z" fill="#01265B"/>
<path d="M315.159 747.607L236.771 596.665L240.589 593.801L318.976 744.734L315.159 747.607Z" fill="#01265B"/>
<path d="M291.142 609.086H201.352V612.698H291.142V609.086Z" fill="#01265B"/>
<path d="M307.345 639.439H243.736V643.051H307.345V639.439Z" fill="#01265B"/>
<path d="M318.888 658.795H272.645V662.475H318.888V658.795Z" fill="#01265B"/>
<path d="M330.319 678.898H285.994V682.51H330.319V678.898Z" fill="#01265B"/>
<path d="M341.003 697.566H294.18V701.277H341.003V697.566Z" fill="#01265B"/>
<path d="M352.293 716.932H304.072V720.691H352.293V716.932Z" fill="#01265B"/>
<path d="M203.604 595.23H199.098V633.109H203.604V595.23Z" fill="#01265B"/>
<path d="M228.104 637.921L219.977 594.62L224.365 593.43L232.492 636.731L228.104 637.921Z" fill="#01265B"/>
<path d="M367.887 745.882H338.616L344.46 731.691L326.386 719.124L331.837 709.401L316.478 700.858L322.313 690.466L306.374 680.625L310.408 670.449L296.456 661.829L301.375 650.246L287.07 640.277V625.249L271.573 612.456L276.493 604.898L265.434 599.712L265.975 598.039L277.457 603.412L281.747 596.818L282.927 597.93L278.913 604.101L288.585 608.638V624.334L307.436 639.922L303.353 649.517L316.695 658.798L312.395 669.623L329.81 680.389L324.507 689.836L339.443 699.107L334.08 708.662L351.613 718.405L346.438 730.982L367.887 745.882ZM341.036 744.071H362.299L345.73 732.586L341.036 744.071ZM328.531 718.484L345.13 730.018L349.577 719.192L333.224 710.148L328.531 718.484ZM318.692 700.061L332.673 707.836L337.229 699.717L323.631 691.283L318.692 700.061ZM308.341 679.779L323.149 688.98L327.616 681.048L311.736 671.207L308.341 679.779ZM298.502 660.992L311.096 668.776L314.776 659.496L302.664 651.102L298.502 660.992ZM288.663 639.214L302.133 648.592L305.577 640.483L288.575 626.499L288.663 639.214ZM273.826 612.023L287.158 623.065V609.838L278.018 605.557L273.826 612.023Z" fill="#01265B"/>
<path d="M339.085 745.928L315.107 745.416L319.427 732.918L303.084 720.321L307.718 709.713L294.15 700.649L299.286 690.463L285.059 680.11L288.119 671.135L273.36 661.914L278.664 651.01L262.203 640.667L264.781 626.142L247.779 612.059L253.997 604.364L241.797 598.941L242.318 597.258L255.109 602.956L261.012 595.674L262.095 596.924L256.664 603.635L269.297 609.255L266.444 625.355L285.305 640.982L280.779 650.282L294.012 658.568L290.018 670.279L306.114 680.357L301.343 689.843L314.055 699.094L309.725 709.004L325.645 719.623L321.286 732.229L339.085 745.928ZM317.341 743.654L333.821 744.009L320.706 733.912L317.341 743.654ZM305.052 719.701L320.007 731.225L323.756 720.4L308.997 710.559L305.052 719.701ZM296.197 700.019L308.377 708.148L312.038 699.783L300.536 691.408L296.197 700.019ZM286.889 679.353L300.024 688.899L303.96 681.026L289.398 671.923L286.889 679.353ZM275.446 661.166L288.65 669.433L292.074 659.395L279.992 651.827L275.446 661.166ZM263.876 639.703L279.421 649.436L283.278 641.504L266.08 627.254L263.876 639.703ZM250.101 611.784L265.125 624.233L267.575 610.396L255.542 605.043L250.101 611.784Z" fill="#01265B"/>
<path d="M229.718 642.243L238.671 623.663L224.267 611.853L215.569 618.87L230.328 631.319L200.811 628.613L212.913 618.841L201.558 609.275L210.679 603.971L201.007 598.204L201.676 596.59L212.401 602.878L222.181 597.19L232.492 603.331L238.199 597.515L239.183 598.893L233.978 604.197L246.257 611.499L240.688 623.033L262.098 640.678L229.718 642.243ZM239.921 624.676L232.384 640.275L257.513 639.094L239.921 624.676ZM205.258 627.186L225.005 628.997L214.241 619.933L205.258 627.186ZM226.726 611.666L239.468 622.059L244.171 612.306L232.758 605.516L226.726 611.666ZM204.52 609.541L214.251 617.748L222.555 611.037L212.391 604.965L204.52 609.541ZM214.093 603.971L225.359 610.692L231.262 604.679L222.181 599.286L214.093 603.971Z" fill="#01265B"/>
<path d="M198.195 443.31H164.486L195.971 71.6309H205.053L198.195 443.31ZM169.475 437.897H193.787L200.477 77.0435H200.113L169.475 437.897Z" fill="#01265B"/>
<path d="M195.469 441.242L182.679 426.116L167.458 439.894L166.562 438.447L181.596 424.827L170.39 411.64L182.718 398.384L170.498 384.862L183.722 373.948L174.404 363.123L185.355 350.723L176.195 339.898L186.664 328.65L178.615 317.825L187.136 306.242L179.727 296.627L189.222 284.306L182.541 273.628L189.635 263.669L183.928 254.231L190.816 244.449L185.444 235.799L191.258 226.548L186.595 217.8L192.823 209.681L188.208 202.064L193.246 195.175L189.074 189.074L193.994 181.88L190.373 175.355L194.761 168.545L191.632 162.552L195.351 156.923L192.4 151.431L195.745 146.442L193.167 140.852L196.217 136.611L193.266 131.434L196.434 126.986L192.685 120.402H203.065L198.293 127.104L201.245 132.31L198.067 136.729L200.851 141.649L197.506 146.668L200.192 152.573L197.241 157.11L200.389 162.896L196.63 168.742L200.261 175.699L195.902 182.086L199.779 189.083L195.194 195.175L200.271 202.595L194.732 209.819L199.071 217.003L193.049 226.627L198.362 236.616L192.774 244.489L198.598 253.828L191.544 263.767L198.431 275.095L191.209 284.463L197.634 294.757L189.153 306.252L198.49 318.376L188.789 328.788L197.054 339.869L187.47 350.694L198.598 363.802L186.083 374.135L196.345 386.092L184.942 398.404L197.732 412.506L183.958 425.024L196.611 439.963L195.469 441.242ZM172.564 411.699L182.787 423.764L195.342 412.388L183.82 399.594L172.564 411.699ZM172.879 385.069L183.84 397.193L194.151 386.112L184.814 375.287L172.879 385.069ZM176.559 363.123L184.961 372.905L196.227 363.605L186.339 351.983L176.559 363.123ZM178.32 339.997L186.378 349.483L194.938 339.76L187.647 329.988L178.32 339.997ZM180.632 317.864L187.785 327.449L196.355 318.258L188.159 307.639L180.632 317.864ZM181.774 296.666L188.13 304.923L195.666 294.669L190.137 285.812L181.774 296.666ZM184.469 273.707L190.274 283.036L196.463 274.996L190.56 265.214L184.469 273.707ZM185.837 254.32L190.639 262.262L196.68 253.789L191.76 245.916L185.837 254.32ZM187.323 235.799L191.849 243.042L196.503 236.458L192.085 228.172L187.323 235.799ZM188.454 218.006L192.183 224.974L197.211 216.944L193.689 211.196L188.454 218.006ZM190.097 202.172L193.826 208.342L198.274 202.536L194.21 196.553L190.097 202.172ZM190.983 189.044L194.21 193.758L197.821 188.837L194.82 183.444L190.983 189.044ZM192.242 175.394L195.007 180.384L198.402 175.463L195.627 170.159L192.242 175.394ZM193.482 162.601L195.755 166.951L198.529 162.65L196.178 158.468L193.482 162.601ZM194.21 151.5L196.316 155.437L198.382 152.317L196.473 148.154L194.21 151.5ZM194.938 141.039L196.709 144.887L198.972 141.482L197.004 138.106L194.938 141.039ZM195.096 131.483L197.172 135.125L199.326 132.113L197.25 128.531L195.096 131.483ZM195.469 122.134L197.378 125.579L199.769 122.213L195.469 122.134Z" fill="#01265B"/>
<path d="M195.428 414.267L170.201 413.588L170.27 409.977L195.497 410.656L195.428 414.267Z" fill="#01265B"/>
<path d="M196.756 387.955L171.529 387.276L171.598 383.674L196.825 384.353L196.756 387.955Z" fill="#01265B"/>
<path d="M198.075 364.781L172.848 364.102L172.917 360.5L198.144 361.179L198.075 364.781Z" fill="#01265B"/>
<path d="M198.046 341.534L174.807 340.855L174.885 337.4L198.125 338.079L198.046 341.534Z" fill="#01265B"/>
<path d="M198.224 318.296L176.785 317.617L176.854 314.291L198.303 314.97L198.224 318.296Z" fill="#01265B"/>
<path d="M199.638 297.261L178.189 296.582L178.268 293.256L199.707 293.935L199.638 297.261Z" fill="#01265B"/>
<path d="M199.641 276.137L180.277 275.458L180.356 272.299L199.719 272.978L199.641 276.137Z" fill="#01265B"/>
<path d="M200.588 255.08L181.697 254.401L181.776 251.281L200.667 251.96L200.588 255.08Z" fill="#01265B"/>
<path d="M200.584 237.623L184.871 236.944L184.96 234.1L200.673 234.779L200.584 237.623Z" fill="#01265B"/>
<path d="M199.643 219.432L185.957 218.753L186.046 216.096L199.741 216.775L199.643 219.432Z" fill="#01265B"/>
<path d="M199.582 203.796L187.312 203.117L187.411 200.607L199.67 201.286L199.582 203.796Z" fill="#01265B"/>
<path d="M201.078 190.095L188.818 189.416L188.907 186.906L201.176 187.585L201.078 190.095Z" fill="#01265B"/>
<path d="M201.345 176.47L189.086 175.791L189.184 173.271L201.444 173.951L201.345 176.47Z" fill="#01265B"/>
<path d="M201.355 164.315L189.086 163.636L189.184 161.127L201.444 161.806L201.355 164.315Z" fill="#01265B"/>
<path d="M201.351 152.907L191.473 152.228L191.581 149.975L201.459 150.654L201.351 152.907Z" fill="#01265B"/>
<path d="M201.687 142.792L191.809 142.113L191.917 139.859L201.795 140.538L201.687 142.792Z" fill="#01265B"/>
<path d="M201.923 132.978L192.045 132.299L192.153 130.045L202.032 130.724L201.923 132.978Z" fill="#01265B"/>
<path d="M137.059 559.315L166.733 456.367L194.538 462.114L176.936 559.325H181.541L199.94 457.745L163.732 450.256L132.297 559.315H137.059Z" fill="#01265B"/>
<path d="M179.239 559.323L197.244 459.928H189.245L168.711 559.323H179.239Z" fill="#01265B"/>
<path d="M148.119 559.319H150.323L140.76 548.543L180.145 525.101L154.328 495.519L190.329 468.348L189.532 466.822L151.897 495.224L177.557 524.629L138.162 548.08L148.119 559.319Z" fill="#01265B"/>
<path d="M170.645 551.307L158.858 559.327H161.898L173.174 551.651L146.677 522.315L184.528 497.623L162.921 467.008L161.78 468.179L182.186 497.092L144.119 521.931L170.645 551.307Z" fill="#01265B"/>
<path d="M184.77 499.607L153.01 497.176L153.207 493.574L184.957 496.005L184.77 499.607Z" fill="#01265B"/>
<path d="M178.759 526.662L145.297 523.926L145.504 520.324L178.956 523.07L178.759 526.662Z" fill="#01265B"/>
<path d="M171.811 553.274L137.67 550.381L137.877 546.789L172.018 549.682L171.811 553.274Z" fill="#01265B"/>
<path d="M67.5833 747.558L63.7461 744.724L141.041 593.801L144.878 596.635L67.5833 747.558Z" fill="#01265B"/>
<path d="M90.3332 747.58L86.5059 744.716L164.933 593.793L168.75 596.657L90.3332 747.58Z" fill="#01265B"/>
<path d="M204.166 609.072H114.375V612.684H204.166V609.072Z" fill="#01265B"/>
<path d="M161.771 639.418H98.1621V643.03H161.771V639.418Z" fill="#01265B"/>
<path d="M132.868 658.777H86.625V662.458H132.868V658.777Z" fill="#01265B"/>
<path d="M119.504 678.879H75.1797V682.491H119.504V678.879Z" fill="#01265B"/>
<path d="M111.32 697.537H64.4961V701.247H111.32V697.537Z" fill="#01265B"/>
<path d="M101.432 716.906H53.2109V720.666H101.432V716.906Z" fill="#01265B"/>
<path d="M206.424 595.23H201.918V633.109H206.424V595.23Z" fill="#01265B"/>
<path d="M177.404 637.911L173.016 636.721L181.152 593.43L185.541 594.62L177.404 637.911Z" fill="#01265B"/>
<path d="M66.8745 745.85H37.6035L59.0722 730.941L53.8969 718.364L71.43 708.622L66.0776 699.066L81.0624 689.786L75.7493 680.338L93.1742 669.582L88.8746 658.757L102.216 649.477L98.1429 639.881L116.994 624.293V608.587L126.666 604.05L122.652 597.88L123.842 596.768L128.122 603.371L139.555 597.958L140.106 599.641L129.047 604.847L133.967 612.405L118.451 625.238V640.275L104.164 650.215L109.084 661.798L95.1223 670.418L99.1563 680.594L83.1974 690.465L89.0221 700.837L73.6635 709.369L79.1143 719.092L61.04 731.659L66.8745 745.85ZM43.2019 744.04H64.464L59.7314 732.555L43.2019 744.04ZM55.9237 719.22L60.371 730.046L76.9694 718.512L72.2762 710.147L55.9237 719.22ZM68.2717 699.735L72.8173 707.844L86.7985 700.079L81.879 691.291L68.2717 699.735ZM77.9041 681.037L82.3611 688.969L97.1787 679.777L93.7842 671.225L77.9041 681.037ZM90.7932 659.495L94.4729 668.775L107.057 660.941L102.856 651.1L90.7932 659.495ZM100.042 640.482L103.476 648.591L116.955 639.222V626.498L100.042 640.482ZM118.451 609.817V623.043L131.792 612.011L127.591 605.536L118.451 609.817Z" fill="#01265B"/>
<path d="M66.4023 745.897L84.2011 732.188L79.8424 719.591L95.7619 708.973L91.4328 699.063L104.155 689.812L99.3728 680.325L115.499 670.248L111.504 658.537L124.738 650.251L120.212 640.951L139.113 625.333L136.259 609.223L148.893 603.614L143.471 596.902L144.544 595.643L150.447 602.935L163.238 597.237L163.71 598.939L151.5 604.352L157.728 612.058L140.736 626.13L143.304 640.656L126.814 650.979L132.117 661.922L117.359 671.134L120.418 680.079L106.211 690.462L111.357 700.667L97.7888 709.691L102.423 720.3L86.0803 732.896L90.3997 745.395L66.4023 745.897ZM84.7816 733.881L71.676 743.987L88.1564 743.633L84.7816 733.881ZM81.7413 720.388L85.4802 731.214L100.445 719.68L96.5097 710.567L81.7413 720.388ZM93.4202 699.722L97.0804 708.097L109.261 699.968L104.932 691.357L93.4202 699.722ZM101.488 681.024L105.424 688.897L118.559 679.351L116.04 671.95L101.488 681.024ZM113.393 659.374L116.817 669.411L130.021 661.155L125.476 651.816L113.393 659.374ZM122.189 641.492L126.056 649.414L141.602 639.691L139.398 627.242L122.189 641.492ZM137.932 610.375L140.382 624.221L155.426 611.733L149.985 604.992L137.932 610.375Z" fill="#01265B"/>
<path d="M175.802 642.242L143.402 640.667L164.842 623.071L159.282 611.527L171.581 604.235L166.357 598.941L167.341 597.563L173.037 603.379L183.388 597.228L193.129 602.877L203.833 596.49L204.503 598.104L194.831 603.871L203.961 609.175L192.597 618.741L204.689 628.513L175.172 631.21L189.931 618.77L181.233 611.744L166.819 623.553L175.802 642.242ZM147.968 639.073L173.136 640.273L165.599 624.646L147.968 639.073ZM191.259 619.892L180.515 628.956L200.262 627.145L191.259 619.892ZM161.368 612.295L166.071 622.048L178.774 611.616L172.791 605.505L161.368 612.295ZM182.945 610.996L191.259 617.708L201 609.5L193.129 604.924L182.945 610.996ZM174.248 604.639L180.151 610.652L191.417 603.93L183.388 599.236L174.248 604.639Z" fill="#01265B"/>
<path d="M247.694 448.881H157.785V469.852H247.694V448.881Z" fill="#01265B"/>
<path d="M252.436 436.48H151.281V450.012H252.436V436.48Z" fill="#01265B"/>
<path d="M213.517 71.6309H192.107V80.4977H213.517V71.6309Z" fill="#01265B"/>
<path d="M217.6 79.752H186.961V99.8967H217.6V79.752Z" fill="#01265B"/>
<path d="M207.218 64.1113H197.094V73.7359H207.218V64.1113Z" fill="#01265B"/>
<path d="M204.603 23.2227H199.723V67.8717H204.603V23.2227Z" fill="#01265B"/>
<path d="M209.845 97.3359H195.273V121.269H209.845V97.3359Z" fill="#01265B"/>
<path d="M290.011 599.744H114.129V558.234H290.011V599.744ZM115.634 597.953H288.515V560.065H115.634V597.953Z" fill="#01265B"/>
<path d="M289.263 575.387H114.877V598.838H289.263V575.387Z" fill="#01265B"/>
<path d="M124.412 559.139H122.896V578.978H124.412V559.139Z" fill="#01265B"/>
<path d="M133.068 559.139H131.553V578.978H133.068V559.139Z" fill="#01265B"/>
<path d="M141.728 559.139H140.213V578.978H141.728V559.139Z" fill="#01265B"/>
<path d="M150.396 559.139H148.881V578.978H150.396V559.139Z" fill="#01265B"/>
<path d="M159.052 559.139H157.537V578.978H159.052V559.139Z" fill="#01265B"/>
<path d="M167.714 559.139H166.199V578.978H167.714V559.139Z" fill="#01265B"/>
<path d="M176.382 559.145H174.867V578.984H176.382V559.145Z" fill="#01265B"/>
<path d="M185.039 559.145H183.523V578.984H185.039V559.145Z" fill="#01265B"/>
<path d="M193.699 559.145H192.184V578.984H193.699V559.145Z" fill="#01265B"/>
<path d="M202.367 559.145H200.852V578.984H202.367V559.145Z" fill="#01265B"/>
<path d="M211.027 559.145H209.512V578.984H211.027V559.145Z" fill="#01265B"/>
<path d="M219.683 559.145H218.168V578.984H219.683V559.145Z" fill="#01265B"/>
<path d="M228.353 559.145H226.838V578.984H228.353V559.145Z" fill="#01265B"/>
<path d="M237.011 559.145H235.496V578.984H237.011V559.145Z" fill="#01265B"/>
<path d="M245.668 559.145H244.152V578.984H245.668V559.145Z" fill="#01265B"/>
<path d="M254.337 559.145H252.822V578.984H254.337V559.145Z" fill="#01265B"/>
<path d="M262.994 559.145H261.479V578.984H262.994V559.145Z" fill="#01265B"/>
<path d="M271.652 559.145H270.137V578.984H271.652V559.145Z" fill="#01265B"/>
<path d="M280.322 559.16H278.807V579H280.322V559.16Z" fill="#01265B"/>
<path d="M405.18 748.851H295.17V746.155C295.296 733.914 292.995 721.77 288.399 710.424C283.803 699.079 277.003 688.758 268.394 680.057C259.785 671.357 249.536 664.45 238.241 659.736C226.946 655.023 214.829 652.595 202.59 652.595C190.351 652.595 178.234 655.023 166.939 659.736C155.644 664.45 145.395 671.357 136.786 680.057C128.177 688.758 121.377 699.079 116.781 710.424C112.185 721.77 109.884 733.914 110.01 746.155V748.851H0L105.789 592.516H299.312L405.18 748.851ZM300.552 743.449H395.006L296.439 597.948H108.662L10.2227 743.449H104.677C105.4 717.944 116.038 693.727 134.329 675.942C152.621 658.158 177.125 648.209 202.634 648.209C228.144 648.209 252.648 658.158 270.939 675.942C289.231 693.727 299.868 717.944 300.591 743.449H300.552Z" fill="#01265B"/>
<path d="M202.597 624.684C170.388 624.684 139.499 637.481 116.724 660.261C93.9491 683.041 81.1543 713.937 81.1543 746.152H107.306C107.178 733.555 109.549 721.057 114.28 709.382C119.011 697.707 126.009 687.085 134.87 678.132C143.731 669.179 154.278 662.071 165.902 657.221C177.527 652.37 189.997 649.873 202.592 649.873C215.187 649.873 227.658 652.37 239.282 657.221C250.906 662.071 261.454 669.179 270.314 678.132C279.175 687.085 286.174 697.707 290.905 709.382C295.636 721.057 298.006 733.555 297.878 746.152H324.03C324.03 713.938 311.237 683.044 288.464 660.264C265.691 637.485 234.804 624.686 202.597 624.684Z" fill="#01265B"/>
<path d="M248.266 443.308H207.759L199.523 71.6289H210.445L248.266 443.308ZM213.052 437.895H242.274L205.555 77.0415H205.033L213.052 437.895Z" fill="#01265B"/>
<path d="M211.034 441.244L209.775 439.965L224.986 425.026L208.378 412.508L223.727 398.406L209.952 386.144L222.3 374.187L207.256 363.854L220.627 350.745L209.116 339.92L219.053 328.839L207.414 318.378L218.64 306.254L208.486 294.759L216.21 284.466L207.532 275.097L215.767 263.77L207.295 253.87L214.301 244.521L207.581 236.648L213.966 226.669L206.725 217.034L211.92 209.821L205.269 202.597L211.369 195.177L206.016 188.958L210.68 181.961L205.436 175.574L209.804 168.616L205.288 162.771L209.066 156.984L205.465 152.447L208.702 146.543L204.668 141.524L208.014 136.603L204.206 132.175L207.768 126.969L201.982 120.365H214.488L209.952 126.949L213.76 131.397L210.218 136.574L213.868 140.815L210.788 146.405L214.872 151.394L211.29 156.886L215.767 162.515L211.92 168.508L217.184 175.318L212.904 181.843L218.807 189.036L213.789 195.138L219.84 202.027L214.301 209.644L221.778 217.763L216.18 226.511L223.107 235.801L216.613 244.462L224.927 254.244L218.04 263.681L226.56 273.64L218.532 284.357L229.945 296.678L221.09 306.293L231.303 317.876L221.631 328.652L234.264 339.94L223.254 350.765L236.36 363.145L225.163 373.97L241.053 384.884L226.373 398.406L241.181 411.662L227.741 424.859L245.815 438.479L244.733 439.925L226.442 426.148L211.034 441.244ZM211.182 412.37L226.285 423.766L238.544 411.721L225.035 399.636L211.182 412.37ZM212.628 386.095L225.016 397.195L238.17 385.091L223.845 375.25L212.628 386.095ZM210.109 363.608L223.648 372.908L233.753 363.125L221.946 351.985L210.109 363.608ZM211.664 339.763L221.946 349.486L231.598 339.999L220.421 329.991L211.664 339.763ZM209.952 318.26L220.253 327.451L228.853 317.866L219.84 307.641L209.952 318.26ZM210.788 294.641L219.84 304.896L227.485 296.639L217.43 285.814L210.788 294.641ZM209.804 274.959L217.312 283.039L224.278 273.749L216.977 265.216L209.804 274.959ZM209.549 253.791L216.839 262.264L222.615 254.322L215.482 245.928L209.549 253.791ZM209.765 236.461L215.354 243.044L220.854 235.801L215.127 228.184L209.765 236.461ZM208.968 216.985L214.999 224.976L219.486 217.959L213.199 211.199L208.968 216.985ZM207.689 202.529L213.032 208.335L217.518 202.164L212.599 196.555L207.689 202.529ZM208.23 188.81L212.559 193.731L216.495 189.007L211.871 183.388L208.23 188.81ZM207.61 175.436L211.674 180.357L215.009 175.367L210.936 170.132L207.61 175.436ZM207.453 162.643L210.778 166.943L213.504 162.603L210.198 158.431L207.453 162.643ZM207.571 152.231L210.06 155.35L212.599 151.473L209.873 148.068L207.571 152.231ZM206.872 141.406L209.598 144.801L211.713 140.953L209.185 138L206.872 141.406ZM206.43 132.056L209.027 135.068L211.526 131.427L208.968 128.533L206.43 132.056ZM205.898 122.078L208.771 125.581L211.064 122.215L205.898 122.078Z" fill="#01265B"/>
<path d="M241.326 409.977L211 410.66L211.081 414.271L241.407 413.588L241.326 409.977Z" fill="#01265B"/>
<path d="M239.73 383.655L209.404 384.338L209.486 387.949L239.812 387.266L239.73 383.655Z" fill="#01265B"/>
<path d="M238.148 360.483L207.822 361.166L207.904 364.777L238.23 364.094L238.148 360.483Z" fill="#01265B"/>
<path d="M235.798 337.384L207.863 338.066L207.948 341.529L235.882 340.847L235.798 337.384Z" fill="#01265B"/>
<path d="M233.408 314.279L207.639 314.963L207.727 318.288L233.496 317.604L233.408 314.279Z" fill="#01265B"/>
<path d="M231.716 293.252L205.947 293.936L206.035 297.261L231.805 296.577L231.716 293.252Z" fill="#01265B"/>
<path d="M229.217 272.298L205.947 272.973L206.039 276.13L229.308 275.456L229.217 272.298Z" fill="#01265B"/>
<path d="M227.521 251.289L204.812 251.967L204.906 255.085L227.614 254.407L227.521 251.289Z" fill="#01265B"/>
<path d="M223.683 234.09L204.795 234.77L204.897 237.612L223.786 236.932L223.683 234.09Z" fill="#01265B"/>
<path d="M222.382 216.102L205.926 216.777L206.035 219.432L222.491 218.757L222.382 216.102Z" fill="#01265B"/>
<path d="M220.747 200.613L206.004 201.285L206.119 203.802L220.862 203.13L220.747 200.613Z" fill="#01265B"/>
<path d="M218.944 186.91L204.201 187.582L204.316 190.099L219.059 189.427L218.944 186.91Z" fill="#01265B"/>
<path d="M218.62 173.279L203.877 173.951L203.992 176.468L218.735 175.796L218.62 173.279Z" fill="#01265B"/>
<path d="M218.614 161.131L203.871 161.803L203.986 164.319L218.729 163.647L218.614 161.131Z" fill="#01265B"/>
<path d="M215.727 149.964L203.861 150.643L203.99 152.893L215.856 152.214L215.727 149.964Z" fill="#01265B"/>
<path d="M215.325 139.847L203.459 140.525L203.588 142.775L215.454 142.097L215.325 139.847Z" fill="#01265B"/>
<path d="M215.03 130.037L203.164 130.715L203.293 132.965L215.159 132.287L215.03 130.037Z" fill="#01265B"/>
<path d="M233.184 558.831L212.148 462.112L245.571 456.365L281.051 558.831H286.777L249.182 450.254L205.654 457.743L227.654 558.831H233.184Z" fill="#01265B"/>
<path d="M243.052 558.829L218.523 459.926H208.9L230.418 558.829H243.052Z" fill="#01265B"/>
<path d="M229.437 525.099L276.772 548.551L265.821 558.825H268.448L279.901 548.078L232.546 524.627L263.401 495.222L218.171 466.82L217.217 468.346L260.479 495.517L229.437 525.099Z" fill="#01265B"/>
<path d="M237.817 551.659L250.489 558.833H254.149L240.857 551.305L272.745 521.939L226.984 497.1L251.522 468.177L250.145 467.006L224.18 497.622L269.665 522.323L237.817 551.659Z" fill="#01265B"/>
<path d="M261.843 493.573L223.676 496.002L223.905 499.606L262.072 497.178L261.843 493.573Z" fill="#01265B"/>
<path d="M271.073 520.338L230.865 523.072L231.11 526.676L271.318 523.941L271.073 520.338Z" fill="#01265B"/>
<path d="M280.232 546.8L239.197 549.691L239.451 553.294L280.486 550.402L280.232 546.8Z" fill="#01265B"/>
<path d="M276.409 593.823L271.801 596.66L364.673 747.594L369.281 744.757L276.409 593.823Z" fill="#01265B"/>
<path d="M247.698 593.815L243.107 596.682L337.332 747.622L341.922 744.755L247.698 593.815Z" fill="#01265B"/>
<path d="M308.467 609.07H200.553V612.682H308.467V609.07Z" fill="#01265B"/>
<path d="M327.973 639.418H251.514V643.03H327.973V639.418Z" fill="#01265B"/>
<path d="M341.834 658.777H286.254V662.458H341.834V658.777Z" fill="#01265B"/>
<path d="M355.575 678.881H302.297V682.493H355.575V678.881Z" fill="#01265B"/>
<path d="M368.42 697.549H312.141V701.259H368.42V697.549Z" fill="#01265B"/>
<path d="M381.989 716.908H324.027V720.668H381.989V716.908Z" fill="#01265B"/>
<path d="M203.261 595.219H197.85V633.097H203.261V595.219Z" fill="#01265B"/>
<path d="M228.226 593.412L222.947 594.604L232.718 637.898L237.996 636.706L228.226 593.412Z" fill="#01265B"/>
<path d="M400.737 745.85H365.553L372.568 731.649L350.843 719.092L357.406 709.359L338.938 700.827L345.944 690.455L326.767 680.545L331.628 670.369L314.902 661.748L320.805 650.165L303.587 640.265V625.228L284.952 612.434L290.855 604.886L277.553 599.7L278.212 598.017L291.987 603.4L297.142 596.797L298.559 597.909L293.748 604.079L305.387 608.587V624.283L328.017 639.871L323.097 649.466L339.125 658.747L333.96 669.572L354.897 680.338L348.521 689.776L366.468 699.056L360.033 708.602L381.148 718.364L374.929 730.931L400.737 745.85ZM368.455 744.049H394.037L374.162 732.555L368.455 744.049ZM353.421 718.462L373.375 729.996L378.717 719.171L359.039 710.078L353.421 718.462ZM341.614 700.05L358.41 707.814L363.88 699.705L347.547 691.262L341.614 700.05ZM329.139 679.728L346.947 688.929L352.309 680.988L333.222 671.146L329.139 679.728ZM317.273 660.931L332.405 668.804L336.833 659.524L322.32 651.09L317.273 660.931ZM305.387 639.192L321.582 648.571L325.715 640.462L305.387 626.487V639.192ZM287.549 612.011L303.587 623.043V609.817L292.597 605.536L287.549 612.011Z" fill="#01265B"/>
<path d="M366.128 745.908L337.3 745.396L342.495 732.898L322.817 720.302L328.396 709.693L312.073 700.629L318.281 690.454L301.181 680.111L304.861 671.126L287.15 661.905L293.526 651.01L273.71 640.677L276.8 626.162L256.354 612.069L263.832 604.373L249.172 598.931L249.792 597.239L265.209 602.937L272.284 595.654L273.573 596.914L267.02 603.616L282.201 609.225L278.827 625.325L301.456 640.953L296.015 650.253L311.925 658.539L307.124 670.25L326.477 680.327L320.731 689.814L336.021 699.065L330.806 708.975L349.943 719.593L344.748 732.19L366.128 745.908ZM339.986 743.596L359.792 743.95L344.049 733.843L339.986 743.596ZM325.227 719.642L343.203 731.166L347.7 720.341L329.989 710.5L325.227 719.642ZM314.621 699.96L329.271 708.089L333.669 699.724L319.836 691.349L314.621 699.96ZM303.424 679.333L319.167 688.879L323.909 681.006L306.415 671.903L303.424 679.333ZM289.65 661.147L305.53 669.413L309.642 659.375L295.11 651.808L289.65 661.147ZM275.737 639.683L294.431 649.416L299.075 641.484L278.413 627.234L275.737 639.683ZM259.149 611.725L277.213 624.184L280.165 610.337L265.692 604.993L259.149 611.725Z" fill="#01265B"/>
<path d="M234.658 642.231L245.422 623.651L228.105 611.842L217.656 618.868L235.366 631.317L199.887 628.611L214.429 618.839L200.772 609.273L211.743 603.969L200.123 598.202L200.92 596.588L213.888 602.867L225.635 597.178L238.042 603.319L244.93 597.493L246.101 598.871L239.843 604.185L254.601 611.487L247.921 623.021L273.679 640.617L234.658 642.231ZM246.907 624.674L237.855 640.263L268.061 639.082L246.907 624.674ZM205.249 627.184L228.981 628.995L216.052 619.931L205.249 627.184ZM231.057 611.655L246.356 622.037L252.004 612.284L238.229 605.494L231.057 611.655ZM204.363 609.539L216.072 617.746L226.049 611.035L213.819 604.963L204.363 609.539ZM215.875 603.969L229.414 610.69L236.488 604.677L225.576 599.275L215.875 603.969Z" fill="#01265B"/>
<path d="M196.738 443.304H156.23L194.061 71.625H205.032L196.738 443.304ZM162.222 437.891H191.454L199.443 77.0376H198.942L162.222 437.891Z" fill="#01265B"/>
<path d="M193.461 441.236L178.063 426.111L159.772 439.898L158.68 438.451L176.764 424.831L163.324 411.634L178.082 398.378L163.442 384.857L179.332 373.943L168.145 363.118L181.241 350.738L170.231 339.912L182.874 328.644L173.202 317.868L183.435 306.275L174.58 296.661L185.944 284.34L177.915 273.623L186.436 263.664L179.548 254.226L187.892 244.444L181.418 235.794L188.305 226.553L182.716 217.804L190.184 209.685L184.645 202.068L190.706 195.179L185.688 189.078L191.591 181.884L187.321 175.31L192.595 168.5L188.836 162.507L193.224 156.878L189.643 151.386L193.657 146.397L190.568 140.807L194.228 136.566L190.676 131.389L194.484 126.941L189.987 120.357H202.483L196.757 127.059L200.308 132.265L196.501 136.694L199.846 141.614L195.822 146.633L199.049 152.538L195.448 157.075L199.226 162.861L194.71 168.707L199.128 175.566L193.874 181.953L198.537 188.95L193.097 195.169L199.197 202.59L192.546 209.813L197.77 216.997L190.538 226.631L196.914 236.61L190.194 244.483L197.209 253.832L188.728 263.762L196.963 275.089L188.305 284.458L196.029 294.752L185.865 306.246L197.081 318.37L185.422 328.782L195.35 339.863L183.838 350.688L197.209 363.797L182.175 374.13L194.513 386.087L180.817 398.398L196.176 412.5L179.519 425.018L194.73 439.957L193.461 441.236ZM165.961 411.713L178.22 423.759L193.313 412.382L179.45 399.608L165.961 411.713ZM166.334 385.083L179.45 397.188L191.837 386.106L180.63 375.281L166.334 385.083ZM170.752 363.137L180.847 372.919L194.385 363.62L182.529 351.978L170.752 363.137ZM172.868 340.011L182.549 349.498L192.841 339.775L184.074 329.983L172.868 340.011ZM175.613 317.858L184.212 327.444L194.513 318.252L184.664 307.634L175.613 317.858ZM176.99 296.661L184.625 304.917L193.687 294.663L187.046 285.806L176.99 296.661ZM180.217 273.701L187.183 283.031L194.631 274.991L187.528 265.209L180.217 273.701ZM181.87 254.314L187.636 262.256L194.897 253.783L188.994 245.91L181.87 254.314ZM183.651 235.794L189.092 243.037L194.681 236.453L189.377 228.167L183.651 235.794ZM185.009 218.001L189.495 224.968L195.527 216.938L191.257 211.191L185.009 218.001ZM186.977 202.166L191.453 208.337L196.796 202.531L191.876 196.557L186.977 202.166ZM188.039 189.038L191.975 193.762L196.304 188.842L192.713 183.449L188.039 189.038ZM189.486 175.399L192.811 180.388L196.885 175.468L193.559 170.163L189.486 175.399ZM190.981 162.605L193.707 166.945L197.042 162.645L194.287 158.433L190.981 162.605ZM191.896 151.475L194.435 155.352L196.914 152.233L194.622 148.07L191.896 151.475ZM192.772 141.004L194.897 144.852L197.622 141.457L195.3 138.071L192.772 141.004ZM192.969 131.478L195.468 135.119L198.055 132.108L195.566 128.526L192.969 131.478ZM193.421 122.129L195.724 125.573L198.597 122.208L193.421 122.129Z" fill="#01265B"/>
<path d="M163.174 409.981L163.094 413.592L193.42 414.27L193.5 410.659L163.174 409.981Z" fill="#01265B"/>
<path d="M164.776 383.669L164.695 387.279L195.021 387.957L195.102 384.346L164.776 383.669Z" fill="#01265B"/>
<path d="M166.35 360.487L166.27 364.098L196.596 364.775L196.676 361.165L166.35 360.487Z" fill="#01265B"/>
<path d="M168.713 337.396L168.629 340.859L196.563 341.537L196.647 338.074L168.713 337.396Z" fill="#01265B"/>
<path d="M171.073 314.282L170.986 317.607L196.756 318.282L196.843 314.957L171.073 314.282Z" fill="#01265B"/>
<path d="M172.775 293.243L172.688 296.568L198.457 297.243L198.544 293.918L172.775 293.243Z" fill="#01265B"/>
<path d="M175.275 272.297L175.184 275.455L198.453 276.13L198.544 272.972L175.275 272.297Z" fill="#01265B"/>
<path d="M176.984 251.278L176.891 254.396L199.599 255.075L199.692 251.956L176.984 251.278Z" fill="#01265B"/>
<path d="M180.807 234.101L180.705 236.943L199.594 237.62L199.695 234.777L180.807 234.101Z" fill="#01265B"/>
<path d="M182.105 216.093L181.996 218.748L198.453 219.424L198.562 216.769L182.105 216.093Z" fill="#01265B"/>
<path d="M183.756 200.597L183.641 203.113L198.384 203.791L198.499 201.274L183.756 200.597Z" fill="#01265B"/>
<path d="M185.565 186.903L185.449 189.42L200.192 190.097L200.308 187.581L185.565 186.903Z" fill="#01265B"/>
<path d="M185.887 173.257L185.771 175.773L200.514 176.451L200.63 173.934L185.887 173.257Z" fill="#01265B"/>
<path d="M185.881 161.106L185.766 163.623L200.509 164.3L200.624 161.784L185.881 161.106Z" fill="#01265B"/>
<path d="M188.769 149.977L188.641 152.227L200.507 152.903L200.635 150.653L188.769 149.977Z" fill="#01265B"/>
<path d="M189.159 139.854L189.031 142.104L200.898 142.78L201.026 140.53L189.159 139.854Z" fill="#01265B"/>
<path d="M189.448 130.061L189.32 132.311L201.187 132.987L201.315 130.737L189.448 130.061Z" fill="#01265B"/>
<path d="M123.287 559.317L158.934 456.359L192.357 462.107L171.213 559.317H176.742L198.85 457.737L155.323 450.248L117.561 559.317H123.287Z" fill="#01265B"/>
<path d="M173.975 559.315L195.601 459.92H185.979L161.322 559.315H173.975Z" fill="#01265B"/>
<path d="M136.581 559.319H139.218L127.736 548.553L175.072 525.101L144.03 495.519L187.292 468.348L186.337 466.822L141.107 495.224L171.953 524.629L124.607 548.08L136.581 559.319Z" fill="#01265B"/>
<path d="M163.644 551.299L149.486 559.319H153.146L166.684 551.653L134.835 522.317L180.321 497.616L154.356 467L152.979 468.171L177.517 497.094L131.756 521.933L163.644 551.299Z" fill="#01265B"/>
<path d="M142.677 493.581L142.447 497.186L180.614 499.621L180.844 496.016L142.677 493.581Z" fill="#01265B"/>
<path d="M133.414 520.311L133.168 523.914L173.375 526.656L173.621 523.052L133.414 520.311Z" fill="#01265B"/>
<path d="M124.964 546.617L124.711 550.229L165.848 553.109L166.101 549.497L124.964 546.617Z" fill="#01265B"/>
<path d="M128.071 593.789L35.1992 744.723L39.8078 747.56L132.68 596.626L128.071 593.789Z" fill="#01265B"/>
<path d="M156.762 593.798L62.5371 744.738L67.1273 747.605L161.352 596.665L156.762 593.798Z" fill="#01265B"/>
<path d="M203.943 609.066H96.0293V612.678H203.943V609.066Z" fill="#01265B"/>
<path d="M152.994 639.416H76.5352V643.028H152.994V639.416Z" fill="#01265B"/>
<path d="M118.252 658.77H62.6719V662.45H118.252V658.77Z" fill="#01265B"/>
<path d="M102.2 678.881H48.9219V682.493H102.2V678.881Z" fill="#01265B"/>
<path d="M92.3592 697.549H36.0801V701.259H92.3592V697.549Z" fill="#01265B"/>
<path d="M80.4752 716.906H22.5137V720.666H80.4752V716.906Z" fill="#01265B"/>
<path d="M206.648 595.219H201.236V633.097H206.648V595.219Z" fill="#01265B"/>
<path d="M176.271 593.411L166.508 636.707L171.787 637.898L181.55 594.602L176.271 593.411Z" fill="#01265B"/>
<path d="M38.9538 745.847H3.76953L29.5674 730.927L23.3491 718.36L44.4243 708.608L37.9797 699.062L55.9261 689.782L49.5799 680.344L70.5272 669.578L65.3518 658.753L81.3894 649.473L76.4699 639.878L99.0996 624.289V608.583L110.739 604.046L105.918 597.876L107.335 596.764L112.49 603.367L126.324 597.945L126.983 599.627L113.651 604.833L119.555 612.382L100.92 625.175V640.261L83.7409 650.201L89.6443 661.784L72.918 670.405L77.7687 680.58L58.5629 690.451L65.5585 700.814L47.1005 709.346L53.6631 719.079L31.9287 731.636L38.9538 745.847ZM10.4896 744.046H36.071L30.384 732.551L10.4896 744.046ZM25.7794 719.217L31.1318 730.042L51.0853 718.498L45.4377 710.133L25.7794 719.217ZM40.6067 699.731L46.0772 707.84L62.8822 700.076L56.9788 691.287L40.6067 699.731ZM52.1873 681.033L57.5397 688.975L75.3483 679.773L71.2749 671.221L52.1873 681.033ZM67.6738 659.491L72.1014 668.771L87.2338 660.928L82.1765 651.087L67.6738 659.491ZM78.7821 640.478L82.9243 648.587L99.1094 639.208V626.484L78.7821 640.478ZM100.92 609.833V623.039L116.948 612.008L111.9 605.532L100.92 609.833Z" fill="#01265B"/>
<path d="M38.3789 745.906L59.7689 732.188L54.4952 719.591L73.6222 708.973L68.4174 699.063L83.7072 689.812L77.9612 680.325L97.3145 670.248L92.5131 658.537L108.423 650.251L102.982 640.951L125.611 625.323L122.188 609.223L137.369 603.614L130.846 596.902L132.223 595.643L139.298 602.925L154.705 597.227L155.335 598.92L140.665 604.342L148.143 612.038L127.707 626.13L130.797 640.646L110.971 650.979L117.347 661.913L99.6365 671.134L103.316 680.119L86.2161 690.452L92.395 700.657L76.082 709.721L81.6508 720.329L61.9728 732.926L67.1678 745.424L38.3789 745.906ZM60.4675 733.881L44.7251 743.987L64.531 743.633L60.4675 733.881ZM56.8172 720.388L61.3038 731.214L79.2895 719.68L74.4979 710.567L56.8172 720.388ZM70.8476 699.722L75.2358 708.087L89.9156 699.968L84.7108 691.357L70.8476 699.722ZM80.539 681.024L85.2913 688.897L101.034 679.351L97.9934 671.95L80.539 681.024ZM94.8449 659.374L98.9576 669.411L114.838 661.145L109.367 651.806L94.8449 659.374ZM105.422 641.482L110.056 649.414L128.75 639.682L126.103 627.233L105.422 641.482ZM124.352 610.375L127.304 624.221L145.358 611.723L138.815 605.031L124.352 610.375Z" fill="#01265B"/>
<path d="M169.849 642.231L130.916 640.657L156.684 623.061L150.004 611.527L164.762 604.225L158.495 598.93L159.666 597.553L166.553 603.379L178.95 597.238L190.757 602.926L203.626 596.539L204.433 598.153L192.813 603.92L203.774 609.224L190.127 618.79L204.659 628.562L169.18 631.268L186.89 618.819L176.402 611.773L159.085 623.582L169.849 642.231ZM136.396 639.121L166.661 640.263L157.609 624.635L136.396 639.121ZM188.415 619.931L175.516 628.946L199.248 627.135L188.415 619.931ZM152.483 612.334L158.141 622.087L173.411 611.655L166.209 605.544L152.483 612.334ZM178.468 610.986L188.445 617.697L200.114 609.49L190.658 604.914L178.468 610.986ZM168.019 604.628L175.103 610.641L188.632 603.92L178.93 599.226L168.019 604.628Z" fill="#01265B"/>
<path d="M256.245 448.879H148.184V469.85H256.245V448.879Z" fill="#01265B"/>
<path d="M261.944 436.477H140.363V450.008H261.944V436.477Z" fill="#01265B"/>
<path d="M215.114 71.6309H189.385V80.4977H215.114V71.6309Z" fill="#01265B"/>
<path d="M220.029 79.75H183.201V99.8947H220.029V79.75Z" fill="#01265B"/>
<path d="M207.542 64.1094H195.371V73.734H207.542V64.1094Z" fill="#01265B"/>
<path d="M204.631 0H198.826V68.2114H204.631V0Z" fill="#01265B"/>
<path d="M210.701 97.334H193.188V121.268H210.701V97.334Z" fill="#01265B"/>
<path d="M307.125 599.734H95.7344V558.244H307.125V599.734ZM97.5349 597.953H305.315V560.065H97.5349V597.953Z" fill="#01265B"/>
<path d="M306.219 575.387H96.6289V598.838H306.219V575.387Z" fill="#01265B"/>
<path d="M108.082 559.15H106.262V578.99H108.082V559.15Z" fill="#01265B"/>
<path d="M118.492 559.15H116.672V578.99H118.492V559.15Z" fill="#01265B"/>
<path d="M128.9 559.15H127.08V578.99H128.9V559.15Z" fill="#01265B"/>
<path d="M139.314 559.15H137.494V578.99H139.314V559.15Z" fill="#01265B"/>
<path d="M149.723 559.15H147.902V578.99H149.723V559.15Z" fill="#01265B"/>
<path d="M160.131 559.15H158.311V578.99H160.131V559.15Z" fill="#01265B"/>
<path d="M170.541 559.15H168.721V578.99H170.541V559.15Z" fill="#01265B"/>
<path d="M180.949 559.15H179.129V578.99H180.949V559.15Z" fill="#01265B"/>
<path d="M191.359 559.15H189.539V578.99H191.359V559.15Z" fill="#01265B"/>
<path d="M201.771 559.15H199.951V578.99H201.771V559.15Z" fill="#01265B"/>
<path d="M212.18 559.15H210.359V578.99H212.18V559.15Z" fill="#01265B"/>
<path d="M222.588 559.15H220.768V578.99H222.588V559.15Z" fill="#01265B"/>
<path d="M232.998 559.15H231.178V578.99H232.998V559.15Z" fill="#01265B"/>
<path d="M243.42 559.15H241.6V578.99H243.42V559.15Z" fill="#01265B"/>
<path d="M253.824 559.15H252.004V578.99H253.824V559.15Z" fill="#01265B"/>
<path d="M264.238 559.15H262.418V578.99H264.238V559.15Z" fill="#01265B"/>
<path d="M274.644 559.15H272.824V578.99H274.644V559.15Z" fill="#01265B"/>
<path d="M285.057 559.15H283.236V578.99H285.057V559.15Z" fill="#01265B"/>
<path d="M295.465 559.15H293.645V578.99H295.465V559.15Z" fill="#01265B"/>
</svg>
