<svg width="243" height="570" viewBox="0 0 243 570" fill="none" xmlns="http://www.w3.org/2000/svg">
<g clip-path="url(#clip0_2448_2407)">
<path d="M249.303 569.702H180.414V567.657C180.414 529.219 154.406 497.939 122.428 497.939C90.4505 497.939 64.4356 529.205 64.4282 567.65V569.687H-4.46094L61.7763 451.98H182.999L249.303 569.702ZM183.762 565.62H242.918L181.199 456.078H63.5763L1.88723 565.605H61.043C61.9467 525.856 89.0949 493.864 122.428 493.864C155.762 493.864 182.866 525.871 183.762 565.62Z" fill="#01265B"/>
<path d="M122.428 476.207C80.4203 476.207 46.3609 517.142 46.3535 567.649H62.7091C62.7091 528.018 89.4425 495.893 122.406 495.9C155.369 495.908 182.095 528.033 182.087 567.656H198.473C198.473 517.157 164.421 476.207 122.428 476.207Z" fill="#01265B"/>
<path d="M151.033 339.656H125.655L120.529 59.832H127.366L151.033 339.656ZM128.974 335.581H147.285L124.322 63.907H124.003L128.974 335.581Z" fill="#01265B"/>
<path d="M127.714 338.106L126.922 337.136L136.448 325.889L126.077 316.465L135.707 305.847L127.122 296.616L134.855 287.614L125.389 279.834L133.766 269.973L126.559 261.779L132.796 253.443L125.492 245.597L132.522 236.469L126.129 227.823L130.966 220.066L125.529 213.013L130.714 204.485L125.389 197.031L129.781 189.993L125.574 184.065L129.574 176.553L125.04 169.299L128.314 163.891L124.144 158.453L127.966 152.866L124.559 148.184L127.485 142.916L124.203 138.107L126.937 132.869L124.107 128.468L126.477 124.112L124.255 120.696L126.285 116.251L123.759 112.472L125.855 108.768L123.47 105.434L125.692 101.514L122.1 96.4688H129.937L127.114 101.425L129.5 104.774L127.277 108.671L129.566 111.865L127.611 116.125L130.122 119.889L127.9 124.015L130.7 128.253L128.344 132.766L131.648 137.893L128.922 142.805L132.626 148.221L129.477 152.814L133.27 158.001L129.796 163.735L134.485 169.848L130.974 176.434L135.285 183.428L131.218 189.941L136.403 197.305L132.107 204.411L137.448 211.916L132.411 219.977L139.559 229.26L133.981 236.492L140.396 245.219L134.337 253.332L142.248 261.83L135.352 269.98L143.559 279.308L136.544 287.458L146.5 295.675L137.3 305.855L146.574 315.835L138.174 325.755L149.5 336.01L148.818 337.091L137.359 326.719L127.714 338.106ZM127.811 316.361L137.24 324.94L144.922 315.879L136.5 306.759L127.811 316.361ZM128.714 296.579L136.5 304.936L144.737 295.816L135.759 288.407L128.714 296.579ZM127.137 279.649L135.618 286.651L141.944 279.286L134.537 270.907L127.137 279.649ZM128.114 261.697L134.552 269.017L140.618 261.875L133.603 254.347L128.114 261.697ZM127.063 245.508L133.537 252.428L138.922 245.212L133.233 237.514L127.063 245.508ZM127.581 227.727L133.255 235.447L138.04 229.238L131.744 221.088L127.581 227.727ZM126.989 212.909L131.655 218.962L136.018 211.968L131.448 205.544L126.989 212.909ZM126.87 196.972L131.411 203.351L135.018 197.372L130.574 191.052L126.87 196.972ZM127.003 183.925L130.507 188.881L133.877 183.428L130.285 177.694L127.003 183.925ZM126.47 169.262L130.248 175.308L133.063 170.025L129.092 164.906L126.47 169.262ZM125.67 158.378L129.018 162.75L131.826 158.104L128.751 153.881L125.67 158.378ZM126.011 148.05L128.722 151.755L131.159 148.191L128.263 143.961L126.011 148.05ZM125.618 137.981L128.166 141.686L130.255 137.93L127.707 133.966L125.618 137.981ZM125.522 128.35L127.611 131.617L129.322 128.35L127.248 125.208L125.522 128.35ZM125.603 120.511L127.159 122.86L128.751 119.94L127.04 117.384L125.603 120.511ZM125.159 112.361L126.87 114.917L128.196 112.02L126.611 109.798L125.159 112.361ZM124.885 105.323L126.514 107.59L128.077 104.848L126.418 102.67L124.885 105.323ZM124.559 97.8172L126.351 100.344L127.789 97.8172H124.559Z" fill="#01265B"/>
<path d="M127.745 317.793L127.693 315.074L146.686 314.57L146.738 317.282L127.745 317.793Z" fill="#01265B"/>
<path d="M126.745 297.981L126.693 295.269L145.686 294.758L145.738 297.477L126.745 297.981Z" fill="#01265B"/>
<path d="M125.753 280.539L125.701 277.82L144.701 277.316L144.746 280.028L125.753 280.539Z" fill="#01265B"/>
<path d="M125.782 263.039L125.73 260.431L143.227 259.92L143.279 262.528L125.782 263.039Z" fill="#01265B"/>
<path d="M125.648 245.539L125.596 243.035L141.737 242.531L141.796 245.028L125.648 245.539Z" fill="#01265B"/>
<path d="M124.591 229.698L124.539 227.193L140.68 226.689L140.739 229.194L124.591 229.698Z" fill="#01265B"/>
<path d="M124.591 213.798L124.539 211.419L139.117 210.908L139.169 213.286L124.591 213.798Z" fill="#01265B"/>
<path d="M123.885 197.944L123.826 195.595L138.048 195.084L138.108 197.433L123.885 197.944Z" fill="#01265B"/>
<path d="M123.887 184.801L123.82 182.66L135.657 182.148L135.717 184.29L123.887 184.801Z" fill="#01265B"/>
<path d="M124.598 171.105L124.531 169.105L134.842 168.594L134.909 170.594L124.598 171.105Z" fill="#01265B"/>
<path d="M124.648 159.334L124.574 157.445L133.811 156.934L133.878 158.83L124.648 159.334Z" fill="#01265B"/>
<path d="M123.523 149.02L123.449 147.13L132.686 146.619L132.753 148.508L123.523 149.02Z" fill="#01265B"/>
<path d="M123.32 138.762L123.246 136.865L132.483 136.361L132.55 138.251L123.32 138.762Z" fill="#01265B"/>
<path d="M123.32 129.611L123.246 127.722L132.483 127.211L132.55 129.1L123.32 129.611Z" fill="#01265B"/>
<path d="M123.324 121.022L123.242 119.326L130.679 118.814L130.761 120.511L123.324 121.022Z" fill="#01265B"/>
<path d="M123.07 113.407L122.988 111.71L130.425 111.199L130.507 112.896L123.07 113.407Z" fill="#01265B"/>
<path d="M122.894 106.018L122.812 104.322L130.25 103.811L130.331 105.507L122.894 106.018Z" fill="#01265B"/>
<path d="M141.584 426.631L128.407 353.815L149.347 349.496L171.562 426.638H175.147L151.607 344.895L124.34 350.525L138.11 426.631H141.584Z" fill="#01265B"/>
<path d="M147.76 426.632L132.397 352.172H126.375L139.842 426.632H147.76Z" fill="#01265B"/>
<path d="M139.238 401.237L168.89 418.893L162.023 426.636H163.668L170.845 418.545L141.186 400.882L160.512 378.751L132.186 357.361L131.586 358.517L158.682 378.973L139.238 401.237Z" fill="#01265B"/>
<path d="M144.482 421.229L152.423 426.637H154.712L146.386 420.962L166.364 398.854L137.704 380.153L153.075 358.386L152.208 357.504L135.941 380.546L164.438 399.143L144.482 421.229Z" fill="#01265B"/>
<path d="M135.762 382.044L135.621 379.34L159.525 377.51L159.666 380.221L135.762 382.044Z" fill="#01265B"/>
<path d="M140.29 402.42L140.135 399.708L165.32 397.648L165.476 400.36L140.29 402.42Z" fill="#01265B"/>
<path d="M145.511 422.453L145.355 419.741L171.059 417.57L171.215 420.282L145.511 422.453Z" fill="#01265B"/>
<path d="M223.946 568.738L165.775 455.106L168.664 452.965L226.835 566.604L223.946 568.738Z" fill="#01265B"/>
<path d="M206.82 568.751L147.805 455.111L150.679 452.955L209.694 566.587L206.82 568.751Z" fill="#01265B"/>
<path d="M188.739 464.463H121.139V467.182H188.739V464.463Z" fill="#01265B"/>
<path d="M200.938 487.314H153.049V490.034H200.938V487.314Z" fill="#01265B"/>
<path d="M209.627 501.887H174.812V504.658H209.627V501.887Z" fill="#01265B"/>
<path d="M218.234 517.021H184.863V519.741H218.234V517.021Z" fill="#01265B"/>
<path d="M226.277 531.076H191.025V533.869H226.277V531.076Z" fill="#01265B"/>
<path d="M234.776 545.656H198.473V548.486H234.776V545.656Z" fill="#01265B"/>
<path d="M122.834 454.031H119.441V482.549H122.834V454.031Z" fill="#01265B"/>
<path d="M141.279 486.172L135.16 453.572L138.464 452.676L144.582 485.275L141.279 486.172Z" fill="#01265B"/>
<path d="M246.516 567.451H224.479L228.879 556.767L215.272 547.306L219.376 539.986L207.813 533.555L212.205 525.731L200.205 518.322L203.242 510.661L192.738 504.17L196.442 495.45L185.672 487.945V476.631L174.005 466.999L177.709 461.309L169.383 457.405L169.79 456.145L178.435 460.191L181.664 455.227L182.553 456.064L179.531 460.709L186.812 464.125V475.942L201.005 487.678L197.931 494.902L207.976 501.889L204.738 510.038L217.85 518.144L213.857 525.257L225.102 532.236L221.064 539.43L234.265 546.765L230.368 556.234L246.516 567.451ZM226.302 566.088H242.309L229.835 557.441L226.302 566.088ZM216.887 546.824L229.383 555.508L232.731 547.358L220.42 540.549L216.887 546.824ZM209.479 532.955L220.005 538.808L223.435 532.695L213.198 526.346L209.479 532.955ZM201.687 517.685L212.835 524.612L216.198 518.64L204.242 511.231L201.687 517.685ZM194.279 503.541L203.761 509.401L206.531 502.415L197.413 496.095L194.279 503.541ZM186.872 487.145L197.013 494.205L199.605 488.1L186.805 477.572L186.872 487.145ZM175.701 466.673L185.738 474.986V465.029L178.857 461.806L175.701 466.673Z" fill="#01265B"/>
<path d="M224.833 567.486L206.781 567.101L210.033 557.691L197.729 548.208L201.218 540.221L191.003 533.397L194.87 525.729L184.158 517.935L186.462 511.178L175.351 504.235L179.344 496.026L166.951 488.239L168.892 477.304L156.092 466.701L160.773 460.907L151.588 456.825L151.98 455.558L161.61 459.848L166.055 454.365L166.869 455.306L162.781 460.359L172.292 464.59L170.144 476.711L184.344 488.476L180.936 495.478L190.899 501.716L187.892 510.533L200.01 518.12L196.418 525.262L205.988 532.227L202.729 539.687L214.714 547.682L211.433 557.173L224.833 567.486ZM208.462 565.775L220.87 566.041L210.995 558.44L208.462 565.775ZM199.21 547.741L210.47 556.417L213.292 548.267L202.181 540.858L199.21 547.741ZM192.544 532.923L201.714 539.043L204.47 532.745L195.81 526.44L192.544 532.923ZM185.536 517.364L195.425 524.551L198.388 518.624L187.425 511.77L185.536 517.364ZM176.921 503.672L186.862 509.896L189.44 502.339L180.344 496.641L176.921 503.672ZM168.21 487.513L179.914 494.841L182.818 488.869L169.869 478.141L168.21 487.513ZM157.84 466.494L169.151 475.866L170.995 465.449L161.936 461.419L157.84 466.494Z" fill="#01265B"/>
<path d="M142.494 489.425L149.234 475.437L138.39 466.546L131.842 471.829L142.953 481.201L120.73 479.164L129.842 471.806L121.293 464.605L128.16 460.611L120.879 456.27L121.382 455.055L129.456 459.789L136.819 455.507L144.582 460.13L148.879 455.751L149.619 456.788L145.701 460.782L154.945 466.279L150.753 474.963L166.871 488.247L142.494 489.425ZM150.175 476.2L144.501 487.943L163.419 487.054L150.175 476.2ZM124.079 478.089L138.945 479.453L130.842 472.629L124.079 478.089ZM140.242 466.405L149.834 474.229L153.375 466.887L144.782 461.775L140.242 466.405ZM123.523 464.805L130.849 470.984L137.101 465.931L129.449 461.36L123.523 464.805ZM130.731 460.611L139.212 465.672L143.656 461.145L136.819 457.085L130.731 460.611Z" fill="#01265B"/>
<path d="M118.761 339.658H93.3828L117.087 59.834H123.924L118.761 339.658ZM97.1384 335.583H115.442L120.479 63.9089H120.205L97.1384 335.583Z" fill="#01265B"/>
<path d="M116.708 338.101L107.079 326.714L95.6194 337.086L94.9453 335.997L106.264 325.743L97.8268 315.815L107.108 305.835L97.9083 295.655L107.864 287.439L100.849 279.289L109.094 269.953L102.197 261.803L110.079 253.335L104.019 245.185L110.434 236.465L104.856 229.226L112.005 219.95L106.975 211.911L112.316 204.413L108.019 197.308L113.205 189.943L109.16 183.431L113.538 176.466L110.027 169.88L114.716 163.767L111.242 158.033L115.034 152.846L111.894 148.253L115.597 142.837L112.871 137.925L116.175 132.798L113.819 128.286L116.619 124.048L114.397 119.913L116.916 116.157L114.975 111.949L117.271 108.755L115.049 104.858L117.434 101.509L114.612 96.5527H122.427L118.834 101.598L121.057 105.518L118.664 108.844L120.76 112.549L118.242 116.327L120.264 120.773L118.042 124.188L120.412 128.545L117.582 132.946L120.316 138.184L117.034 142.992L119.953 148.26L116.501 152.846L120.323 158.433L116.153 163.871L119.419 169.28L114.886 176.526L118.886 184.046L114.679 189.973L119.064 197.004L113.753 204.487L118.938 213.015L113.501 220.068L118.338 227.818L111.953 236.472L118.982 245.6L111.679 253.439L117.901 261.781L110.686 269.931L119.064 279.8L109.642 287.579L117.368 296.581L108.782 305.85L118.412 316.467L108.042 325.891L117.568 337.138L116.708 338.101ZM99.4638 315.859L107.16 324.943L116.612 316.378L107.938 306.746L99.4638 315.859ZM99.7009 295.811L107.953 304.939L115.716 296.596L108.686 288.446L99.7009 295.811ZM102.471 279.289L108.797 286.653L117.279 279.652L109.834 270.902L102.471 279.289ZM103.797 261.877L109.864 269.02L116.308 261.7L110.819 254.342L103.797 261.877ZM105.538 245.215L110.923 252.431L117.375 245.511L111.205 237.517L105.538 245.215ZM106.397 229.256L111.182 235.472L116.856 227.752L112.694 221.083L106.397 229.256ZM108.427 211.97L112.797 218.994L117.456 212.941L113.012 205.576L108.427 211.97ZM109.456 197.375L113.071 203.354L117.619 196.974L113.916 191.047L109.456 197.375ZM110.575 183.431L113.982 188.884L117.486 183.927L114.16 177.689L110.575 183.431ZM111.427 170.035L114.234 175.281L118.019 169.235L115.368 164.908L111.427 170.035ZM112.664 158.114L115.471 162.76L118.819 158.388L115.76 153.884L112.664 158.114ZM113.331 148.231L115.76 151.78L118.479 148.075L116.219 144.015L113.331 148.231ZM114.279 137.954L116.36 141.711L118.916 138.006L116.827 134.013L114.279 137.954ZM115.212 128.323L116.923 131.597L119.012 128.36L117.242 125.211L115.212 128.323ZM115.76 119.965L117.345 122.929L118.901 120.58L117.464 117.446L115.76 119.965ZM116.308 112.089L117.642 114.986L119.345 112.423L117.864 109.882L116.308 112.089ZM116.427 104.895L117.99 107.637L119.612 105.369L118.049 102.673L116.427 104.895ZM116.708 97.8567L118.145 100.45L119.945 97.916L116.708 97.8567Z" fill="#01265B"/>
<path d="M116.678 317.793L97.6855 317.282L97.7374 314.562L116.73 315.074L116.678 317.793Z" fill="#01265B"/>
<path d="M117.678 297.983L98.6855 297.471L98.7374 294.76L117.73 295.271L117.678 297.983Z" fill="#01265B"/>
<path d="M118.67 280.535L99.6777 280.024L99.7296 277.312L118.722 277.824L118.67 280.535Z" fill="#01265B"/>
<path d="M118.649 263.034L101.152 262.522L101.212 259.922L118.708 260.433L118.649 263.034Z" fill="#01265B"/>
<path d="M118.783 245.539L102.643 245.028L102.694 242.523L118.843 243.035L118.783 245.539Z" fill="#01265B"/>
<path d="M119.847 229.703L103.699 229.192L103.758 226.688L119.899 227.199L119.847 229.703Z" fill="#01265B"/>
<path d="M119.849 213.8L105.271 213.288L105.331 210.91L119.909 211.421L119.849 213.8Z" fill="#01265B"/>
<path d="M120.562 197.946L106.34 197.435L106.399 195.086L120.621 195.597L120.562 197.946Z" fill="#01265B"/>
<path d="M120.56 184.803L108.73 184.292L108.797 182.15L120.627 182.662L120.56 184.803Z" fill="#01265B"/>
<path d="M119.851 171.107L109.547 170.596L109.614 168.596L119.925 169.107L119.851 171.107Z" fill="#01265B"/>
<path d="M119.805 159.336L110.568 158.825L110.642 156.936L119.872 157.447L119.805 159.336Z" fill="#01265B"/>
<path d="M120.931 149.022L111.701 148.51L111.768 146.621L121.005 147.132L120.931 149.022Z" fill="#01265B"/>
<path d="M121.132 138.763L111.902 138.252L111.976 136.355L121.206 136.867L121.132 138.763Z" fill="#01265B"/>
<path d="M121.139 129.613L111.902 129.102L111.976 127.213L121.206 127.724L121.139 129.613Z" fill="#01265B"/>
<path d="M121.136 121.024L113.699 120.513L113.781 118.816L121.218 119.328L121.136 121.024Z" fill="#01265B"/>
<path d="M121.39 113.409L113.953 112.898L114.035 111.201L121.472 111.712L121.39 113.409Z" fill="#01265B"/>
<path d="M121.568 106.02L114.131 105.509L114.212 103.812L121.649 104.324L121.568 106.02Z" fill="#01265B"/>
<path d="M72.7336 426.993L95.0744 349.488L116.008 353.815L102.756 427.001H106.223L120.075 350.525L92.8152 344.887L69.1484 426.993H72.7336Z" fill="#01265B"/>
<path d="M104.488 426.999L118.044 352.168H112.022L96.5625 426.999H104.488Z" fill="#01265B"/>
<path d="M81.0608 426.997H82.72L75.52 418.884L105.172 401.236L85.7349 378.964L112.839 358.508L112.239 357.359L83.9052 378.742L103.224 400.88L73.5645 418.536L81.0608 426.997Z" fill="#01265B"/>
<path d="M98.0193 420.964L89.1452 427.002H91.4341L99.923 421.223L79.9748 399.137L108.471 380.547L92.2044 357.498L91.3452 358.38L106.708 380.147L78.0488 398.848L98.0193 420.964Z" fill="#01265B"/>
<path d="M108.653 382.042L84.7422 380.212L84.8903 377.5L108.794 379.33L108.653 382.042Z" fill="#01265B"/>
<path d="M104.128 402.41L78.9355 400.35L79.0911 397.639L104.276 399.706L104.128 402.41Z" fill="#01265B"/>
<path d="M98.8971 422.445L73.1934 420.267L73.3489 417.562L99.0527 419.741L98.8971 422.445Z" fill="#01265B"/>
<path d="M20.428 568.715L17.5391 566.582L75.7318 452.957L78.6207 455.091L20.428 568.715Z" fill="#01265B"/>
<path d="M37.5553 568.732L34.6738 566.576L93.7185 452.951L96.5925 455.107L37.5553 568.732Z" fill="#01265B"/>
<path d="M123.256 464.455H55.6562V467.174H123.256V464.455Z" fill="#01265B"/>
<path d="M91.3383 487.301H43.4492V490.02H91.3383V487.301Z" fill="#01265B"/>
<path d="M69.5786 501.875H34.7637V504.646H69.5786V501.875Z" fill="#01265B"/>
<path d="M59.517 517.01H26.1465V519.729H59.517V517.01Z" fill="#01265B"/>
<path d="M53.3555 531.057H18.1035V533.85H53.3555V531.057Z" fill="#01265B"/>
<path d="M45.9112 545.639H9.60742V548.469H45.9112V545.639Z" fill="#01265B"/>
<path d="M124.957 454.033H121.564V482.55H124.957V454.033Z" fill="#01265B"/>
<path d="M103.108 486.166L99.8047 485.27L105.931 452.678L109.234 453.574L103.108 486.166Z" fill="#01265B"/>
<path d="M19.8945 567.43H-2.14258L14.0204 556.206L10.1241 546.737L23.3242 539.402L19.2945 532.208L30.576 525.221L26.576 518.109L39.6946 510.011L36.4575 501.861L46.502 494.874L43.4353 487.65L57.628 475.914V464.09L64.9095 460.674L61.8873 456.029L62.7836 455.191L66.0058 460.163L74.6132 456.088L75.028 457.355L66.7021 461.274L70.4058 466.964L58.7243 476.626V487.947L47.9687 495.43L51.6724 504.15L41.1613 510.64L44.1983 518.301L32.1835 525.733L36.5687 533.542L25.0057 539.965L29.1094 547.285L15.5019 556.747L19.8945 567.43ZM2.07225 566.067H18.0797L14.5167 557.421L2.07225 566.067ZM11.6501 547.382L14.9982 555.532L27.4946 546.848L23.9612 540.551L11.6501 547.382ZM20.9464 532.712L24.3686 538.817L34.8946 532.971L31.1909 526.355L20.9464 532.712ZM28.1983 518.635L31.5538 524.606L42.7094 517.686L40.1539 511.248L28.1983 518.635ZM37.902 502.416L40.6724 509.403L50.1465 503.506L46.9835 496.097L37.902 502.416ZM44.865 488.102L47.4502 494.207L57.5984 487.154V477.574L44.865 488.102ZM58.7243 465.016V474.973L68.7688 466.668L65.6058 461.793L58.7243 465.016Z" fill="#01265B"/>
<path d="M19.5391 567.465L32.9391 557.144L29.6576 547.66L41.6428 539.666L38.3836 532.205L47.9614 525.241L44.3614 518.098L56.5021 510.511L53.4947 501.695L63.4577 495.456L60.0503 488.455L74.28 476.697L72.1318 464.568L81.643 460.345L77.5615 455.292L78.3689 454.344L82.8133 459.834L92.443 455.544L92.7986 456.826L83.6059 460.901L88.2948 466.702L75.5022 477.297L77.4356 488.233L65.0207 496.005L69.0133 504.243L57.9022 511.178L60.2059 517.913L49.5095 525.73L53.3836 533.413L43.1688 540.207L46.6577 548.194L34.3539 557.677L37.6058 567.087L19.5391 567.465ZM33.3761 558.418L23.5094 566.027L35.9169 565.76L33.3761 558.418ZM31.0872 548.26L33.9021 556.41L45.1688 547.727L42.2058 540.866L31.0872 548.26ZM39.8799 532.701L42.6354 539.007L51.8058 532.887L48.5466 526.404L39.8799 532.701ZM45.954 518.624L48.9169 524.552L58.8059 517.365L56.9096 511.793L45.954 518.624ZM54.917 502.325L57.4947 509.882L67.4355 503.666L64.0133 496.634L54.917 502.325ZM61.5392 488.862L64.4503 494.827L76.1541 487.506L74.4948 478.134L61.5392 488.862ZM73.3911 465.435L75.2355 475.86L86.5615 466.457L82.4652 461.382L73.3911 465.435Z" fill="#01265B"/>
<path d="M101.902 489.427L77.5098 488.241L93.6506 474.994L89.4654 466.303L98.7246 460.813L94.7913 456.827L95.532 455.79L99.821 460.169L107.614 455.538L114.947 459.791L123.006 454.982L123.51 456.197L116.228 460.539L123.103 464.533L114.547 471.734L123.651 479.091L101.428 481.121L112.54 471.756L105.991 466.466L95.1395 475.357L101.902 489.427ZM80.9468 487.041L99.895 487.945L94.2209 476.18L80.9468 487.041ZM113.54 472.601L105.451 479.425L120.317 478.061L113.54 472.601ZM91.0357 466.881L94.5765 474.224L104.139 466.37L99.6358 461.769L91.0357 466.881ZM107.28 465.903L113.54 470.956L120.873 464.777L114.947 461.332L107.28 465.903ZM100.732 461.117L105.177 465.644L113.658 460.584L107.614 457.05L100.732 461.117Z" fill="#01265B"/>
<path d="M156.027 343.852H88.3379V359.64H156.027V343.852Z" fill="#01265B"/>
<path d="M159.597 334.516H83.4414V344.703H159.597V334.516Z" fill="#01265B"/>
<path d="M130.296 59.834H114.178V66.5095H130.296V59.834Z" fill="#01265B"/>
<path d="M133.369 65.9473H110.303V81.1135H133.369V65.9473Z" fill="#01265B"/>
<path d="M125.554 54.1719H117.932V61.4179H125.554V54.1719Z" fill="#01265B"/>
<path d="M123.584 23.3887H119.91V57.0034H123.584V23.3887Z" fill="#01265B"/>
<path d="M127.531 79.1855H116.561V97.2043H127.531V79.1855Z" fill="#01265B"/>
<path d="M187.886 457.431H55.4707V426.18H187.886V457.431ZM56.604 456.082H186.76V427.558H56.604V456.082Z" fill="#01265B"/>
<path d="M187.323 439.094H56.0332V456.749H187.323V439.094Z" fill="#01265B"/>
<path d="M63.213 426.861H62.0723V441.798H63.213V426.861Z" fill="#01265B"/>
<path d="M69.7306 426.861H68.5898V441.798H69.7306V426.861Z" fill="#01265B"/>
<path d="M76.2501 426.861H75.1094V441.798H76.2501V426.861Z" fill="#01265B"/>
<path d="M82.7755 426.861H81.6348V441.798H82.7755V426.861Z" fill="#01265B"/>
<path d="M89.2931 426.861H88.1523V441.798H89.2931V426.861Z" fill="#01265B"/>
<path d="M95.8146 426.861H94.6738V441.798H95.8146V426.861Z" fill="#01265B"/>
<path d="M102.34 426.865H101.199V441.802H102.34V426.865Z" fill="#01265B"/>
<path d="M108.858 426.865H107.717V441.802H108.858V426.865Z" fill="#01265B"/>
<path d="M115.377 426.865H114.236V441.802H115.377V426.865Z" fill="#01265B"/>
<path d="M121.902 426.865H120.762V441.802H121.902V426.865Z" fill="#01265B"/>
<path d="M128.422 426.865H127.281V441.802H128.422V426.865Z" fill="#01265B"/>
<path d="M134.94 426.865H133.799V441.802H134.94V426.865Z" fill="#01265B"/>
<path d="M141.467 426.865H140.326V441.802H141.467V426.865Z" fill="#01265B"/>
<path d="M147.984 426.865H146.844V441.802H147.984V426.865Z" fill="#01265B"/>
<path d="M154.502 426.865H153.361V441.802H154.502V426.865Z" fill="#01265B"/>
<path d="M161.029 426.865H159.889V441.802H161.029V426.865Z" fill="#01265B"/>
<path d="M167.547 426.865H166.406V441.802H167.547V426.865Z" fill="#01265B"/>
<path d="M174.065 426.865H172.924V441.802H174.065V426.865Z" fill="#01265B"/>
<path d="M180.592 426.877H179.451V441.814H180.592V426.877Z" fill="#01265B"/>
<path d="M274.592 569.69H191.77V567.66C191.865 558.444 190.132 549.301 186.672 540.76C183.212 532.218 178.093 524.447 171.611 517.897C165.129 511.347 157.414 506.147 148.91 502.598C140.406 499.049 131.284 497.222 122.07 497.222C112.855 497.222 103.733 499.049 95.2292 502.598C86.7256 506.147 79.0098 511.347 72.5281 517.897C66.0464 524.447 60.9274 532.218 57.4672 540.76C54.0071 549.301 52.2744 558.444 52.3694 567.66V569.69H-30.4531L49.1916 451.99H194.888L274.592 569.69ZM195.822 565.622H266.933L192.725 456.08H51.3546L-22.7568 565.622H48.3545C48.8988 546.421 56.9074 528.188 70.6785 514.799C84.4496 501.41 102.898 493.92 122.103 493.92C141.308 493.92 159.756 501.41 173.527 514.799C187.299 528.188 195.307 546.421 195.851 565.622H195.822Z" fill="#01265B"/>
<path d="M122.074 476.209C97.8257 476.209 74.5702 485.844 57.4237 502.994C40.2773 520.144 30.6445 543.405 30.6445 567.658H50.3335C50.2371 558.174 52.0215 548.765 55.5834 539.975C59.1454 531.185 64.4142 523.189 71.0851 516.448C77.7561 509.708 85.6969 504.357 94.4484 500.705C103.2 497.053 112.588 495.173 122.071 495.173C131.553 495.173 140.942 497.053 149.693 500.705C158.445 504.357 166.385 509.708 173.056 516.448C179.727 523.189 184.996 531.185 188.558 539.975C192.12 548.765 193.904 558.174 193.808 567.658H213.497C213.497 543.406 203.865 520.146 186.72 502.997C169.576 485.847 146.322 476.211 122.074 476.209Z" fill="#01265B"/>
<path d="M156.458 339.658H125.962L119.762 59.834H127.984L156.458 339.658ZM129.947 335.583H151.947L124.302 63.9089H123.91L129.947 335.583Z" fill="#01265B"/>
<path d="M128.428 338.104L127.48 337.14L138.932 325.894L126.428 316.469L137.984 305.852L127.613 296.621L136.91 287.619L125.584 279.839L135.65 269.97L126.984 261.82L134.465 253.478L125.702 245.602L134.154 236.474L126.51 227.82L132.324 220.071L125.791 213.017L131.991 204.49L125.613 197.036L130.887 189.997L125.828 184.07L130.636 176.558L125.184 169.304L129.095 163.873L124.087 158.435L128.68 152.849L124.65 148.166L128.161 142.898L124.213 138.09L127.502 132.852L124.102 128.451L126.947 124.094L124.236 120.679L126.673 116.233L123.636 112.455L126.154 108.75L123.287 105.416L125.969 101.497L121.613 96.5254H131.028L127.613 101.482L130.48 104.831L127.813 108.728L130.561 111.921L128.243 116.13L131.317 119.886L128.621 124.02L131.991 128.258L129.095 132.77L133.058 137.897L129.836 142.809L134.28 148.225L130.502 152.819L135.058 158.005L130.887 163.74L136.517 169.852L132.302 176.439L137.517 183.433L132.628 189.953L138.887 197.318L133.702 204.423L140.117 211.921L134.073 219.989L142.665 229.265L135.999 236.504L143.687 245.224L136.406 253.337L145.917 261.835L137.628 269.985L147.495 279.306L139.065 287.456L151.028 295.672L139.976 305.852L151.124 315.832L141.006 325.768L154.613 336.022L153.799 337.111L140.028 326.738L128.428 338.104ZM128.539 316.366L139.91 324.945L149.139 315.877L138.969 306.778L128.539 316.366ZM129.628 296.584L138.954 304.941L148.858 295.828L138.073 288.419L129.628 296.584ZM127.732 279.654L137.924 286.655L145.532 279.291L136.643 270.904L127.732 279.654ZM128.902 261.702L136.643 269.022L143.91 261.88L135.495 254.345L128.902 261.702ZM127.613 245.513L135.369 252.433L141.843 245.217L135.058 237.519L127.613 245.513ZM128.243 227.732L135.058 235.452L140.813 229.236L133.243 221.086L128.243 227.732ZM127.502 212.914L133.154 218.996L138.399 212.002L132.902 205.579L127.502 212.914ZM127.31 196.977L132.799 203.356L137.147 197.377L131.776 191.057L127.31 196.977ZM127.473 183.93L131.68 188.886L135.821 183.433L131.51 177.699L127.473 183.93ZM126.873 169.267L131.413 175.283L134.791 170.001L130.058 164.911L126.873 169.267ZM125.91 158.383L129.932 162.755L133.31 158.109L129.606 153.886L125.91 158.383ZM126.317 148.055L129.576 151.76L132.539 148.203L129.058 143.973L126.317 148.055ZM125.85 137.986L128.91 141.691L131.421 137.934L128.354 133.993L125.85 137.986ZM125.732 128.355L128.236 131.592L130.287 128.325L127.798 125.183L125.732 128.355ZM125.821 120.516L127.695 122.864L129.606 119.945L127.554 117.382L125.821 120.516ZM125.295 112.366L127.347 114.922L128.939 112.025L127.036 109.802L125.295 112.366ZM124.961 105.327L126.917 107.594L128.798 104.853L126.873 102.675L124.961 105.327ZM124.561 97.8146L126.724 100.452L128.45 97.9183L124.561 97.8146Z" fill="#01265B"/>
<path d="M151.234 314.564L128.402 315.078L128.464 317.797L151.295 317.282L151.234 314.564Z" fill="#01265B"/>
<path d="M150.032 294.747L127.201 295.262L127.262 297.98L150.094 297.466L150.032 294.747Z" fill="#01265B"/>
<path d="M148.841 277.302L126.01 277.816L126.071 280.535L148.902 280.021L148.841 277.302Z" fill="#01265B"/>
<path d="M147.072 259.912L126.041 260.426L126.105 263.033L147.136 262.519L147.072 259.912Z" fill="#01265B"/>
<path d="M145.272 242.516L125.871 243.031L125.938 245.535L145.338 245.02L145.272 242.516Z" fill="#01265B"/>
<path d="M143.998 226.686L124.598 227.201L124.664 229.705L144.065 229.19L143.998 226.686Z" fill="#01265B"/>
<path d="M142.116 210.91L124.598 211.418L124.667 213.795L142.185 213.287L142.116 210.91Z" fill="#01265B"/>
<path d="M140.84 195.093L123.744 195.604L123.814 197.951L140.91 197.441L140.84 195.093Z" fill="#01265B"/>
<path d="M137.951 182.145L123.73 182.656L123.807 184.796L138.028 184.284L137.951 182.145Z" fill="#01265B"/>
<path d="M136.972 168.603L124.582 169.111L124.664 171.11L137.054 170.602L136.972 168.603Z" fill="#01265B"/>
<path d="M135.74 156.941L124.641 157.447L124.727 159.342L135.827 158.836L135.74 156.941Z" fill="#01265B"/>
<path d="M134.383 146.625L123.283 147.131L123.37 149.026L134.469 148.52L134.383 146.625Z" fill="#01265B"/>
<path d="M134.139 136.363L123.039 136.869L123.125 138.764L134.225 138.258L134.139 136.363Z" fill="#01265B"/>
<path d="M134.135 127.217L123.035 127.723L123.122 129.617L134.221 129.111L134.135 127.217Z" fill="#01265B"/>
<path d="M131.961 118.81L123.027 119.32L123.124 121.014L132.058 120.504L131.961 118.81Z" fill="#01265B"/>
<path d="M131.658 111.193L122.725 111.703L122.821 113.397L131.755 112.887L131.658 111.193Z" fill="#01265B"/>
<path d="M131.436 103.808L122.502 104.318L122.599 106.012L131.532 105.502L131.436 103.808Z" fill="#01265B"/>
<path d="M145.103 426.63L129.266 353.815L154.429 349.488L181.14 426.63H185.451L157.147 344.887L124.377 350.525L140.94 426.63H145.103Z" fill="#01265B"/>
<path d="M152.532 426.629L134.065 352.168H126.82L143.02 426.629H152.532Z" fill="#01265B"/>
<path d="M142.282 401.236L177.919 418.891L169.675 426.626H171.653L180.275 418.536L144.623 400.88L167.853 378.742L133.801 357.359L133.082 358.508L165.652 378.964L142.282 401.236Z" fill="#01265B"/>
<path d="M148.591 421.23L158.132 426.632H160.887L150.88 420.964L174.887 398.855L140.435 380.155L158.909 358.38L157.872 357.498L138.324 380.547L172.569 399.144L148.591 421.23Z" fill="#01265B"/>
<path d="M166.68 377.5L137.945 379.328L138.118 382.042L166.853 380.213L166.68 377.5Z" fill="#01265B"/>
<path d="M173.628 397.65L143.357 399.709L143.542 402.422L173.813 400.363L173.628 397.65Z" fill="#01265B"/>
<path d="M180.525 417.573L149.631 419.75L149.822 422.462L180.716 420.285L180.525 417.573Z" fill="#01265B"/>
<path d="M177.647 452.976L174.178 455.111L244.098 568.744L247.567 566.608L177.647 452.976Z" fill="#01265B"/>
<path d="M156.03 452.969L152.574 455.127L223.513 568.765L226.968 566.606L156.03 452.969Z" fill="#01265B"/>
<path d="M201.782 464.453H120.537V467.172H201.782V464.453Z" fill="#01265B"/>
<path d="M216.467 487.301H158.904V490.02H216.467V487.301Z" fill="#01265B"/>
<path d="M226.903 501.877H185.059V504.648H226.903V501.877Z" fill="#01265B"/>
<path d="M237.248 517.012H197.137V519.731H237.248V517.012Z" fill="#01265B"/>
<path d="M246.917 531.066H204.547V533.86H246.917V531.066Z" fill="#01265B"/>
<path d="M257.133 545.641H213.496V548.471H257.133V545.641Z" fill="#01265B"/>
<path d="M122.576 454.025H118.502V482.543H122.576V454.025Z" fill="#01265B"/>
<path d="M141.371 452.665L137.396 453.562L144.752 486.157L148.726 485.26L141.371 452.665Z" fill="#01265B"/>
<path d="M271.249 567.43H244.76L250.041 556.739L233.686 547.285L238.627 539.957L224.723 533.534L229.997 525.724L215.56 518.264L219.219 510.603L206.626 504.112L211.071 495.392L198.108 487.939V476.618L184.078 466.986L188.523 461.303L178.508 457.399L179.004 456.132L189.375 460.184L193.256 455.213L194.323 456.05L190.7 460.696L199.463 464.089V475.906L216.501 487.642L212.797 494.866L224.864 501.853L220.975 510.003L236.738 518.108L231.938 525.213L245.449 532.2L240.604 539.387L256.501 546.736L251.819 556.198L271.249 567.43ZM246.945 566.074H266.204L251.241 557.42L246.945 566.074ZM235.627 546.811L250.649 555.494L254.671 547.344L239.856 540.498L235.627 546.811ZM226.738 532.948L239.382 538.794L243.501 532.689L231.204 526.332L226.738 532.948ZM217.345 517.649L230.752 524.576L234.789 518.597L220.419 511.188L217.345 517.649ZM208.412 503.497L219.804 509.425L223.138 502.438L212.212 496.088L208.412 503.497ZM199.463 487.131L211.656 494.192L214.767 488.087L199.463 477.566V487.131ZM186.034 466.667L198.108 474.973V465.015L189.834 461.792L186.034 466.667Z" fill="#01265B"/>
<path d="M245.193 567.474L223.489 567.089L227.4 557.68L212.585 548.196L216.785 540.209L204.496 533.385L209.17 525.725L196.296 517.938L199.067 511.173L185.733 504.231L190.533 496.029L175.615 488.25L177.941 477.321L162.548 466.712L168.178 460.918L157.141 456.821L157.607 455.546L169.215 459.836L174.541 454.354L175.511 455.302L170.578 460.347L182.007 464.571L179.467 476.692L196.504 488.457L192.407 495.459L204.385 501.697L200.77 510.514L215.341 518.101L211.015 525.243L222.526 532.207L218.6 539.668L233.008 547.663L229.096 557.146L245.193 567.474ZM225.511 565.733L240.422 566L228.57 558.391L225.511 565.733ZM214.4 547.7L227.933 556.376L231.319 548.226L217.985 540.817L214.4 547.7ZM206.415 532.882L217.445 539.001L220.756 532.704L210.341 526.399L206.415 532.882ZM197.985 517.352L209.837 524.539L213.407 518.612L200.237 511.759L197.985 517.352ZM187.615 503.66L199.57 509.884L202.667 502.327L191.726 496.629L187.615 503.66ZM177.141 487.501L191.215 494.829L194.711 488.857L179.156 478.129L177.141 487.501ZM164.652 466.452L178.252 475.832L180.474 465.408L169.578 461.385L164.652 466.452Z" fill="#01265B"/>
<path d="M146.213 489.42L154.317 475.431L141.28 466.541L133.413 471.831L146.746 481.203L120.035 479.166L130.983 471.808L120.702 464.607L128.961 460.613L120.213 456.272L120.813 455.057L130.576 459.784L139.42 455.501L148.761 460.124L153.946 455.738L154.828 456.776L150.117 460.776L161.228 466.274L156.198 474.957L175.591 488.205L146.213 489.42ZM155.435 476.202L148.62 487.938L171.361 487.049L155.435 476.202ZM124.072 478.091L141.939 479.455L132.206 472.631L124.072 478.091ZM143.502 466.4L155.02 474.216L159.272 466.874L148.902 461.762L143.502 466.4ZM123.406 464.807L132.22 470.986L139.732 465.933L130.524 461.362L123.406 464.807ZM132.072 460.613L142.265 465.674L147.591 461.147L139.376 457.079L132.072 460.613Z" fill="#01265B"/>
<path d="M117.662 339.654H87.166L115.648 59.8301H123.907L117.662 339.654ZM91.6771 335.579H113.685L119.699 63.905H119.322L91.6771 335.579Z" fill="#01265B"/>
<path d="M115.195 338.098L103.602 326.71L89.832 337.09L89.0098 336.001L102.625 325.747L92.5061 315.811L103.617 305.832L92.595 295.652L104.558 287.435L96.1357 279.285L105.995 269.965L97.7061 261.815L107.225 253.331L99.9431 245.218L107.647 236.491L100.98 229.252L109.536 219.976L103.491 211.907L109.906 204.41L104.721 197.304L111.002 189.94L106.128 183.427L111.314 176.47L107.106 169.884L112.728 163.771L108.558 158.037L113.121 152.85L109.343 148.257L113.788 142.841L110.573 137.891L114.543 132.764L111.714 128.252L115.017 124.014L112.321 119.88L115.343 116.124L113.017 111.915L115.773 108.722L113.099 104.825L115.965 101.476L112.58 96.5195H121.988L117.677 101.565L120.351 105.484L117.484 108.818L120.002 112.523L116.973 116.302L119.402 120.747L116.691 124.163L119.536 128.519L116.136 132.92L119.462 138.084L115.506 142.893L119.017 148.16L114.921 152.843L119.514 158.429L114.506 163.867L118.439 169.276L112.995 176.529L117.795 184.042L112.736 189.969L118.017 197.008L111.632 204.484L117.832 213.011L111.314 220.065L117.128 227.815L109.476 236.468L117.921 245.596L109.143 253.435L116.617 261.778L107.951 269.927L118.017 279.796L106.699 287.576L115.988 296.578L105.676 305.846L117.239 316.463L104.699 325.888L116.151 337.135L115.195 338.098ZM94.4913 315.871L103.721 324.939L115.084 316.375L104.647 306.758L94.4913 315.871ZM94.7727 295.822L104.647 304.935L113.973 296.592L105.536 288.443L94.7727 295.822ZM98.0987 279.3L105.699 286.664L115.891 279.663L106.965 270.898L98.0987 279.3ZM99.6913 261.889L106.98 269.031L114.728 261.711L108.128 254.339L99.6913 261.889ZM101.758 245.211L108.232 252.427L115.988 245.507L108.573 237.513L101.758 245.211ZM102.795 229.252L108.543 235.468L115.365 227.748L110.365 221.08L102.795 229.252ZM105.225 211.967L110.469 218.99L116.077 212.937L110.728 205.573L105.225 211.967ZM106.469 197.371L110.81 203.35L116.277 196.971L111.832 191.044L106.469 197.371ZM107.81 183.427L111.906 188.88L116.114 183.924L112.121 177.685L107.81 183.427ZM108.832 170.032L112.21 175.277L116.751 169.232L113.536 164.905L108.832 170.032ZM110.314 158.111L113.684 162.756L117.706 158.385L114.002 153.888L110.314 158.111ZM111.114 148.227L114.077 151.783L117.336 148.079L114.632 144.019L111.114 148.227ZM112.202 137.958L114.706 141.715L117.773 138.01L115.269 134.017L112.202 137.958ZM113.328 128.326L115.38 131.594L117.891 128.356L115.817 125.185L113.328 128.326ZM114.017 119.947L115.928 122.866L117.795 120.517L116.069 117.383L114.017 119.947ZM114.677 112.064L116.277 114.961L118.328 112.404L116.58 109.856L114.677 112.064ZM114.825 104.892L116.706 107.633L118.654 105.366L116.78 102.669L114.825 104.892ZM115.165 97.8532L116.899 100.446L119.062 97.9124L115.165 97.8532Z" fill="#01265B"/>
<path d="M92.3947 314.567L92.334 317.285L115.165 317.795L115.226 315.077L92.3947 314.567Z" fill="#01265B"/>
<path d="M93.5998 294.756L93.5391 297.475L116.37 297.985L116.431 295.266L93.5998 294.756Z" fill="#01265B"/>
<path d="M94.7853 277.303L94.7246 280.021L117.556 280.532L117.617 277.813L94.7853 277.303Z" fill="#01265B"/>
<path d="M96.5632 259.92L96.5 262.527L117.531 263.038L117.594 260.431L96.5632 259.92Z" fill="#01265B"/>
<path d="M98.3409 242.518L98.2754 245.021L117.676 245.53L117.742 243.026L98.3409 242.518Z" fill="#01265B"/>
<path d="M99.6222 226.678L99.5566 229.182L118.957 229.69L119.023 227.186L99.6222 226.678Z" fill="#01265B"/>
<path d="M101.504 210.91L101.436 213.287L118.954 213.795L119.023 211.418L101.504 210.91Z" fill="#01265B"/>
<path d="M102.791 195.084L102.721 197.432L119.817 197.942L119.887 195.595L102.791 195.084Z" fill="#01265B"/>
<path d="M105.668 182.153L105.592 184.293L119.812 184.802L119.889 182.662L105.668 182.153Z" fill="#01265B"/>
<path d="M106.646 168.595L106.564 170.594L118.954 171.102L119.036 169.104L106.646 168.595Z" fill="#01265B"/>
<path d="M107.89 156.928L107.803 158.822L118.902 159.332L118.989 157.438L107.89 156.928Z" fill="#01265B"/>
<path d="M109.251 146.619L109.164 148.514L120.264 149.024L120.351 147.129L109.251 146.619Z" fill="#01265B"/>
<path d="M109.493 136.346L109.406 138.24L120.506 138.75L120.593 136.855L109.493 136.346Z" fill="#01265B"/>
<path d="M109.489 127.197L109.402 129.092L120.502 129.602L120.589 127.707L109.489 127.197Z" fill="#01265B"/>
<path d="M111.663 118.818L111.566 120.512L120.5 121.021L120.597 119.327L111.663 118.818Z" fill="#01265B"/>
<path d="M111.958 111.197L111.861 112.891L120.795 113.4L120.891 111.706L111.958 111.197Z" fill="#01265B"/>
<path d="M112.175 103.824L112.078 105.518L121.012 106.027L121.108 104.333L112.175 103.824Z" fill="#01265B"/>
<path d="M62.3639 426.997L89.201 349.484L114.364 353.811L98.4455 426.997H102.608L119.253 350.521L86.4825 344.883L58.0527 426.997H62.3639Z" fill="#01265B"/>
<path d="M100.526 426.995L116.807 352.164H109.563L91 426.995H100.526Z" fill="#01265B"/>
<path d="M72.3723 426.999H74.3575L65.713 418.893L101.35 401.237L77.9797 378.966L110.55 358.51L109.832 357.361L75.7797 378.744L99.002 400.882L63.3574 418.538L72.3723 426.999Z" fill="#01265B"/>
<path d="M92.7477 420.96L82.0884 426.998H84.844L95.0366 421.226L71.0588 399.14L105.303 380.544L85.7551 357.494L84.7181 358.376L103.192 380.151L68.7402 398.851L92.7477 420.96Z" fill="#01265B"/>
<path d="M76.9621 377.507L76.7891 380.221L105.523 382.054L105.696 379.34L76.9621 377.507Z" fill="#01265B"/>
<path d="M69.9876 397.631L69.8027 400.344L100.073 402.408L100.258 399.695L69.9876 397.631Z" fill="#01265B"/>
<path d="M63.6258 417.435L63.4355 420.154L94.406 422.323L94.5963 419.604L63.6258 417.435Z" fill="#01265B"/>
<path d="M65.9647 452.949L-3.95508 566.582L-0.485441 568.718L69.4343 455.085L65.9647 452.949Z" fill="#01265B"/>
<path d="M87.5653 452.956L16.627 566.594L20.0827 568.752L91.0211 455.114L87.5653 452.956Z" fill="#01265B"/>
<path d="M123.087 464.451H41.8418V467.17H123.087V464.451Z" fill="#01265B"/>
<path d="M84.7292 487.301H27.166V490.02H84.7292V487.301Z" fill="#01265B"/>
<path d="M58.5731 501.871H16.7285V504.642H58.5731V501.871Z" fill="#01265B"/>
<path d="M46.4882 517.012H6.37695V519.731H46.4882V517.012Z" fill="#01265B"/>
<path d="M39.0795 531.066H-3.29102V533.86H39.0795V531.066Z" fill="#01265B"/>
<path d="M30.1313 545.641H-13.5059V548.471H30.1313V545.641Z" fill="#01265B"/>
<path d="M125.123 454.025H121.049V482.543H125.123V454.025Z" fill="#01265B"/>
<path d="M102.253 452.666L94.9023 485.262L98.8766 486.158L106.227 453.562L102.253 452.666Z" fill="#01265B"/>
<path d="M-1.12822 567.429H-27.6172L-8.1949 556.197L-12.8764 546.735L2.99032 539.393L-1.86155 532.206L11.6496 525.219L6.87181 518.114L22.6422 510.009L18.7459 501.859L30.82 494.872L27.1163 487.648L44.1534 475.912V464.088L52.9164 460.672L49.2868 456.027L50.3534 455.189L54.2349 460.161L64.6498 456.079L65.1461 457.345L55.109 461.265L59.5535 466.948L45.5238 476.579V487.937L32.5904 495.42L37.0349 504.141L24.4422 510.631L28.0941 518.292L13.6348 525.723L18.9015 533.525L5.00514 539.949L9.9459 547.276L-6.41712 556.73L-1.12822 567.429ZM-22.5579 566.073H-3.29859L-7.58009 557.419L-22.5579 566.073ZM-11.0468 547.38L-7.01712 555.53L8.00515 546.839L3.75328 540.541L-11.0468 547.38ZM0.116233 532.71L4.23477 538.815L16.8867 532.969L12.4422 526.353L0.116233 532.71ZM8.83478 518.633L12.8644 524.612L26.2719 517.684L23.2052 511.246L8.83478 518.633ZM20.4941 502.415L23.8274 509.401L35.2201 503.496L31.4126 496.087L20.4941 502.415ZM28.8571 488.1L31.9756 494.205L44.1608 487.145V477.565L28.8571 488.1ZM45.5238 465.029V474.972L57.5905 466.666L53.7905 461.791L45.5238 465.029Z" fill="#01265B"/>
<path d="M-1.56055 567.474L14.5432 557.146L10.5728 547.662L24.9729 539.668L21.0543 532.207L32.5655 525.243L28.2395 518.1L42.81 510.513L39.1951 501.697L51.173 495.458L47.0766 488.457L64.1137 476.691L61.5359 464.57L72.9656 460.347L68.0545 455.294L69.0915 454.346L74.4175 459.828L86.0175 455.539L86.4916 456.813L75.4471 460.895L81.0768 466.689L65.6915 477.299L68.0174 488.227L53.0915 496.007L57.8915 504.238L44.5581 511.18L47.3285 517.945L34.4544 525.724L39.1062 533.407L26.8247 540.231L31.0173 548.218L16.2025 557.701L20.1136 567.111L-1.56055 567.474ZM15.0691 558.42L3.21724 566.029L18.1284 565.762L15.0691 558.42ZM12.321 548.262L15.6988 556.412L29.2395 547.729L25.6321 540.868L12.321 548.262ZM22.884 532.703L26.1877 539.001L37.2396 532.889L33.321 526.406L22.884 532.703ZM30.1803 518.626L33.7581 524.553L45.61 517.367L43.3211 511.795L30.1803 518.626ZM40.9507 502.326L44.047 509.884L56.0026 503.66L51.8841 496.629L40.9507 502.326ZM48.9137 488.857L52.4026 494.829L66.4767 487.501L64.4841 478.129L48.9137 488.857ZM63.1656 465.437L65.3878 475.861L78.9804 466.452L74.0545 461.414L63.1656 465.437Z" fill="#01265B"/>
<path d="M97.4186 489.42L68.1074 488.234L87.5075 474.987L82.4778 466.303L93.589 460.806L88.8705 456.82L89.7519 455.783L94.9371 460.169L104.271 455.546L113.159 459.828L122.848 455.02L123.456 456.235L114.708 460.576L122.959 464.57L112.685 471.771L123.626 479.128L96.9149 481.166L110.248 471.794L102.352 466.489L89.3149 475.379L97.4186 489.42ZM72.2334 487.078L95.0186 487.938L88.2038 476.172L72.2334 487.078ZM111.396 472.631L101.685 479.417L119.552 478.054L111.396 472.631ZM84.3445 466.911L88.6038 474.253L100.1 466.4L94.6779 461.799L84.3445 466.911ZM103.908 465.896L111.419 470.949L120.204 464.77L113.085 461.325L103.908 465.896ZM96.0408 461.11L101.374 465.637L111.559 460.576L104.256 457.042L96.0408 461.11Z" fill="#01265B"/>
<path d="M162.465 343.852H81.1094V359.64H162.465V343.852Z" fill="#01265B"/>
<path d="M166.754 334.514H75.2207V344.701H166.754V334.514Z" fill="#01265B"/>
<path d="M131.497 59.834H112.127V66.5095H131.497V59.834Z" fill="#01265B"/>
<path d="M135.199 65.9473H107.473V81.1135H135.199V65.9473Z" fill="#01265B"/>
<path d="M125.798 54.1719H116.635V61.4179H125.798V54.1719Z" fill="#01265B"/>
<path d="M123.607 5.90625H119.236V57.2602H123.607V5.90625Z" fill="#01265B"/>
<path d="M128.175 79.1855H114.99V97.2043H128.175V79.1855Z" fill="#01265B"/>
<path d="M200.77 457.424H41.6211V426.188H200.77V457.424ZM42.9767 456.083H199.407V427.558H42.9767V456.083Z" fill="#01265B"/>
<path d="M200.088 439.094H42.2949V456.749H200.088V439.094Z" fill="#01265B"/>
<path d="M50.9172 426.869H49.5469V441.806H50.9172V426.869Z" fill="#01265B"/>
<path d="M58.7551 426.869H57.3848V441.806H58.7551V426.869Z" fill="#01265B"/>
<path d="M66.5911 426.869H65.2207V441.806H66.5911V426.869Z" fill="#01265B"/>
<path d="M74.4309 426.869H73.0605V441.806H74.4309V426.869Z" fill="#01265B"/>
<path d="M82.2669 426.869H80.8965V441.806H82.2669V426.869Z" fill="#01265B"/>
<path d="M90.1028 426.869H88.7324V441.806H90.1028V426.869Z" fill="#01265B"/>
<path d="M97.9407 426.869H96.5703V441.806H97.9407V426.869Z" fill="#01265B"/>
<path d="M105.777 426.869H104.406V441.806H105.777V426.869Z" fill="#01265B"/>
<path d="M113.615 426.869H112.244V441.806H113.615V426.869Z" fill="#01265B"/>
<path d="M121.452 426.869H120.082V441.806H121.452V426.869Z" fill="#01265B"/>
<path d="M129.288 426.869H127.918V441.806H129.288V426.869Z" fill="#01265B"/>
<path d="M137.124 426.869H135.754V441.806H137.124V426.869Z" fill="#01265B"/>
<path d="M144.962 426.869H143.592V441.806H144.962V426.869Z" fill="#01265B"/>
<path d="M152.808 426.869H151.438V441.806H152.808V426.869Z" fill="#01265B"/>
<path d="M160.642 426.869H159.271V441.806H160.642V426.869Z" fill="#01265B"/>
<path d="M168.482 426.869H167.111V441.806H168.482V426.869Z" fill="#01265B"/>
<path d="M176.316 426.869H174.945V441.806H176.316V426.869Z" fill="#01265B"/>
<path d="M184.156 426.869H182.785V441.806H184.156V426.869Z" fill="#01265B"/>
<path d="M191.991 426.869H190.621V441.806H191.991V426.869Z" fill="#01265B"/>
</g>
<defs>
<clipPath id="clip0_2448_2407">
<rect width="243" height="570" fill="white"/>
</clipPath>
</defs>
</svg>
