<svg width="48" height="48" viewBox="0 0 48 48" fill="none" xmlns="http://www.w3.org/2000/svg">
<rect width="48" height="48" fill="white"/>
<path d="M8.01721 37.4476C7.1826 37.3938 6.44223 37.138 5.79609 36.6803C5.17687 36.2226 4.51727 35.7515 3.81728 35.2669C3.35959 34.8092 2.99614 34.3246 2.72691 33.8131C2.45768 33.2746 2.2423 32.5746 2.08077 31.7131C1.97308 31.2016 1.97308 30.5554 2.08077 29.7747C2.18846 28.9939 2.36346 28.2132 2.60576 27.4324C2.84806 26.6247 3.0769 25.9786 3.29229 25.494C3.61536 24.7401 4.0192 23.9325 4.5038 23.0709C5.01533 22.1825 5.5134 21.3479 5.99801 20.5671C6.50954 19.7594 6.91338 19.1133 7.20953 18.6287C7.39799 18.4402 7.47875 18.346 7.45183 18.346C7.45183 18.3191 7.45183 18.3056 7.45183 18.3056C7.45183 18.171 7.58644 17.8345 7.85567 17.296C8.15182 16.7307 8.40758 16.2326 8.62296 15.8018C9.0268 15.3711 9.25565 15.0211 9.30949 14.7518C9.36334 14.4826 9.32295 14.2672 9.18834 14.1057C9.13449 13.998 9.22872 13.8096 9.47103 13.5403C9.71333 13.2711 10.0768 12.9615 10.5614 12.6115C11.046 12.2615 11.5979 11.9115 12.2171 11.5615C12.8633 11.05 13.4825 10.7808 14.0748 10.7538C14.694 10.7 15.0575 10.8211 15.1652 11.1173C15.1652 11.1981 15.3132 11.225 15.6094 11.1981C15.9325 11.1442 16.2959 11.0769 16.6998 10.9961C17.1305 10.8884 17.5074 10.8077 17.8305 10.7538C17.9651 10.5923 18.2747 10.4711 18.7593 10.3904C19.2709 10.2827 19.8632 10.1885 20.5362 10.1077C20.8862 10.1346 21.2228 10.1481 21.5458 10.1481C21.8958 10.1212 22.1785 10.0942 22.3939 10.0673C22.6362 10.0404 22.7573 10.0269 22.7573 10.0269C22.9458 9.97308 23.1612 10 23.4035 10.1077C23.6727 10.2154 23.915 10.5115 24.1304 10.9961C24.3189 11.4807 24.2515 11.8442 23.9285 12.0865C23.6323 12.3288 22.9323 12.5173 21.8285 12.6519C21.0208 12.7596 20.3208 12.8538 19.7285 12.9346C19.1362 12.9884 18.517 13.0692 17.8709 13.1769C17.2247 13.2576 16.4305 13.4057 15.4882 13.6211C14.8152 13.7557 14.2633 13.9172 13.8325 14.1057C13.4017 14.2672 13.0248 14.523 12.7017 14.873C12.3787 15.1961 12.0152 15.6672 11.6114 16.2864C11.4229 16.421 11.1806 16.771 10.8845 17.3364C10.5883 17.9018 10.2922 18.4672 9.99602 19.0325C9.24218 20.0825 8.58258 20.9979 8.01721 21.7786C7.47875 22.5325 7.26337 22.9767 7.37106 23.1113C7.37106 23.1113 7.51914 23.1517 7.81529 23.2325C8.11143 23.3132 8.31335 23.3536 8.42105 23.3536C8.69027 23.219 9.01334 23.1248 9.39026 23.0709C9.7941 23.0171 10.1172 22.9632 10.3595 22.9094C12.0287 22.4786 13.3344 22.1421 14.2767 21.8998C15.2459 21.6575 15.9728 21.4825 16.4574 21.3748C16.969 21.2402 17.3594 21.1594 17.6286 21.1325C18.0055 20.8364 18.369 20.7825 18.7189 20.971C19.0959 21.1594 19.392 21.4556 19.6074 21.8594C19.742 22.1556 19.742 22.4113 19.6074 22.6267C19.4997 22.8421 19.1632 23.0575 18.5978 23.2729C18.0593 23.4882 17.2517 23.744 16.1748 24.0401C15.0979 24.3363 13.6844 24.7267 11.9344 25.2113C10.4537 25.642 9.18834 25.8978 8.13836 25.9786C7.08838 26.0593 6.59031 25.8305 6.64415 25.292C6.45569 25.1844 6.24031 25.319 5.99801 25.6959C5.78263 26.0459 5.56725 26.5305 5.35187 27.1497C5.13649 27.7689 4.94803 28.4285 4.78649 29.1285C4.65188 29.8285 4.55765 30.4881 4.5038 31.1073C4.47688 31.6996 4.51727 32.1439 4.62496 32.44C4.84034 33.0592 5.12302 33.5573 5.47302 33.9342C5.82301 34.2842 6.45569 34.5938 7.37106 34.863C7.90952 34.89 8.43451 34.9303 8.94604 34.9842C9.45757 35.038 10.0364 34.9303 10.6825 34.6611C12.271 34.3919 13.5229 34.1092 14.4383 33.8131C15.3536 33.5169 15.8786 33.315 16.0132 33.2073C16.2286 33.0996 16.3632 33.0458 16.4171 33.0458C16.4978 33.0188 16.6055 33.0054 16.7401 33.0054C16.6594 33.14 16.6863 33.1535 16.8209 33.0458C16.9824 32.9112 17.1978 32.7092 17.467 32.44C17.7632 32.1708 18.1536 31.915 18.6382 31.6727C19.1228 31.4304 19.5535 31.2419 19.9305 31.1073C20.3343 30.9727 20.5497 30.9727 20.5766 31.1073C20.7381 31.3766 20.7112 31.7535 20.4958 32.2381C20.2805 32.6958 19.8901 33.2073 19.3247 33.7727C18.7593 34.3111 18.0324 34.8361 17.144 35.3476C15.7171 36.1015 14.169 36.6265 12.4998 36.9226C10.8306 37.2457 9.33641 37.4207 8.01721 37.4476Z" fill="#FF6131"/>
<path d="M27.998 36.3855V10H45.7252V12.9483H31.2449V22.8382H43.8965V25.8238H31.2449V36.3855H27.998Z" fill="#2B59C9"/>
</svg>
