<svg width="358" height="101" viewBox="0 0 358 101" fill="none" xmlns="http://www.w3.org/2000/svg">
<g clip-path="url(#clip0_2025_2211)">
<path d="M331.399 118.152C331.969 117.581 332.518 116.987 333.046 116.369L333.494 115.854C333.92 115.363 334.34 114.859 334.753 114.35L335.086 113.94C335.596 113.301 336.077 112.656 336.557 112L336.883 111.535C337.264 111.005 337.636 110.464 337.997 109.912L338.373 109.347C338.82 108.652 339.261 107.953 339.686 107.24L339.744 107.14C340.127 106.491 340.493 105.834 340.856 105.17C341.125 104.676 341.383 104.175 341.641 103.674C341.829 103.306 342.021 102.939 342.204 102.569C342.466 102.036 342.712 101.495 342.963 100.956C343.124 100.601 343.295 100.25 343.45 99.8899C343.718 99.2873 343.967 98.6782 344.217 98.0642C344.34 97.758 344.474 97.455 344.587 97.1539C344.939 96.2472 345.277 95.3329 345.599 94.4109L345.622 94.349C345.95 93.4059 346.258 92.4481 346.551 91.4853C346.647 91.1678 346.734 90.847 346.817 90.5112C347.007 89.8612 347.193 89.2128 347.363 88.5562C347.465 88.1686 347.556 87.7745 347.653 87.3853C347.8 86.7906 347.949 86.1993 348.081 85.5998C348.173 85.184 348.257 84.76 348.342 84.3392C348.464 83.7615 348.586 83.1838 348.689 82.6079C348.771 82.1722 348.843 81.7333 348.915 81.2944C349.013 80.7247 349.105 80.1539 349.191 79.5821C349.253 79.1317 349.315 78.6812 349.373 78.2324C349.446 77.6636 349.518 77.0947 349.582 76.5259C349.634 76.0805 349.677 75.6186 349.719 75.1617C349.771 74.5947 349.822 74.0244 349.864 73.4542L349.954 72.0804C349.986 71.507 350.012 70.937 350.036 70.3636C350.053 69.907 350.066 69.452 350.078 68.9937C350.09 68.4139 350.091 67.8358 350.094 67.256C350.093 66.8045 350.093 66.3563 350.088 65.9066C350.079 65.3169 350.059 64.724 350.021 64.1447C350.005 63.705 349.99 63.2687 349.971 62.8308C349.938 62.2197 349.894 61.6138 349.848 61.0012C349.824 60.5949 349.792 60.1671 349.756 59.7543C349.698 59.0936 349.624 58.4363 349.542 57.7708C349.494 57.3764 349.467 57.0135 349.417 56.6376C349.406 56.5344 349.391 56.4329 349.378 56.3348C349.264 55.468 349.137 54.6081 348.996 53.7466C348.989 53.6917 348.98 53.6335 348.968 53.577C348.823 52.7089 348.663 51.8409 348.475 50.9866C348.445 50.847 348.419 50.7057 348.391 50.5693C348.217 49.7332 348.032 48.9072 347.833 48.0797C347.798 47.9301 347.758 47.7789 347.721 47.626C347.513 46.7953 347.291 45.9713 347.06 45.1474L346.967 44.8186C346.72 43.9782 346.467 43.1446 346.192 42.3145C346.178 42.288 346.165 42.2615 346.151 42.235C345.872 41.3983 345.579 40.5734 345.275 39.7537C345.214 39.6344 345.184 39.5031 345.136 39.377C344.836 38.5888 344.521 37.8125 344.197 37.0413L344.012 36.6084C343.679 35.8373 343.336 35.0713 342.977 34.3138C342.92 34.2044 342.864 34.095 342.806 33.9824C342.403 33.197 342.028 32.4013 341.598 31.6295C333.448 16.406 320.993 8.13211 308.064 7.50511L323.054 8.23012C335.983 8.85712 348.44 17.1343 356.587 32.3596C356.988 33.1416 357.39 33.9237 357.793 34.7091C357.849 34.8184 357.905 34.9278 357.963 35.0405C358.322 35.7997 358.669 36.5651 359.004 37.3368L359.187 37.7663C359.511 38.5375 359.825 39.3189 360.123 40.1037C360.184 40.223 360.214 40.3543 360.262 40.4804C360.569 41.3023 360.862 42.1289 361.141 42.96C361.156 42.9898 361.172 43.0196 361.169 43.0547C361.443 43.8825 361.7 44.715 361.94 45.5521C361.973 45.665 362.007 45.7729 362.039 45.8826C362.272 46.7064 362.491 47.5332 362.696 48.3629C362.736 48.514 362.773 48.6669 362.808 48.8165C363.011 49.6418 363.198 50.4711 363.369 51.3045C363.396 51.4458 363.425 51.5854 363.452 51.7268C363.626 52.5879 363.788 53.4508 363.943 54.3138L363.971 54.4917C364.114 55.3482 364.236 56.2065 364.348 57.07C364.363 57.1715 364.379 57.2762 364.392 57.3744C364.404 57.4726 364.408 57.4958 364.417 57.5541C364.457 57.8685 364.482 58.1864 364.514 58.501C364.589 59.1616 364.668 59.8205 364.725 60.4862C364.756 60.8891 364.79 61.3152 364.818 61.7281C364.864 62.3406 364.904 62.94 364.926 63.5695C364.945 64.0074 364.957 64.4455 364.973 64.8851C364.994 65.473 365.017 66.0641 365.04 66.647C365.048 67.0951 365.045 67.5449 365.044 67.9931C365.044 68.5739 365.039 69.1543 365.03 69.7342C365.021 70.1907 365.004 70.6474 364.986 71.1007C364.967 71.6757 364.938 72.2474 364.904 72.8175C364.879 73.2743 364.847 73.7344 364.814 74.1913C364.776 74.7692 364.727 75.3384 364.669 75.8988C364.62 76.3424 364.584 76.8093 364.532 77.263C364.471 77.8356 364.402 78.4045 364.323 78.9695C364.265 79.4183 364.206 79.8671 364.141 80.3192C364.057 80.8899 363.966 81.4601 363.868 82.0298C363.799 82.4837 363.724 82.9076 363.642 83.3433C363.523 83.9277 363.401 84.5054 363.279 85.0831C363.193 85.5039 363.11 85.9279 363.014 86.3454C362.899 86.9364 362.735 87.5396 362.588 88.1342C362.491 88.5234 362.402 88.9125 362.299 89.3001C362.126 89.9584 361.938 90.6035 361.75 91.2568C361.659 91.576 361.574 91.9001 361.484 92.2309C361.193 93.1925 360.884 94.1454 360.557 95.0896L360.532 95.1565C360.211 96.0796 359.874 96.9895 359.519 97.8962C359.395 98.2024 359.265 98.5037 359.149 98.8064C358.902 99.4188 358.65 100.03 358.387 100.634C358.227 100.992 358.059 101.342 357.896 101.694C357.649 102.239 357.402 102.785 357.139 103.309C356.958 103.683 356.764 104.046 356.574 104.412C356.318 104.916 356.057 105.418 355.787 105.913L355.598 106.278C355.3 106.816 354.991 107.347 354.68 107.875L354.618 107.983C354.198 108.697 353.757 109.396 353.308 110.087L352.934 110.656C352.568 111.204 352.195 111.746 351.817 112.281L351.488 112.742C351.016 113.404 350.521 114.047 350.021 114.68C349.913 114.82 349.798 114.954 349.688 115.09C349.275 115.6 348.855 116.104 348.417 116.58L347.973 117.093C347.445 117.696 346.896 118.291 346.326 118.876C337.516 127.938 327.184 132.053 317.155 131.579L302.165 130.854C312.268 131.341 322.59 127.214 331.399 118.152Z" fill="url(#paint0_linear_2025_2211)"/>
<path d="M295.279 36.043C296.941 34.276 298.879 32.7903 301.018 31.6437C304.265 29.9764 307.343 29.7404 310.426 30.9254C313.263 32.0147 316.023 34.2578 318.472 37.4054C316.397 38.5422 314.513 39.9968 312.888 41.7164C299.614 55.3771 296.554 83.3948 306.34 101.681C307.261 103.416 308.325 105.069 309.523 106.625L309.341 106.719C306.096 108.384 303.022 108.619 299.939 107.434C295.774 105.845 291.8 101.784 288.71 96.0098C278.943 77.7181 282.003 49.7004 295.279 36.043Z" fill="url(#paint1_linear_2025_2211)"/>
<path d="M278.982 20.2033C299.151 -0.539686 327.212 4.57926 341.687 31.6255C356.163 58.6718 351.556 97.4115 331.393 118.143C311.231 138.874 283.171 133.775 268.696 106.729C254.221 79.6824 258.828 40.9427 278.982 20.2033ZM288.732 96.0113C291.822 101.786 295.809 105.84 299.961 107.435C303.044 108.62 306.118 108.386 309.362 106.72C311.502 105.571 313.441 104.083 315.106 102.314C328.377 88.6554 331.441 60.636 321.652 42.3512C318.561 36.5765 314.578 32.5206 310.435 30.9421C307.352 29.7571 304.274 29.9931 301.026 31.6603C298.888 32.8069 296.95 34.2926 295.287 36.0597C282.003 49.7005 278.943 77.7182 288.728 96.0047L288.732 96.0113Z" fill="url(#paint2_linear_2025_2211)"/>
<path d="M270.623 31.2447L286.493 50.6576C281.318 64.8751 281.745 82.9248 288.735 95.9849C291.825 101.76 295.812 105.814 299.964 107.409C303.047 108.594 306.121 108.36 309.366 106.694C311.502 105.552 313.44 104.073 315.106 102.315C317.623 99.6746 319.742 96.6814 321.394 93.4297L336.556 112.001C334.985 114.171 333.262 116.227 331.398 118.153C311.243 138.889 283.172 133.775 268.696 106.729C256.505 83.9449 257.85 52.8718 270.623 31.2447Z" fill="#F8E67D"/>
<path style="mix-blend-mode:screen" opacity="0.7" d="M268.696 106.729C254.22 79.6826 258.828 40.9429 278.987 20.2134C299.146 -0.516089 327.212 4.57948 341.687 31.6257C356.163 58.672 351.556 97.4117 331.393 118.143C311.231 138.874 283.171 133.775 268.696 106.729ZM330.977 117.733C350.932 97.2001 355.503 58.7007 341.166 31.9062C340.036 29.7906 338.778 27.746 337.399 25.7838C329.968 15.2657 319.914 9.0004 309.086 8.15276C298.563 7.32854 288.023 11.7557 279.413 20.6187C259.458 41.1511 254.87 79.6591 269.224 106.445C270.352 108.562 271.611 110.606 272.991 112.567C280.419 123.087 290.475 129.348 301.304 130.198C311.837 131.018 322.36 126.599 330.977 117.733Z" fill="url(#paint3_linear_2025_2211)"/>
<path d="M237.212 118.152C237.781 117.581 238.33 116.987 238.859 116.369L239.307 115.854C239.733 115.363 240.152 114.859 240.565 114.35L240.899 113.94C241.409 113.301 241.89 112.656 242.369 112L242.696 111.535C243.077 111.005 243.448 110.464 243.81 109.912L244.185 109.347C244.633 108.652 245.073 107.953 245.499 107.24L245.556 107.14C245.939 106.491 246.305 105.834 246.668 105.17C246.938 104.676 247.196 104.175 247.453 103.674C247.641 103.306 247.834 102.939 248.016 102.569C248.279 102.036 248.525 101.495 248.776 100.956C248.937 100.601 249.108 100.25 249.262 99.8899C249.531 99.2873 249.779 98.6782 250.029 98.0642C250.153 97.758 250.286 97.455 250.399 97.1539C250.752 96.2472 251.089 95.3329 251.411 94.4109L251.434 94.349C251.762 93.4059 252.07 92.4481 252.363 91.4853C252.46 91.1678 252.546 90.847 252.629 90.5112C252.819 89.8612 253.005 89.2128 253.175 88.5562C253.278 88.1686 253.368 87.7745 253.466 87.3853C253.613 86.7906 253.761 86.1993 253.893 85.5998C253.985 85.184 254.069 84.76 254.155 84.3392C254.277 83.7615 254.399 83.1838 254.501 82.6079C254.583 82.1722 254.655 81.7333 254.727 81.2944C254.825 80.7247 254.918 80.1539 255.004 79.5821C255.066 79.1317 255.127 78.6812 255.186 78.2324C255.258 77.6636 255.33 77.0947 255.394 76.5259C255.446 76.0805 255.49 75.6186 255.531 75.1617C255.584 74.5947 255.634 74.0244 255.676 73.4542L255.767 72.0804C255.799 71.507 255.825 70.937 255.848 70.3636C255.865 69.907 255.879 69.452 255.891 68.9937C255.903 68.4139 255.903 67.8358 255.907 67.256C255.906 66.8045 255.906 66.3563 255.901 65.9066C255.891 65.3169 255.872 64.724 255.834 64.1447C255.818 63.705 255.803 63.2687 255.783 62.8308C255.75 62.2197 255.707 61.6138 255.66 61.0012C255.636 60.5949 255.605 60.1671 255.569 59.7543C255.51 59.0936 255.437 58.4363 255.355 57.7708C255.307 57.3764 255.28 57.0135 255.229 56.6376C255.218 56.5344 255.204 56.4329 255.191 56.3348C255.077 55.468 254.949 54.6081 254.809 53.7466C254.801 53.6917 254.792 53.6335 254.78 53.577C254.636 52.7089 254.475 51.8409 254.288 50.9866C254.258 50.847 254.231 50.7057 254.203 50.5693C254.029 49.7332 253.844 48.9072 253.645 48.0797C253.61 47.9301 253.57 47.7789 253.534 47.626C253.325 46.7953 253.103 45.9713 252.873 45.1474L252.779 44.8186C252.532 43.9782 252.28 43.1446 252.005 42.3145C251.991 42.288 251.977 42.2615 251.964 42.235C251.685 41.3983 251.391 40.5734 251.088 39.7537C251.026 39.6344 250.997 39.5031 250.949 39.377C250.649 38.5888 250.334 37.8125 250.009 37.0413L249.825 36.6084C249.492 35.8373 249.149 35.0713 248.789 34.3138C248.733 34.2044 248.677 34.095 248.619 33.9824C248.216 33.197 247.841 32.4013 247.411 31.6295C239.261 16.406 226.806 8.13211 213.876 7.50511L228.866 8.23012C241.796 8.85712 254.252 17.1343 262.399 32.3596C262.801 33.1416 263.202 33.9237 263.605 34.7091C263.662 34.8184 263.718 34.9278 263.776 35.0405C264.135 35.7997 264.481 36.5651 264.816 37.3368L264.999 37.7663C265.324 38.5375 265.637 39.3189 265.935 40.1037C265.996 40.223 266.026 40.3543 266.074 40.4804C266.382 41.3023 266.675 42.1289 266.954 42.96C266.969 42.9898 266.984 43.0196 266.981 43.0547C267.256 43.8825 267.513 44.715 267.753 45.5521C267.785 45.665 267.82 45.7729 267.851 45.8826C268.084 46.7064 268.303 47.5332 268.509 48.3629C268.549 48.514 268.585 48.6669 268.62 48.8165C268.823 49.6418 269.011 50.4711 269.182 51.3045C269.208 51.4458 269.238 51.5854 269.264 51.7268C269.438 52.5879 269.601 53.4508 269.755 54.3138L269.784 54.4917C269.926 55.3482 270.048 56.2065 270.161 57.07C270.175 57.1715 270.191 57.2762 270.204 57.3744C270.217 57.4726 270.22 57.4958 270.229 57.5541C270.269 57.8685 270.294 58.1864 270.326 58.501C270.401 59.1616 270.48 59.8205 270.537 60.4862C270.568 60.8891 270.603 61.3152 270.63 61.7281C270.677 62.3406 270.717 62.94 270.738 63.5695C270.758 64.0074 270.769 64.4455 270.786 64.8851C270.807 65.473 270.83 66.0641 270.853 66.647C270.861 67.0951 270.857 67.5449 270.857 67.9931C270.857 68.5739 270.852 69.1543 270.842 69.7342C270.834 70.1907 270.817 70.6474 270.798 71.1007C270.78 71.6757 270.751 72.2474 270.717 72.8175C270.692 73.2743 270.66 73.7344 270.626 74.1913C270.588 74.7692 270.54 75.3384 270.481 75.8988C270.433 76.3424 270.396 76.8093 270.344 77.263C270.284 77.8356 270.214 78.4045 270.136 78.9695C270.077 79.4183 270.019 79.8671 269.954 80.3192C269.87 80.8899 269.779 81.4601 269.68 82.0298C269.612 82.4837 269.536 82.9076 269.454 83.3433C269.336 83.9277 269.214 84.5054 269.091 85.0831C269.006 85.5039 268.922 85.9279 268.827 86.3454C268.711 86.9364 268.548 87.5396 268.401 88.1342C268.303 88.5234 268.214 88.9125 268.112 89.3001C267.939 89.9584 267.751 90.6035 267.563 91.2568C267.471 91.576 267.386 91.9001 267.297 92.2309C267.006 93.1925 266.697 94.1454 266.369 95.0896L266.345 95.1565C266.023 96.0796 265.686 96.9895 265.331 97.8962C265.208 98.2024 265.078 98.5037 264.961 98.8064C264.714 99.4188 264.463 100.03 264.199 100.634C264.04 100.992 263.872 101.342 263.709 101.694C263.462 102.239 263.214 102.785 262.951 103.309C262.771 103.683 262.576 104.046 262.387 104.412C262.131 104.916 261.869 105.418 261.6 105.913L261.41 106.278C261.113 106.816 260.804 107.347 260.493 107.875L260.431 107.983C260.01 108.697 259.569 109.396 259.12 110.087L258.746 110.656C258.38 111.204 258.008 111.746 257.629 112.281L257.301 112.742C256.828 113.404 256.334 114.047 255.834 114.68C255.725 114.82 255.61 114.954 255.5 115.09C255.087 115.6 254.668 116.104 254.23 116.58L253.785 117.093C253.258 117.696 252.709 118.291 252.138 118.876C243.329 127.938 232.997 132.053 222.968 131.579L207.978 130.854C218.08 131.341 228.402 127.214 237.212 118.152Z" fill="url(#paint4_linear_2025_2211)"/>
<path d="M201.091 36.043C202.754 34.276 204.692 32.7903 206.83 31.6437C210.078 29.9764 213.156 29.7404 216.239 30.9254C219.076 32.0147 221.835 34.2578 224.284 37.4054C222.21 38.5422 220.326 39.9968 218.701 41.7164C205.427 55.3771 202.367 83.3948 212.152 101.681C213.073 103.416 214.138 105.069 215.335 106.625L215.153 106.719C211.909 108.384 208.834 108.619 205.751 107.434C201.586 105.845 197.613 101.784 194.523 96.0098C184.755 77.7181 187.815 49.7004 201.091 36.043Z" fill="url(#paint5_linear_2025_2211)"/>
<path d="M184.794 20.2033C204.963 -0.539686 233.024 4.57926 247.5 31.6255C261.975 58.6718 257.368 97.4115 237.206 118.143C217.043 138.874 188.984 133.775 174.508 106.729C160.033 79.6824 164.64 40.9427 184.794 20.2033ZM194.544 96.0113C197.635 101.786 201.621 105.84 205.773 107.435C208.856 108.62 211.931 108.386 215.175 106.72C217.314 105.571 219.254 104.083 220.919 102.314C234.19 88.6554 237.253 60.636 227.464 42.3512C224.374 36.5765 220.391 32.5206 216.247 30.9421C213.164 29.7571 210.086 29.9931 206.839 31.6603C204.7 32.8069 202.762 34.2926 201.1 36.0597C187.815 49.7005 184.755 77.7182 194.541 96.0047L194.544 96.0113Z" fill="url(#paint6_linear_2025_2211)"/>
<path d="M176.435 31.2447L192.306 50.6576C187.131 64.8751 187.558 82.9248 194.547 95.9849C197.638 101.76 201.624 105.814 205.776 107.409C208.859 108.594 211.934 108.36 215.178 106.694C217.314 105.552 219.253 104.073 220.919 102.315C223.436 99.6746 225.554 96.6814 227.207 93.4297L242.368 112.001C240.798 114.171 239.074 116.227 237.211 118.153C217.055 138.889 188.984 133.775 174.509 106.729C162.318 83.9449 163.663 52.8718 176.435 31.2447Z" fill="#F8E67D"/>
<path style="mix-blend-mode:screen" opacity="0.7" d="M174.508 106.729C160.033 79.6826 164.64 40.9429 184.799 20.2134C204.958 -0.516089 233.024 4.57948 247.5 31.6257C261.975 58.672 257.368 97.4117 237.206 118.143C217.043 138.874 188.984 133.775 174.508 106.729ZM236.79 117.733C256.745 97.2001 261.316 58.7007 246.978 31.9062C245.848 29.7906 244.59 27.746 243.211 25.7838C235.78 15.2657 225.726 9.0004 214.898 8.15276C204.376 7.32854 193.835 11.7557 185.225 20.6187C165.27 41.1511 160.682 79.6591 175.037 106.445C176.165 108.562 177.423 110.606 178.804 112.567C186.231 123.087 196.287 129.348 207.117 130.198C217.649 131.018 228.173 126.599 236.79 117.733Z" fill="url(#paint7_linear_2025_2211)"/>
<path d="M143.022 118.152C143.592 117.581 144.141 116.987 144.669 116.369L145.117 115.854C145.543 115.363 145.963 114.859 146.376 114.35L146.709 113.94C147.219 113.301 147.7 112.656 148.18 112L148.506 111.535C148.887 111.005 149.259 110.464 149.62 109.912L149.996 109.347C150.443 108.652 150.884 107.953 151.309 107.24L151.367 107.14C151.75 106.491 152.116 105.834 152.479 105.17C152.748 104.676 153.006 104.175 153.264 103.674C153.452 103.306 153.644 102.939 153.827 102.569C154.09 102.036 154.335 101.495 154.586 100.956C154.747 100.601 154.919 100.25 155.073 99.8899C155.341 99.2873 155.59 98.6782 155.84 98.0642C155.963 97.758 156.097 97.455 156.21 97.1539C156.562 96.2472 156.9 95.3329 157.222 94.4109L157.245 94.349C157.573 93.4059 157.881 92.4481 158.174 91.4853C158.27 91.1678 158.357 90.847 158.44 90.5112C158.63 89.8612 158.816 89.2128 158.986 88.5562C159.088 88.1686 159.179 87.7745 159.276 87.3853C159.423 86.7906 159.572 86.1993 159.704 85.5998C159.796 85.184 159.88 84.76 159.965 84.3392C160.087 83.7615 160.21 83.1838 160.312 82.6079C160.394 82.1722 160.466 81.7333 160.538 81.2944C160.636 80.7247 160.728 80.1539 160.814 79.5821C160.876 79.1317 160.938 78.6812 160.996 78.2324C161.069 77.6636 161.141 77.0947 161.205 76.5259C161.257 76.0805 161.3 75.6186 161.342 75.1617C161.394 74.5947 161.445 74.0244 161.487 73.4542L161.577 72.0804C161.61 71.507 161.635 70.937 161.659 70.3636C161.676 69.907 161.689 69.452 161.701 68.9937C161.713 68.4139 161.714 67.8358 161.718 67.256C161.716 66.8045 161.716 66.3563 161.712 65.9066C161.702 65.3169 161.682 64.724 161.644 64.1447C161.628 63.705 161.613 63.2687 161.594 62.8308C161.561 62.2197 161.518 61.6138 161.471 61.0012C161.447 60.5949 161.415 60.1671 161.379 59.7543C161.321 59.0936 161.247 58.4363 161.165 57.7708C161.118 57.3764 161.09 57.0135 161.04 56.6376C161.029 56.5344 161.014 56.4329 161.001 56.3348C160.887 55.468 160.76 54.6081 160.619 53.7466C160.612 53.6917 160.603 53.6335 160.591 53.577C160.446 52.7089 160.286 51.8409 160.098 50.9866C160.068 50.847 160.042 50.7057 160.014 50.5693C159.84 49.7332 159.655 48.9072 159.456 48.0797C159.421 47.9301 159.381 47.7789 159.344 47.626C159.136 46.7953 158.914 45.9713 158.683 45.1474L158.59 44.8186C158.343 43.9782 158.091 43.1446 157.815 42.3145C157.802 42.288 157.788 42.2615 157.774 42.235C157.495 41.3983 157.202 40.5734 156.898 39.7537C156.837 39.6344 156.807 39.5031 156.759 39.377C156.459 38.5888 156.145 37.8125 155.82 37.0413L155.635 36.6084C155.302 35.8373 154.959 35.0713 154.6 34.3138C154.543 34.2044 154.487 34.095 154.429 33.9824C154.026 33.197 153.651 32.4013 153.222 31.6295C145.071 16.406 132.616 8.13211 119.687 7.50511L134.677 8.23012C147.606 8.85712 160.063 17.1343 168.21 32.3596C168.611 33.1416 169.013 33.9237 169.416 34.7091C169.472 34.8184 169.528 34.9278 169.586 35.0405C169.945 35.7997 170.292 36.5651 170.627 37.3368L170.81 37.7663C171.134 38.5375 171.448 39.3189 171.746 40.1037C171.807 40.223 171.837 40.3543 171.885 40.4804C172.192 41.3023 172.485 42.1289 172.764 42.96C172.779 42.9898 172.795 43.0196 172.792 43.0547C173.066 43.8825 173.323 44.715 173.563 45.5521C173.596 45.665 173.63 45.7729 173.662 45.8826C173.895 46.7064 174.114 47.5332 174.319 48.3629C174.359 48.514 174.396 48.6669 174.431 48.8165C174.634 49.6418 174.821 50.4711 174.992 51.3045C175.019 51.4458 175.048 51.5854 175.075 51.7268C175.249 52.5879 175.411 53.4508 175.566 54.3138L175.594 54.4917C175.737 55.3482 175.859 56.2065 175.971 57.07C175.986 57.1715 176.002 57.2762 176.015 57.3744C176.027 57.4726 176.031 57.4958 176.04 57.5541C176.08 57.8685 176.105 58.1864 176.137 58.501C176.212 59.1616 176.291 59.8205 176.348 60.4862C176.379 60.8891 176.413 61.3152 176.441 61.7281C176.487 62.3406 176.527 62.94 176.549 63.5695C176.568 64.0074 176.58 64.4455 176.596 64.8851C176.617 65.473 176.64 66.0641 176.663 66.647C176.671 67.0951 176.668 67.5449 176.668 67.9931C176.667 68.5739 176.662 69.1543 176.653 69.7342C176.644 70.1907 176.627 70.6474 176.609 71.1007C176.59 71.6757 176.561 72.2474 176.527 72.8175C176.502 73.2743 176.47 73.7344 176.437 74.1913C176.399 74.7692 176.35 75.3384 176.292 75.8988C176.243 76.3424 176.207 76.8093 176.155 77.263C176.094 77.8356 176.025 78.4045 175.946 78.9695C175.888 79.4183 175.829 79.8671 175.764 80.3192C175.68 80.8899 175.589 81.4601 175.491 82.0298C175.422 82.4837 175.347 82.9076 175.265 83.3433C175.146 83.9277 175.024 84.5054 174.902 85.0831C174.817 85.5039 174.733 85.9279 174.637 86.3454C174.522 86.9364 174.358 87.5396 174.211 88.1342C174.114 88.5234 174.025 88.9125 173.922 89.3001C173.749 89.9584 173.561 90.6035 173.373 91.2568C173.282 91.576 173.197 91.9001 173.107 92.2309C172.816 93.1925 172.507 94.1454 172.18 95.0896L172.155 95.1565C171.834 96.0796 171.497 96.9895 171.142 97.8962C171.018 98.2024 170.888 98.5037 170.772 98.8064C170.525 99.4188 170.273 100.03 170.01 100.634C169.85 100.992 169.682 101.342 169.52 101.694C169.272 102.239 169.025 102.785 168.762 103.309C168.581 103.683 168.387 104.046 168.197 104.412C167.941 104.916 167.68 105.418 167.41 105.913L167.221 106.278C166.923 106.816 166.614 107.347 166.303 107.875L166.241 107.983C165.821 108.697 165.38 109.396 164.931 110.087L164.557 110.656C164.191 111.204 163.818 111.746 163.44 112.281L163.112 112.742C162.639 113.404 162.144 114.047 161.644 114.68C161.536 114.82 161.421 114.954 161.311 115.09C160.898 115.6 160.478 116.104 160.04 116.58L159.596 117.093C159.068 117.696 158.519 118.291 157.949 118.876C149.139 127.938 138.807 132.053 128.778 131.579L113.788 130.854C123.891 131.341 134.213 127.214 143.022 118.152Z" fill="url(#paint8_linear_2025_2211)"/>
<path d="M106.902 36.043C108.564 34.276 110.503 32.7903 112.641 31.6437C115.888 29.9764 118.966 29.7404 122.049 30.9254C124.886 32.0147 127.646 34.2578 130.095 37.4054C128.02 38.5422 126.136 39.9968 124.512 41.7164C111.238 55.3771 108.177 83.3948 117.963 101.681C118.884 103.416 119.948 105.069 121.146 106.625L120.964 106.719C117.72 108.384 114.645 108.619 111.562 107.434C107.397 105.845 103.423 101.784 100.333 96.0098C90.5658 77.7181 93.626 49.7004 106.902 36.043Z" fill="url(#paint9_linear_2025_2211)"/>
<path d="M90.6047 20.2033C110.774 -0.539686 138.835 4.57926 153.31 31.6255C167.786 58.6718 163.179 97.4115 143.016 118.143C122.854 138.874 94.7945 133.775 80.319 106.729C65.8436 79.6824 70.4506 40.9427 90.6047 20.2033ZM100.355 96.0113C103.445 101.786 107.432 105.84 111.584 107.435C114.667 108.62 117.741 108.386 120.985 106.72C123.125 105.571 125.065 104.083 126.729 102.314C140 88.6554 143.064 60.636 133.275 42.3512C130.184 36.5765 126.201 32.5206 122.058 30.9421C118.975 29.7571 115.897 29.9931 112.649 31.6603C110.511 32.8069 108.573 34.2926 106.91 36.0597C93.626 49.7005 90.5657 77.7182 100.352 96.0047L100.355 96.0113Z" fill="url(#paint10_linear_2025_2211)"/>
<path d="M82.2459 31.2447L98.1161 50.6576C92.9414 64.8751 93.3685 82.9248 100.358 95.9849C103.448 101.76 107.435 105.814 111.587 107.409C114.67 108.594 117.744 108.36 120.989 106.694C123.125 105.552 125.063 104.073 126.73 102.315C129.246 99.6746 131.365 96.6814 133.017 93.4297L148.179 112.001C146.608 114.171 144.885 116.227 143.022 118.153C122.866 138.889 94.7946 133.775 80.3191 106.729C68.1281 83.9449 69.4732 52.8718 82.2459 31.2447Z" fill="#F8E67D"/>
<path style="mix-blend-mode:screen" opacity="0.7" d="M80.319 106.729C65.8435 79.6826 70.4506 40.9429 90.6098 20.2134C110.769 -0.516089 138.835 4.57948 153.31 31.6257C167.786 58.672 163.179 97.4117 143.016 118.143C122.854 138.874 94.7945 133.775 80.319 106.729ZM142.6 117.733C162.555 97.2001 167.126 58.7007 152.789 31.9062C151.659 29.7906 150.401 27.746 149.022 25.7838C141.591 15.2657 131.537 9.0004 120.709 8.15276C110.186 7.32854 99.6459 11.7557 91.0356 20.6187C71.0809 41.1511 66.493 79.6591 80.8474 106.445C81.9755 108.562 83.2336 110.606 84.6144 112.567C92.0418 123.087 102.098 129.348 112.927 130.198C123.46 131.018 133.983 126.599 142.6 117.733Z" fill="url(#paint11_linear_2025_2211)"/>
<path d="M48.833 118.152C49.4023 117.581 49.9513 116.987 50.48 116.369L50.9277 115.854C51.3539 115.363 51.7734 114.859 52.1861 114.35L52.52 113.94C53.0296 113.301 53.5109 112.656 53.9904 112L54.3169 111.535C54.6978 111.005 55.0691 110.464 55.4309 109.912L55.8063 109.347C56.2538 108.652 56.6945 107.953 57.12 107.24L57.1773 107.14C57.5602 106.491 57.9264 105.834 58.2891 105.17C58.5588 104.676 58.8167 104.175 59.0746 103.674C59.2622 103.306 59.4549 102.939 59.6375 102.569C59.9001 102.036 60.1459 101.495 60.3967 100.956C60.5579 100.601 60.7291 100.25 60.8835 99.8899C61.152 99.2873 61.4004 98.6782 61.6504 98.0642C61.7737 97.758 61.9071 97.455 62.0205 97.1539C62.373 96.2472 62.7103 95.3329 63.0326 94.4109L63.0552 94.349C63.3834 93.4059 63.6914 92.4481 63.9843 91.4853C64.0809 91.1678 64.1675 90.847 64.2505 90.5112C64.4402 89.8612 64.6265 89.2128 64.7961 88.5562C64.8986 88.1686 64.9894 87.7745 65.0869 87.3853C65.2338 86.7906 65.3825 86.1993 65.5143 85.5998C65.6065 85.184 65.6903 84.76 65.7758 84.3392C65.8979 83.7615 66.0201 83.1838 66.1222 82.6079C66.2042 82.1722 66.2762 81.7333 66.3481 81.2944C66.4465 80.7247 66.5387 80.1539 66.6248 79.5821C66.6866 79.1317 66.7485 78.6812 66.807 78.2324C66.8792 77.6636 66.9515 77.0947 67.0154 76.5259C67.0673 76.0805 67.1107 75.6186 67.1525 75.1617C67.2047 74.5947 67.2553 74.0244 67.2975 73.4542L67.3879 72.0804C67.4201 71.507 67.4457 70.937 67.4695 70.3636C67.4863 69.907 67.4998 69.452 67.5116 68.9937C67.5238 68.4139 67.5243 67.8358 67.5281 67.256C67.5266 66.8045 67.5268 66.3563 67.522 65.9066C67.5124 65.3169 67.4928 64.724 67.455 64.1447C67.4386 63.705 67.424 63.2687 67.4043 62.8308C67.3712 62.2197 67.3281 61.6138 67.2816 61.0012C67.2572 60.5949 67.226 60.1671 67.19 59.7543C67.1313 59.0936 67.0577 58.4363 66.9756 57.7708C66.9281 57.3764 66.9009 57.0135 66.8503 56.6376C66.8392 56.5344 66.8247 56.4329 66.812 56.3348C66.6979 55.468 66.5704 54.6081 66.4296 53.7466C66.4224 53.6917 66.4134 53.6335 66.4012 53.577C66.257 52.7089 66.0961 51.8409 65.9088 50.9866C65.879 50.847 65.8525 50.7057 65.8244 50.5693C65.6505 49.7332 65.4651 48.9072 65.2664 48.0797C65.2315 47.9301 65.1916 47.7789 65.155 47.626C64.9462 46.7953 64.7242 45.9713 64.4938 45.1474L64.4004 44.8186C64.1532 43.9782 63.9011 43.1446 63.6257 42.3145C63.6121 42.288 63.5984 42.2615 63.5848 42.235C63.306 41.3983 63.0124 40.5734 62.7088 39.7537C62.6475 39.6344 62.6178 39.5031 62.5698 39.377C62.2699 38.5888 61.9551 37.8125 61.6303 37.0413L61.4458 36.6084C61.1127 35.8373 60.7697 35.0713 60.4101 34.3138C60.354 34.2044 60.2978 34.095 60.24 33.9824C59.8368 33.197 59.4618 32.4013 59.0321 31.6295C50.8816 16.406 38.427 8.13211 25.4973 7.50511L40.4871 8.23012C53.4168 8.85712 65.8732 17.1343 74.0203 32.3596C74.4218 33.1416 74.8233 33.9237 75.2265 34.7091C75.2827 34.8184 75.3388 34.9278 75.3966 35.0405C75.7557 35.7997 76.1026 36.5651 76.4373 37.3368L76.6202 37.7663C76.9449 38.5375 77.2581 39.3189 77.5563 40.1037C77.6176 40.223 77.6473 40.3543 77.6953 40.4804C78.0028 41.3023 78.296 42.1289 78.5747 42.96C78.59 42.9898 78.6053 43.0196 78.6024 43.0547C78.8766 43.8825 79.1337 44.715 79.3736 45.5521C79.4065 45.665 79.441 45.7729 79.4721 45.8826C79.7052 46.7064 79.9245 47.5332 80.1299 48.3629C80.1699 48.514 80.2065 48.6669 80.2414 48.8165C80.4445 49.6418 80.6316 50.4711 80.8027 51.3045C80.8292 51.4458 80.859 51.5854 80.8855 51.7268C81.0596 52.5879 81.222 53.4508 81.3761 54.3138L81.4047 54.4917C81.5471 55.3482 81.6695 56.2065 81.782 57.07C81.7964 57.1715 81.8125 57.2762 81.8252 57.3744C81.8379 57.4726 81.8415 57.4958 81.8505 57.5541C81.8905 57.8685 81.9155 58.1864 81.9472 58.501C82.0225 59.1616 82.1012 59.8205 82.1582 60.4862C82.1892 60.8891 82.2237 61.3152 82.2514 61.7281C82.2979 62.3406 82.3376 62.94 82.3593 63.5695C82.379 64.0074 82.3903 64.4455 82.4067 64.8851C82.4279 65.473 82.4509 66.0641 82.4737 66.647C82.4818 67.0951 82.4783 67.5449 82.4781 67.9931C82.4776 68.5739 82.4727 69.1543 82.4633 69.7342C82.4548 70.1907 82.438 70.6474 82.4195 71.1007C82.4007 71.6757 82.3718 72.2474 82.3379 72.8175C82.3127 73.2743 82.281 73.7344 82.2475 74.1913C82.2093 74.7692 82.1609 75.3384 82.1025 75.8988C82.0539 76.3424 82.0172 76.8093 81.9654 77.263C81.9048 77.8356 81.8354 78.4045 81.757 78.9695C81.6985 79.4183 81.6399 79.8671 81.5748 80.3192C81.4909 80.8899 81.3998 81.4601 81.3014 82.0298C81.233 82.4837 81.1575 82.9076 81.0755 83.3433C80.9568 83.9277 80.8347 84.5054 80.7125 85.0831C80.6271 85.5039 80.5433 85.9279 80.4478 86.3454C80.3324 86.9364 80.1689 87.5396 80.022 88.1342C79.9245 88.5234 79.8354 88.9125 79.7329 89.3001C79.56 89.9584 79.3719 90.6035 79.1839 91.2568C79.0924 91.576 79.0075 91.9001 78.9178 92.2309C78.627 93.1925 78.3179 94.1454 77.9903 95.0896L77.966 95.1565C77.6443 96.0796 77.3075 96.9895 76.9523 97.8962C76.8289 98.2024 76.6988 98.5037 76.5821 98.8064C76.3354 99.4188 76.0837 100.03 75.8202 100.634C75.6608 100.992 75.4929 101.342 75.3301 101.694C75.0826 102.239 74.8352 102.785 74.5726 103.309C74.3916 103.683 74.1973 104.046 74.0079 104.412C73.7517 104.916 73.4905 105.418 73.2209 105.913L73.0315 106.278C72.734 106.816 72.4248 107.347 72.1139 107.875L72.0517 107.983C71.6312 108.697 71.1905 109.396 70.7414 110.087L70.3676 110.656C70.0014 111.204 69.6289 111.746 69.2504 112.281L68.9221 112.742C68.4493 113.404 67.9547 114.047 67.455 114.68C67.3465 114.82 67.2313 114.954 67.1212 115.09C66.7084 115.6 66.289 116.104 65.8509 116.58L65.4065 117.093C64.8787 117.696 64.3298 118.291 63.7596 118.876C54.9497 127.938 44.6179 132.053 34.5886 131.579L19.5988 130.854C29.7015 131.341 40.0232 127.214 48.833 118.152Z" fill="url(#paint12_linear_2025_2211)"/>
<path d="M12.7122 36.043C14.3749 34.276 16.3131 32.7903 18.4513 31.6437C21.6989 29.9764 24.7768 29.7404 27.8598 30.9254C30.6969 32.0147 33.4563 34.2578 35.9055 37.4054C33.8308 38.5422 31.9468 39.9968 30.322 41.7164C17.0481 55.3771 13.9878 83.3948 23.7736 101.681C24.6942 103.416 25.759 105.069 26.9566 106.625L26.7743 106.719C23.5301 108.384 20.4555 108.619 17.3725 107.434C13.2073 105.845 9.23402 101.784 6.14378 96.0098C-3.6237 77.7181 -0.563444 49.7004 12.7122 36.043Z" fill="url(#paint13_linear_2025_2211)"/>
<path d="M-3.58476 20.2033C16.5843 -0.539686 44.6455 4.57926 59.121 31.6255C73.5964 58.6718 68.9894 97.4115 48.8269 118.143C28.6644 138.874 0.605051 133.775 -13.8704 106.729C-28.3459 79.6824 -23.7388 40.9427 -3.58476 20.2033ZM6.16545 96.0113C9.25569 101.786 13.2422 105.84 17.3942 107.435C20.4772 108.62 23.5518 108.386 26.796 106.72C28.9354 105.571 30.8751 104.083 32.54 102.314C45.8107 88.6554 48.8743 60.636 39.0852 42.3512C35.9949 36.5765 32.0117 32.5206 27.8683 30.9421C24.7853 29.7571 21.7074 29.9931 18.4598 31.6603C16.3216 32.8069 14.3834 34.2926 12.7207 36.0597C-0.56344 49.7005 -3.6237 77.7182 6.16205 96.0047L6.16545 96.0113Z" fill="url(#paint14_linear_2025_2211)"/>
<path d="M-11.9436 31.2447L3.92663 50.6576C-1.2481 64.8751 -0.820992 82.9248 6.16858 95.9849C9.25881 101.76 13.2454 105.814 17.3973 107.409C20.4803 108.594 23.5549 108.36 26.7991 106.694C28.9355 105.552 30.874 104.073 32.5401 102.315C35.057 99.6746 37.1752 96.6814 38.8278 93.4297L53.9894 112.001C52.4188 114.171 50.6953 116.227 48.8321 118.153C28.6763 138.889 0.605127 133.775 -13.8703 106.729C-26.0613 83.9449 -24.7163 52.8718 -11.9436 31.2447Z" fill="#F8E67D"/>
<path style="mix-blend-mode:screen" opacity="0.7" d="M-13.8705 106.729C-28.3459 79.6826 -23.7388 40.9429 -3.57969 20.2134C16.5795 -0.516089 44.6455 4.57948 59.1209 31.6257C73.5964 58.672 68.9893 97.4117 48.8269 118.143C28.6644 138.874 0.605013 133.775 -13.8705 106.729ZM48.411 117.733C68.3657 97.2001 72.937 58.7007 58.5991 31.9062C57.4693 29.7906 56.2113 27.746 54.8321 25.7838C47.4015 15.2657 37.3472 9.0004 26.5194 8.15276C15.9966 7.32854 5.45647 11.7557 -3.15388 20.6187C-23.1086 41.1511 -27.6964 79.6591 -13.342 106.445C-12.2139 108.562 -10.9558 110.606 -9.57503 112.567C-2.1477 123.087 7.90817 129.348 18.7377 130.198C29.2704 131.018 39.794 126.599 48.411 117.733Z" fill="url(#paint15_linear_2025_2211)"/>
</g>
<defs>
<linearGradient id="paint0_linear_2025_2211" x1="341.703" y1="7.16856" x2="326.492" y2="108.307" gradientUnits="userSpaceOnUse">
<stop stop-color="white"/>
<stop offset="0.13" stop-color="#DCDDEB"/>
<stop offset="1" stop-color="#B3C4D4"/>
</linearGradient>
<linearGradient id="paint1_linear_2025_2211" x1="293.318" y1="95.1644" x2="322.82" y2="-10.6394" gradientUnits="userSpaceOnUse">
<stop stop-color="white"/>
<stop offset="0.13" stop-color="#DCDDEB"/>
<stop offset="1" stop-color="#B3C4D4"/>
</linearGradient>
<linearGradient id="paint2_linear_2025_2211" x1="285.798" y1="12.1523" x2="317.789" y2="106.226" gradientUnits="userSpaceOnUse">
<stop stop-color="#F7F4FF"/>
<stop offset="1" stop-color="#DFEAF1"/>
</linearGradient>
<linearGradient id="paint3_linear_2025_2211" x1="260.646" y1="91.7223" x2="334.14" y2="54.5494" gradientUnits="userSpaceOnUse">
<stop stop-color="#F7F4FF"/>
<stop offset="1" stop-color="#F7F4FF" stop-opacity="0"/>
</linearGradient>
<linearGradient id="paint4_linear_2025_2211" x1="247.515" y1="7.16856" x2="232.304" y2="108.307" gradientUnits="userSpaceOnUse">
<stop stop-color="white"/>
<stop offset="0.13" stop-color="#DCDDEB"/>
<stop offset="1" stop-color="#B3C4D4"/>
</linearGradient>
<linearGradient id="paint5_linear_2025_2211" x1="199.13" y1="95.1644" x2="228.632" y2="-10.6394" gradientUnits="userSpaceOnUse">
<stop stop-color="white"/>
<stop offset="0.13" stop-color="#DCDDEB"/>
<stop offset="1" stop-color="#B3C4D4"/>
</linearGradient>
<linearGradient id="paint6_linear_2025_2211" x1="191.611" y1="12.1523" x2="223.601" y2="106.226" gradientUnits="userSpaceOnUse">
<stop stop-color="#F7F4FF"/>
<stop offset="1" stop-color="#DFEAF1"/>
</linearGradient>
<linearGradient id="paint7_linear_2025_2211" x1="166.458" y1="91.7223" x2="239.952" y2="54.5494" gradientUnits="userSpaceOnUse">
<stop stop-color="#F7F4FF"/>
<stop offset="1" stop-color="#F7F4FF" stop-opacity="0"/>
</linearGradient>
<linearGradient id="paint8_linear_2025_2211" x1="153.326" y1="7.16856" x2="138.115" y2="108.307" gradientUnits="userSpaceOnUse">
<stop stop-color="white"/>
<stop offset="0.13" stop-color="#DCDDEB"/>
<stop offset="1" stop-color="#B3C4D4"/>
</linearGradient>
<linearGradient id="paint9_linear_2025_2211" x1="104.941" y1="95.1644" x2="134.443" y2="-10.6394" gradientUnits="userSpaceOnUse">
<stop stop-color="white"/>
<stop offset="0.13" stop-color="#DCDDEB"/>
<stop offset="1" stop-color="#B3C4D4"/>
</linearGradient>
<linearGradient id="paint10_linear_2025_2211" x1="97.4211" y1="12.1523" x2="129.412" y2="106.226" gradientUnits="userSpaceOnUse">
<stop stop-color="#F7F4FF"/>
<stop offset="1" stop-color="#DFEAF1"/>
</linearGradient>
<linearGradient id="paint11_linear_2025_2211" x1="72.2689" y1="91.7223" x2="145.763" y2="54.5494" gradientUnits="userSpaceOnUse">
<stop stop-color="#F7F4FF"/>
<stop offset="1" stop-color="#F7F4FF" stop-opacity="0"/>
</linearGradient>
<linearGradient id="paint12_linear_2025_2211" x1="59.1364" y1="7.16856" x2="43.9252" y2="108.307" gradientUnits="userSpaceOnUse">
<stop stop-color="white"/>
<stop offset="0.13" stop-color="#DCDDEB"/>
<stop offset="1" stop-color="#B3C4D4"/>
</linearGradient>
<linearGradient id="paint13_linear_2025_2211" x1="10.7512" y1="95.1644" x2="40.2535" y2="-10.6394" gradientUnits="userSpaceOnUse">
<stop stop-color="white"/>
<stop offset="0.13" stop-color="#DCDDEB"/>
<stop offset="1" stop-color="#B3C4D4"/>
</linearGradient>
<linearGradient id="paint14_linear_2025_2211" x1="3.23165" y1="12.1523" x2="35.2222" y2="106.226" gradientUnits="userSpaceOnUse">
<stop stop-color="#F7F4FF"/>
<stop offset="1" stop-color="#DFEAF1"/>
</linearGradient>
<linearGradient id="paint15_linear_2025_2211" x1="-21.9206" y1="91.7223" x2="51.5733" y2="54.5494" gradientUnits="userSpaceOnUse">
<stop stop-color="#F7F4FF"/>
<stop offset="1" stop-color="#F7F4FF" stop-opacity="0"/>
</linearGradient>
<clipPath id="clip0_2025_2211">
<path d="M0 0H358V82C358 92.4934 349.493 101 339 101H19C8.50659 101 0 92.4934 0 82V0Z" fill="white"/>
</clipPath>
</defs>
</svg>
