<svg width="200" height="47" viewBox="0 0 200 47" fill="none" xmlns="http://www.w3.org/2000/svg">
<path d="M84.6237 33.7429V8.26565H101.741V11.1125H87.7588V20.6619H99.975V23.5448H87.7588V33.7429H84.6237ZM105.475 33.7429V14.7521H108.43L108.574 17.707C109.055 16.9623 109.607 16.3617 110.232 15.9052C110.881 15.4488 111.589 15.1124 112.358 14.8962C113.151 14.656 114.004 14.5359 114.917 14.5359C115.085 14.5359 115.241 14.5359 115.385 14.5359C115.553 14.5359 115.721 14.5359 115.89 14.5359V17.4187H114.772C113.283 17.4187 112.07 17.7431 111.133 18.3917C110.22 19.0163 109.559 19.8692 109.151 20.9502C108.742 22.0073 108.538 23.1844 108.538 24.4817V33.7429H105.475ZM126.782 33.9591C124.764 33.9591 123.095 33.5507 121.773 32.7339C120.452 31.8931 119.467 30.7399 118.819 29.2745C118.17 27.809 117.846 26.1394 117.846 24.2655C117.846 22.3676 118.182 20.698 118.855 19.2566C119.551 17.7911 120.56 16.638 121.882 15.7971C123.203 14.9563 124.825 14.5359 126.746 14.5359C128.236 14.5359 129.509 14.8242 130.566 15.4007C131.647 15.9533 132.536 16.698 133.233 17.6349C133.93 18.5719 134.434 19.6049 134.746 20.734C135.059 21.8391 135.191 22.9562 135.143 24.0853C135.119 24.3016 135.095 24.5178 135.071 24.734C135.071 24.9502 135.059 25.1664 135.035 25.3826H120.945C121.041 26.4877 121.317 27.4847 121.773 28.3736C122.23 29.2625 122.879 29.9712 123.719 30.4997C124.56 31.0042 125.605 31.2565 126.855 31.2565C127.479 31.2565 128.104 31.1844 128.728 31.0402C129.377 30.8721 129.954 30.5958 130.458 30.2114C130.987 29.827 131.359 29.3105 131.575 28.6619H134.71C134.422 29.8871 133.881 30.8961 133.089 31.6889C132.296 32.4576 131.347 33.0342 130.242 33.4186C129.137 33.779 127.984 33.9591 126.782 33.9591ZM121.017 22.716H132.008C131.984 21.6349 131.743 20.686 131.287 19.8692C130.83 19.0523 130.206 18.4157 129.413 17.9593C128.644 17.5028 127.719 17.2746 126.638 17.2746C125.461 17.2746 124.464 17.5268 123.647 18.0313C122.855 18.5358 122.242 19.1965 121.81 20.0133C121.377 20.8301 121.113 21.731 121.017 22.716ZM139.223 33.7429V14.7521H142.178L142.323 17.6349C142.755 16.9383 143.308 16.3617 143.98 15.9052C144.653 15.4488 145.386 15.1124 146.178 14.8962C146.995 14.656 147.788 14.5359 148.557 14.5359C150.407 14.5359 151.848 14.9202 152.881 15.689C153.938 16.4578 154.683 17.5028 155.115 18.8241C155.572 20.1214 155.8 21.5989 155.8 23.2565V33.7429H152.737V24.0853C152.737 23.1965 152.677 22.3436 152.557 21.5268C152.461 20.71 152.244 19.9773 151.908 19.3286C151.596 18.68 151.139 18.1755 150.539 17.8151C149.938 17.4307 149.133 17.2385 148.124 17.2385C146.875 17.2385 145.806 17.5869 144.917 18.2836C144.052 18.9803 143.392 19.9172 142.935 21.0944C142.503 22.2715 142.287 23.5929 142.287 25.0583V33.7429H139.223ZM168.622 33.9591C166.628 33.9591 164.971 33.5507 163.649 32.7339C162.352 31.8931 161.379 30.7399 160.73 29.2745C160.106 27.809 159.793 26.1514 159.793 24.3016C159.793 22.4998 160.118 20.8661 160.766 19.4007C161.439 17.9112 162.448 16.7341 163.793 15.8692C165.163 14.9803 166.892 14.5359 168.983 14.5359C170.28 14.5359 171.433 14.7521 172.442 15.1845C173.475 15.6169 174.328 16.2536 175.001 17.0944C175.673 17.9112 176.142 18.9442 176.406 20.1935H173.271C172.91 19.1364 172.334 18.3917 171.541 17.9593C170.772 17.5028 169.859 17.2746 168.802 17.2746C167.361 17.2746 166.208 17.6109 165.343 18.2836C164.478 18.9563 163.841 19.8331 163.433 20.9142C163.049 21.9712 162.856 23.1004 162.856 24.3016C162.856 25.5508 163.061 26.7039 163.469 27.761C163.877 28.818 164.514 29.6709 165.379 30.3195C166.244 30.9441 167.361 31.2565 168.73 31.2565C169.739 31.2565 170.688 31.0402 171.577 30.6078C172.49 30.1754 173.091 29.4066 173.379 28.3015H176.55C176.31 29.5988 175.793 30.6679 175.001 31.5087C174.232 32.3495 173.283 32.9742 172.154 33.3826C171.049 33.7669 169.871 33.9591 168.622 33.9591ZM180.432 33.7429V8.26565H183.495V17.671C183.952 16.9983 184.504 16.4338 185.153 15.9773C185.826 15.4968 186.558 15.1365 187.351 14.8962C188.144 14.656 188.961 14.5359 189.802 14.5359C191.651 14.5359 193.093 14.9202 194.126 15.689C195.183 16.4578 195.928 17.5028 196.36 18.8241C196.793 20.1214 197.009 21.6109 197.009 23.2926V33.7429H193.946V24.2295C193.946 23.3887 193.886 22.5598 193.766 21.743C193.669 20.9022 193.465 20.1454 193.153 19.4728C192.841 18.8001 192.36 18.2596 191.712 17.8512C191.087 17.4428 190.234 17.2385 189.153 17.2385C188.12 17.2385 187.231 17.4668 186.486 17.9232C185.766 18.3797 185.189 18.9923 184.757 19.7611C184.324 20.5058 184 21.3346 183.784 22.2475C183.591 23.1364 183.495 24.0133 183.495 24.8781V33.7429H180.432Z" fill="#2B59C9"/>
<path d="M10.6296 37.0445C9.73422 36.9867 8.9399 36.7123 8.24667 36.2213C7.58233 35.7302 6.87467 35.2248 6.12367 34.7048C5.63264 34.2138 5.2427 33.6939 4.95386 33.1451C4.66501 32.5674 4.43394 31.8164 4.26063 30.8921C4.14509 30.3433 4.14509 29.6501 4.26063 28.8124C4.37617 27.9748 4.56392 27.1371 4.82388 26.2995C5.08384 25.433 5.32935 24.7397 5.56043 24.2198C5.90704 23.4111 6.34031 22.5445 6.86022 21.6202C7.40903 20.667 7.94339 19.7716 8.46331 18.934C9.01211 18.0674 9.44537 17.3742 9.7631 16.8543C9.96529 16.6521 10.0519 16.551 10.0231 16.551C10.0231 16.5221 10.0231 16.5077 10.0231 16.5077C10.0231 16.3633 10.1675 16.0022 10.4563 15.4245C10.7741 14.818 11.0485 14.2836 11.2795 13.8214C11.7128 13.3593 11.9583 12.9838 12.0161 12.695C12.0739 12.4061 12.0305 12.175 11.8861 12.0017C11.8283 11.8862 11.9294 11.684 12.1894 11.3952C12.4493 11.1063 12.8393 10.7741 13.3592 10.3986C13.8791 10.0231 14.4713 9.64765 15.1356 9.27216C15.8288 8.72335 16.4932 8.43451 17.1286 8.40563C17.793 8.34786 18.1829 8.47784 18.2984 8.79556C18.2984 8.88222 18.4573 8.9111 18.775 8.88222C19.1216 8.82445 19.5116 8.75224 19.9448 8.66558C20.407 8.55005 20.8114 8.46339 21.158 8.40563C21.3024 8.23232 21.6346 8.10234 22.1545 8.01569C22.7033 7.90015 23.3388 7.79905 24.0609 7.7124C24.4364 7.74129 24.7974 7.75573 25.144 7.75573C25.5195 7.72684 25.8228 7.69796 26.0539 7.66907C26.3138 7.64019 26.4438 7.62575 26.4438 7.62575C26.646 7.56798 26.8771 7.59686 27.1371 7.7124C27.4259 7.82794 27.6859 8.14567 27.9169 8.66558C28.1191 9.1855 28.0469 9.57544 27.7003 9.8354C27.3826 10.0954 26.6316 10.2976 25.4473 10.442C24.5808 10.5575 23.8298 10.6586 23.1943 10.7453C22.5589 10.803 21.8945 10.8897 21.2013 11.0052C20.5081 11.0919 19.656 11.2507 18.645 11.4818C17.9229 11.6262 17.3308 11.7995 16.8687 12.0017C16.4065 12.175 16.0021 12.4494 15.6555 12.8249C15.3089 13.1715 14.919 13.677 14.4857 14.3414C14.2835 14.4858 14.0235 14.8613 13.7058 15.4679C13.3881 16.0744 13.0704 16.681 12.7526 17.2876C11.9439 18.4141 11.2362 19.3961 10.6296 20.2338C10.0519 21.0425 9.82087 21.5191 9.93641 21.6635C9.93641 21.6635 10.0953 21.7069 10.413 21.7935C10.7307 21.8802 10.9474 21.9235 11.0629 21.9235C11.3517 21.7791 11.6984 21.678 12.1027 21.6202C12.536 21.5625 12.8826 21.5047 13.1426 21.4469C14.9334 20.9848 16.3343 20.6237 17.3452 20.3638C18.3851 20.1038 19.165 19.916 19.6849 19.8005C20.2337 19.6561 20.6525 19.5694 20.9414 19.5405C21.3457 19.2228 21.7357 19.1651 22.1112 19.3672C22.5156 19.5694 22.8333 19.8872 23.0644 20.3204C23.2088 20.6382 23.2088 20.9126 23.0644 21.1436C22.9488 21.3747 22.5878 21.6058 21.9812 21.8369C21.4035 22.0679 20.537 22.3423 19.3816 22.6601C18.2262 22.9778 16.7098 23.3966 14.8323 23.9165C13.2437 24.3787 11.8861 24.6531 10.7596 24.7397C9.63312 24.8264 9.09876 24.5809 9.15653 24.0032C8.95434 23.8876 8.72327 24.0321 8.46331 24.4364C8.23223 24.8119 8.00116 25.3319 7.77008 25.9962C7.53901 26.6605 7.33682 27.3682 7.16351 28.1192C7.01909 28.8702 6.91799 29.5779 6.86022 30.2422C6.83134 30.8777 6.87467 31.3543 6.9902 31.672C7.22128 32.3363 7.52456 32.8707 7.90006 33.2751C8.27556 33.6506 8.95434 33.9827 9.93641 34.2716C10.5141 34.3005 11.0773 34.3438 11.6261 34.4016C12.1749 34.4593 12.796 34.3438 13.4892 34.0549C15.1934 33.7661 16.5365 33.4628 17.5186 33.1451C18.5006 32.8274 19.0639 32.6107 19.2083 32.4952C19.4394 32.3797 19.5838 32.3219 19.6416 32.3219C19.7282 32.293 19.8437 32.2786 19.9882 32.2786C19.9015 32.423 19.9304 32.4374 20.0748 32.3219C20.2481 32.1775 20.4792 31.9608 20.768 31.672C21.0858 31.3831 21.5046 31.1087 22.0245 30.8488C22.5444 30.5888 23.0066 30.3866 23.411 30.2422C23.8442 30.0978 24.0753 30.0978 24.1042 30.2422C24.2775 30.5311 24.2486 30.9354 24.0175 31.4554C23.7865 31.9464 23.3676 32.4952 22.7611 33.1018C22.1545 33.6794 21.3746 34.2427 20.4214 34.7915C18.8906 35.6003 17.2297 36.1635 15.4389 36.4812C13.648 36.8278 12.045 37.0156 10.6296 37.0445ZM28.1897 34.4449C28.0742 34.2138 27.9298 34.0405 27.7565 33.925C27.5832 33.7805 27.4965 33.6506 27.4965 33.535C27.4965 33.4195 27.4821 33.304 27.4532 33.1884C27.4532 33.044 27.3954 32.914 27.2799 32.7985C27.1355 32.6252 27.1499 32.2352 27.3232 31.6287C27.4965 30.9932 27.7854 30.2278 28.1897 29.3323C28.5941 28.408 29.0707 27.4404 29.6195 26.4295C29.8506 26.1984 30.0817 25.8951 30.3128 25.5196C30.5438 25.1441 30.7171 24.8986 30.8327 24.7831C30.8327 24.6675 30.876 24.5664 30.9626 24.4798C31.0493 24.3642 31.1504 24.3065 31.2659 24.3065V24.0465C31.2659 23.9021 31.3959 23.6566 31.6559 23.31C31.9447 22.9633 32.2913 22.5879 32.6957 22.1835C33.1001 21.7502 33.5189 21.3458 33.9522 20.9703C34.3854 20.5659 34.7465 20.2771 35.0353 20.1038C35.6419 19.6994 36.2629 19.4539 36.8984 19.3672C37.5627 19.2806 38.126 19.425 38.5881 19.8005C38.6748 19.8872 38.8192 20.0316 39.0214 20.2338C39.2236 20.436 39.4547 20.667 39.7146 20.927C40.0035 21.1581 40.2923 21.4036 40.5811 21.6635L42.1842 23.0933L41.4043 25.2597C41.0289 26.415 40.9278 27.426 41.1011 28.2925C41.3033 29.159 41.5921 29.91 41.9676 30.5455C42.112 30.8632 42.4009 31.1665 42.8341 31.4554C43.2963 31.7442 43.7295 31.9175 44.1339 31.9753C44.365 32.0042 44.5816 32.0908 44.7838 32.2352C44.986 32.3797 45.0871 32.6107 45.0871 32.9285C45.0871 33.2173 45.0293 33.4484 44.9138 33.6217C44.7983 33.795 44.5961 33.9105 44.3072 33.9683C43.354 34.0838 42.4586 33.8528 41.621 33.2751C40.8122 32.6974 40.0612 31.7442 39.368 30.4155C39.2525 30.2422 39.0936 29.9245 38.8914 29.4623C38.7181 28.9713 38.617 28.6536 38.5881 28.5091C38.4726 28.6536 38.256 28.928 37.9382 29.3323C37.6205 29.7078 37.375 29.9822 37.2017 30.1556C35.1509 32.2352 33.3745 33.6361 31.8725 34.3582C30.3994 35.0515 29.1718 35.0803 28.1897 34.4449ZM29.7495 32.0186C29.7495 32.2208 30.0528 32.2208 30.6594 32.0186C31.2948 31.7875 31.9736 31.3831 32.6957 30.8055C33.6778 29.9678 34.6598 29.0435 35.6419 28.0326C36.6529 27.0216 37.4616 26.0829 38.0682 25.2163L39.0214 23.6566C38.7325 22.9922 38.4148 22.5445 38.0682 22.3134C37.7505 22.0535 37.4761 21.9235 37.245 21.9235C36.8695 21.9235 36.3063 22.2701 35.5553 22.9633C34.8332 23.6566 34.0533 24.5809 33.2156 25.7362C32.378 26.8916 31.5837 28.1625 30.8327 29.549C30.5438 30.1267 30.2839 30.6899 30.0528 31.2387C29.8506 31.7586 29.7495 32.0186 29.7495 32.0186ZM49.4424 36.1779C48.8936 35.9469 48.3737 35.6436 47.8827 35.2681C47.3916 34.8637 47.0739 34.5315 46.9295 34.2716C46.9295 34.0116 46.9728 33.8383 47.0595 33.7517C47.1461 33.6361 47.3916 33.5928 47.796 33.6217C48.2293 33.6217 48.9225 33.6794 49.8757 33.795C50.2223 33.795 50.6556 33.7661 51.1755 33.7083C51.6954 33.6506 52.172 33.5639 52.6053 33.4484C53.0674 33.3328 53.3274 33.1884 53.3852 33.0151C53.5296 33.0151 53.5585 32.9718 53.4718 32.8851C53.3852 32.7696 53.2841 32.6541 53.1685 32.5385C53.053 32.5385 52.923 32.4952 52.7786 32.4085C52.6342 32.293 52.5042 32.2352 52.3886 32.2352C52.3886 32.0908 52.2442 31.9319 51.9554 31.7586C51.6954 31.5564 51.421 31.3976 51.1322 31.282C50.4967 30.7621 49.9479 30.3 49.4858 29.8956C49.0236 29.4623 48.8503 29.1735 48.9658 29.0291C48.9658 28.9135 48.9658 28.8558 48.9658 28.8558C48.9658 28.8269 48.9658 28.8124 48.9658 28.8124C48.7637 28.8124 48.5326 28.5236 48.2726 27.9459C48.0415 27.3682 47.926 26.8483 47.926 26.3861C47.926 26.0395 48.0271 25.6063 48.2293 25.0863C48.4315 24.5375 48.7059 23.9743 49.0525 23.3966C49.3991 22.8189 49.7602 22.3423 50.1357 21.9668C50.6556 21.4758 51.3055 20.9559 52.0854 20.4071C52.8652 19.8294 53.6307 19.3239 54.3817 18.8907C55.1615 18.4285 55.8114 18.1252 56.3314 17.9808C56.8513 17.7786 57.3279 17.6775 57.7611 17.6775C58.2233 17.6775 58.6277 17.7786 58.9743 17.9808C59.2631 18.1252 59.5231 18.3418 59.7542 18.6307C60.0141 18.8907 60.2307 19.1651 60.4041 19.4539C60.6062 19.7139 60.7362 19.9449 60.794 20.1471C60.794 20.4937 60.7651 20.8837 60.7073 21.3169C60.6496 21.7213 60.5629 22.0824 60.4474 22.4001C60.3607 22.7178 60.2163 22.8767 60.0141 22.8767C60.0141 22.8767 59.9708 22.8911 59.8841 22.92C59.8264 22.92 59.7975 22.9922 59.7975 23.1367C59.7975 23.4255 59.5808 23.7577 59.1476 24.1332C58.5988 24.5087 58.1222 24.7397 57.7178 24.8264C57.3134 24.8842 57.0679 24.7253 56.9813 24.3498C56.8946 24.2343 56.8368 24.1332 56.808 24.0465C56.7791 23.9599 56.7069 23.9165 56.5913 23.9165C56.5913 23.9165 56.548 23.8732 56.4613 23.7866C56.3747 23.6999 56.3314 23.5555 56.3314 23.3533C56.3314 23.2377 56.3747 23.1367 56.4613 23.05C56.548 22.9345 56.5913 22.8767 56.5913 22.8767C56.7357 22.8767 56.9235 22.7178 57.1546 22.4001C57.3856 22.0535 57.5878 21.6924 57.7611 21.3169C57.9633 20.9126 58.0644 20.6382 58.0644 20.4937C58.0644 20.3204 58.0355 20.2193 57.9778 20.1904C57.9489 20.1616 57.8189 20.1471 57.5878 20.1471C57.1834 20.3204 56.6924 20.5515 56.1147 20.8403C55.537 21.1292 54.9882 21.418 54.4683 21.7069C53.9773 21.9668 53.6162 22.2124 53.3852 22.4434C53.2696 22.6456 53.1974 22.7756 53.1685 22.8334C53.1396 22.8623 53.0674 22.8767 52.9519 22.8767C52.9519 22.7612 52.8508 22.8189 52.6486 23.05C52.4753 23.2522 52.2442 23.541 51.9554 23.9165C51.6954 24.292 51.4355 24.6675 51.1755 25.043C50.9444 25.3896 50.7711 25.6496 50.6556 25.8229C50.5978 25.8807 50.5256 26.054 50.4389 26.3428C50.3812 26.6028 50.3523 26.8483 50.3523 27.0794C50.2368 27.426 50.2512 27.6715 50.3956 27.8159C50.54 27.9315 50.8578 28.1914 51.3488 28.5958C52.3598 29.3468 53.1541 29.9678 53.7318 30.4588C54.3095 30.9499 54.7427 31.3543 55.0316 31.672C55.3204 31.9897 55.4937 32.2786 55.5515 32.5385C56.0714 33.405 56.2303 34.0694 56.0281 34.5315C55.8259 34.9937 55.3348 35.3981 54.555 35.7447C54.2661 35.8891 53.7895 36.0046 53.1252 36.0913C52.4609 36.1779 51.7821 36.2213 51.0888 36.2213C50.3956 36.2502 49.8468 36.2357 49.4424 36.1779ZM60.8729 46.4463C60.2374 46.5619 59.8041 46.5763 59.5731 46.4897C59.342 46.403 59.0243 46.2586 58.6199 46.0564C58.3022 45.8253 58.0566 45.652 57.8833 45.5365C57.71 45.4209 57.6234 45.3054 57.6234 45.1899C57.6234 45.1032 57.6523 45.0021 57.71 44.8866C57.7678 44.7999 57.8689 44.7133 58.0133 44.6266C58.1866 44.5689 58.4177 44.54 58.7065 44.54C58.9087 44.6555 59.2409 44.7133 59.703 44.7133C60.1941 44.7133 60.4974 44.6555 60.6129 44.54C60.6129 44.54 60.7429 44.4533 61.0028 44.28C61.2917 44.1356 61.6672 44.0201 62.1293 43.9334C63.0247 43.5001 63.8191 42.9513 64.5123 42.287C65.2055 41.6226 65.8699 40.7561 66.5053 39.6874C66.7653 39.283 67.0397 38.8064 67.3285 38.2576C67.6174 37.7377 67.8195 37.2178 67.9351 36.6979C68.1662 36.1202 68.4261 35.3403 68.715 34.3582C69.0327 33.3762 69.3071 32.4085 69.5382 31.4554C69.7692 30.4733 69.8992 29.7367 69.9281 29.2457C70.1014 27.6282 70.3758 26.1406 70.7513 24.7831C71.1557 23.3966 71.5023 21.8513 71.7912 20.1471C71.9645 19.7427 72.0944 19.5117 72.1811 19.4539C72.2677 19.3672 72.4555 19.3239 72.7443 19.3239C73.0621 19.3239 73.2931 19.3528 73.4376 19.4106C73.6109 19.4395 73.7986 19.6128 74.0008 19.9305C74.2896 20.4793 74.3907 21.1292 74.3041 21.8802C74.2463 22.6023 74.0297 23.2377 73.6542 23.7866C73.3653 24.1909 73.1054 24.8264 72.8743 25.6929C72.6721 26.5306 72.4699 27.5848 72.2677 28.8558C72.1233 29.4912 71.9645 30.2422 71.7912 31.1087C71.6467 31.9464 71.4879 32.8851 71.3146 33.925C71.199 34.2138 71.0402 34.6615 70.838 35.2681C70.6358 35.8458 70.5058 36.3079 70.448 36.6545C70.4191 36.7701 70.3325 37.0011 70.1881 37.3478C70.0436 37.6944 69.8992 38.0265 69.7548 38.3443C69.6104 38.6909 69.5093 38.922 69.4515 39.0375C68.325 41.3771 67.0397 43.168 65.5955 44.41C64.1512 45.652 62.577 46.3308 60.8729 46.4463ZM64.1657 33.8816C63.8479 33.8816 63.5158 33.7083 63.1692 33.3617C62.8514 33.0151 62.6348 32.7407 62.5193 32.5385C62.4037 32.2497 62.2593 31.9753 62.086 31.7153C61.9127 31.4554 61.7827 31.1376 61.6961 30.7621C61.6383 30.3866 61.6672 29.9245 61.7827 29.3757C61.8983 29.0002 62.0571 28.4658 62.2593 27.7726C62.4904 27.0505 62.7359 26.2706 62.9959 25.433C63.2847 24.5953 63.5735 23.7721 63.8624 22.9633C64.1801 22.1257 64.469 21.3891 64.7289 20.7537C64.9889 20.0894 65.22 19.6128 65.4221 19.3239C65.5955 19.0928 65.7832 18.9484 65.9854 18.8907C66.2165 18.8329 66.4475 18.8618 66.6786 18.9773C66.9097 19.064 67.1119 19.2517 67.2852 19.5405C67.6029 19.9449 67.7329 20.2915 67.6751 20.5804C67.6174 20.8692 67.3574 21.4325 66.8952 22.2701C66.7797 22.5878 66.6353 22.9345 66.462 23.31C66.2887 23.6566 66.202 23.8876 66.202 24.0032C66.1731 24.061 66.1154 24.2631 66.0287 24.6098C65.971 24.9275 65.8987 25.2308 65.8121 25.5196C65.7254 25.8085 65.6388 25.9529 65.5521 25.9529C65.4366 26.0684 65.3066 26.4006 65.1622 26.9494C65.0178 27.4693 64.8878 28.0614 64.7722 28.7258C64.6567 29.3612 64.5845 29.9245 64.5556 30.4155C64.5267 30.8777 64.5701 31.1087 64.6856 31.1087C65.581 31.1087 66.5053 30.7621 67.4585 30.0689C68.4406 29.3757 69.4226 28.3647 70.4047 27.036L71.1413 30.1122C70.7369 30.3144 70.3614 30.5311 70.0148 30.7621C69.6681 30.9643 69.3504 31.2098 69.0616 31.4987C68.9749 31.6142 68.7727 31.7731 68.455 31.9753C68.1373 32.1775 67.8195 32.3652 67.5018 32.5385C67.213 32.6829 67.0252 32.7551 66.9386 32.7551C66.9386 32.7551 66.8952 32.7696 66.8086 32.7985C66.7508 32.7985 66.7219 32.8562 66.7219 32.9718C66.7219 33.0295 66.5342 33.1451 66.1587 33.3184C65.7832 33.4628 65.3933 33.5928 64.9889 33.7083C64.5845 33.8239 64.3101 33.8816 64.1657 33.8816Z" fill="#FF6131"/>
</svg>
