<svg width="995" height="239" viewBox="0 0 995 239" fill="none" xmlns="http://www.w3.org/2000/svg">
<path d="M88.9302 4.05114C88.1952 6.80724 86.909 10.1146 85.9903 11.4007C85.0716 12.5032 84.8879 18.3829 85.4391 24.2625C86.7253 35.2869 84.7041 60.4593 79.5594 99.5959C77.3545 116.684 76.0684 122.196 74.0472 122.196C72.0261 122.196 71.6586 123.482 72.5773 127.708C73.3123 131.383 72.2098 137.814 69.0862 147.552C63.3903 164.456 62.6553 165.742 57.8781 166.661C54.9383 167.212 54.387 168.498 54.7545 173.276C55.3057 178.053 53.1009 182.646 43.9139 196.611C37.2992 206.716 31.0521 214.066 29.3984 214.066C24.9886 214.066 22.0488 217.924 22.0488 223.62C22.0488 228.765 21.8651 228.765 11.0244 228.765C2.38862 228.765 0 229.316 0 231.521C0 233.726 2.57236 234.277 12.6781 234.277C26.0911 234.277 27.561 233.359 27.561 223.988C27.561 221.048 28.6634 219.578 30.8683 219.578C36.013 219.578 60.6342 183.014 60.6342 175.664C60.6342 173.643 61.7366 171.806 63.2066 171.255C66.3301 169.968 77.1708 142.591 77.9058 134.139C78.2732 131.015 79.0082 127.341 79.7432 126.238C81.3968 123.298 87.8277 76.6284 89.2976 55.4983C90.0326 45.7601 90.9513 37.8593 91.3188 38.4105C91.6863 38.778 93.1562 50.9048 94.8098 65.4203C97.9334 95.3699 101.241 117.419 105.283 135.241C108.59 149.206 118.329 171.806 121.085 171.806C122.187 171.806 123.106 173.643 123.106 175.848C123.106 183.933 146.992 219.578 152.504 219.578C155.26 219.578 155.995 221.048 156.546 226.377L157.098 233.359L170.511 233.91C180.984 234.277 183.924 233.91 183.373 232.072C182.821 230.603 178.595 229.5 172.164 229.133C162.426 228.581 161.691 228.214 161.691 224.172C161.691 219.394 157.281 214.066 153.239 214.066C150.667 214.066 128.802 182.83 128.434 178.42C128.251 177.318 128.434 174.562 128.618 172.357C128.802 169.417 127.516 167.58 124.576 166.477C118.88 164.272 108.039 134.69 110.428 128.259C111.53 125.32 111.163 123.666 109.325 122.747C106.385 121.094 102.527 97.5748 99.2196 62.4804C98.1172 50.3536 97.0147 37.3081 96.6472 33.2658C96.096 29.4072 96.6472 24.2625 97.7497 22.0576C99.2196 18.7503 98.8521 15.8105 96.4635 9.37958C92.4212 -1.27734 90.5838 -2.5635 88.9302 4.05114ZM93.7074 17.4641C93.7074 21.3227 90.9513 22.4251 89.1139 19.3015C87.8277 17.0967 89.4814 13.7893 92.0537 13.7893C92.9724 13.7893 93.7074 15.443 93.7074 17.4641Z" fill="#141414"/>
<path d="M85.0729 135.422C82.6842 138.546 75.3346 168.495 76.4371 170.333C76.9883 171.068 83.9704 171.803 92.055 171.803C105.835 171.803 106.57 171.619 106.57 167.577C106.57 162.983 100.323 138.362 98.4859 135.238C96.6485 132.482 87.2777 132.666 85.0729 135.422ZM98.1184 150.673C99.7721 157.104 101.058 163.351 101.058 164.453C101.058 165.556 96.8322 166.291 91.1363 166.291H81.2143L82.6842 160.227C83.6029 157.104 85.2566 150.856 86.359 146.447C87.829 140.934 89.2989 138.73 91.6875 138.73C94.2599 138.73 95.7298 141.302 98.1184 150.673Z" fill="#141414"/>
<path d="M76.4363 189.259C67.9842 192.198 60.0834 199.548 56.0411 207.633C52.5501 215.166 52.5501 219.576 56.0411 219.576C57.5111 219.576 59.1647 222.148 59.8997 226.007C60.4509 229.498 61.7371 232.438 62.6558 232.438C65.4119 232.438 64.4932 218.29 61.5533 215.901C60.0834 214.615 58.7972 212.961 58.7972 212.042C58.7972 208.919 70.9241 196.792 76.62 194.587C91.3192 188.34 111.898 194.036 120.35 206.346C124.392 212.226 124.576 213.329 122.188 215.901C119.064 219.392 118.329 232.438 121.269 232.438C122.371 232.438 123.106 230.049 123.106 227.109C123.106 223.802 124.576 220.862 126.965 219.208C130.64 216.82 130.64 216.268 128.251 210.389C126.781 206.898 122.188 200.834 117.962 197.159C106.57 186.87 91.3192 183.93 76.4363 189.259Z" fill="#141414"/>
<path d="M231.393 150.218C227.761 149.984 224.538 148.871 221.726 146.879C219.031 144.887 216.16 142.836 213.113 140.727C211.121 138.735 209.539 136.626 208.368 134.399C207.196 132.056 206.258 129.009 205.555 125.26C205.087 123.033 205.087 120.221 205.555 116.823C206.024 113.425 206.786 110.026 207.84 106.628C208.895 103.113 209.891 100.301 210.828 98.1915C212.234 94.9105 213.992 91.3952 216.101 87.6455C218.328 83.7787 220.495 80.1462 222.605 76.748C224.831 73.2327 226.589 70.4204 227.878 68.3112C228.698 67.491 229.049 67.0808 228.932 67.0808C228.932 66.9637 228.932 66.9051 228.932 66.9051C228.932 66.3192 229.518 64.8545 230.69 62.5109C231.979 60.0502 233.092 57.8824 234.03 56.0076C235.787 54.1327 236.783 52.6094 237.018 51.4376C237.252 50.2658 237.076 49.3284 236.49 48.6254C236.256 48.1566 236.666 47.3364 237.721 46.1646C238.775 44.9929 240.357 43.6453 242.466 42.122C244.576 40.5987 246.978 39.0754 249.673 37.5521C252.485 35.3257 255.18 34.1539 257.758 34.0367C260.453 33.8024 262.035 34.3297 262.504 35.6186C262.504 35.9702 263.148 36.0873 264.437 35.9702C265.843 35.7358 267.425 35.4429 269.183 35.0913C271.058 34.6226 272.698 34.2711 274.104 34.0367C274.69 33.3337 276.038 32.8064 278.147 32.4548C280.373 31.9861 282.951 31.576 285.881 31.2245C287.404 31.3417 288.869 31.4002 290.275 31.4002C291.798 31.2831 293.028 31.1659 293.966 31.0487C295.02 30.9315 295.548 30.8729 295.548 30.8729C296.368 30.6386 297.305 30.7558 298.36 31.2245C299.532 31.6932 300.586 32.9821 301.524 35.0913C302.344 37.2005 302.051 38.7824 300.645 39.837C299.356 40.8916 296.309 41.7119 291.505 42.2978C287.99 42.7665 284.943 43.1766 282.365 43.5281C279.787 43.7625 277.092 44.114 274.28 44.5827C271.468 44.9343 268.011 45.5787 263.91 46.5162C260.98 47.102 258.578 47.8051 256.703 48.6254C254.829 49.3284 253.188 50.4416 251.782 51.9649C250.376 53.3711 248.794 55.4217 247.036 58.1168C246.216 58.7026 245.161 60.2259 243.872 62.6867C242.583 65.1474 241.295 67.6081 240.006 70.0689C236.725 74.6388 233.854 78.6228 231.393 82.021C229.049 85.302 228.112 87.2354 228.581 87.8213C228.581 87.8213 229.225 87.9971 230.514 88.3486C231.803 88.7001 232.682 88.8759 233.151 88.8759C234.322 88.29 235.729 87.8799 237.369 87.6455C239.127 87.4112 240.533 87.1768 241.587 86.9425C248.852 85.0676 254.536 83.6029 258.637 82.5483C262.855 81.4937 266.019 80.732 268.128 80.2633C270.355 79.6774 272.054 79.3259 273.225 79.2087C274.866 77.9198 276.448 77.6854 277.971 78.5057C279.612 79.3259 280.901 80.6149 281.838 82.3725C282.424 83.6615 282.424 84.7747 281.838 85.7121C281.369 86.6495 279.905 87.5869 277.444 88.5244C275.1 89.4618 271.585 90.575 266.898 91.8639C262.211 93.1529 256.059 94.8519 248.442 96.9611C241.998 98.836 236.49 99.9492 231.92 100.301C227.35 100.652 225.183 99.6562 225.417 97.3127C224.597 96.844 223.659 97.4299 222.605 99.0703C221.667 100.594 220.73 102.703 219.792 105.398C218.855 108.093 218.035 110.964 217.332 114.01C216.746 117.057 216.336 119.928 216.101 122.623C215.984 125.201 216.16 127.134 216.629 128.423C217.566 131.118 218.796 133.286 220.32 134.927C221.843 136.45 224.597 137.798 228.581 138.969C230.924 139.087 233.209 139.262 235.436 139.497C237.662 139.731 240.181 139.262 242.994 138.091C249.907 136.919 255.356 135.688 259.34 134.399C263.324 133.11 265.609 132.232 266.195 131.763C267.132 131.294 267.718 131.06 267.952 131.06C268.304 130.943 268.773 130.884 269.359 130.884C269.007 131.47 269.124 131.529 269.71 131.06C270.413 130.474 271.351 129.595 272.522 128.423C273.811 127.252 275.51 126.138 277.62 125.084C279.729 124.029 281.604 123.209 283.244 122.623C285.002 122.037 285.939 122.037 286.056 122.623C286.759 123.795 286.642 125.435 285.705 127.545C284.767 129.537 283.068 131.763 280.608 134.224C278.147 136.567 274.983 138.852 271.116 141.079C264.906 144.36 258.168 146.644 250.903 147.933C243.638 149.34 237.135 150.101 231.393 150.218ZM302.631 139.672C302.162 138.735 301.576 138.032 300.873 137.563C300.17 136.977 299.818 136.45 299.818 135.981C299.818 135.513 299.76 135.044 299.643 134.575C299.643 133.989 299.408 133.462 298.94 132.993C298.354 132.29 298.412 130.708 299.115 128.248C299.818 125.67 300.99 122.564 302.631 118.932C304.271 115.182 306.205 111.257 308.431 107.156C309.368 106.218 310.306 104.988 311.243 103.465C312.181 101.941 312.884 100.945 313.352 100.476C313.352 100.008 313.528 99.5976 313.88 99.2461C314.231 98.7774 314.641 98.543 315.11 98.543V97.4884C315.11 96.9026 315.637 95.9065 316.692 94.5004C317.864 93.0943 319.27 91.571 320.91 89.9305C322.551 88.1728 324.25 86.5323 326.008 85.009C327.765 83.3685 329.23 82.1968 330.402 81.4937C332.862 79.8532 335.382 78.8572 337.96 78.5057C340.655 78.1541 342.94 78.74 344.815 80.2633C345.166 80.6149 345.752 81.2007 346.572 82.021C347.392 82.8412 348.33 83.7787 349.385 84.8333C350.556 85.7707 351.728 86.7667 352.9 87.8213L359.403 93.6216L356.239 102.41C354.716 107.097 354.306 111.198 355.009 114.714C355.829 118.229 357.001 121.276 358.524 123.853C359.11 125.142 360.282 126.373 362.04 127.545C363.915 128.716 365.672 129.419 367.313 129.654C368.25 129.771 369.129 130.122 369.949 130.708C370.769 131.294 371.18 132.232 371.18 133.521C371.18 134.692 370.945 135.63 370.476 136.333C370.008 137.036 369.188 137.505 368.016 137.739C364.149 138.208 360.516 137.27 357.118 134.927C353.837 132.583 350.791 128.716 347.978 123.326C347.51 122.623 346.865 121.334 346.045 119.459C345.342 117.467 344.932 116.178 344.815 115.592C344.346 116.178 343.467 117.291 342.178 118.932C340.889 120.455 339.893 121.568 339.19 122.272C330.87 130.708 323.664 136.391 317.571 139.321C311.595 142.133 306.615 142.25 302.631 139.672ZM308.958 129.829C308.958 130.65 310.189 130.65 312.649 129.829C315.227 128.892 317.981 127.252 320.91 124.908C324.894 121.51 328.878 117.76 332.862 113.659C336.964 109.558 340.245 105.749 342.705 102.234L346.572 95.9065C345.4 93.2115 344.112 91.3952 342.705 90.4578C341.416 89.4032 340.303 88.8759 339.366 88.8759C337.843 88.8759 335.558 90.282 332.511 93.0943C329.581 95.9065 326.418 99.6562 323.02 104.343C319.621 109.03 316.399 114.186 313.352 119.811C312.181 122.154 311.126 124.439 310.189 126.666C309.368 128.775 308.958 129.829 308.958 129.829ZM388.848 146.703C386.622 145.766 384.513 144.535 382.521 143.012C380.529 141.371 379.24 140.024 378.654 138.969C378.654 137.915 378.83 137.212 379.181 136.86C379.533 136.391 380.529 136.216 382.169 136.333C383.927 136.333 386.739 136.567 390.606 137.036C392.012 137.036 393.77 136.919 395.879 136.684C397.988 136.45 399.922 136.098 401.679 135.63C403.554 135.161 404.609 134.575 404.843 133.872C405.429 133.872 405.546 133.696 405.194 133.345C404.843 132.876 404.433 132.407 403.964 131.939C403.495 131.939 402.968 131.763 402.382 131.411C401.796 130.943 401.269 130.708 400.8 130.708C400.8 130.122 400.214 129.478 399.043 128.775C397.988 127.955 396.875 127.31 395.703 126.841C393.125 124.732 390.899 122.857 389.024 121.217C387.149 119.459 386.446 118.287 386.915 117.702C386.915 117.233 386.915 116.999 386.915 116.999C386.915 116.881 386.915 116.823 386.915 116.823C386.095 116.823 385.157 115.651 384.103 113.307C383.165 110.964 382.696 108.855 382.696 106.98C382.696 105.574 383.107 103.816 383.927 101.707C384.747 99.4805 385.86 97.1955 387.266 94.8519C388.672 92.5084 390.137 90.575 391.66 89.0517C393.77 87.0596 396.406 84.9504 399.57 82.7241C402.734 80.3805 405.839 78.3299 408.886 76.5722C412.049 74.6974 414.686 73.467 416.795 72.8811C418.904 72.0609 420.838 71.6508 422.595 71.6508C424.47 71.6508 426.111 72.0609 427.517 72.8811C428.689 73.467 429.743 74.3459 430.681 75.5176C431.735 76.5722 432.614 77.6854 433.317 78.8572C434.137 79.9118 434.665 80.8492 434.899 81.6695C434.899 83.0756 434.782 84.6575 434.548 86.4152C434.313 88.0556 433.962 89.5204 433.493 90.8093C433.141 92.0983 432.555 92.7428 431.735 92.7428C431.735 92.7428 431.559 92.8013 431.208 92.9185C430.974 92.9185 430.856 93.2115 430.856 93.7973C430.856 94.9691 429.978 96.3167 428.22 97.84C425.994 99.3633 424.06 100.301 422.42 100.652C420.779 100.887 419.783 100.242 419.432 98.7188C419.08 98.2501 418.846 97.84 418.729 97.4884C418.611 97.1369 418.318 96.9611 417.85 96.9611C417.85 96.9611 417.674 96.7854 417.322 96.4338C416.971 96.0823 416.795 95.4964 416.795 94.6762C416.795 94.2075 416.971 93.7973 417.322 93.4458C417.674 92.9771 417.85 92.7428 417.85 92.7428C418.436 92.7428 419.197 92.0983 420.135 90.8093C421.072 89.4032 421.892 87.9385 422.595 86.4152C423.416 84.7747 423.826 83.6615 423.826 83.0756C423.826 82.3725 423.709 81.9624 423.474 81.8452C423.357 81.728 422.83 81.6695 421.892 81.6695C420.252 82.3725 418.26 83.3099 415.916 84.4817C413.573 85.6535 411.346 86.8253 409.237 87.9971C407.245 89.0517 405.78 90.0477 404.843 90.9851C404.374 91.8053 404.081 92.3326 403.964 92.567C403.847 92.6842 403.554 92.7428 403.085 92.7428C403.085 92.274 402.675 92.5084 401.855 93.4458C401.152 94.2661 400.214 95.4378 399.043 96.9611C397.988 98.4845 396.933 100.008 395.879 101.531C394.941 102.937 394.238 103.992 393.77 104.695C393.535 104.929 393.242 105.632 392.891 106.804C392.656 107.859 392.539 108.855 392.539 109.792C392.071 111.198 392.129 112.194 392.715 112.78C393.301 113.249 394.59 114.303 396.582 115.944C400.683 118.991 403.906 121.51 406.249 123.502C408.593 125.494 410.35 127.134 411.522 128.423C412.694 129.712 413.397 130.884 413.631 131.939C415.74 135.454 416.385 138.149 415.565 140.024C414.744 141.899 412.752 143.539 409.589 144.945C408.417 145.531 406.483 146 403.788 146.352C401.093 146.703 398.34 146.879 395.527 146.879C392.715 146.996 390.489 146.937 388.848 146.703ZM435.219 188.36C432.641 188.828 430.883 188.887 429.946 188.535C429.009 188.184 427.72 187.598 426.079 186.778C424.79 185.84 423.794 185.137 423.091 184.669C422.388 184.2 422.036 183.731 422.036 183.262C422.036 182.911 422.154 182.501 422.388 182.032C422.622 181.681 423.032 181.329 423.618 180.978C424.321 180.743 425.259 180.626 426.431 180.626C427.251 181.095 428.598 181.329 430.473 181.329C432.465 181.329 433.696 181.095 434.164 180.626C434.164 180.626 434.692 180.274 435.746 179.571C436.918 178.986 438.441 178.517 440.316 178.165C443.949 176.408 447.171 174.181 449.983 171.486C452.796 168.791 455.491 165.276 458.069 160.94C459.123 159.3 460.236 157.366 461.408 155.14C462.58 153.031 463.4 150.921 463.869 148.812C464.806 146.469 465.861 143.305 467.033 139.321C468.322 135.337 469.435 131.411 470.372 127.545C471.31 123.56 471.837 120.572 471.954 118.58C472.657 112.018 473.77 105.984 475.294 100.476C476.934 94.8519 478.34 88.5829 479.512 81.6695C480.215 80.029 480.743 79.0915 481.094 78.8572C481.446 78.5057 482.207 78.3299 483.379 78.3299C484.668 78.3299 485.605 78.4471 486.191 78.6814C486.894 78.7986 487.656 79.5017 488.476 80.7906C489.648 83.017 490.058 85.6535 489.707 88.7001C489.472 91.6296 488.593 94.2075 487.07 96.4338C485.898 98.0743 484.844 100.652 483.906 104.168C483.086 107.566 482.266 111.843 481.446 116.999C480.86 119.576 480.215 122.623 479.512 126.138C478.926 129.537 478.282 133.345 477.579 137.563C477.11 138.735 476.466 140.551 475.645 143.012C474.825 145.356 474.298 147.23 474.063 148.636C473.946 149.105 473.595 150.043 473.009 151.449C472.423 152.855 471.837 154.202 471.251 155.491C470.665 156.898 470.255 157.835 470.021 158.304C465.451 167.795 460.236 175.06 454.378 180.099C448.519 185.137 442.132 187.891 435.219 188.36ZM448.577 137.387C447.288 137.387 445.941 136.684 444.535 135.278C443.246 133.872 442.367 132.759 441.898 131.939C441.429 130.767 440.844 129.654 440.14 128.599C439.437 127.545 438.91 126.256 438.559 124.732C438.324 123.209 438.441 121.334 438.91 119.108C439.379 117.584 440.023 115.417 440.844 112.604C441.781 109.675 442.777 106.511 443.832 103.113C445.003 99.7148 446.175 96.3753 447.347 93.0943C448.636 89.6961 449.808 86.7081 450.862 84.1302C451.917 81.4351 452.854 79.5017 453.674 78.3299C454.378 77.3925 455.139 76.8066 455.959 76.5722C456.897 76.3379 457.834 76.4551 458.772 76.9238C459.709 77.2753 460.529 78.037 461.232 79.2087C462.521 80.8492 463.049 82.2553 462.814 83.4271C462.58 84.5989 461.525 86.8839 459.651 90.282C459.182 91.571 458.596 92.9771 457.893 94.5004C457.19 95.9065 456.838 96.844 456.838 97.3127C456.721 97.547 456.487 98.3673 456.135 99.7734C455.901 101.062 455.608 102.293 455.256 103.465C454.905 104.636 454.553 105.222 454.202 105.222C453.733 105.691 453.206 107.038 452.62 109.265C452.034 111.374 451.507 113.776 451.038 116.471C450.569 119.049 450.276 121.334 450.159 123.326C450.042 125.201 450.218 126.138 450.686 126.138C454.319 126.138 458.069 124.732 461.935 121.92C465.92 119.108 469.904 115.007 473.888 109.616L476.876 122.096C475.235 122.916 473.712 123.795 472.306 124.732C470.9 125.552 469.611 126.549 468.439 127.72C468.087 128.189 467.267 128.833 465.978 129.654C464.689 130.474 463.4 131.236 462.111 131.939C460.939 132.525 460.178 132.818 459.826 132.818C459.826 132.818 459.651 132.876 459.299 132.993C459.065 132.993 458.947 133.228 458.947 133.696C458.947 133.931 458.186 134.399 456.662 135.102C455.139 135.688 453.557 136.216 451.917 136.684C450.276 137.153 449.163 137.387 448.577 137.387Z" fill="#FF6131"/>
<path d="M529.618 137V33.6442H599.058V45.1932H542.337V83.9333H591.895V95.6284H542.337V137H529.618ZM614.208 137V59.9583H626.196L626.78 71.9458C628.73 68.9245 630.971 66.4881 633.505 64.6363C636.137 62.7846 639.012 61.4202 642.13 60.543C645.347 59.5684 648.806 59.0811 652.51 59.0811C653.192 59.0811 653.825 59.0811 654.41 59.0811C655.092 59.0811 655.775 59.0811 656.457 59.0811V70.7763H651.925C645.883 70.7763 640.961 72.092 637.16 74.7234C633.456 77.2573 630.776 80.7171 629.119 85.1028C627.463 89.391 626.634 94.1666 626.634 99.4294V137H614.208ZM700.647 137.877C692.461 137.877 685.687 136.22 680.327 132.907C674.967 129.496 670.971 124.818 668.339 118.873C665.708 112.928 664.392 106.154 664.392 98.5522C664.392 90.8529 665.757 84.0795 668.486 78.2319C671.312 72.2869 675.405 67.6088 680.765 64.1978C686.126 60.7867 692.704 59.0811 700.501 59.0811C706.543 59.0811 711.709 60.2506 715.997 62.5897C720.383 64.8312 723.989 67.8525 726.815 71.6534C729.641 75.4543 731.688 79.6451 732.955 84.2257C734.222 88.7088 734.758 93.2407 734.563 97.8213C734.466 98.6984 734.368 99.5756 734.271 100.453C734.271 101.33 734.222 102.207 734.125 103.084H676.965C677.354 107.567 678.475 111.612 680.327 115.218C682.179 118.824 684.81 121.699 688.221 123.843C691.632 125.89 695.872 126.913 700.94 126.913C703.473 126.913 706.007 126.621 708.541 126.036C711.173 125.354 713.512 124.233 715.558 122.673C717.703 121.114 719.213 119.019 720.09 116.387H732.809C731.639 121.358 729.446 125.451 726.23 128.667C723.014 131.786 719.164 134.125 714.681 135.684C710.198 137.146 705.52 137.877 700.647 137.877ZM677.257 92.2661H721.845C721.747 87.8804 720.773 84.0308 718.921 80.7171C717.069 77.4035 714.535 74.8208 711.319 72.9691C708.2 71.1174 704.448 70.1915 700.062 70.1915C695.287 70.1915 691.242 71.2148 687.929 73.2615C684.713 75.3081 682.227 77.9883 680.473 81.3019C678.719 84.6155 677.647 88.2703 677.257 92.2661ZM751.118 137V59.9583H763.105L763.69 71.6534C765.444 68.8271 767.686 66.4881 770.415 64.6363C773.144 62.7846 776.116 61.4202 779.332 60.543C782.646 59.5684 785.862 59.0811 788.981 59.0811C796.485 59.0811 802.333 60.6405 806.524 63.7592C810.812 66.8779 813.833 71.1174 815.587 76.4776C817.439 81.7405 818.365 87.7342 818.365 94.4589V137H805.939V97.8213C805.939 94.2153 805.695 90.7555 805.208 87.4418C804.818 84.1282 803.941 81.1557 802.576 78.5243C801.309 75.8929 799.458 73.8462 797.021 72.3844C794.585 70.825 791.32 70.0453 787.227 70.0453C782.159 70.0453 777.822 71.4585 774.216 74.2848C770.707 77.1111 768.027 80.9121 766.175 85.6876C764.421 90.4631 763.544 95.8234 763.544 101.768V137H751.118ZM870.382 137.877C862.293 137.877 855.568 136.22 850.208 132.907C844.945 129.496 840.998 124.818 838.367 118.873C835.833 112.928 834.566 106.203 834.566 98.6984C834.566 91.389 835.881 84.7617 838.513 78.8167C841.242 72.7742 845.335 67.9987 850.793 64.4901C856.348 60.8841 863.365 59.0811 871.844 59.0811C877.107 59.0811 881.785 59.9583 885.878 61.7125C890.069 63.4668 893.529 66.0495 896.257 69.4606C898.986 72.7742 900.887 76.9649 901.959 82.0328H889.24C887.779 77.7446 885.439 74.7234 882.223 72.9691C879.105 71.1174 875.401 70.1915 871.113 70.1915C865.265 70.1915 860.587 71.5559 857.079 74.2848C853.57 77.0137 850.988 80.571 849.331 84.9566C847.771 89.2448 846.992 93.8254 846.992 98.6984C846.992 103.766 847.82 108.444 849.477 112.733C851.134 117.021 853.716 120.481 857.225 123.112C860.734 125.646 865.265 126.913 870.821 126.913C874.914 126.913 878.764 126.036 882.37 124.282C886.073 122.527 888.509 119.409 889.679 114.925H902.544C901.569 120.188 899.474 124.525 896.257 127.936C893.139 131.347 889.289 133.881 884.709 135.538C880.225 137.097 875.45 137.877 870.382 137.877ZM918.293 137V33.6442H930.719V71.7996C932.571 69.0707 934.813 66.7804 937.444 64.9287C940.173 62.9795 943.145 61.5176 946.362 60.543C949.578 59.5684 952.891 59.0811 956.302 59.0811C963.807 59.0811 969.654 60.6405 973.845 63.7592C978.133 66.8779 981.155 71.1174 982.909 76.4776C984.663 81.7405 985.54 87.783 985.54 94.6051V137H973.114V98.406C973.114 94.995 972.871 91.6326 972.383 88.319C971.993 84.9079 971.165 81.8379 969.898 79.1091C968.631 76.3802 966.682 74.1874 964.05 72.5305C961.517 70.8737 958.057 70.0453 953.671 70.0453C949.48 70.0453 945.874 70.9712 942.853 72.8229C939.929 74.6747 937.59 77.1599 935.836 80.2786C934.082 83.2998 932.766 86.6622 931.889 90.3656C931.109 93.9716 930.719 97.5289 930.719 101.037V137H918.293Z" fill="#2B59C9"/>
<path d="M220.006 223.173C217.707 223.173 215.782 222.702 214.232 221.761C212.681 220.791 211.517 219.462 210.742 217.773C209.994 216.083 209.62 214.159 209.62 211.998C209.62 209.811 209.994 207.886 210.742 206.224C211.517 204.535 212.681 203.205 214.232 202.236C215.782 201.267 217.735 200.782 220.089 200.782C222.387 200.782 224.298 201.267 225.822 202.236C227.372 203.205 228.522 204.535 229.27 206.224C230.045 207.886 230.433 209.811 230.433 211.998C230.433 214.159 230.045 216.083 229.27 217.773C228.494 219.462 227.331 220.791 225.78 221.761C224.257 222.702 222.332 223.173 220.006 223.173ZM220.006 220.057C221.612 220.057 222.914 219.697 223.911 218.977C224.935 218.257 225.683 217.288 226.154 216.069C226.652 214.851 226.902 213.494 226.902 211.998C226.902 210.503 226.652 209.146 226.154 207.927C225.683 206.709 224.935 205.74 223.911 205.019C222.914 204.299 221.612 203.939 220.006 203.939C218.427 203.939 217.126 204.299 216.101 205.019C215.104 205.74 214.356 206.709 213.858 207.927C213.387 209.146 213.151 210.503 213.151 211.998C213.151 213.494 213.387 214.851 213.858 216.069C214.356 217.288 215.104 218.257 216.101 218.977C217.126 219.697 218.427 220.057 220.006 220.057ZM235.157 222.924V201.031H238.688V210.628H249.655V201.031H253.186V222.924H249.655V213.743H238.688V222.924H235.157ZM256.774 222.965V219.891C257.327 219.891 257.826 219.781 258.269 219.559C258.712 219.31 259.1 218.95 259.432 218.479C259.82 217.925 260.125 217.122 260.346 216.069C260.568 215.017 260.72 213.895 260.803 212.705C260.914 211.375 260.997 210.074 261.052 208.8C261.108 207.498 261.149 206.21 261.177 204.936C261.232 203.662 261.26 202.361 261.26 201.031H276.464V222.924H272.933V204.147H264.708C264.68 205.089 264.639 206.044 264.583 207.013C264.556 207.955 264.514 208.911 264.459 209.88C264.431 210.821 264.389 211.777 264.334 212.746C264.306 213.854 264.196 215.1 264.002 216.485C263.808 217.87 263.393 219.13 262.756 220.265C262.146 221.345 261.399 222.065 260.512 222.425C259.654 222.785 258.408 222.965 256.774 222.965ZM289.033 223.173C288.036 223.173 287.067 223.048 286.126 222.799C285.212 222.522 284.381 222.121 283.633 221.595C282.913 221.041 282.331 220.362 281.888 219.559C281.473 218.728 281.265 217.773 281.265 216.693C281.265 215.446 281.487 214.394 281.93 213.535C282.401 212.677 283.024 211.998 283.799 211.5C284.575 211.001 285.475 210.641 286.499 210.42C287.524 210.198 288.59 210.088 289.698 210.088H296.137C296.137 208.841 295.957 207.761 295.597 206.847C295.265 205.933 294.711 205.227 293.935 204.729C293.16 204.202 292.135 203.939 290.861 203.939C290.086 203.939 289.366 204.022 288.701 204.189C288.036 204.355 287.469 204.618 286.998 204.978C286.527 205.338 286.181 205.823 285.959 206.432H282.179C282.373 205.435 282.747 204.59 283.301 203.898C283.882 203.178 284.575 202.596 285.378 202.153C286.209 201.682 287.095 201.336 288.036 201.115C288.978 200.893 289.92 200.782 290.861 200.782C292.966 200.782 294.655 201.211 295.929 202.07C297.203 202.901 298.131 204.092 298.713 205.643C299.294 207.166 299.585 208.98 299.585 211.085V222.924H296.636L296.428 220.141C295.819 220.971 295.085 221.608 294.226 222.051C293.368 222.495 292.481 222.785 291.567 222.924C290.681 223.09 289.837 223.173 289.033 223.173ZM289.366 220.057C290.75 220.057 291.941 219.836 292.938 219.393C293.963 218.922 294.752 218.243 295.306 217.357C295.86 216.471 296.137 215.391 296.137 214.117V213.037H292.274C291.36 213.037 290.46 213.051 289.573 213.078C288.687 213.106 287.884 213.217 287.164 213.411C286.444 213.605 285.862 213.937 285.419 214.408C285.004 214.879 284.796 215.557 284.796 216.443C284.796 217.274 285.004 217.953 285.419 218.479C285.862 219.005 286.43 219.407 287.123 219.684C287.843 219.933 288.59 220.057 289.366 220.057ZM305.055 222.924V201.031H308.586V217.814C308.78 217.427 309.043 217.011 309.376 216.568C309.708 216.097 309.971 215.737 310.165 215.488L320.758 201.031H324.248V222.924H320.717V206.141C320.495 206.556 320.246 206.944 319.969 207.304C319.72 207.664 319.484 207.997 319.263 208.301L308.503 222.924H305.055ZM314.942 197.957C312.754 197.957 311.037 197.487 309.791 196.545C308.573 195.603 307.936 194.233 307.88 192.432H311.121C311.176 193.402 311.536 194.108 312.201 194.551C312.893 194.994 313.821 195.216 314.984 195.216C316.147 195.216 317.061 194.994 317.726 194.551C318.418 194.108 318.792 193.402 318.847 192.432H322.087C322.06 193.623 321.755 194.634 321.174 195.465C320.592 196.296 319.775 196.919 318.723 197.334C317.67 197.75 316.41 197.957 314.942 197.957ZM329.802 222.924V201.031H333.333V210.628H344.3V201.031H347.831V222.924H344.3V213.743H333.333V222.924H329.802ZM353.703 212.829V209.589H366.581V212.829H353.703ZM372.439 222.924V201.031H375.97V219.85H384.195V201.031H387.726V219.85H396.034V201.031H399.565V222.924H372.439ZM405.136 222.924V201.031H408.667V210.461H412.489L418.97 201.031H422.999L415.688 211.458L423.622 222.924H419.468L412.905 213.535H408.667V222.924H405.136ZM435.827 223.173C433.528 223.173 431.603 222.702 430.052 221.761C428.502 220.791 427.338 219.462 426.563 217.773C425.815 216.083 425.441 214.159 425.441 211.998C425.441 209.811 425.815 207.886 426.563 206.224C427.338 204.535 428.502 203.205 430.052 202.236C431.603 201.267 433.556 200.782 435.91 200.782C438.208 200.782 440.119 201.267 441.643 202.236C443.193 203.205 444.343 204.535 445.09 206.224C445.866 207.886 446.254 209.811 446.254 211.998C446.254 214.159 445.866 216.083 445.09 217.773C444.315 219.462 443.152 220.791 441.601 221.761C440.078 222.702 438.153 223.173 435.827 223.173ZM435.827 220.057C437.433 220.057 438.735 219.697 439.732 218.977C440.756 218.257 441.504 217.288 441.975 216.069C442.473 214.851 442.723 213.494 442.723 211.998C442.723 210.503 442.473 209.146 441.975 207.927C441.504 206.709 440.756 205.74 439.732 205.019C438.735 204.299 437.433 203.939 435.827 203.939C434.248 203.939 432.947 204.299 431.922 205.019C430.925 205.74 430.177 206.709 429.679 207.927C429.208 209.146 428.972 210.503 428.972 211.998C428.972 213.494 429.208 214.851 429.679 216.069C430.177 217.288 430.925 218.257 431.922 218.977C432.947 219.697 434.248 220.057 435.827 220.057ZM448.781 222.965V219.891C449.335 219.891 449.834 219.781 450.277 219.559C450.72 219.31 451.107 218.95 451.44 218.479C451.828 217.925 452.132 217.122 452.354 216.069C452.575 215.017 452.728 213.895 452.811 212.705C452.921 211.375 453.005 210.074 453.06 208.8C453.115 207.498 453.157 206.21 453.185 204.936C453.24 203.662 453.268 202.361 453.268 201.031H468.472V222.924H464.941V204.147H456.716C456.688 205.089 456.646 206.044 456.591 207.013C456.563 207.955 456.522 208.911 456.466 209.88C456.439 210.821 456.397 211.777 456.342 212.746C456.314 213.854 456.203 215.1 456.009 216.485C455.816 217.87 455.4 219.13 454.763 220.265C454.154 221.345 453.406 222.065 452.52 222.425C451.661 222.785 450.415 222.965 448.781 222.965ZM481.041 223.173C480.044 223.173 479.075 223.048 478.133 222.799C477.219 222.522 476.388 222.121 475.641 221.595C474.921 221.041 474.339 220.362 473.896 219.559C473.48 218.728 473.273 217.773 473.273 216.693C473.273 215.446 473.494 214.394 473.937 213.535C474.408 212.677 475.031 211.998 475.807 211.5C476.582 211.001 477.482 210.641 478.507 210.42C479.532 210.198 480.598 210.088 481.706 210.088H488.145C488.145 208.841 487.965 207.761 487.605 206.847C487.272 205.933 486.718 205.227 485.943 204.729C485.167 204.202 484.143 203.939 482.869 203.939C482.093 203.939 481.373 204.022 480.709 204.189C480.044 204.355 479.476 204.618 479.005 204.978C478.535 205.338 478.189 205.823 477.967 206.432H474.187C474.381 205.435 474.754 204.59 475.308 203.898C475.89 203.178 476.582 202.596 477.385 202.153C478.216 201.682 479.102 201.336 480.044 201.115C480.986 200.893 481.927 200.782 482.869 200.782C484.974 200.782 486.663 201.211 487.937 202.07C489.211 202.901 490.139 204.092 490.72 205.643C491.302 207.166 491.593 208.98 491.593 211.085V222.924H488.643L488.435 220.141C487.826 220.971 487.092 221.608 486.234 222.051C485.375 222.495 484.489 222.785 483.575 222.924C482.689 223.09 481.844 223.173 481.041 223.173ZM481.373 220.057C482.758 220.057 483.949 219.836 484.946 219.393C485.971 218.922 486.76 218.243 487.314 217.357C487.868 216.471 488.145 215.391 488.145 214.117V213.037H484.281C483.367 213.037 482.467 213.051 481.581 213.078C480.695 213.106 479.892 213.217 479.172 213.411C478.452 213.605 477.87 213.937 477.427 214.408C477.012 214.879 476.804 215.557 476.804 216.443C476.804 217.274 477.012 217.953 477.427 218.479C477.87 219.005 478.438 219.407 479.13 219.684C479.85 219.933 480.598 220.057 481.373 220.057ZM518.687 230.401V223.173C516.997 223.118 515.446 222.868 514.034 222.425C512.649 221.955 511.445 221.276 510.42 220.39C509.423 219.476 508.648 218.34 508.094 216.983C507.54 215.626 507.263 214.02 507.263 212.165C507.263 209.672 507.72 207.595 508.634 205.933C509.548 204.272 510.849 203.012 512.539 202.153C514.256 201.295 516.305 200.851 518.687 200.824V194.094H522.218V200.824C524.599 200.851 526.649 201.308 528.366 202.195C530.083 203.053 531.398 204.313 532.312 205.975C533.226 207.637 533.683 209.7 533.683 212.165C533.683 214.629 533.199 216.665 532.229 218.271C531.26 219.877 529.917 221.082 528.2 221.885C526.483 222.661 524.489 223.09 522.218 223.173V230.401H518.687ZM518.687 220.224V203.856C516.083 203.856 514.117 204.549 512.788 205.933C511.458 207.318 510.794 209.354 510.794 212.04C510.794 213.812 511.085 215.308 511.666 216.526C512.248 217.745 513.12 218.659 514.283 219.268C515.446 219.877 516.914 220.196 518.687 220.224ZM522.218 220.224C524.018 220.196 525.499 219.877 526.663 219.268C527.826 218.659 528.698 217.745 529.28 216.526C529.861 215.308 530.152 213.812 530.152 212.04C530.152 209.354 529.474 207.318 528.117 205.933C526.787 204.549 524.821 203.856 522.218 203.856V220.224ZM538.239 230.817V201.031H541.604L541.77 204.396C542.518 203.205 543.529 202.305 544.803 201.696C546.105 201.087 547.503 200.782 548.999 200.782C551.214 200.782 553.028 201.281 554.441 202.278C555.853 203.247 556.892 204.576 557.556 206.266C558.249 207.955 558.595 209.866 558.595 211.998C558.595 214.131 558.249 216.042 557.556 217.731C556.864 219.42 555.798 220.75 554.358 221.719C552.917 222.688 551.076 223.173 548.833 223.173C547.725 223.173 546.728 223.062 545.842 222.841C544.955 222.591 544.18 222.245 543.515 221.802C542.851 221.359 542.269 220.861 541.77 220.307V230.817H538.239ZM548.542 220.057C550.148 220.057 551.422 219.697 552.364 218.977C553.305 218.23 553.984 217.246 554.399 216.028C554.842 214.809 555.064 213.466 555.064 211.998C555.064 210.503 554.842 209.146 554.399 207.927C553.984 206.709 553.291 205.74 552.322 205.019C551.353 204.299 550.065 203.939 548.459 203.939C547.019 203.939 545.786 204.313 544.761 205.061C543.764 205.781 543.003 206.764 542.477 208.01C541.95 209.229 541.687 210.572 541.687 212.04C541.687 213.563 541.937 214.934 542.435 216.153C542.934 217.371 543.695 218.327 544.72 219.019C545.745 219.711 547.019 220.057 548.542 220.057ZM570.169 223.173C569.172 223.173 568.202 223.048 567.261 222.799C566.347 222.522 565.516 222.121 564.768 221.595C564.048 221.041 563.467 220.362 563.023 219.559C562.608 218.728 562.4 217.773 562.4 216.693C562.4 215.446 562.622 214.394 563.065 213.535C563.536 212.677 564.159 211.998 564.934 211.5C565.71 211.001 566.61 210.641 567.635 210.42C568.659 210.198 569.725 210.088 570.833 210.088H577.272C577.272 208.841 577.092 207.761 576.732 206.847C576.4 205.933 575.846 205.227 575.07 204.729C574.295 204.202 573.27 203.939 571.996 203.939C571.221 203.939 570.501 204.022 569.836 204.189C569.172 204.355 568.604 204.618 568.133 204.978C567.662 205.338 567.316 205.823 567.095 206.432H563.314C563.508 205.435 563.882 204.59 564.436 203.898C565.017 203.178 565.71 202.596 566.513 202.153C567.344 201.682 568.23 201.336 569.172 201.115C570.113 200.893 571.055 200.782 571.996 200.782C574.101 200.782 575.791 201.211 577.064 202.07C578.338 202.901 579.266 204.092 579.848 205.643C580.429 207.166 580.72 208.98 580.72 211.085V222.924H577.771L577.563 220.141C576.954 220.971 576.22 221.608 575.361 222.051C574.503 222.495 573.617 222.785 572.703 222.924C571.816 223.09 570.972 223.173 570.169 223.173ZM570.501 220.057C571.886 220.057 573.076 219.836 574.073 219.393C575.098 218.922 575.887 218.243 576.441 217.357C576.995 216.471 577.272 215.391 577.272 214.117V213.037H573.409C572.495 213.037 571.595 213.051 570.709 213.078C569.822 213.106 569.019 213.217 568.299 213.411C567.579 213.605 566.998 213.937 566.554 214.408C566.139 214.879 565.931 215.557 565.931 216.443C565.931 217.274 566.139 217.953 566.554 218.479C566.998 219.005 567.565 219.407 568.258 219.684C568.978 219.933 569.725 220.057 570.501 220.057ZM586.191 222.924V201.031H589.722V210.628H600.689V201.031H604.22V222.924H600.689V213.743H589.722V222.924H586.191ZM626.916 229.654V222.924H609.801V201.031H613.332V219.85H623.925V201.031H627.498V219.85H630.364V229.654H626.916ZM634.767 232.312V228.947C636.124 228.947 637.204 228.753 638.007 228.366C638.81 228.006 639.475 227.424 640.001 226.621C640.555 225.846 641.081 224.849 641.58 223.63L631.984 201.031H636.138L643.532 219.476L649.597 201.031H653.585L647.437 218.271C647.132 219.157 646.786 220.154 646.399 221.262C646.011 222.37 645.582 223.492 645.111 224.627C644.64 225.79 644.114 226.856 643.532 227.826C642.978 228.823 642.355 229.626 641.663 230.235C641.081 230.761 640.513 231.177 639.96 231.481C639.406 231.786 638.727 231.994 637.924 232.104C637.149 232.243 636.096 232.312 634.767 232.312ZM664.794 223.173C663.742 223.173 662.689 223.076 661.637 222.882C660.585 222.688 659.602 222.37 658.688 221.927C657.801 221.456 657.081 220.833 656.527 220.057C655.974 219.254 655.669 218.257 655.614 217.066H659.062C659.2 217.814 659.602 218.41 660.266 218.853C660.931 219.296 661.679 219.614 662.509 219.808C663.368 219.974 664.13 220.057 664.794 220.057C665.57 220.057 666.359 219.974 667.162 219.808C667.993 219.642 668.685 219.31 669.239 218.811C669.821 218.313 670.112 217.579 670.112 216.61C670.112 215.668 669.876 214.976 669.405 214.532C668.962 214.089 668.367 213.799 667.619 213.66C666.899 213.522 666.11 213.452 665.251 213.452H661.346V210.337H664.545C665.071 210.337 665.611 210.295 666.165 210.212C666.719 210.101 667.231 209.935 667.702 209.714C668.173 209.464 668.547 209.118 668.824 208.675C669.128 208.232 669.281 207.664 669.281 206.972C669.281 206.196 669.059 205.587 668.616 205.144C668.173 204.701 667.605 204.396 666.913 204.23C666.22 204.036 665.514 203.939 664.794 203.939C664.13 203.939 663.423 204.009 662.676 204.147C661.956 204.286 661.332 204.562 660.806 204.978C660.28 205.366 659.962 205.947 659.851 206.723H656.361C656.417 205.227 656.874 204.05 657.732 203.192C658.591 202.333 659.657 201.724 660.931 201.364C662.205 200.976 663.479 200.782 664.753 200.782C665.722 200.782 666.677 200.879 667.619 201.073C668.561 201.267 669.419 201.599 670.195 202.07C670.97 202.513 671.579 203.109 672.022 203.856C672.493 204.604 672.729 205.532 672.729 206.64C672.729 207.637 672.493 208.523 672.022 209.298C671.552 210.074 670.832 210.697 669.862 211.168C671.275 211.611 672.258 212.303 672.812 213.245C673.366 214.186 673.643 215.308 673.643 216.61C673.643 217.773 673.393 218.77 672.895 219.601C672.396 220.404 671.718 221.082 670.859 221.636C670.028 222.162 669.087 222.55 668.034 222.799C666.982 223.048 665.902 223.173 664.794 223.173ZM687.951 223.173C685.652 223.173 683.741 222.702 682.218 221.761C680.723 220.791 679.601 219.462 678.853 217.773C678.133 216.083 677.773 214.172 677.773 212.04C677.773 209.963 678.147 208.08 678.895 206.39C679.67 204.673 680.834 203.316 682.384 202.319C683.963 201.295 685.957 200.782 688.366 200.782C689.862 200.782 691.191 201.031 692.354 201.53C693.545 202.028 694.528 202.762 695.304 203.732C696.079 204.673 696.619 205.864 696.924 207.304H693.31C692.894 206.086 692.23 205.227 691.316 204.729C690.43 204.202 689.377 203.939 688.159 203.939C686.497 203.939 685.168 204.327 684.171 205.103C683.174 205.878 682.44 206.889 681.969 208.135C681.526 209.354 681.304 210.655 681.304 212.04C681.304 213.48 681.54 214.809 682.011 216.028C682.481 217.246 683.215 218.23 684.212 218.977C685.209 219.697 686.497 220.057 688.076 220.057C689.239 220.057 690.333 219.808 691.357 219.31C692.41 218.811 693.102 217.925 693.434 216.651H697.09C696.813 218.147 696.218 219.379 695.304 220.348C694.418 221.318 693.324 222.038 692.022 222.508C690.748 222.952 689.391 223.173 687.951 223.173ZM701.566 222.924V201.031H705.097V210.461H708.918L715.399 201.031H719.428L712.117 211.458L720.052 222.924H715.897L709.334 213.535H705.097V222.924H701.566ZM732.256 223.173C729.957 223.173 728.033 222.702 726.482 221.761C724.931 220.791 723.768 219.462 722.992 217.773C722.244 216.083 721.871 214.159 721.871 211.998C721.871 209.811 722.244 207.886 722.992 206.224C723.768 204.535 724.931 203.205 726.482 202.236C728.033 201.267 729.985 200.782 732.339 200.782C734.638 200.782 736.549 201.267 738.072 202.236C739.623 203.205 740.772 204.535 741.52 206.224C742.295 207.886 742.683 209.811 742.683 211.998C742.683 214.159 742.295 216.083 741.52 217.773C740.744 219.462 739.581 220.791 738.03 221.761C736.507 222.702 734.582 223.173 732.256 223.173ZM732.256 220.057C733.862 220.057 735.164 219.697 736.161 218.977C737.186 218.257 737.933 217.288 738.404 216.069C738.903 214.851 739.152 213.494 739.152 211.998C739.152 210.503 738.903 209.146 738.404 207.927C737.933 206.709 737.186 205.74 736.161 205.019C735.164 204.299 733.862 203.939 732.256 203.939C730.677 203.939 729.376 204.299 728.351 205.019C727.354 205.74 726.606 206.709 726.108 207.927C725.637 209.146 725.402 210.503 725.402 211.998C725.402 213.494 725.637 214.851 726.108 216.069C726.606 217.288 727.354 218.257 728.351 218.977C729.376 219.697 730.677 220.057 732.256 220.057ZM747.407 222.924V201.031H762.528V204.147H750.938V222.924H747.407ZM775.42 223.173C773.122 223.173 771.197 222.702 769.646 221.761C768.095 220.791 766.932 219.462 766.156 217.773C765.409 216.083 765.035 214.159 765.035 211.998C765.035 209.811 765.409 207.886 766.156 206.224C766.932 204.535 768.095 203.205 769.646 202.236C771.197 201.267 773.149 200.782 775.503 200.782C777.802 200.782 779.713 201.267 781.236 202.236C782.787 203.205 783.936 204.535 784.684 206.224C785.459 207.886 785.847 209.811 785.847 211.998C785.847 214.159 785.459 216.083 784.684 217.773C783.908 219.462 782.745 220.791 781.194 221.761C779.671 222.702 777.746 223.173 775.42 223.173ZM775.42 220.057C777.026 220.057 778.328 219.697 779.325 218.977C780.35 218.257 781.097 217.288 781.568 216.069C782.067 214.851 782.316 213.494 782.316 211.998C782.316 210.503 782.067 209.146 781.568 207.927C781.097 206.709 780.35 205.74 779.325 205.019C778.328 204.299 777.026 203.939 775.42 203.939C773.842 203.939 772.54 204.299 771.515 205.019C770.518 205.74 769.771 206.709 769.272 207.927C768.801 209.146 768.566 210.503 768.566 211.998C768.566 213.494 768.801 214.851 769.272 216.069C769.771 217.288 770.518 218.257 771.515 218.977C772.54 219.697 773.842 220.057 775.42 220.057ZM800.397 222.924L806.088 214.283C804.51 213.84 803.264 213.12 802.35 212.123C801.436 211.098 800.979 209.741 800.979 208.052C800.979 206.723 801.173 205.615 801.56 204.729C801.948 203.815 802.516 203.095 803.264 202.569C804.011 202.015 804.911 201.627 805.964 201.405C807.016 201.156 808.221 201.031 809.578 201.031H818.385V222.924H814.854V214.823H809.827L804.51 222.924H800.397ZM812.237 211.749H814.854V204.147H810.16C809.329 204.147 808.567 204.189 807.875 204.272C807.182 204.355 806.587 204.535 806.088 204.812C805.618 205.061 805.244 205.435 804.967 205.933C804.69 206.404 804.551 207.055 804.551 207.886C804.551 208.8 804.773 209.52 805.216 210.046C805.687 210.572 806.282 210.96 807.002 211.209C807.75 211.431 808.581 211.583 809.495 211.666C810.409 211.721 811.323 211.749 812.237 211.749ZM831.893 223.173C830.841 223.173 829.788 223.076 828.736 222.882C827.684 222.688 826.7 222.37 825.787 221.927C824.9 221.456 824.18 220.833 823.626 220.057C823.073 219.254 822.768 218.257 822.713 217.066H826.16C826.299 217.814 826.7 218.41 827.365 218.853C828.03 219.296 828.778 219.614 829.608 219.808C830.467 219.974 831.229 220.057 831.893 220.057C832.669 220.057 833.458 219.974 834.261 219.808C835.092 219.642 835.784 219.31 836.338 218.811C836.92 218.313 837.21 217.579 837.21 216.61C837.21 215.668 836.975 214.976 836.504 214.532C836.061 214.089 835.466 213.799 834.718 213.66C833.998 213.522 833.209 213.452 832.35 213.452H828.445V210.337H831.644C832.17 210.337 832.71 210.295 833.264 210.212C833.818 210.101 834.33 209.935 834.801 209.714C835.272 209.464 835.646 209.118 835.923 208.675C836.227 208.232 836.38 207.664 836.38 206.972C836.38 206.196 836.158 205.587 835.715 205.144C835.272 204.701 834.704 204.396 834.012 204.23C833.319 204.036 832.613 203.939 831.893 203.939C831.229 203.939 830.522 204.009 829.775 204.147C829.055 204.286 828.431 204.562 827.905 204.978C827.379 205.366 827.061 205.947 826.95 206.723H823.46C823.516 205.227 823.973 204.05 824.831 203.192C825.69 202.333 826.756 201.724 828.03 201.364C829.304 200.976 830.578 200.782 831.852 200.782C832.821 200.782 833.776 200.879 834.718 201.073C835.66 201.267 836.518 201.599 837.294 202.07C838.069 202.513 838.678 203.109 839.121 203.856C839.592 204.604 839.828 205.532 839.828 206.64C839.828 207.637 839.592 208.523 839.121 209.298C838.651 210.074 837.931 210.697 836.961 211.168C838.374 211.611 839.357 212.303 839.911 213.245C840.465 214.186 840.742 215.308 840.742 216.61C840.742 217.773 840.492 218.77 839.994 219.601C839.495 220.404 838.817 221.082 837.958 221.636C837.127 222.162 836.186 222.55 835.133 222.799C834.081 223.048 833.001 223.173 831.893 223.173ZM845.297 222.924V201.031H848.912V209.381H852.858C854.16 209.381 855.337 209.492 856.389 209.714C857.441 209.935 858.341 210.295 859.089 210.794C859.837 211.292 860.405 211.971 860.792 212.829C861.18 213.66 861.374 214.712 861.374 215.986C861.374 217.205 861.166 218.257 860.751 219.144C860.335 220.03 859.74 220.75 858.965 221.304C858.217 221.858 857.317 222.273 856.264 222.55C855.24 222.799 854.118 222.924 852.9 222.924H845.297ZM848.912 219.85H850.075C851.044 219.85 851.986 219.836 852.9 219.808C853.813 219.753 854.63 219.614 855.35 219.393C856.098 219.171 856.694 218.811 857.137 218.313C857.58 217.787 857.801 217.053 857.801 216.111C857.801 215.225 857.621 214.546 857.261 214.075C856.929 213.577 856.486 213.217 855.932 212.995C855.378 212.746 854.769 212.594 854.104 212.538C853.467 212.483 852.83 212.455 852.193 212.455H848.912V219.85ZM864.407 222.924V201.031H867.938V222.924H864.407ZM873.492 222.924V201.031H877.023V210.461H880.845L887.325 201.031H891.355L884.044 211.458L891.978 222.924H887.824L881.26 213.535H877.023V222.924H873.492ZM901.648 223.173C900.651 223.173 899.682 223.048 898.741 222.799C897.827 222.522 896.996 222.121 896.248 221.595C895.528 221.041 894.946 220.362 894.503 219.559C894.088 218.728 893.88 217.773 893.88 216.693C893.88 215.446 894.102 214.394 894.545 213.535C895.016 212.677 895.639 211.998 896.414 211.5C897.19 211.001 898.09 210.641 899.114 210.42C900.139 210.198 901.205 210.088 902.313 210.088H908.752C908.752 208.841 908.572 207.761 908.212 206.847C907.88 205.933 907.326 205.227 906.55 204.729C905.775 204.202 904.75 203.939 903.476 203.939C902.701 203.939 901.981 204.022 901.316 204.189C900.651 204.355 900.084 204.618 899.613 204.978C899.142 205.338 898.796 205.823 898.574 206.432H894.794C894.988 205.435 895.362 204.59 895.916 203.898C896.497 203.178 897.19 202.596 897.993 202.153C898.824 201.682 899.71 201.336 900.651 201.115C901.593 200.893 902.535 200.782 903.476 200.782C905.581 200.782 907.27 201.211 908.544 202.07C909.818 202.901 910.746 204.092 911.328 205.643C911.909 207.166 912.2 208.98 912.2 211.085V222.924H909.251L909.043 220.141C908.434 220.971 907.7 221.608 906.841 222.051C905.983 222.495 905.096 222.785 904.182 222.924C903.296 223.09 902.452 223.173 901.648 223.173ZM901.981 220.057C903.366 220.057 904.556 219.836 905.553 219.393C906.578 218.922 907.367 218.243 907.921 217.357C908.475 216.471 908.752 215.391 908.752 214.117V213.037H904.889C903.975 213.037 903.075 213.051 902.188 213.078C901.302 213.106 900.499 213.217 899.779 213.411C899.059 213.605 898.477 213.937 898.034 214.408C897.619 214.879 897.411 215.557 897.411 216.443C897.411 217.274 897.619 217.953 898.034 218.479C898.477 219.005 899.045 219.407 899.738 219.684C900.458 219.933 901.205 220.057 901.981 220.057Z" fill="black" fill-opacity="0.5"/>
</svg>
