<svg width="625" height="625" viewBox="0 0 625 625" fill="none" xmlns="http://www.w3.org/2000/svg">
<path d="M312.5 620.377C142.464 620.377 4.6228 482.536 4.6228 312.5C4.6228 142.464 142.464 4.62278 312.5 4.62278C482.536 4.62278 620.377 142.464 620.377 312.5C620.377 482.536 482.536 620.377 312.5 620.377Z" fill="#F4F4F4" stroke="#2B59C9" stroke-width="9.24556"/>
<path d="M312.5 558.151C176.831 558.151 66.8491 448.169 66.8491 312.5C66.8491 176.831 176.831 66.8491 312.5 66.8491C448.169 66.8491 558.151 176.831 558.151 312.5C558.151 448.169 448.169 558.151 312.5 558.151Z" fill="white" stroke="#2B59C9" stroke-width="3.69822"/>
<path d="M311.114 92.8258C310.376 95.5933 309.085 98.9144 308.162 100.206C307.24 101.313 307.055 107.217 307.609 113.121C308.9 124.191 306.871 149.468 301.705 188.767C299.491 205.925 298.199 211.46 296.17 211.46C294.14 211.46 293.771 212.752 294.694 216.995C295.432 220.685 294.325 227.143 291.188 236.921C285.469 253.896 284.731 255.187 279.934 256.11C276.982 256.663 276.428 257.955 276.797 262.752C277.351 267.549 275.137 272.161 265.912 286.183C259.269 296.331 252.996 303.711 251.336 303.711C246.908 303.711 243.956 307.585 243.956 313.305C243.956 318.471 243.771 318.471 232.886 318.471C224.214 318.471 67.5 320.279 67.5 322.493C67.5 324.707 224.399 324.006 234.546 324.006C248.015 324.006 249.491 323.084 249.491 313.674C249.491 310.722 250.598 309.246 252.812 309.246C257.978 309.246 282.701 272.53 282.701 265.15C282.701 263.121 283.808 261.276 285.284 260.722C288.421 259.431 299.306 231.94 300.044 223.453C300.413 220.316 301.151 216.626 301.889 215.519C303.55 212.567 310.007 165.704 311.483 144.486C312.221 134.708 313.144 126.774 313.513 127.328C313.882 127.697 315.358 139.874 317.018 154.449C320.155 184.523 323.476 206.663 327.535 224.56C330.856 238.582 340.635 261.276 343.402 261.276C344.509 261.276 345.432 263.121 345.432 265.335C345.432 273.453 369.417 309.246 374.952 309.246C377.719 309.246 378.457 310.722 379.011 316.073L379.564 323.084L393.033 323.637C403.549 324.006 558.054 324.341 557.5 322.496C556.946 321.02 401.151 319.209 394.693 318.84C384.915 318.287 384.177 317.918 384.177 313.859C384.177 309.061 379.749 303.711 375.69 303.711C373.107 303.711 351.151 272.346 350.782 267.918C350.598 266.811 350.782 264.043 350.967 261.829C351.151 258.877 349.86 257.032 346.908 255.925C341.188 253.711 330.303 224.006 332.701 217.549C333.808 214.597 333.439 212.936 331.594 212.014C328.642 210.353 324.767 186.737 321.446 151.497C320.339 139.32 319.232 126.221 318.863 122.162C318.31 118.287 318.863 113.121 319.97 110.907C321.446 107.586 321.077 104.634 318.679 98.1763C314.62 87.4753 312.775 86.1838 311.114 92.8258ZM315.911 106.294C315.911 110.169 313.144 111.276 311.299 108.139C310.007 105.925 311.668 102.604 314.251 102.604C315.173 102.604 315.911 104.265 315.911 106.294Z" fill="#2B59C9"/>
<path d="M307.236 224.748C304.838 227.885 297.457 257.958 298.565 259.803C299.118 260.541 306.129 261.279 314.247 261.279C328.085 261.279 328.823 261.095 328.823 257.036C328.823 252.423 322.55 227.7 320.705 224.564C318.86 221.796 309.45 221.981 307.236 224.748ZM320.336 240.062C321.996 246.519 323.288 252.792 323.288 253.899C323.288 255.006 319.044 255.744 313.325 255.744H303.362L304.838 249.656C305.76 246.519 307.421 240.246 308.528 235.818C310.004 230.283 311.48 228.069 313.878 228.069C316.461 228.069 317.937 230.652 320.336 240.062Z" fill="#2B59C9"/>
<path d="M298.568 278.81C290.081 281.762 282.147 289.142 278.088 297.26C274.583 304.825 274.583 309.253 278.088 309.253C279.564 309.253 281.225 311.836 281.963 315.71C282.516 319.216 283.808 322.168 284.73 322.168C287.498 322.168 286.575 307.961 283.623 305.563C282.147 304.271 280.856 302.611 280.856 301.688C280.856 298.552 293.033 286.375 298.752 284.161C313.512 277.888 334.177 283.607 342.664 295.969C346.723 301.873 346.907 302.98 344.509 305.563C341.372 309.068 340.634 322.168 343.586 322.168C344.693 322.168 345.431 319.769 345.431 316.817C345.431 313.496 346.907 310.544 349.306 308.884C352.996 306.485 352.996 305.932 350.597 300.028C349.121 296.522 344.509 290.434 340.265 286.744C328.826 276.412 313.512 273.46 298.568 278.81Z" fill="#2B59C9"/>
<path d="M126.612 421.141C124.768 421.023 123.132 420.457 121.704 419.446C120.336 418.435 118.879 417.394 117.332 416.323C116.321 415.312 115.518 414.241 114.923 413.111C114.328 411.921 113.852 410.375 113.495 408.471C113.257 407.341 113.257 405.913 113.495 404.188C113.733 402.463 114.12 400.738 114.655 399.013C115.19 397.228 115.696 395.801 116.172 394.73C116.886 393.064 117.778 391.28 118.849 389.376C119.979 387.413 121.079 385.569 122.15 383.844C123.28 382.059 124.173 380.632 124.827 379.561C125.243 379.145 125.422 378.936 125.362 378.936C125.362 378.877 125.362 378.847 125.362 378.847C125.362 378.55 125.66 377.806 126.255 376.617C126.909 375.367 127.474 374.267 127.95 373.315C128.842 372.363 129.348 371.59 129.467 370.995C129.586 370.4 129.497 369.924 129.199 369.568C129.08 369.33 129.288 368.913 129.824 368.318C130.359 367.723 131.162 367.039 132.233 366.266C133.304 365.493 134.523 364.719 135.891 363.946C137.319 362.816 138.687 362.221 139.996 362.162C141.364 362.043 142.167 362.31 142.405 362.965C142.405 363.143 142.732 363.203 143.387 363.143C144.1 363.024 144.903 362.875 145.796 362.697C146.747 362.459 147.58 362.281 148.294 362.162C148.592 361.805 149.276 361.537 150.346 361.359C151.477 361.121 152.785 360.912 154.272 360.734C155.046 360.793 155.789 360.823 156.503 360.823C157.276 360.764 157.901 360.704 158.377 360.645C158.912 360.585 159.18 360.555 159.18 360.555C159.596 360.437 160.072 360.496 160.608 360.734C161.202 360.972 161.738 361.626 162.214 362.697C162.63 363.768 162.481 364.571 161.768 365.106C161.113 365.641 159.567 366.058 157.128 366.355C155.343 366.593 153.797 366.801 152.488 366.98C151.179 367.099 149.811 367.277 148.383 367.515C146.956 367.694 145.201 368.021 143.119 368.497C141.632 368.794 140.412 369.151 139.461 369.568C138.509 369.924 137.676 370.49 136.962 371.263C136.248 371.977 135.445 373.018 134.553 374.386C134.137 374.683 133.601 375.457 132.947 376.706C132.292 377.955 131.638 379.204 130.984 380.453C129.318 382.773 127.861 384.796 126.612 386.521C125.422 388.186 124.946 389.168 125.184 389.465C125.184 389.465 125.511 389.555 126.165 389.733C126.82 389.912 127.266 390.001 127.504 390.001C128.099 389.703 128.813 389.495 129.645 389.376C130.538 389.257 131.251 389.138 131.787 389.019C135.475 388.068 138.36 387.324 140.442 386.789C142.583 386.253 144.19 385.867 145.26 385.629C146.391 385.331 147.253 385.153 147.848 385.093C148.681 384.439 149.484 384.32 150.257 384.736C151.09 385.153 151.744 385.807 152.22 386.699C152.518 387.354 152.518 387.919 152.22 388.395C151.982 388.871 151.239 389.346 149.989 389.822C148.8 390.298 147.015 390.863 144.636 391.518C142.256 392.172 139.133 393.035 135.267 394.105C131.995 395.057 129.199 395.622 126.879 395.801C124.559 395.979 123.459 395.473 123.578 394.284C123.161 394.046 122.686 394.343 122.15 395.176C121.674 395.949 121.198 397.02 120.723 398.388C120.247 399.756 119.83 401.214 119.473 402.76C119.176 404.307 118.968 405.764 118.849 407.133C118.789 408.441 118.879 409.423 119.116 410.077C119.592 411.445 120.217 412.546 120.99 413.379C121.764 414.152 123.161 414.836 125.184 415.431C126.374 415.49 127.534 415.58 128.664 415.699C129.794 415.818 131.073 415.58 132.501 414.985C136.01 414.39 138.776 413.765 140.799 413.111C142.821 412.457 143.981 412.01 144.279 411.773C144.755 411.535 145.052 411.416 145.171 411.416C145.35 411.356 145.588 411.326 145.885 411.326C145.706 411.624 145.766 411.654 146.063 411.416C146.42 411.118 146.896 410.672 147.491 410.077C148.145 409.482 149.008 408.917 150.079 408.382C151.149 407.846 152.101 407.43 152.934 407.133C153.826 406.835 154.302 406.835 154.362 407.133C154.719 407.727 154.659 408.56 154.183 409.631C153.707 410.642 152.845 411.773 151.596 413.022C150.346 414.211 148.74 415.371 146.777 416.502C143.624 418.167 140.204 419.327 136.516 419.982C132.828 420.695 129.526 421.082 126.612 421.141ZM162.776 415.788C162.538 415.312 162.24 414.955 161.883 414.717C161.526 414.42 161.348 414.152 161.348 413.914C161.348 413.676 161.318 413.438 161.259 413.2C161.259 412.903 161.14 412.635 160.902 412.397C160.604 412.04 160.634 411.237 160.991 409.988C161.348 408.679 161.943 407.103 162.776 405.259C163.608 403.355 164.59 401.363 165.72 399.281C166.196 398.805 166.672 398.18 167.148 397.407C167.624 396.633 167.981 396.128 168.218 395.89C168.218 395.652 168.308 395.444 168.486 395.265C168.665 395.027 168.873 394.908 169.111 394.908V394.373C169.111 394.076 169.378 393.57 169.914 392.856C170.509 392.142 171.223 391.369 172.055 390.536C172.888 389.644 173.751 388.811 174.643 388.038C175.535 387.205 176.279 386.61 176.874 386.253C178.123 385.42 179.402 384.915 180.71 384.736C182.079 384.558 183.239 384.855 184.19 385.629C184.369 385.807 184.666 386.105 185.083 386.521C185.499 386.937 185.975 387.413 186.51 387.949C187.105 388.424 187.7 388.93 188.295 389.465L191.596 392.41L189.99 396.871C189.217 399.251 189.009 401.333 189.366 403.117C189.782 404.902 190.377 406.449 191.15 407.757C191.448 408.412 192.042 409.036 192.935 409.631C193.886 410.226 194.779 410.583 195.612 410.702C196.087 410.761 196.534 410.94 196.95 411.237C197.366 411.535 197.575 412.01 197.575 412.665C197.575 413.26 197.456 413.736 197.218 414.092C196.98 414.449 196.563 414.687 195.968 414.806C194.005 415.044 192.161 414.568 190.436 413.379C188.771 412.189 187.224 410.226 185.796 407.49C185.559 407.133 185.231 406.478 184.815 405.527C184.458 404.515 184.25 403.861 184.19 403.564C183.952 403.861 183.506 404.426 182.852 405.259C182.198 406.032 181.692 406.597 181.335 406.954C177.112 411.237 173.453 414.122 170.36 415.609C167.326 417.037 164.798 417.096 162.776 415.788ZM165.988 410.791C165.988 411.207 166.612 411.207 167.862 410.791C169.17 410.315 170.568 409.482 172.055 408.293C174.078 406.568 176.1 404.664 178.123 402.582C180.205 400.5 181.87 398.567 183.12 396.782L185.083 393.57C184.488 392.202 183.833 391.28 183.12 390.804C182.465 390.268 181.9 390.001 181.424 390.001C180.651 390.001 179.491 390.715 177.944 392.142C176.457 393.57 174.851 395.473 173.126 397.853C171.401 400.232 169.765 402.85 168.218 405.705C167.624 406.895 167.088 408.055 166.612 409.185C166.196 410.256 165.988 410.791 165.988 410.791ZM206.544 419.357C205.414 418.881 204.343 418.256 203.332 417.483C202.321 416.65 201.666 415.966 201.369 415.431C201.369 414.895 201.458 414.539 201.637 414.36C201.815 414.122 202.321 414.033 203.153 414.092C204.046 414.092 205.473 414.211 207.436 414.449C208.15 414.449 209.043 414.39 210.113 414.271C211.184 414.152 212.166 413.973 213.058 413.736C214.01 413.498 214.545 413.2 214.664 412.843C214.961 412.843 215.021 412.754 214.842 412.576C214.664 412.338 214.456 412.1 214.218 411.862C213.98 411.862 213.712 411.773 213.415 411.594C213.117 411.356 212.85 411.237 212.612 411.237C212.612 410.94 212.314 410.613 211.719 410.256C211.184 409.839 210.619 409.512 210.024 409.274C208.715 408.203 207.585 407.252 206.633 406.419C205.682 405.527 205.325 404.932 205.563 404.634C205.563 404.396 205.563 404.277 205.563 404.277C205.563 404.218 205.563 404.188 205.563 404.188C205.146 404.188 204.67 403.593 204.135 402.404C203.659 401.214 203.421 400.143 203.421 399.191C203.421 398.477 203.629 397.585 204.046 396.514C204.462 395.384 205.027 394.224 205.741 393.035C206.455 391.845 207.198 390.863 207.972 390.09C209.043 389.079 210.381 388.008 211.987 386.878C213.593 385.688 215.17 384.647 216.716 383.755C218.322 382.803 219.661 382.178 220.731 381.881C221.802 381.465 222.784 381.256 223.676 381.256C224.628 381.256 225.461 381.465 226.174 381.881C226.769 382.178 227.305 382.625 227.78 383.219C228.316 383.755 228.762 384.32 229.119 384.915C229.535 385.45 229.803 385.926 229.922 386.342C229.922 387.056 229.862 387.859 229.743 388.752C229.625 389.584 229.446 390.328 229.208 390.982C229.03 391.637 228.732 391.964 228.316 391.964C228.316 391.964 228.227 391.994 228.048 392.053C227.929 392.053 227.87 392.202 227.87 392.499C227.87 393.094 227.424 393.778 226.531 394.551C225.401 395.325 224.42 395.801 223.587 395.979C222.754 396.098 222.248 395.771 222.07 394.998C221.891 394.76 221.772 394.551 221.713 394.373C221.653 394.195 221.505 394.105 221.267 394.105C221.267 394.105 221.178 394.016 220.999 393.838C220.821 393.659 220.731 393.362 220.731 392.945C220.731 392.707 220.821 392.499 220.999 392.321C221.178 392.083 221.267 391.964 221.267 391.964C221.564 391.964 221.951 391.637 222.427 390.982C222.903 390.268 223.319 389.525 223.676 388.752C224.092 387.919 224.301 387.354 224.301 387.056C224.301 386.699 224.241 386.491 224.122 386.432C224.063 386.372 223.795 386.342 223.319 386.342C222.486 386.699 221.475 387.175 220.285 387.77C219.096 388.365 217.965 388.96 216.895 389.555C215.883 390.09 215.14 390.596 214.664 391.072C214.426 391.488 214.277 391.756 214.218 391.875C214.158 391.934 214.01 391.964 213.772 391.964C213.772 391.726 213.563 391.845 213.147 392.321C212.79 392.737 212.314 393.332 211.719 394.105C211.184 394.879 210.649 395.652 210.113 396.425C209.637 397.139 209.28 397.674 209.043 398.031C208.924 398.15 208.775 398.507 208.596 399.102C208.477 399.637 208.418 400.143 208.418 400.619C208.18 401.333 208.21 401.838 208.507 402.136C208.805 402.374 209.459 402.909 210.47 403.742C212.552 405.289 214.188 406.568 215.378 407.579C216.567 408.59 217.46 409.423 218.055 410.077C218.649 410.732 219.006 411.326 219.125 411.862C220.196 413.646 220.523 415.014 220.107 415.966C219.69 416.918 218.679 417.751 217.073 418.465C216.478 418.762 215.497 419 214.129 419.178C212.76 419.357 211.362 419.446 209.935 419.446C208.507 419.506 207.377 419.476 206.544 419.357ZM230.084 440.504C228.776 440.742 227.883 440.772 227.408 440.593C226.932 440.415 226.277 440.117 225.444 439.701C224.79 439.225 224.285 438.868 223.928 438.63C223.571 438.392 223.392 438.154 223.392 437.916C223.392 437.738 223.452 437.53 223.571 437.292C223.69 437.113 223.898 436.935 224.195 436.756C224.552 436.637 225.028 436.578 225.623 436.578C226.039 436.816 226.723 436.935 227.675 436.935C228.686 436.935 229.311 436.816 229.549 436.578C229.549 436.578 229.817 436.4 230.352 436.043C230.947 435.745 231.72 435.507 232.672 435.329C234.516 434.436 236.152 433.306 237.58 431.938C239.007 430.57 240.375 428.785 241.684 426.584C242.219 425.752 242.785 424.77 243.379 423.64C243.974 422.569 244.391 421.498 244.629 420.428C245.104 419.238 245.64 417.632 246.235 415.609C246.889 413.587 247.454 411.594 247.93 409.631C248.406 407.609 248.674 406.092 248.733 405.08C249.09 401.749 249.655 398.686 250.428 395.89C251.261 393.035 251.975 389.852 252.57 386.342C252.927 385.51 253.194 385.034 253.373 384.915C253.551 384.736 253.938 384.647 254.533 384.647C255.187 384.647 255.663 384.707 255.961 384.826C256.317 384.885 256.704 385.242 257.121 385.896C257.715 387.027 257.924 388.365 257.745 389.912C257.626 391.399 257.18 392.707 256.407 393.838C255.812 394.67 255.276 395.979 254.801 397.764C254.384 399.489 253.968 401.66 253.551 404.277C253.254 405.586 252.927 407.133 252.57 408.917C252.272 410.642 251.945 412.576 251.588 414.717C251.35 415.312 251.023 416.234 250.607 417.483C250.19 418.673 249.923 419.625 249.804 420.338C249.744 420.576 249.566 421.052 249.268 421.766C248.971 422.48 248.674 423.164 248.376 423.818C248.079 424.532 247.871 425.008 247.752 425.246C245.432 430.064 242.785 433.752 239.81 436.31C236.836 438.868 233.594 440.266 230.084 440.504ZM236.866 414.628C236.211 414.628 235.527 414.271 234.813 413.557C234.159 412.843 233.713 412.278 233.475 411.862C233.237 411.267 232.94 410.702 232.583 410.166C232.226 409.631 231.958 408.977 231.78 408.203C231.661 407.43 231.72 406.478 231.958 405.348C232.196 404.575 232.523 403.474 232.94 402.047C233.416 400.559 233.921 398.953 234.457 397.228C235.051 395.503 235.646 393.808 236.241 392.142C236.895 390.417 237.49 388.9 238.026 387.592C238.561 386.223 239.037 385.242 239.453 384.647C239.81 384.171 240.197 383.874 240.613 383.755C241.089 383.636 241.565 383.695 242.041 383.933C242.517 384.112 242.933 384.498 243.29 385.093C243.944 385.926 244.212 386.64 244.093 387.235C243.974 387.83 243.439 388.99 242.487 390.715C242.249 391.369 241.952 392.083 241.595 392.856C241.238 393.57 241.059 394.046 241.059 394.284C241 394.403 240.881 394.819 240.703 395.533C240.584 396.187 240.435 396.812 240.256 397.407C240.078 398.002 239.899 398.299 239.721 398.299C239.483 398.537 239.215 399.221 238.918 400.351C238.621 401.422 238.353 402.641 238.115 404.01C237.877 405.318 237.728 406.478 237.669 407.49C237.609 408.441 237.699 408.917 237.936 408.917C239.781 408.917 241.684 408.203 243.647 406.776C245.67 405.348 247.692 403.266 249.715 400.53L251.231 406.865C250.399 407.281 249.625 407.727 248.912 408.203C248.198 408.62 247.543 409.125 246.949 409.72C246.77 409.958 246.354 410.285 245.699 410.702C245.045 411.118 244.391 411.505 243.736 411.862C243.141 412.159 242.755 412.308 242.576 412.308C242.576 412.308 242.487 412.338 242.309 412.397C242.19 412.397 242.13 412.516 242.13 412.754C242.13 412.873 241.744 413.111 240.97 413.468C240.197 413.765 239.394 414.033 238.561 414.271C237.728 414.509 237.163 414.628 236.866 414.628Z" fill="#2B59C9"/>
<path d="M278.349 414.5V362.031H313.6V367.894H284.806V387.561H309.964V393.498H284.806V414.5H278.349ZM321.291 414.5V375.39H327.377L327.674 381.475C328.663 379.941 329.801 378.704 331.087 377.764C332.423 376.824 333.883 376.132 335.466 375.686C337.099 375.192 338.855 374.944 340.735 374.944C341.081 374.944 341.403 374.944 341.7 374.944C342.046 374.944 342.393 374.944 342.739 374.944V380.881H340.438C337.371 380.881 334.872 381.549 332.943 382.885C331.063 384.171 329.702 385.928 328.861 388.154C328.02 390.331 327.599 392.756 327.599 395.427V414.5H321.291ZM365.172 414.945C361.016 414.945 357.578 414.104 354.857 412.422C352.135 410.69 350.107 408.316 348.771 405.298C347.435 402.28 346.767 398.841 346.767 394.982C346.767 391.073 347.46 387.635 348.845 384.666C350.28 381.648 352.358 379.273 355.079 377.542C357.8 375.81 361.14 374.944 365.098 374.944C368.165 374.944 370.788 375.538 372.965 376.725C375.191 377.863 377.022 379.397 378.456 381.327C379.891 383.256 380.93 385.384 381.573 387.709C382.217 389.985 382.489 392.285 382.39 394.611C382.34 395.056 382.291 395.501 382.241 395.947C382.241 396.392 382.217 396.837 382.167 397.283H353.15C353.348 399.558 353.917 401.612 354.857 403.442C355.797 405.273 357.132 406.732 358.864 407.821C360.596 408.86 362.748 409.379 365.321 409.379C366.607 409.379 367.893 409.231 369.18 408.934C370.516 408.588 371.703 408.019 372.742 407.227C373.83 406.435 374.597 405.372 375.043 404.036H381.499C380.905 406.559 379.792 408.637 378.16 410.27C376.527 411.853 374.573 413.04 372.297 413.832C370.021 414.574 367.646 414.945 365.172 414.945ZM353.298 391.791H375.933C375.884 389.564 375.389 387.61 374.449 385.928C373.509 384.246 372.222 382.935 370.59 381.995C369.007 381.055 367.102 380.585 364.875 380.585C362.451 380.585 360.398 381.104 358.716 382.143C357.083 383.182 355.821 384.543 354.931 386.225C354.04 387.907 353.496 389.762 353.298 391.791ZM390.794 414.5V375.39H396.879L397.176 381.327C398.067 379.892 399.205 378.704 400.59 377.764C401.975 376.824 403.484 376.132 405.117 375.686C406.799 375.192 408.432 374.944 410.015 374.944C413.825 374.944 416.793 375.736 418.921 377.319C421.098 378.902 422.631 381.055 423.522 383.776C424.462 386.447 424.932 389.49 424.932 392.904V414.5H418.624V394.611C418.624 392.78 418.5 391.024 418.253 389.342C418.055 387.66 417.61 386.151 416.917 384.815C416.274 383.479 415.334 382.44 414.097 381.698C412.86 380.906 411.202 380.51 409.124 380.51C406.552 380.51 404.35 381.228 402.519 382.662C400.738 384.097 399.378 386.027 398.438 388.451C397.547 390.875 397.102 393.597 397.102 396.615V414.5H390.794ZM451.338 414.945C447.232 414.945 443.818 414.104 441.097 412.422C438.425 410.69 436.422 408.316 435.086 405.298C433.799 402.28 433.156 398.866 433.156 395.056C433.156 391.345 433.824 387.981 435.16 384.963C436.545 381.896 438.623 379.471 441.394 377.69C444.214 375.86 447.776 374.944 452.081 374.944C454.752 374.944 457.127 375.39 459.205 376.28C461.333 377.171 463.089 378.482 464.474 380.213C465.86 381.896 466.824 384.023 467.369 386.596H460.912C460.17 384.419 458.982 382.885 457.35 381.995C455.767 381.055 453.886 380.585 451.71 380.585C448.741 380.585 446.366 381.277 444.585 382.662C442.804 384.048 441.493 385.854 440.652 388.08C439.86 390.257 439.464 392.582 439.464 395.056C439.464 397.629 439.885 400.004 440.726 402.181C441.567 404.358 442.878 406.114 444.659 407.45C446.44 408.736 448.741 409.379 451.561 409.379C453.639 409.379 455.593 408.934 457.424 408.043C459.304 407.153 460.541 405.57 461.135 403.294H467.665C467.171 405.965 466.107 408.167 464.474 409.899C462.891 411.63 460.937 412.917 458.611 413.758C456.336 414.549 453.911 414.945 451.338 414.945ZM475.661 414.5V362.031H481.969V381.401C482.909 380.016 484.047 378.853 485.383 377.913C486.768 376.923 488.277 376.181 489.91 375.686C491.542 375.192 493.225 374.944 494.956 374.944C498.766 374.944 501.734 375.736 503.862 377.319C506.039 378.902 507.572 381.055 508.463 383.776C509.354 386.447 509.799 389.515 509.799 392.978V414.5H503.491V394.908C503.491 393.176 503.367 391.469 503.12 389.787C502.922 388.055 502.501 386.497 501.858 385.112C501.215 383.726 500.225 382.613 498.89 381.772C497.603 380.931 495.847 380.51 493.62 380.51C491.493 380.51 489.662 380.98 488.129 381.92C486.644 382.86 485.457 384.122 484.566 385.705C483.676 387.239 483.008 388.946 482.563 390.826C482.167 392.657 481.969 394.462 481.969 396.244V414.5H475.661Z" fill="#2B59C9"/>
<path d="M66.4726 401.475C67.1336 403.749 67.2176 405.829 66.7247 407.714C66.2258 409.579 65.2452 411.188 63.7829 412.54C62.3145 413.872 60.4849 414.856 58.2941 415.493C56.0616 416.142 53.976 416.284 52.0373 415.92C50.0778 415.562 48.3847 414.719 46.958 413.391C45.5104 412.069 44.4562 410.272 43.7952 407.997C43.1343 405.723 43.0533 403.654 43.5522 401.789C44.0451 399.903 45.0227 398.284 46.485 396.932C47.9264 395.585 49.753 394.59 51.9646 393.948C54.1554 393.311 56.2306 393.172 58.1901 393.53C60.1436 393.867 61.8471 394.707 63.3008 396.05C64.7483 397.371 65.8056 399.18 66.4726 401.475ZM62.8239 402.467C62.3631 400.881 61.622 399.694 60.6007 398.905C59.5793 398.115 58.4178 397.661 57.1159 397.542C55.808 397.401 54.4968 397.522 53.1824 397.904C52.1809 398.195 51.2605 398.61 50.4213 399.148C49.576 399.665 48.8701 400.311 48.3035 401.087C47.7309 401.842 47.3603 402.707 47.1916 403.684C47.002 404.667 47.0801 405.753 47.4257 406.942C47.8805 408.507 48.6216 409.695 49.649 410.505C50.6703 411.294 51.8349 411.759 53.1428 411.899C54.4507 412.039 55.7828 411.913 57.139 411.518C58.4743 411.13 59.6565 410.527 60.6854 409.707C61.7144 408.888 62.4485 407.871 62.8877 406.657C63.3 405.429 63.2787 404.032 62.8239 402.467Z" fill="#2B59C9"/>
<path d="M58.375 376.412L35.6116 379.989L34.9793 375.964L44.7028 374.436L43.0333 363.811L33.3098 365.339L32.6824 361.347L55.4458 357.77L56.0731 361.762L46.7038 363.235L48.3732 373.86L57.7426 372.387L58.375 376.412Z" fill="#2B59C9"/>
<path d="M52.9328 345.739L49.0238 345.866C49.0013 345.171 48.853 344.621 48.579 344.217C48.2826 343.792 47.8917 343.467 47.4061 343.244C46.8982 343 46.3384 342.833 45.7268 342.744C45.0711 342.635 44.4059 342.57 43.7313 342.548C43.0343 342.505 42.3488 342.484 41.6749 342.484C41.0002 342.463 40.3915 342.461 39.8486 342.478L29.6158 342.68L29.0969 326.686L52.1275 325.938L52.2585 329.978L32.9415 330.604L33.2036 338.683L39.2993 338.616C40.9288 338.585 42.4829 338.578 43.9618 338.595C45.4182 338.591 46.737 338.7 47.9182 338.923C49.0993 339.146 50.0924 339.603 50.8975 340.294C51.568 340.859 52.0585 341.571 52.369 342.431C52.657 343.269 52.845 344.372 52.9328 345.739Z" fill="#2B59C9"/>
<path d="M50.8866 313.608L28.7335 302.736L29.171 297.899L52.9128 291.211L52.5164 295.593L48.1262 296.734L47.1689 307.316L51.2801 309.259L50.8866 313.608ZM43.6184 305.686L44.3378 297.733L33.0407 300.704L43.6184 305.686Z" fill="#2B59C9"/>
<path d="M53.307 278.552L30.8528 273.377L31.7677 269.407L47.6793 273.074L34.3438 258.228L35.1635 254.671L57.6176 259.845L56.7028 263.815L40.9817 260.192L54.1194 275.026L53.307 278.552ZM31.4947 263.625C31.2117 264.853 30.7772 265.868 30.1911 266.669C29.6051 267.471 28.8724 268.038 27.9931 268.37C27.0974 268.677 26.0837 268.722 24.9517 268.506L25.7275 265.139C26.4571 265.263 27.0792 265.127 27.5937 264.733C28.0919 264.313 28.4313 263.711 28.6118 262.927C28.7924 262.144 28.7482 261.465 28.4793 260.89C28.1892 260.31 27.6867 259.927 26.9716 259.74L27.7547 256.342C28.8672 256.643 29.7565 257.137 30.4228 257.826C31.0728 258.489 31.4835 259.319 31.6548 260.318C31.831 261.295 31.7776 262.397 31.4947 263.625Z" fill="#2B59C9"/>
<path d="M60.9542 243.219L39.3343 235.247L40.7437 231.425L49.9788 234.83L53.6995 224.738L44.4644 221.333L45.8625 217.541L67.4824 225.513L66.0843 229.305L57.1856 226.024L53.4649 236.115L62.3636 239.396L60.9542 243.219Z" fill="#2B59C9"/>
<path d="M64.8397 209.76L61.639 208.145L66.4845 198.543L69.6852 200.158L64.8397 209.76Z" fill="#2B59C9"/>
<path d="M83.5902 185.425L65.0391 171.757L67.4556 168.477L83.0155 179.941L87.3847 174.011L71.8248 162.547L74.2414 159.267L89.8012 170.731L94.1704 164.801L78.6105 153.337L81.0271 150.057L99.5782 163.725L83.5902 185.425Z" fill="#2B59C9"/>
<path d="M111.422 146.915L94.8711 130.883L97.7058 127.956L104.822 134.85L107.135 132.463L104.532 120.91L107.752 117.586L110.5 130.957L124.325 133.595L121.014 137.013L109.94 134.907L107.491 137.435L114.256 143.989L111.422 146.915Z" fill="#2B59C9"/>
<path d="M141.517 116.917C139.654 118.38 137.757 119.236 135.824 119.483C133.908 119.717 132.049 119.409 130.248 118.559C128.464 117.694 126.867 116.365 125.457 114.571C124.021 112.743 123.11 110.862 122.723 108.928C122.323 106.976 122.472 105.091 123.17 103.271C123.855 101.435 125.128 99.7847 126.99 98.3216C128.853 96.8584 130.742 96.0098 132.658 95.7755C134.591 95.5279 136.458 95.8294 138.259 96.6801C140.047 97.5137 141.653 98.8361 143.075 100.647C144.485 102.441 145.39 104.314 145.79 106.265C146.207 108.203 146.065 110.097 145.363 111.947C144.678 113.784 143.396 115.441 141.517 116.917ZM139.232 113.904C140.531 112.884 141.355 111.752 141.706 110.51C142.056 109.268 142.043 108.021 141.667 106.768C141.309 105.503 140.707 104.332 139.861 103.256C139.217 102.435 138.488 101.737 137.675 101.159C136.88 100.569 136.016 100.156 135.085 99.92C134.171 99.671 133.23 99.6509 132.261 99.8595C131.278 100.051 130.3 100.529 129.326 101.294C128.045 102.301 127.22 103.432 126.853 104.688C126.503 105.931 126.507 107.184 126.865 108.45C127.224 109.716 127.84 110.904 128.712 112.014C129.571 113.108 130.573 113.978 131.718 114.627C132.863 115.275 134.08 115.576 135.37 115.529C136.664 115.452 137.951 114.911 139.232 113.904Z" fill="#2B59C9"/>
<path d="M159.764 101.366L157.753 98.0115C158.35 97.654 158.758 97.2573 158.978 96.8214C159.205 96.3556 159.299 95.8564 159.258 95.3235C159.225 94.7608 159.098 94.1906 158.878 93.6129C158.655 92.9868 158.389 92.3738 158.08 91.7737C157.778 91.1438 157.464 90.5345 157.136 89.9456C156.827 89.3455 156.533 88.8125 156.253 88.3467L151.103 79.5021L164.828 71.2739L176.676 91.0372L173.21 93.1152L163.273 76.5386L156.34 80.6947L159.362 85.989C160.181 87.3979 160.943 88.7527 161.647 90.0535C162.358 91.3244 162.903 92.5301 163.283 93.6705C163.663 94.8109 163.746 95.9009 163.533 96.9404C163.365 97.8012 162.981 98.5761 162.381 99.2652C161.788 99.9246 160.916 100.625 159.764 101.366Z" fill="#2B59C9"/>
<path d="M186.806 83.9053L185.571 59.2588L190.013 57.2958L207.376 74.8149L203.351 76.5935L200.224 73.3074L190.506 77.6023L190.801 82.1399L186.806 83.9053ZM190.21 73.7067L197.513 70.479L189.437 62.0401L190.21 73.7067Z" fill="#2B59C9"/>
<path d="M243.413 61.4095L242.702 57.796L241.039 58.1234C239.223 58.4589 237.584 58.405 236.124 57.9617C234.664 57.5185 233.454 56.7159 232.494 55.554C231.53 54.3707 230.872 52.8837 230.52 51.093C230.172 49.2127 230.255 47.5575 230.771 46.1272C231.287 44.697 232.162 43.5171 233.396 42.5876C234.63 41.658 236.121 41.0212 237.869 40.6769L239.276 40.3999L238.659 37.266L242.657 36.479L243.274 39.6128L244.553 39.3609C246.301 39.0167 247.933 39.0386 249.449 39.4267C250.965 39.8147 252.243 40.5706 253.284 41.6944C254.32 42.7969 255.031 44.2734 255.418 46.1239C255.8 47.9532 255.759 49.6 255.295 51.0645C254.826 52.5077 253.989 53.7132 252.785 54.6812C251.601 55.645 250.085 56.3201 248.234 56.7067L246.699 57.0089L247.411 60.6224L243.413 61.4095ZM240.749 54.6262L242.028 54.3743L239.95 43.8215L238.735 44.0608C237.605 44.2833 236.69 44.696 235.989 45.2991C235.289 45.9021 234.801 46.6293 234.525 47.4807C234.271 48.3279 234.241 49.2419 234.434 50.2226C234.64 51.2672 235.006 52.1695 235.532 52.9296C236.079 53.6855 236.783 54.2223 237.643 54.5402C238.52 54.8326 239.555 54.8613 240.749 54.6262ZM246.025 53.5872L247.272 53.3417C248.488 53.1024 249.435 52.6834 250.114 52.0845C250.811 51.4602 251.258 50.6967 251.457 49.7939C251.677 48.8869 251.684 47.9111 251.478 46.8664C251.281 45.8645 250.894 45.0217 250.316 44.3382C249.76 43.6505 249.035 43.1732 248.141 42.9063C247.264 42.614 246.261 42.579 245.131 42.8015L243.947 43.0345L246.025 53.5872Z" fill="#2B59C9"/>
<path d="M278.166 53.4274L277.065 30.4111L285.724 29.9966C287.46 29.9135 288.971 30.1131 290.256 30.5954C291.561 31.055 292.589 31.8433 293.338 32.9603C294.109 34.0763 294.54 35.5676 294.629 37.434C294.714 39.2137 294.395 40.7191 293.671 41.9501C292.946 43.1812 291.926 44.1328 290.61 44.8049C289.292 45.4553 287.765 45.8221 286.029 45.9052L281.894 46.1031L282.236 53.2326L278.166 53.4274ZM281.72 42.4569L285.789 42.2621C287.287 42.1905 288.474 41.7747 289.351 41.0149C290.229 40.255 290.63 39.1046 290.557 37.5637C290.492 36.2181 290.064 35.2271 289.272 34.5906C288.479 33.9325 287.291 33.6414 285.707 33.7172L281.312 33.9276L281.72 42.4569Z" fill="#2B59C9"/>
<path d="M311.939 50.9122L322.558 28.6361L327.399 29.0182L334.358 52.6819L329.972 52.3356L328.781 47.9588L318.189 47.1226L316.293 51.2559L311.939 50.9122ZM319.778 43.5537L327.739 44.1821L324.639 32.9197L319.778 43.5537Z" fill="#2B59C9"/>
<path d="M347.089 53.0744L351.756 30.5092L355.745 31.3342L353.752 40.9731L364.285 43.1511L366.278 33.5123L370.236 34.3307L365.569 56.8959L361.612 56.0775L363.532 46.7897L353 44.6116L351.079 53.8994L347.089 53.0744Z" fill="#2B59C9"/>
<path d="M392.67 69.9512L394.661 64.2944L378.705 58.6785L386.355 36.9429L390.198 38.2955L383.782 56.5263L393.281 59.8699L399.698 41.639L403.541 42.9916L397.124 61.2225L399.707 62.1314L396.482 71.293L392.67 69.9512Z" fill="#2B59C9"/>
<path d="M413.678 70.4947L415.413 67.0258C416.268 67.4534 417.002 67.7595 417.614 67.9441C418.255 68.1191 418.872 68.1482 419.465 68.0316C420.077 67.9248 420.748 67.6284 421.476 67.1426L420.967 48.34L425.223 50.4682L425.208 64.5628L435.367 55.5409L439.274 57.4941L429.551 65.7145C428.91 66.2683 428.191 66.8805 427.394 67.5509C426.607 68.2019 425.781 68.8335 424.916 69.4457C424.071 70.0675 423.216 70.6117 422.351 71.0781C421.515 71.5347 420.713 71.8262 419.946 71.9525C418.993 72.108 418.012 72.0545 417.001 71.7921C416.01 71.5394 414.903 71.1069 413.678 70.4947Z" fill="#2B59C9"/>
<path d="M448.951 88.7894C447.939 88.1147 447.044 87.3616 446.266 86.5302C445.506 85.7109 444.913 84.8191 444.485 83.855C444.074 82.903 443.89 81.9057 443.932 80.8631C443.992 79.8326 444.345 78.7749 444.989 77.69L448.271 79.8767C448.006 80.4312 447.895 80.9705 447.937 81.4948C447.997 82.0311 448.163 82.5463 448.435 83.0404C448.724 83.5465 449.101 84.0195 449.565 84.4593C450.029 84.8991 450.523 85.2937 451.048 85.6431C451.482 85.9322 451.952 86.2063 452.458 86.4653C452.994 86.7182 453.537 86.8838 454.085 86.962C454.652 87.0522 455.182 87.0009 455.676 86.8079C456.2 86.6089 456.661 86.211 457.059 85.6143C457.42 85.0718 457.607 84.5565 457.619 84.0684C457.649 83.5923 457.543 83.1434 457.302 82.7216C457.061 82.2998 456.72 81.8901 456.28 81.4925C455.858 81.107 455.367 80.7274 454.807 80.354L452.203 78.6191L454.1 75.7712L455.945 77C456.487 77.3615 457.033 77.6596 457.581 77.8945C458.142 78.1113 458.669 78.2407 459.163 78.2827C459.675 78.3368 460.148 78.2734 460.582 78.0925C461.028 77.8935 461.408 77.559 461.721 77.0888C462.191 76.3836 462.35 75.7327 462.199 75.1362C462.079 74.5336 461.78 73.9823 461.304 73.4822C460.84 72.9641 460.328 72.5183 459.767 72.1448C459.08 71.687 458.387 71.3557 457.688 71.151C456.989 70.9463 456.332 70.9134 455.717 71.0521C455.102 71.1909 454.584 71.5376 454.163 72.0921L450.881 69.9055C451.501 69.0134 452.185 68.3594 452.932 67.9433C453.691 67.5092 454.472 67.2589 455.273 67.1924C456.087 67.1078 456.903 67.1558 457.723 67.3364C458.554 67.4989 459.35 67.7548 460.109 68.1041C460.869 68.4534 461.547 68.8268 462.144 69.2244C462.975 69.7786 463.72 70.4051 464.377 71.104C465.052 71.8149 465.567 72.5892 465.923 73.4267C466.309 74.2582 466.469 75.135 466.403 76.0571C466.337 76.9791 465.991 77.9103 465.364 78.8505C465.051 79.3207 464.665 79.7426 464.208 80.1164C463.768 80.5022 463.231 80.7976 462.599 81.0027C461.984 81.2198 461.222 81.2863 460.312 81.2022C461.174 82.2204 461.584 83.3291 461.542 84.5283C461.518 85.7396 461.139 86.8968 460.404 87.9998C459.699 89.0184 458.883 89.7538 457.955 90.2061C457.045 90.6703 456.081 90.9026 455.063 90.9029C454.056 90.8851 453.023 90.6925 451.962 90.3252C450.931 89.9519 449.928 89.4399 448.951 88.7894Z" fill="#2B59C9"/>
<path d="M477.285 108.358C475.474 106.798 474.271 105.116 473.675 103.311C473.093 101.49 473.064 99.6435 473.587 97.7713C474.11 95.8991 475.131 94.0824 476.649 92.3213C478.167 90.5601 479.828 89.2813 481.633 88.4848C483.438 87.6883 485.284 87.4435 487.171 87.7502C489.072 88.0404 490.911 88.9515 492.689 90.4834C494.006 91.6182 494.975 92.8404 495.596 94.15C496.217 95.4597 496.485 96.7955 496.402 98.1575C496.349 99.5172 495.902 100.868 495.062 102.209L492.074 99.6342C492.567 98.5962 492.666 97.5335 492.369 96.4463C492.073 95.359 491.357 94.3261 490.221 93.3473C488.987 92.2835 487.742 91.7134 486.489 91.637C485.235 91.5606 484.046 91.8261 482.92 92.4335C481.811 93.055 480.809 93.8843 479.915 94.9212C478.993 95.9911 478.301 97.144 477.838 98.3801C477.392 99.6303 477.307 100.877 477.584 102.12C477.861 103.362 478.609 104.509 479.827 105.558C480.584 106.211 481.335 106.671 482.079 106.939C482.839 107.222 483.579 107.329 484.298 107.26C485.047 107.189 485.73 106.946 486.347 106.53L489.482 109.232C488.278 110.231 486.975 110.843 485.574 111.071C484.19 111.312 482.78 111.201 481.344 110.738C479.938 110.272 478.585 109.479 477.285 108.358Z" fill="#2B59C9"/>
<path d="M494.34 121.781L511.368 106.256L514.113 109.267L506.791 115.942L509.031 118.399L520.722 116.516L523.841 119.936L510.325 121.85L506.835 135.485L503.629 131.969L506.417 121.046L504.046 118.445L497.085 124.791L494.34 121.781Z" fill="#2B59C9"/>
<path d="M522.652 153.851C521.308 151.901 520.573 149.953 520.447 148.008C520.334 146.082 520.758 144.246 521.72 142.502C522.694 140.775 524.121 139.265 525.999 137.971C527.914 136.652 529.849 135.86 531.803 135.595C533.776 135.318 535.648 135.585 537.421 136.396C539.211 137.194 540.778 138.569 542.121 140.519C543.465 142.47 544.193 144.408 544.307 146.335C544.433 148.28 544.015 150.124 543.053 151.869C542.109 153.601 540.689 155.12 538.792 156.427C536.913 157.721 534.987 158.507 533.015 158.784C531.054 159.079 529.173 158.818 527.371 158.002C525.58 157.203 524.007 155.82 522.652 153.851ZM525.802 151.76C526.739 153.12 527.816 154.014 529.034 154.441C530.252 154.869 531.498 154.934 532.771 154.638C534.056 154.359 535.263 153.831 536.39 153.055C537.249 152.463 537.992 151.78 538.619 151.005C539.258 150.248 539.725 149.412 540.018 148.498C540.324 147.601 540.403 146.663 540.256 145.682C540.126 144.69 539.71 143.684 539.008 142.664C538.083 141.322 537.006 140.428 535.776 139.983C534.558 139.555 533.306 139.481 532.02 139.76C530.735 140.038 529.511 140.578 528.347 141.379C527.202 142.168 526.27 143.113 525.552 144.215C524.833 145.317 524.457 146.513 524.422 147.803C524.418 149.099 524.878 150.418 525.802 151.76Z" fill="#2B59C9"/>
<path d="M538.221 175.315L558.577 164.517L565.877 178.28L562.595 180.021L557.204 169.857L540.13 178.914L538.221 175.315Z" fill="#2B59C9"/>
<path d="M555.594 209.337C554.77 207.116 554.536 205.048 554.89 203.132C555.253 201.236 556.114 199.56 557.474 198.105C558.842 196.67 560.596 195.556 562.735 194.762C564.914 193.953 566.984 193.66 568.944 193.882C570.924 194.098 572.674 194.816 574.193 196.036C575.733 197.249 576.915 198.966 577.739 201.187C578.563 203.407 578.794 205.465 578.432 207.361C578.077 209.277 577.219 210.963 575.859 212.418C574.519 213.866 572.769 214.99 570.61 215.792C568.471 216.586 566.411 216.875 564.431 216.66C562.458 216.465 560.698 215.751 559.151 214.517C557.612 213.304 556.426 211.577 555.594 209.337ZM559.161 208.082C559.736 209.63 560.561 210.761 561.637 211.474C562.713 212.187 563.905 212.556 565.212 212.581C566.526 212.626 567.825 212.41 569.108 211.934C570.086 211.571 570.974 211.091 571.772 210.493C572.578 209.916 573.235 209.22 573.744 208.406C574.26 207.611 574.567 206.721 574.664 205.735C574.782 204.741 574.626 203.663 574.195 202.502C573.627 200.974 572.802 199.844 571.719 199.11C570.643 198.397 569.448 198.018 568.133 197.973C566.818 197.928 565.499 198.151 564.175 198.642C562.871 199.126 561.736 199.814 560.769 200.706C559.802 201.598 559.144 202.665 558.794 203.908C558.472 205.163 558.594 206.554 559.161 208.082Z" fill="#2B59C9"/>
<path d="M569.97 248.558L579.564 252.523C579.754 250.904 580.329 249.551 581.291 248.463C582.253 247.374 583.645 246.677 585.466 246.369C586.837 246.137 588.019 246.158 589.013 246.43C590.032 246.721 590.887 247.215 591.578 247.914C592.29 248.609 592.855 249.472 593.271 250.503C593.713 251.553 594.039 252.699 594.249 253.941L595.726 262.682L573.006 266.522L572.327 262.505L580.329 261.153L579.558 256.589L570.757 253.218L569.97 248.558ZM583.152 256.147L583.896 260.55L591.384 259.284L590.542 254.303C590.379 253.339 590.111 252.536 589.738 251.894C589.365 251.252 588.88 250.794 588.283 250.52C587.689 250.268 586.964 250.214 586.107 250.359C585.079 250.533 584.328 250.913 583.854 251.5C583.402 252.083 583.134 252.779 583.05 253.586C582.969 254.415 583.003 255.269 583.152 256.147Z" fill="#2B59C9"/>
<path d="M576.323 289.516C576.269 288.301 576.348 287.134 576.56 286.015C576.773 284.918 577.142 283.913 577.667 282.998C578.193 282.105 578.889 281.367 579.755 280.785C580.622 280.225 581.684 279.885 582.94 279.764L583.113 283.704C582.51 283.818 582.008 284.046 581.61 284.39C581.213 284.756 580.895 285.194 580.657 285.705C580.419 286.237 580.26 286.82 580.179 287.455C580.098 288.089 580.072 288.721 580.1 289.35C580.123 289.871 580.179 290.412 580.269 290.974C580.382 291.556 580.568 292.092 580.829 292.581C581.091 293.091 581.445 293.489 581.893 293.773C582.363 294.079 582.956 294.216 583.673 294.184C584.324 294.156 584.85 294.002 585.251 293.723C585.653 293.467 585.953 293.116 586.151 292.673C586.349 292.229 586.478 291.712 586.539 291.122C586.601 290.554 586.617 289.933 586.588 289.26L586.45 286.135L589.869 285.984L589.966 288.198C589.995 288.85 590.077 289.466 590.211 290.047C590.367 290.627 590.574 291.129 590.832 291.553C591.091 291.998 591.421 292.343 591.823 292.586C592.247 292.828 592.741 292.937 593.306 292.912C594.152 292.875 594.772 292.619 595.164 292.145C595.579 291.692 595.848 291.126 595.97 290.446C596.114 289.766 596.172 289.089 596.142 288.416C596.106 287.591 595.964 286.836 595.716 286.151C595.468 285.466 595.107 284.916 594.632 284.502C594.157 284.088 593.571 283.875 592.875 283.862L592.702 279.922C593.788 279.896 594.719 280.062 595.496 280.419C596.295 280.775 596.958 281.257 597.485 281.865C598.033 282.471 598.477 283.159 598.815 283.927C599.175 284.694 599.439 285.487 599.605 286.306C599.772 287.125 599.871 287.893 599.902 288.609C599.946 289.608 599.88 290.579 599.704 291.522C599.529 292.486 599.209 293.359 598.743 294.141C598.3 294.944 597.686 295.59 596.903 296.082C596.12 296.573 595.164 296.843 594.036 296.893C593.471 296.918 592.903 296.856 592.331 296.707C591.76 296.58 591.205 296.321 590.666 295.932C590.128 295.564 589.624 294.988 589.154 294.204C588.842 295.501 588.189 296.487 587.196 297.161C586.205 297.857 585.047 298.235 583.723 298.293C582.485 298.326 581.409 298.101 580.496 297.619C579.584 297.159 578.827 296.518 578.226 295.696C577.646 294.874 577.191 293.926 576.861 292.853C576.554 291.801 576.374 290.689 576.323 289.516Z" fill="#2B59C9"/>
<path d="M578.902 315.174L601.817 317.6L601.388 321.651L592.572 320.718L592.191 324.316C592.077 325.396 591.869 326.434 591.567 327.429C591.263 328.445 590.819 329.338 590.235 330.106C589.672 330.877 588.923 331.453 587.987 331.835C587.07 332.24 585.92 332.37 584.537 332.223C583.133 332.075 581.981 331.702 581.083 331.104C580.205 330.53 579.519 329.78 579.027 328.854C578.555 327.952 578.258 326.938 578.137 325.81C578.016 324.683 578.019 323.515 578.147 322.305L578.902 315.174ZM582.168 319.617L581.853 322.599C581.779 323.29 581.753 323.954 581.773 324.589C581.815 325.227 581.929 325.797 582.117 326.297C582.323 326.822 582.639 327.248 583.063 327.577C583.508 327.908 584.098 328.113 584.833 328.191C585.568 328.268 586.166 328.19 586.628 327.955C587.109 327.743 587.484 327.401 587.753 326.927C588.019 326.474 588.217 325.949 588.346 325.351C588.474 324.752 588.573 324.129 588.642 323.481L588.975 320.337L582.168 319.617ZM576.851 334.556L599.765 336.982L599.34 341.001L576.425 338.575L576.851 334.556Z" fill="#2B59C9"/>
<path d="M575.445 354.241L597.86 359.583L596.915 363.546L587.277 361.249L586.506 364.483L594.641 373.089L593.567 377.591L584.381 367.495L571.145 372.28L572.249 367.652L582.847 363.812L583.663 360.388L574.5 358.204L575.445 354.241Z" fill="#2B59C9"/>
<path d="M569.035 385.04L587.479 401.436L585.765 405.98L561.099 406.082L562.652 401.965L567.188 402.039L570.937 392.097L567.494 389.127L569.035 385.04ZM573.923 394.616L571.105 402.088L582.785 402.243L573.923 394.616Z" fill="#2B59C9"/>
</svg>
