<svg width="369" height="635" viewBox="0 0 369 635" fill="none" xmlns="http://www.w3.org/2000/svg">
<mask id="path-1-inside-1_260_14955" fill="white">
<path fill-rule="evenodd" clip-rule="evenodd" d="M15 0C6.71573 0 0 6.71572 0 15V620C0 628.284 6.71574 635 15 635H354C362.284 635 369 628.284 369 620V85C369 76.7157 362.284 70 354 70H314C305.716 70 299 63.2843 299 55V15C299 6.71573 292.284 0 284 0H15Z"/>
</mask>
<path fill-rule="evenodd" clip-rule="evenodd" d="M15 0C6.71573 0 0 6.71572 0 15V620C0 628.284 6.71574 635 15 635H354C362.284 635 369 628.284 369 620V85C369 76.7157 362.284 70 354 70H314C305.716 70 299 63.2843 299 55V15C299 6.71573 292.284 0 284 0H15Z" fill="white"/>
<path d="M1 15C1 7.26801 7.26801 1 15 1V-1C6.16344 -1 -1 6.16344 -1 15H1ZM1 620V15H-1V620H1ZM15 634C7.26802 634 1 627.732 1 620H-1C-1 628.837 6.16345 636 15 636V634ZM354 634H15V636H354V634ZM368 620C368 627.732 361.732 634 354 634V636C362.837 636 370 628.837 370 620H368ZM368 85V620H370V85H368ZM354 69H314V71H354V69ZM300 55V15H298V55H300ZM15 1H284V-1H15V1ZM300 15C300 6.16344 292.837 -1 284 -1V1C291.732 1 298 7.26802 298 15H300ZM314 69C306.268 69 300 62.732 300 55H298C298 63.8366 305.163 71 314 71V69ZM370 85C370 76.1634 362.837 69 354 69V71C361.732 71 368 77.268 368 85H370Z" fill="#DADADA" mask="url(#path-1-inside-1_260_14955)"/>
</svg>
