<svg width="1140" height="480" viewBox="0 0 1140 480" fill="none" xmlns="http://www.w3.org/2000/svg">
<mask id="path-1-inside-1_191_10009" fill="white">
<path fill-rule="evenodd" clip-rule="evenodd" d="M30 0C13.4315 0 0 13.4315 0 30V450C0 466.569 13.4315 480 30 480H1110C1126.57 480 1140 466.569 1140 450V150C1140 133.431 1126.57 120 1110 120H1050C1033.43 120 1020 106.569 1020 90V30C1020 13.4315 1006.57 0 990 0H30Z"/>
</mask>
<path fill-rule="evenodd" clip-rule="evenodd" d="M30 0C13.4315 0 0 13.4315 0 30V450C0 466.569 13.4315 480 30 480H1110C1126.57 480 1140 466.569 1140 450V150C1140 133.431 1126.57 120 1110 120H1050C1033.43 120 1020 106.569 1020 90V30C1020 13.4315 1006.57 0 990 0H30Z" fill="white"/>
<path d="M1 30C1 13.9837 13.9837 1 30 1V-1C12.8792 -1 -1 12.8792 -1 30H1ZM1 450V30H-1V450H1ZM30 479C13.9838 479 1 466.016 1 450H-1C-1 467.121 12.8792 481 30 481V479ZM1110 479H30V481H1110V479ZM1139 450C1139 466.016 1126.02 479 1110 479V481C1127.12 481 1141 467.121 1141 450H1139ZM1139 150V450H1141V150H1139ZM1110 119H1050V121H1110V119ZM1021 90V30H1019V90H1021ZM30 1H990V-1H30V1ZM1021 30C1021 12.8792 1007.12 -1 990 -1V1C1006.02 1 1019 13.9837 1019 30H1021ZM1050 119C1033.98 119 1021 106.016 1021 90H1019C1019 107.121 1032.88 121 1050 121V119ZM1141 150C1141 132.879 1127.12 119 1110 119V121C1126.02 121 1139 133.984 1139 150H1141Z" fill="#DADADA" mask="url(#path-1-inside-1_191_10009)"/>
</svg>
