<svg width="32" height="32" viewBox="0 0 32 32" fill="none" xmlns="http://www.w3.org/2000/svg">
<path d="M25.1502 6H20.0752C19.5229 6 19.0752 6.44772 19.0752 7V12.0712C19.0752 12.6235 19.5229 13.0712 20.0752 13.0712H25.1502C25.7025 13.0712 26.1502 12.6235 26.1502 12.0712V7C26.1502 6.44772 25.7025 6 25.1502 6Z" stroke="white" stroke-width="2" stroke-linecap="round" stroke-linejoin="round"/>
<path d="M25.1502 19.0742H20.0752C19.5229 19.0742 19.0752 19.5219 19.0752 20.0742V25.1455C19.0752 25.6978 19.5229 26.1455 20.0752 26.1455H25.1502C25.7025 26.1455 26.1502 25.6978 26.1502 25.1455V20.0742C26.1502 19.5219 25.7025 19.0742 25.1502 19.0742Z" stroke="white" stroke-width="2" stroke-linecap="round" stroke-linejoin="round"/>
<path d="M12.075 6H7C6.44772 6 6 6.44772 6 7V12.0713C6 12.6235 6.44772 13.0713 7 13.0713H12.075C12.6273 13.0713 13.075 12.6235 13.075 12.0713V7C13.075 6.44772 12.6273 6 12.075 6Z" stroke="white" stroke-width="2" stroke-linecap="round" stroke-linejoin="round"/>
<path d="M12.075 19.0703H7C6.44772 19.0703 6 19.518 6 20.0703V25.1416C6 25.6938 6.44772 26.1416 7 26.1416H12.075C12.6273 26.1416 13.075 25.6938 13.075 25.1416V20.0703C13.075 19.518 12.6273 19.0703 12.075 19.0703Z" stroke="white" stroke-width="2" stroke-linecap="round" stroke-linejoin="round"/>
</svg>
