<svg width="32" height="33" viewBox="0 0 32 33" fill="none" xmlns="http://www.w3.org/2000/svg">
<path d="M6 5.20264L26 27.2026" stroke="white" stroke-width="2" stroke-linecap="round" stroke-linejoin="round"/>
<path d="M19.362 19.9027C18.4444 20.7433 17.2439 21.2074 15.9995 21.2027C14.9903 21.2026 14.0048 20.8971 13.1725 20.3264C12.3402 19.7557 11.7 18.9465 11.3362 18.0052C10.9724 17.0639 10.9019 16.0345 11.1341 15.0524C11.3663 14.0703 11.8902 13.1815 12.637 12.5027" stroke="white" stroke-width="2" stroke-linecap="round" stroke-linejoin="round"/>
<path d="M9.25 8.77759C4.15 11.3526 2 16.2026 2 16.2026C2 16.2026 6 25.2026 16 25.2026C18.3432 25.2217 20.6572 24.6818 22.75 23.6276" stroke="white" stroke-width="2" stroke-linecap="round" stroke-linejoin="round"/>
<path d="M26.0746 21.3402C28.7996 18.9027 29.9996 16.2027 29.9996 16.2027C29.9996 16.2027 25.9996 7.20267 15.9996 7.20267C15.1327 7.20096 14.2671 7.27204 13.4121 7.41517" stroke="white" stroke-width="2" stroke-linecap="round" stroke-linejoin="round"/>
<path d="M16.9375 11.29C18.0008 11.4915 18.9697 12.0334 19.6981 12.8338C20.4264 13.6343 20.8746 14.65 20.975 15.7275" stroke="white" stroke-width="2" stroke-linecap="round" stroke-linejoin="round"/>
</svg>
