<svg width="57" height="45" viewBox="0 0 57 45" fill="none" xmlns="http://www.w3.org/2000/svg">
<path d="M14.1453 0H25.1824L14.734 24.1344C18.8545 25.4589 21.6505 28.8436 21.6505 33.6999C21.6505 40.0278 16.9414 44.2955 10.9078 44.2955C6.34578 44.2955 0.0178614 42.088 0.0178614 33.2584C-0.1293 30.3152 0.312184 26.1947 14.1453 0ZM45.4906 24.1344C49.7583 25.4589 52.4072 28.8436 52.4072 33.6999C52.4072 40.0278 47.8452 44.2955 41.6644 44.2955C37.2496 44.2955 30.9217 42.088 30.7745 33.2584C30.7745 30.3152 31.216 26.1947 44.902 0H56.0862L45.4906 24.1344Z" fill="white"/>
</svg>
