<svg width="32" height="32" viewBox="0 0 32 32" fill="none" xmlns="http://www.w3.org/2000/svg">
<path d="M28.5125 15.1501L10.525 4.15012C10.3736 4.05672 10.2 4.0054 10.0221 4.00147C9.84424 3.99753 9.66854 4.04112 9.51314 4.12774C9.35774 4.21436 9.22826 4.34087 9.13805 4.49422C9.04785 4.64757 9.0002 4.82221 9 5.00012V27.0001C9.0002 27.178 9.04785 27.3527 9.13805 27.506C9.22826 27.6594 9.35774 27.7859 9.51314 27.8725C9.66854 27.9591 9.84424 28.0027 10.0221 27.9988C10.2 27.9948 10.3736 27.9435 10.525 27.8501L28.5125 16.8501C28.6602 16.7628 28.7826 16.6385 28.8676 16.4894C28.9526 16.3403 28.9974 16.1717 28.9974 16.0001C28.9974 15.8285 28.9526 15.6599 28.8676 15.5108C28.7826 15.3618 28.6602 15.2375 28.5125 15.1501V15.1501Z" fill="white" stroke="white" stroke-width="2" stroke-linecap="round" stroke-linejoin="round"/>
</svg>
