<svg width="32" height="32" viewBox="0 0 32 32" fill="none" xmlns="http://www.w3.org/2000/svg">
<path d="M30.6667 16C30.6667 24.1002 24.1002 30.6667 16 30.6667C7.89982 30.6667 1.33333 24.1002 1.33333 16C1.33333 7.89982 7.89982 1.33333 16 1.33333C24.1002 1.33333 30.6667 7.89982 30.6667 16Z" fill="#FF3434" stroke="#FF3434" stroke-width="2.66667" stroke-linecap="round" stroke-linejoin="round"/>
<path d="M23.5625 9.8125H8.4375" stroke="white" stroke-width="1.375" stroke-linecap="round" stroke-linejoin="round"/>
<path d="M13.9375 13.9375V19.4375" stroke="white" stroke-width="1.375" stroke-linecap="round" stroke-linejoin="round"/>
<path d="M18.0625 13.9375V19.4375" stroke="white" stroke-width="1.375" stroke-linecap="round" stroke-linejoin="round"/>
<path d="M22.1875 9.8125V22.875C22.1875 23.0573 22.1151 23.2322 21.9861 23.3611C21.8572 23.4901 21.6823 23.5625 21.5 23.5625H10.5C10.3177 23.5625 10.1428 23.4901 10.0139 23.3611C9.88493 23.2322 9.8125 23.0573 9.8125 22.875V9.8125" stroke="white" stroke-width="1.375" stroke-linecap="round" stroke-linejoin="round"/>
<path d="M19.4375 9.8125V8.4375C19.4375 8.07283 19.2926 7.72309 19.0348 7.46523C18.7769 7.20737 18.4272 7.0625 18.0625 7.0625H13.9375C13.5728 7.0625 13.2231 7.20737 12.9652 7.46523C12.7074 7.72309 12.5625 8.07283 12.5625 8.4375V9.8125" stroke="white" stroke-width="1.375" stroke-linecap="round" stroke-linejoin="round"/>
</svg>
